G04 #@! TF.GenerationSoftware,KiCad,Pcbnew,(5.1.6)-1*
G04 #@! TF.CreationDate,2020-06-03T08:45:57+03:00*
G04 #@! TF.ProjectId,TMCM-0021 v1.0,544d434d-2d30-4303-9231-2076312e302e,rev?*
G04 #@! TF.SameCoordinates,Original*
G04 #@! TF.FileFunction,Legend,Top*
G04 #@! TF.FilePolarity,Positive*
%FSLAX46Y46*%
G04 Gerber Fmt 4.6, Leading zero omitted, Abs format (unit mm)*
G04 Created by KiCad (PCBNEW (5.1.6)-1) date 2020-06-03 08:45:57*
%MOMM*%
%LPD*%
G01*
G04 APERTURE LIST*
%ADD10C,0.100000*%
%ADD11C,0.010000*%
G04 APERTURE END LIST*
D10*
X8641428Y52540714D02*
X8641428Y52197857D01*
X8641428Y52369285D02*
X8041428Y52369285D01*
X8127142Y52312142D01*
X8184285Y52255000D01*
X8212857Y52197857D01*
X8641428Y3802142D02*
X8641428Y3459285D01*
X8641428Y3630714D02*
X8041428Y3630714D01*
X8127142Y3573571D01*
X8184285Y3516428D01*
X8212857Y3459285D01*
X8481904Y27756190D02*
X8481904Y28213333D01*
X9281904Y27984761D02*
X8481904Y27984761D01*
X9281904Y28480000D02*
X8481904Y28480000D01*
X9053333Y28746666D01*
X8481904Y29013333D01*
X9281904Y29013333D01*
X9205714Y29851428D02*
X9243809Y29813333D01*
X9281904Y29699047D01*
X9281904Y29622857D01*
X9243809Y29508571D01*
X9167619Y29432380D01*
X9091428Y29394285D01*
X8939047Y29356190D01*
X8824761Y29356190D01*
X8672380Y29394285D01*
X8596190Y29432380D01*
X8520000Y29508571D01*
X8481904Y29622857D01*
X8481904Y29699047D01*
X8520000Y29813333D01*
X8558095Y29851428D01*
X9281904Y30194285D02*
X8481904Y30194285D01*
X9053333Y30460952D01*
X8481904Y30727619D01*
X9281904Y30727619D01*
X8977142Y31108571D02*
X8977142Y31718095D01*
X8481904Y32251428D02*
X8481904Y32327619D01*
X8520000Y32403809D01*
X8558095Y32441904D01*
X8634285Y32480000D01*
X8786666Y32518095D01*
X8977142Y32518095D01*
X9129523Y32480000D01*
X9205714Y32441904D01*
X9243809Y32403809D01*
X9281904Y32327619D01*
X9281904Y32251428D01*
X9243809Y32175238D01*
X9205714Y32137142D01*
X9129523Y32099047D01*
X8977142Y32060952D01*
X8786666Y32060952D01*
X8634285Y32099047D01*
X8558095Y32137142D01*
X8520000Y32175238D01*
X8481904Y32251428D01*
X8481904Y33013333D02*
X8481904Y33089523D01*
X8520000Y33165714D01*
X8558095Y33203809D01*
X8634285Y33241904D01*
X8786666Y33280000D01*
X8977142Y33280000D01*
X9129523Y33241904D01*
X9205714Y33203809D01*
X9243809Y33165714D01*
X9281904Y33089523D01*
X9281904Y33013333D01*
X9243809Y32937142D01*
X9205714Y32899047D01*
X9129523Y32860952D01*
X8977142Y32822857D01*
X8786666Y32822857D01*
X8634285Y32860952D01*
X8558095Y32899047D01*
X8520000Y32937142D01*
X8481904Y33013333D01*
X8558095Y33584761D02*
X8520000Y33622857D01*
X8481904Y33699047D01*
X8481904Y33889523D01*
X8520000Y33965714D01*
X8558095Y34003809D01*
X8634285Y34041904D01*
X8710476Y34041904D01*
X8824761Y34003809D01*
X9281904Y33546666D01*
X9281904Y34041904D01*
X9281904Y34803809D02*
X9281904Y34346666D01*
X9281904Y34575238D02*
X8481904Y34575238D01*
X8596190Y34499047D01*
X8672380Y34422857D01*
X8710476Y34346666D01*
X8748571Y35680000D02*
X9281904Y35870476D01*
X8748571Y36060952D01*
X9281904Y36784761D02*
X9281904Y36327619D01*
X9281904Y36556190D02*
X8481904Y36556190D01*
X8596190Y36480000D01*
X8672380Y36403809D01*
X8710476Y36327619D01*
X9205714Y37127619D02*
X9243809Y37165714D01*
X9281904Y37127619D01*
X9243809Y37089523D01*
X9205714Y37127619D01*
X9281904Y37127619D01*
X8481904Y37660952D02*
X8481904Y37737142D01*
X8520000Y37813333D01*
X8558095Y37851428D01*
X8634285Y37889523D01*
X8786666Y37927619D01*
X8977142Y37927619D01*
X9129523Y37889523D01*
X9205714Y37851428D01*
X9243809Y37813333D01*
X9281904Y37737142D01*
X9281904Y37660952D01*
X9243809Y37584761D01*
X9205714Y37546666D01*
X9129523Y37508571D01*
X8977142Y37470476D01*
X8786666Y37470476D01*
X8634285Y37508571D01*
X8558095Y37546666D01*
X8520000Y37584761D01*
X8481904Y37660952D01*
D11*
G36*
X6528111Y29389506D02*
G01*
X6572520Y29410697D01*
X6610155Y29429389D01*
X6638045Y29444048D01*
X6653218Y29453140D01*
X6655111Y29455070D01*
X6647058Y29460976D01*
X6624880Y29473204D01*
X6591543Y29490214D01*
X6550018Y29510469D01*
X6528111Y29520864D01*
X6401111Y29580595D01*
X6401111Y29700576D01*
X6680982Y29698084D01*
X6960852Y29695592D01*
X6960852Y29582704D01*
X6652500Y29573296D01*
X6719658Y29543498D01*
X6786815Y29513699D01*
X6786815Y29398111D01*
X6709204Y29361314D01*
X6631593Y29324518D01*
X6798574Y29324259D01*
X6965556Y29324000D01*
X6965556Y29211111D01*
X6401111Y29211111D01*
X6401111Y29330005D01*
X6528111Y29389506D01*
G37*
X6528111Y29389506D02*
X6572520Y29410697D01*
X6610155Y29429389D01*
X6638045Y29444048D01*
X6653218Y29453140D01*
X6655111Y29455070D01*
X6647058Y29460976D01*
X6624880Y29473204D01*
X6591543Y29490214D01*
X6550018Y29510469D01*
X6528111Y29520864D01*
X6401111Y29580595D01*
X6401111Y29700576D01*
X6680982Y29698084D01*
X6960852Y29695592D01*
X6960852Y29582704D01*
X6652500Y29573296D01*
X6719658Y29543498D01*
X6786815Y29513699D01*
X6786815Y29398111D01*
X6709204Y29361314D01*
X6631593Y29324518D01*
X6798574Y29324259D01*
X6965556Y29324000D01*
X6965556Y29211111D01*
X6401111Y29211111D01*
X6401111Y29330005D01*
X6528111Y29389506D01*
G36*
X6397141Y30149911D02*
G01*
X6400377Y30178203D01*
X6407670Y30201084D01*
X6420572Y30225243D01*
X6424943Y30232408D01*
X6449455Y30265287D01*
X6479690Y30290262D01*
X6508931Y30306930D01*
X6533634Y30319009D01*
X6554816Y30327066D01*
X6577308Y30331912D01*
X6605940Y30334356D01*
X6645540Y30335210D01*
X6677951Y30335296D01*
X6728836Y30334844D01*
X6765658Y30333062D01*
X6793154Y30329312D01*
X6816063Y30322956D01*
X6838438Y30313670D01*
X6892355Y30282561D01*
X6930145Y30245078D01*
X6953494Y30198505D01*
X6964088Y30140127D01*
X6965142Y30109518D01*
X6960469Y30048607D01*
X6947775Y30006037D01*
X6924323Y29966726D01*
X6892394Y29936025D01*
X6847212Y29909537D01*
X6838438Y29905398D01*
X6815414Y29895902D01*
X6792376Y29889630D01*
X6764584Y29885943D01*
X6727297Y29884204D01*
X6705948Y29884017D01*
X6705948Y29994337D01*
X6761934Y30002811D01*
X6808220Y30020413D01*
X6843019Y30045836D01*
X6864543Y30077777D01*
X6871006Y30114929D01*
X6860627Y30155974D01*
X6839028Y30182244D01*
X6803503Y30202431D01*
X6758026Y30216255D01*
X6706568Y30223435D01*
X6653101Y30223692D01*
X6601599Y30216743D01*
X6556034Y30202308D01*
X6520379Y30180108D01*
X6520277Y30180017D01*
X6500591Y30158917D01*
X6492066Y30136842D01*
X6490482Y30111278D01*
X6496767Y30071191D01*
X6516447Y30040339D01*
X6550756Y30017787D01*
X6600929Y30002598D01*
X6642047Y29996295D01*
X6705948Y29994337D01*
X6705948Y29884017D01*
X6677965Y29883771D01*
X6629080Y29884030D01*
X6594177Y29885376D01*
X6568428Y29888620D01*
X6547001Y29894570D01*
X6525068Y29904038D01*
X6508945Y29912107D01*
X6470065Y29935467D01*
X6442235Y29961996D01*
X6424943Y29986628D01*
X6410363Y30012183D01*
X6401789Y30034755D01*
X6397666Y30061032D01*
X6396443Y30097706D01*
X6396407Y30109518D01*
X6397141Y30149911D01*
G37*
X6397141Y30149911D02*
X6400377Y30178203D01*
X6407670Y30201084D01*
X6420572Y30225243D01*
X6424943Y30232408D01*
X6449455Y30265287D01*
X6479690Y30290262D01*
X6508931Y30306930D01*
X6533634Y30319009D01*
X6554816Y30327066D01*
X6577308Y30331912D01*
X6605940Y30334356D01*
X6645540Y30335210D01*
X6677951Y30335296D01*
X6728836Y30334844D01*
X6765658Y30333062D01*
X6793154Y30329312D01*
X6816063Y30322956D01*
X6838438Y30313670D01*
X6892355Y30282561D01*
X6930145Y30245078D01*
X6953494Y30198505D01*
X6964088Y30140127D01*
X6965142Y30109518D01*
X6960469Y30048607D01*
X6947775Y30006037D01*
X6924323Y29966726D01*
X6892394Y29936025D01*
X6847212Y29909537D01*
X6838438Y29905398D01*
X6815414Y29895902D01*
X6792376Y29889630D01*
X6764584Y29885943D01*
X6727297Y29884204D01*
X6705948Y29884017D01*
X6705948Y29994337D01*
X6761934Y30002811D01*
X6808220Y30020413D01*
X6843019Y30045836D01*
X6864543Y30077777D01*
X6871006Y30114929D01*
X6860627Y30155974D01*
X6839028Y30182244D01*
X6803503Y30202431D01*
X6758026Y30216255D01*
X6706568Y30223435D01*
X6653101Y30223692D01*
X6601599Y30216743D01*
X6556034Y30202308D01*
X6520379Y30180108D01*
X6520277Y30180017D01*
X6500591Y30158917D01*
X6492066Y30136842D01*
X6490482Y30111278D01*
X6496767Y30071191D01*
X6516447Y30040339D01*
X6550756Y30017787D01*
X6600929Y30002598D01*
X6642047Y29996295D01*
X6705948Y29994337D01*
X6705948Y29884017D01*
X6677965Y29883771D01*
X6629080Y29884030D01*
X6594177Y29885376D01*
X6568428Y29888620D01*
X6547001Y29894570D01*
X6525068Y29904038D01*
X6508945Y29912107D01*
X6470065Y29935467D01*
X6442235Y29961996D01*
X6424943Y29986628D01*
X6410363Y30012183D01*
X6401789Y30034755D01*
X6397666Y30061032D01*
X6396443Y30097706D01*
X6396407Y30109518D01*
X6397141Y30149911D01*
G36*
X6495185Y30838592D02*
G01*
X6495185Y30706889D01*
X6965556Y30706889D01*
X6965556Y30594000D01*
X6495185Y30594000D01*
X6495185Y30452889D01*
X6401111Y30452889D01*
X6401111Y30838592D01*
X6495185Y30838592D01*
G37*
X6495185Y30838592D02*
X6495185Y30706889D01*
X6965556Y30706889D01*
X6965556Y30594000D01*
X6495185Y30594000D01*
X6495185Y30452889D01*
X6401111Y30452889D01*
X6401111Y30838592D01*
X6495185Y30838592D01*
G36*
X6476370Y31271333D02*
G01*
X6476370Y31177259D01*
X6890296Y31177259D01*
X6890296Y31271333D01*
X6965556Y31271333D01*
X6965556Y30970296D01*
X6890296Y30970296D01*
X6890296Y31064370D01*
X6476370Y31064370D01*
X6476370Y30970296D01*
X6401111Y30970296D01*
X6401111Y31271333D01*
X6476370Y31271333D01*
G37*
X6476370Y31271333D02*
X6476370Y31177259D01*
X6890296Y31177259D01*
X6890296Y31271333D01*
X6965556Y31271333D01*
X6965556Y30970296D01*
X6890296Y30970296D01*
X6890296Y31064370D01*
X6476370Y31064370D01*
X6476370Y30970296D01*
X6401111Y30970296D01*
X6401111Y31271333D01*
X6476370Y31271333D01*
G36*
X6401132Y31704245D02*
G01*
X6414982Y31745149D01*
X6446619Y31789479D01*
X6493446Y31823971D01*
X6554316Y31848119D01*
X6628078Y31861415D01*
X6683961Y31864000D01*
X6767071Y31858115D01*
X6835563Y31840417D01*
X6889514Y31810843D01*
X6928999Y31769331D01*
X6954096Y31715818D01*
X6964881Y31650239D01*
X6965349Y31632646D01*
X6963556Y31588488D01*
X6956798Y31554856D01*
X6943853Y31524461D01*
X6911811Y31481827D01*
X6865854Y31446081D01*
X6810496Y31420315D01*
X6779666Y31411924D01*
X6733613Y31406290D01*
X6684145Y31405391D01*
X6684145Y31522974D01*
X6745078Y31525961D01*
X6791343Y31535811D01*
X6826151Y31553521D01*
X6847655Y31573720D01*
X6867637Y31610593D01*
X6869415Y31651036D01*
X6857785Y31684458D01*
X6837669Y31710811D01*
X6807390Y31729262D01*
X6764624Y31740611D01*
X6707045Y31745658D01*
X6678630Y31746091D01*
X6626843Y31744952D01*
X6590059Y31741269D01*
X6564581Y31734579D01*
X6556311Y31730732D01*
X6518705Y31704523D01*
X6497554Y31674161D01*
X6490507Y31636170D01*
X6490482Y31633289D01*
X6497239Y31593458D01*
X6518027Y31562964D01*
X6553623Y31541365D01*
X6604803Y31528218D01*
X6672344Y31523082D01*
X6684145Y31522974D01*
X6684145Y31405391D01*
X6678080Y31405280D01*
X6620599Y31408546D01*
X6568705Y31415736D01*
X6539151Y31423107D01*
X6496999Y31444256D01*
X6456189Y31477272D01*
X6422787Y31516459D01*
X6405405Y31548616D01*
X6394837Y31595469D01*
X6393547Y31650122D01*
X6401132Y31704245D01*
G37*
X6401132Y31704245D02*
X6414982Y31745149D01*
X6446619Y31789479D01*
X6493446Y31823971D01*
X6554316Y31848119D01*
X6628078Y31861415D01*
X6683961Y31864000D01*
X6767071Y31858115D01*
X6835563Y31840417D01*
X6889514Y31810843D01*
X6928999Y31769331D01*
X6954096Y31715818D01*
X6964881Y31650239D01*
X6965349Y31632646D01*
X6963556Y31588488D01*
X6956798Y31554856D01*
X6943853Y31524461D01*
X6911811Y31481827D01*
X6865854Y31446081D01*
X6810496Y31420315D01*
X6779666Y31411924D01*
X6733613Y31406290D01*
X6684145Y31405391D01*
X6684145Y31522974D01*
X6745078Y31525961D01*
X6791343Y31535811D01*
X6826151Y31553521D01*
X6847655Y31573720D01*
X6867637Y31610593D01*
X6869415Y31651036D01*
X6857785Y31684458D01*
X6837669Y31710811D01*
X6807390Y31729262D01*
X6764624Y31740611D01*
X6707045Y31745658D01*
X6678630Y31746091D01*
X6626843Y31744952D01*
X6590059Y31741269D01*
X6564581Y31734579D01*
X6556311Y31730732D01*
X6518705Y31704523D01*
X6497554Y31674161D01*
X6490507Y31636170D01*
X6490482Y31633289D01*
X6497239Y31593458D01*
X6518027Y31562964D01*
X6553623Y31541365D01*
X6604803Y31528218D01*
X6672344Y31523082D01*
X6684145Y31522974D01*
X6684145Y31405391D01*
X6678080Y31405280D01*
X6620599Y31408546D01*
X6568705Y31415736D01*
X6539151Y31423107D01*
X6496999Y31444256D01*
X6456189Y31477272D01*
X6422787Y31516459D01*
X6405405Y31548616D01*
X6394837Y31595469D01*
X6393547Y31650122D01*
X6401132Y31704245D01*
G36*
X6560383Y32251525D02*
G01*
X6719655Y32339074D01*
X6401111Y32344222D01*
X6401111Y32456667D01*
X6966453Y32456667D01*
X6963653Y32398705D01*
X6960852Y32340744D01*
X6806974Y32255242D01*
X6653097Y32169741D01*
X6809326Y32167161D01*
X6965556Y32164582D01*
X6965556Y32052148D01*
X6401111Y32052148D01*
X6401111Y32163977D01*
X6560383Y32251525D01*
G37*
X6560383Y32251525D02*
X6719655Y32339074D01*
X6401111Y32344222D01*
X6401111Y32456667D01*
X6966453Y32456667D01*
X6963653Y32398705D01*
X6960852Y32340744D01*
X6806974Y32255242D01*
X6653097Y32169741D01*
X6809326Y32167161D01*
X6965556Y32164582D01*
X6965556Y32052148D01*
X6401111Y32052148D01*
X6401111Y32163977D01*
X6560383Y32251525D01*
G36*
X6394805Y33175320D02*
G01*
X6398338Y33204148D01*
X6398425Y33204555D01*
X6404051Y33226661D01*
X6412205Y33238131D01*
X6428485Y33242978D01*
X6454857Y33245003D01*
X6503140Y33247822D01*
X6497805Y33158401D01*
X6492471Y33068981D01*
X6524970Y33036482D01*
X6566395Y33006342D01*
X6618265Y32989210D01*
X6682442Y32984548D01*
X6701942Y32985346D01*
X6761702Y32994257D01*
X6808642Y33012413D01*
X6840861Y33038958D01*
X6849334Y33051984D01*
X6858598Y33082567D01*
X6862902Y33125043D01*
X6861962Y33173083D01*
X6856674Y33214369D01*
X6850573Y33246889D01*
X6953686Y33246889D01*
X6959517Y33211611D01*
X6965489Y33154806D01*
X6965585Y33097476D01*
X6960168Y33045335D01*
X6949602Y33004096D01*
X6945758Y32995256D01*
X6911697Y32946859D01*
X6863878Y32908395D01*
X6805052Y32880771D01*
X6737970Y32864896D01*
X6665382Y32861676D01*
X6590039Y32872022D01*
X6579852Y32874495D01*
X6512918Y32898011D01*
X6461906Y32930896D01*
X6425768Y32974396D01*
X6403455Y33029757D01*
X6394065Y33095271D01*
X6393270Y33136250D01*
X6394805Y33175320D01*
G37*
X6394805Y33175320D02*
X6398338Y33204148D01*
X6398425Y33204555D01*
X6404051Y33226661D01*
X6412205Y33238131D01*
X6428485Y33242978D01*
X6454857Y33245003D01*
X6503140Y33247822D01*
X6497805Y33158401D01*
X6492471Y33068981D01*
X6524970Y33036482D01*
X6566395Y33006342D01*
X6618265Y32989210D01*
X6682442Y32984548D01*
X6701942Y32985346D01*
X6761702Y32994257D01*
X6808642Y33012413D01*
X6840861Y33038958D01*
X6849334Y33051984D01*
X6858598Y33082567D01*
X6862902Y33125043D01*
X6861962Y33173083D01*
X6856674Y33214369D01*
X6850573Y33246889D01*
X6953686Y33246889D01*
X6959517Y33211611D01*
X6965489Y33154806D01*
X6965585Y33097476D01*
X6960168Y33045335D01*
X6949602Y33004096D01*
X6945758Y32995256D01*
X6911697Y32946859D01*
X6863878Y32908395D01*
X6805052Y32880771D01*
X6737970Y32864896D01*
X6665382Y32861676D01*
X6590039Y32872022D01*
X6579852Y32874495D01*
X6512918Y32898011D01*
X6461906Y32930896D01*
X6425768Y32974396D01*
X6403455Y33029757D01*
X6394065Y33095271D01*
X6393270Y33136250D01*
X6394805Y33175320D01*
G36*
X6397279Y33672578D02*
G01*
X6416862Y33728746D01*
X6451444Y33774747D01*
X6500276Y33810022D01*
X6562611Y33834012D01*
X6637702Y33846159D01*
X6714586Y33846560D01*
X6791564Y33836029D01*
X6854464Y33813739D01*
X6904229Y33779258D01*
X6932265Y33746913D01*
X6946989Y33723892D01*
X6955919Y33702322D01*
X6960744Y33675838D01*
X6963157Y33638075D01*
X6963471Y33629438D01*
X6963700Y33583751D01*
X6960154Y33550362D01*
X6952001Y33522983D01*
X6948223Y33514334D01*
X6915222Y33465112D01*
X6867866Y33427884D01*
X6806387Y33402761D01*
X6731015Y33389852D01*
X6692579Y33388340D01*
X6692579Y33502890D01*
X6747693Y33507742D01*
X6795067Y33518862D01*
X6809969Y33524865D01*
X6844664Y33550092D01*
X6865309Y33583714D01*
X6870874Y33621543D01*
X6860331Y33659395D01*
X6847655Y33678280D01*
X6819699Y33702849D01*
X6782804Y33718855D01*
X6733758Y33727300D01*
X6684103Y33729284D01*
X6613910Y33725420D01*
X6560139Y33713319D01*
X6522111Y33692592D01*
X6499149Y33662852D01*
X6490576Y33623710D01*
X6490482Y33618481D01*
X6497449Y33578806D01*
X6519187Y33547967D01*
X6556952Y33524619D01*
X6588356Y33513490D01*
X6637031Y33504681D01*
X6692579Y33502890D01*
X6692579Y33388340D01*
X6683961Y33388000D01*
X6604801Y33392837D01*
X6539174Y33407820D01*
X6484335Y33433659D01*
X6470093Y33443258D01*
X6432964Y33479207D01*
X6408484Y33525221D01*
X6395457Y33583853D01*
X6393443Y33606800D01*
X6397279Y33672578D01*
G37*
X6397279Y33672578D02*
X6416862Y33728746D01*
X6451444Y33774747D01*
X6500276Y33810022D01*
X6562611Y33834012D01*
X6637702Y33846159D01*
X6714586Y33846560D01*
X6791564Y33836029D01*
X6854464Y33813739D01*
X6904229Y33779258D01*
X6932265Y33746913D01*
X6946989Y33723892D01*
X6955919Y33702322D01*
X6960744Y33675838D01*
X6963157Y33638075D01*
X6963471Y33629438D01*
X6963700Y33583751D01*
X6960154Y33550362D01*
X6952001Y33522983D01*
X6948223Y33514334D01*
X6915222Y33465112D01*
X6867866Y33427884D01*
X6806387Y33402761D01*
X6731015Y33389852D01*
X6692579Y33388340D01*
X6692579Y33502890D01*
X6747693Y33507742D01*
X6795067Y33518862D01*
X6809969Y33524865D01*
X6844664Y33550092D01*
X6865309Y33583714D01*
X6870874Y33621543D01*
X6860331Y33659395D01*
X6847655Y33678280D01*
X6819699Y33702849D01*
X6782804Y33718855D01*
X6733758Y33727300D01*
X6684103Y33729284D01*
X6613910Y33725420D01*
X6560139Y33713319D01*
X6522111Y33692592D01*
X6499149Y33662852D01*
X6490576Y33623710D01*
X6490482Y33618481D01*
X6497449Y33578806D01*
X6519187Y33547967D01*
X6556952Y33524619D01*
X6588356Y33513490D01*
X6637031Y33504681D01*
X6692579Y33502890D01*
X6692579Y33388340D01*
X6683961Y33388000D01*
X6604801Y33392837D01*
X6539174Y33407820D01*
X6484335Y33433659D01*
X6470093Y33443258D01*
X6432964Y33479207D01*
X6408484Y33525221D01*
X6395457Y33583853D01*
X6393443Y33606800D01*
X6397279Y33672578D01*
G36*
X6558685Y34232479D02*
G01*
X6716259Y34319081D01*
X6401111Y34319333D01*
X6401111Y34432222D01*
X6965556Y34432222D01*
X6965456Y34378129D01*
X6965356Y34324037D01*
X6803178Y34234667D01*
X6641000Y34145296D01*
X6965556Y34140148D01*
X6965556Y34027704D01*
X6401111Y34027704D01*
X6401111Y34145876D01*
X6558685Y34232479D01*
G37*
X6558685Y34232479D02*
X6716259Y34319081D01*
X6401111Y34319333D01*
X6401111Y34432222D01*
X6965556Y34432222D01*
X6965456Y34378129D01*
X6965356Y34324037D01*
X6803178Y34234667D01*
X6641000Y34145296D01*
X6965556Y34140148D01*
X6965556Y34027704D01*
X6401111Y34027704D01*
X6401111Y34145876D01*
X6558685Y34232479D01*
G36*
X6495185Y34987259D02*
G01*
X6495185Y34846148D01*
X6965556Y34846148D01*
X6965556Y34733259D01*
X6495185Y34733259D01*
X6495185Y34601555D01*
X6401111Y34601555D01*
X6401111Y34987259D01*
X6495185Y34987259D01*
G37*
X6495185Y34987259D02*
X6495185Y34846148D01*
X6965556Y34846148D01*
X6965556Y34733259D01*
X6495185Y34733259D01*
X6495185Y34601555D01*
X6401111Y34601555D01*
X6401111Y34987259D01*
X6495185Y34987259D01*
G36*
X6401484Y35330251D02*
G01*
X6402909Y35369777D01*
X6405840Y35398497D01*
X6410736Y35420408D01*
X6418052Y35439512D01*
X6420342Y35444377D01*
X6443050Y35478611D01*
X6473601Y35500491D01*
X6514966Y35511341D01*
X6570114Y35512489D01*
X6572672Y35512350D01*
X6608335Y35509613D01*
X6631498Y35504758D01*
X6648473Y35495355D01*
X6665573Y35478974D01*
X6668977Y35475287D01*
X6688193Y35452738D01*
X6701601Y35434109D01*
X6704463Y35428617D01*
X6710589Y35425193D01*
X6725552Y35428269D01*
X6751347Y35438613D01*
X6789966Y35456994D01*
X6828402Y35476444D01*
X6871788Y35498632D01*
X6909416Y35517684D01*
X6938014Y35531956D01*
X6954307Y35539806D01*
X6956487Y35540728D01*
X6961276Y35533840D01*
X6964498Y35512055D01*
X6965556Y35482497D01*
X6965556Y35421131D01*
X6843384Y35357065D01*
X6786860Y35326741D01*
X6747417Y35303408D01*
X6725054Y35286173D01*
X6719769Y35274141D01*
X6731561Y35266417D01*
X6760430Y35262106D01*
X6806373Y35260313D01*
X6843259Y35260074D01*
X6965556Y35260074D01*
X6965556Y35147185D01*
X6629521Y35147185D01*
X6629521Y35260074D01*
X6623949Y35314167D01*
X6617639Y35351649D01*
X6607000Y35375336D01*
X6598072Y35384722D01*
X6567041Y35399487D01*
X6534852Y35396925D01*
X6518842Y35388338D01*
X6507330Y35373461D01*
X6500214Y35346813D01*
X6497098Y35317782D01*
X6492924Y35260074D01*
X6629521Y35260074D01*
X6629521Y35147185D01*
X6401111Y35147185D01*
X6401111Y35275919D01*
X6401484Y35330251D01*
G37*
X6401484Y35330251D02*
X6402909Y35369777D01*
X6405840Y35398497D01*
X6410736Y35420408D01*
X6418052Y35439512D01*
X6420342Y35444377D01*
X6443050Y35478611D01*
X6473601Y35500491D01*
X6514966Y35511341D01*
X6570114Y35512489D01*
X6572672Y35512350D01*
X6608335Y35509613D01*
X6631498Y35504758D01*
X6648473Y35495355D01*
X6665573Y35478974D01*
X6668977Y35475287D01*
X6688193Y35452738D01*
X6701601Y35434109D01*
X6704463Y35428617D01*
X6710589Y35425193D01*
X6725552Y35428269D01*
X6751347Y35438613D01*
X6789966Y35456994D01*
X6828402Y35476444D01*
X6871788Y35498632D01*
X6909416Y35517684D01*
X6938014Y35531956D01*
X6954307Y35539806D01*
X6956487Y35540728D01*
X6961276Y35533840D01*
X6964498Y35512055D01*
X6965556Y35482497D01*
X6965556Y35421131D01*
X6843384Y35357065D01*
X6786860Y35326741D01*
X6747417Y35303408D01*
X6725054Y35286173D01*
X6719769Y35274141D01*
X6731561Y35266417D01*
X6760430Y35262106D01*
X6806373Y35260313D01*
X6843259Y35260074D01*
X6965556Y35260074D01*
X6965556Y35147185D01*
X6629521Y35147185D01*
X6629521Y35260074D01*
X6623949Y35314167D01*
X6617639Y35351649D01*
X6607000Y35375336D01*
X6598072Y35384722D01*
X6567041Y35399487D01*
X6534852Y35396925D01*
X6518842Y35388338D01*
X6507330Y35373461D01*
X6500214Y35346813D01*
X6497098Y35317782D01*
X6492924Y35260074D01*
X6629521Y35260074D01*
X6629521Y35147185D01*
X6401111Y35147185D01*
X6401111Y35275919D01*
X6401484Y35330251D01*
G36*
X6397440Y35968413D02*
G01*
X6415634Y36017121D01*
X6448343Y36060326D01*
X6452054Y36064105D01*
X6493663Y36097769D01*
X6541869Y36120580D01*
X6600151Y36133675D01*
X6671990Y36138194D01*
X6678630Y36138219D01*
X6762001Y36132285D01*
X6831195Y36114332D01*
X6886693Y36084130D01*
X6928980Y36041454D01*
X6947295Y36011580D01*
X6958314Y35977338D01*
X6964331Y35932318D01*
X6965158Y35883926D01*
X6960614Y35839573D01*
X6952311Y35810407D01*
X6921910Y35764217D01*
X6876936Y35726718D01*
X6819978Y35698888D01*
X6753625Y35681703D01*
X6680465Y35676142D01*
X6662533Y35677609D01*
X6662533Y35798090D01*
X6731638Y35798643D01*
X6785651Y35807847D01*
X6826446Y35826224D01*
X6853483Y35851128D01*
X6868127Y35883518D01*
X6869394Y35921305D01*
X6858044Y35957473D01*
X6839331Y35981460D01*
X6800709Y36004311D01*
X6748601Y36017457D01*
X6681684Y36021187D01*
X6660224Y36020588D01*
X6597950Y36014179D01*
X6551506Y36000450D01*
X6519040Y35978504D01*
X6498698Y35947444D01*
X6496355Y35941314D01*
X6488789Y35914018D01*
X6490007Y35892167D01*
X6497966Y35869828D01*
X6514439Y35841916D01*
X6538672Y35821981D01*
X6573615Y35808736D01*
X6622218Y35800896D01*
X6662533Y35798090D01*
X6662533Y35677609D01*
X6611631Y35681774D01*
X6537362Y35699807D01*
X6478539Y35728511D01*
X6434994Y35768060D01*
X6406558Y35818629D01*
X6393063Y35880392D01*
X6391809Y35909185D01*
X6397440Y35968413D01*
G37*
X6397440Y35968413D02*
X6415634Y36017121D01*
X6448343Y36060326D01*
X6452054Y36064105D01*
X6493663Y36097769D01*
X6541869Y36120580D01*
X6600151Y36133675D01*
X6671990Y36138194D01*
X6678630Y36138219D01*
X6762001Y36132285D01*
X6831195Y36114332D01*
X6886693Y36084130D01*
X6928980Y36041454D01*
X6947295Y36011580D01*
X6958314Y35977338D01*
X6964331Y35932318D01*
X6965158Y35883926D01*
X6960614Y35839573D01*
X6952311Y35810407D01*
X6921910Y35764217D01*
X6876936Y35726718D01*
X6819978Y35698888D01*
X6753625Y35681703D01*
X6680465Y35676142D01*
X6662533Y35677609D01*
X6662533Y35798090D01*
X6731638Y35798643D01*
X6785651Y35807847D01*
X6826446Y35826224D01*
X6853483Y35851128D01*
X6868127Y35883518D01*
X6869394Y35921305D01*
X6858044Y35957473D01*
X6839331Y35981460D01*
X6800709Y36004311D01*
X6748601Y36017457D01*
X6681684Y36021187D01*
X6660224Y36020588D01*
X6597950Y36014179D01*
X6551506Y36000450D01*
X6519040Y35978504D01*
X6498698Y35947444D01*
X6496355Y35941314D01*
X6488789Y35914018D01*
X6490007Y35892167D01*
X6497966Y35869828D01*
X6514439Y35841916D01*
X6538672Y35821981D01*
X6573615Y35808736D01*
X6622218Y35800896D01*
X6662533Y35798090D01*
X6662533Y35677609D01*
X6611631Y35681774D01*
X6537362Y35699807D01*
X6478539Y35728511D01*
X6434994Y35768060D01*
X6406558Y35818629D01*
X6393063Y35880392D01*
X6391809Y35909185D01*
X6397440Y35968413D01*
G36*
X6862074Y36436000D02*
G01*
X6862074Y36605333D01*
X6965556Y36605333D01*
X6965556Y36323111D01*
X6401111Y36323111D01*
X6401111Y36436000D01*
X6862074Y36436000D01*
G37*
X6862074Y36436000D02*
X6862074Y36605333D01*
X6965556Y36605333D01*
X6965556Y36323111D01*
X6401111Y36323111D01*
X6401111Y36436000D01*
X6862074Y36436000D01*
G36*
X3493214Y37469710D02*
G01*
X3517078Y37562755D01*
X3556046Y37645092D01*
X3609596Y37716192D01*
X3677204Y37775527D01*
X3758347Y37822567D01*
X3852501Y37856784D01*
X3959143Y37877649D01*
X3994479Y37881308D01*
X4068074Y37887446D01*
X4068074Y37614857D01*
X3991362Y37604008D01*
X3909380Y37586603D01*
X3843549Y37559737D01*
X3793635Y37523198D01*
X3759403Y37476772D01*
X3740618Y37420245D01*
X3736525Y37372037D01*
X3743342Y37306441D01*
X3764395Y37252592D01*
X3800589Y37208961D01*
X3852826Y37174020D01*
X3853898Y37173472D01*
X3885508Y37158959D01*
X3920202Y37146453D01*
X3959439Y37135842D01*
X4004678Y37127012D01*
X4057376Y37119854D01*
X4118992Y37114253D01*
X4190984Y37110099D01*
X4274811Y37107280D01*
X4371930Y37105683D01*
X4483801Y37105197D01*
X4611882Y37105709D01*
X4723174Y37106720D01*
X4840716Y37108133D01*
X4941193Y37109744D01*
X5026356Y37111709D01*
X5097956Y37114186D01*
X5157742Y37117332D01*
X5207465Y37121304D01*
X5248876Y37126260D01*
X5283724Y37132358D01*
X5313761Y37139753D01*
X5340735Y37148604D01*
X5366399Y37159068D01*
X5381167Y37165841D01*
X5435075Y37200282D01*
X5475947Y37244683D01*
X5503081Y37296084D01*
X5515777Y37351528D01*
X5513334Y37408056D01*
X5495050Y37462709D01*
X5462693Y37509841D01*
X5415141Y37550107D01*
X5355061Y37581929D01*
X5287640Y37603206D01*
X5218062Y37611838D01*
X5210611Y37611926D01*
X5178148Y37611926D01*
X5178148Y37887526D01*
X5261419Y37882131D01*
X5338854Y37871808D01*
X5418178Y37851888D01*
X5491841Y37824565D01*
X5535630Y37802422D01*
X5607521Y37749965D01*
X5668156Y37683945D01*
X5715318Y37607304D01*
X5746790Y37522979D01*
X5747003Y37522164D01*
X5754982Y37476766D01*
X5759457Y37419681D01*
X5760436Y37357448D01*
X5757930Y37296604D01*
X5751949Y37243688D01*
X5746539Y37217871D01*
X5715052Y37135725D01*
X5667570Y37059599D01*
X5606676Y36992544D01*
X5534954Y36937609D01*
X5486896Y36911310D01*
X5436633Y36890978D01*
X5377772Y36873506D01*
X5309183Y36858799D01*
X5229734Y36846761D01*
X5138295Y36837294D01*
X5033734Y36830304D01*
X4914919Y36825693D01*
X4780720Y36823365D01*
X4630005Y36823225D01*
X4472593Y36824995D01*
X4364842Y36826953D01*
X4273513Y36829180D01*
X4196214Y36831842D01*
X4130553Y36835108D01*
X4074138Y36839144D01*
X4024575Y36844118D01*
X3979474Y36850196D01*
X3936441Y36857547D01*
X3898741Y36865125D01*
X3800088Y36894647D01*
X3713191Y36938126D01*
X3638939Y36994487D01*
X3578221Y37062651D01*
X3531925Y37141540D01*
X3500943Y37230078D01*
X3486161Y37327187D01*
X3484978Y37366486D01*
X3493214Y37469710D01*
G37*
X3493214Y37469710D02*
X3517078Y37562755D01*
X3556046Y37645092D01*
X3609596Y37716192D01*
X3677204Y37775527D01*
X3758347Y37822567D01*
X3852501Y37856784D01*
X3959143Y37877649D01*
X3994479Y37881308D01*
X4068074Y37887446D01*
X4068074Y37614857D01*
X3991362Y37604008D01*
X3909380Y37586603D01*
X3843549Y37559737D01*
X3793635Y37523198D01*
X3759403Y37476772D01*
X3740618Y37420245D01*
X3736525Y37372037D01*
X3743342Y37306441D01*
X3764395Y37252592D01*
X3800589Y37208961D01*
X3852826Y37174020D01*
X3853898Y37173472D01*
X3885508Y37158959D01*
X3920202Y37146453D01*
X3959439Y37135842D01*
X4004678Y37127012D01*
X4057376Y37119854D01*
X4118992Y37114253D01*
X4190984Y37110099D01*
X4274811Y37107280D01*
X4371930Y37105683D01*
X4483801Y37105197D01*
X4611882Y37105709D01*
X4723174Y37106720D01*
X4840716Y37108133D01*
X4941193Y37109744D01*
X5026356Y37111709D01*
X5097956Y37114186D01*
X5157742Y37117332D01*
X5207465Y37121304D01*
X5248876Y37126260D01*
X5283724Y37132358D01*
X5313761Y37139753D01*
X5340735Y37148604D01*
X5366399Y37159068D01*
X5381167Y37165841D01*
X5435075Y37200282D01*
X5475947Y37244683D01*
X5503081Y37296084D01*
X5515777Y37351528D01*
X5513334Y37408056D01*
X5495050Y37462709D01*
X5462693Y37509841D01*
X5415141Y37550107D01*
X5355061Y37581929D01*
X5287640Y37603206D01*
X5218062Y37611838D01*
X5210611Y37611926D01*
X5178148Y37611926D01*
X5178148Y37887526D01*
X5261419Y37882131D01*
X5338854Y37871808D01*
X5418178Y37851888D01*
X5491841Y37824565D01*
X5535630Y37802422D01*
X5607521Y37749965D01*
X5668156Y37683945D01*
X5715318Y37607304D01*
X5746790Y37522979D01*
X5747003Y37522164D01*
X5754982Y37476766D01*
X5759457Y37419681D01*
X5760436Y37357448D01*
X5757930Y37296604D01*
X5751949Y37243688D01*
X5746539Y37217871D01*
X5715052Y37135725D01*
X5667570Y37059599D01*
X5606676Y36992544D01*
X5534954Y36937609D01*
X5486896Y36911310D01*
X5436633Y36890978D01*
X5377772Y36873506D01*
X5309183Y36858799D01*
X5229734Y36846761D01*
X5138295Y36837294D01*
X5033734Y36830304D01*
X4914919Y36825693D01*
X4780720Y36823365D01*
X4630005Y36823225D01*
X4472593Y36824995D01*
X4364842Y36826953D01*
X4273513Y36829180D01*
X4196214Y36831842D01*
X4130553Y36835108D01*
X4074138Y36839144D01*
X4024575Y36844118D01*
X3979474Y36850196D01*
X3936441Y36857547D01*
X3898741Y36865125D01*
X3800088Y36894647D01*
X3713191Y36938126D01*
X3638939Y36994487D01*
X3578221Y37062651D01*
X3531925Y37141540D01*
X3500943Y37230078D01*
X3486161Y37327187D01*
X3484978Y37366486D01*
X3493214Y37469710D01*
G36*
X3757630Y28900667D02*
G01*
X3757630Y28533778D01*
X5742593Y28533778D01*
X5742593Y28251555D01*
X3757630Y28251555D01*
X3757630Y27884667D01*
X3513037Y27884667D01*
X3513037Y28900667D01*
X3757630Y28900667D01*
G37*
X3757630Y28900667D02*
X3757630Y28533778D01*
X5742593Y28533778D01*
X5742593Y28251555D01*
X3757630Y28251555D01*
X3757630Y27884667D01*
X3513037Y27884667D01*
X3513037Y28900667D01*
X3757630Y28900667D01*
G36*
X3513176Y29439241D02*
G01*
X3513421Y29535876D01*
X3514242Y29615966D01*
X3515908Y29681775D01*
X3518689Y29735569D01*
X3522856Y29779615D01*
X3528677Y29816178D01*
X3536422Y29847524D01*
X3546362Y29875919D01*
X3558765Y29903629D01*
X3571383Y29928217D01*
X3616175Y29992426D01*
X3676528Y30046828D01*
X3751596Y30090832D01*
X3840537Y30123845D01*
X3856407Y30128174D01*
X3942027Y30145520D01*
X4035157Y30155776D01*
X4132205Y30159192D01*
X4229579Y30156022D01*
X4323685Y30146517D01*
X4410931Y30130930D01*
X4487725Y30109512D01*
X4550474Y30082516D01*
X4556666Y30079043D01*
X4608206Y30043484D01*
X4656139Y29999967D01*
X4694392Y29954265D01*
X4704633Y29938374D01*
X4719698Y29915057D01*
X4731857Y29900408D01*
X4736019Y29897852D01*
X4746124Y29900773D01*
X4772409Y29909173D01*
X4813228Y29922506D01*
X4866937Y29940227D01*
X4931891Y29961790D01*
X5006445Y29986650D01*
X5088955Y30014262D01*
X5177774Y30044079D01*
X5232459Y30062481D01*
X5324348Y30093364D01*
X5410997Y30122360D01*
X5490748Y30148923D01*
X5561942Y30172505D01*
X5622919Y30192560D01*
X5672021Y30208542D01*
X5707588Y30219904D01*
X5727962Y30226100D01*
X5732172Y30227111D01*
X5736601Y30221110D01*
X5739482Y30202031D01*
X5740909Y30168262D01*
X5740975Y30118192D01*
X5740486Y30084206D01*
X5737889Y29941301D01*
X5262815Y29789485D01*
X4787741Y29637668D01*
X4785108Y29518464D01*
X4782475Y29399259D01*
X5742593Y29399259D01*
X5742593Y29126444D01*
X3757630Y29126444D01*
X3757630Y29399259D01*
X4540030Y29399259D01*
X4536886Y29556833D01*
X4535546Y29615515D01*
X4533922Y29658789D01*
X4531561Y29690061D01*
X4528010Y29712739D01*
X4522818Y29730228D01*
X4515532Y29745934D01*
X4510608Y29754804D01*
X4487880Y29785208D01*
X4458172Y29813747D01*
X4446801Y29822144D01*
X4416704Y29839812D01*
X4384728Y29853166D01*
X4347740Y29862745D01*
X4302607Y29869088D01*
X4246194Y29872734D01*
X4175368Y29874222D01*
X4143333Y29874333D01*
X4065022Y29873430D01*
X4002471Y29870263D01*
X3952695Y29864152D01*
X3912705Y29854411D01*
X3879514Y29840360D01*
X3850135Y29821313D01*
X3827474Y29802117D01*
X3803215Y29776775D01*
X3785110Y29749535D01*
X3772334Y29717230D01*
X3764060Y29676690D01*
X3759464Y29624746D01*
X3757720Y29558229D01*
X3757630Y29533959D01*
X3757630Y29399259D01*
X3757630Y29126444D01*
X3513037Y29126444D01*
X3513176Y29439241D01*
G37*
X3513176Y29439241D02*
X3513421Y29535876D01*
X3514242Y29615966D01*
X3515908Y29681775D01*
X3518689Y29735569D01*
X3522856Y29779615D01*
X3528677Y29816178D01*
X3536422Y29847524D01*
X3546362Y29875919D01*
X3558765Y29903629D01*
X3571383Y29928217D01*
X3616175Y29992426D01*
X3676528Y30046828D01*
X3751596Y30090832D01*
X3840537Y30123845D01*
X3856407Y30128174D01*
X3942027Y30145520D01*
X4035157Y30155776D01*
X4132205Y30159192D01*
X4229579Y30156022D01*
X4323685Y30146517D01*
X4410931Y30130930D01*
X4487725Y30109512D01*
X4550474Y30082516D01*
X4556666Y30079043D01*
X4608206Y30043484D01*
X4656139Y29999967D01*
X4694392Y29954265D01*
X4704633Y29938374D01*
X4719698Y29915057D01*
X4731857Y29900408D01*
X4736019Y29897852D01*
X4746124Y29900773D01*
X4772409Y29909173D01*
X4813228Y29922506D01*
X4866937Y29940227D01*
X4931891Y29961790D01*
X5006445Y29986650D01*
X5088955Y30014262D01*
X5177774Y30044079D01*
X5232459Y30062481D01*
X5324348Y30093364D01*
X5410997Y30122360D01*
X5490748Y30148923D01*
X5561942Y30172505D01*
X5622919Y30192560D01*
X5672021Y30208542D01*
X5707588Y30219904D01*
X5727962Y30226100D01*
X5732172Y30227111D01*
X5736601Y30221110D01*
X5739482Y30202031D01*
X5740909Y30168262D01*
X5740975Y30118192D01*
X5740486Y30084206D01*
X5737889Y29941301D01*
X5262815Y29789485D01*
X4787741Y29637668D01*
X4785108Y29518464D01*
X4782475Y29399259D01*
X5742593Y29399259D01*
X5742593Y29126444D01*
X3757630Y29126444D01*
X3757630Y29399259D01*
X4540030Y29399259D01*
X4536886Y29556833D01*
X4535546Y29615515D01*
X4533922Y29658789D01*
X4531561Y29690061D01*
X4528010Y29712739D01*
X4522818Y29730228D01*
X4515532Y29745934D01*
X4510608Y29754804D01*
X4487880Y29785208D01*
X4458172Y29813747D01*
X4446801Y29822144D01*
X4416704Y29839812D01*
X4384728Y29853166D01*
X4347740Y29862745D01*
X4302607Y29869088D01*
X4246194Y29872734D01*
X4175368Y29874222D01*
X4143333Y29874333D01*
X4065022Y29873430D01*
X4002471Y29870263D01*
X3952695Y29864152D01*
X3912705Y29854411D01*
X3879514Y29840360D01*
X3850135Y29821313D01*
X3827474Y29802117D01*
X3803215Y29776775D01*
X3785110Y29749535D01*
X3772334Y29717230D01*
X3764060Y29676690D01*
X3759464Y29624746D01*
X3757720Y29558229D01*
X3757630Y29533959D01*
X3757630Y29399259D01*
X3757630Y29126444D01*
X3513037Y29126444D01*
X3513176Y29439241D01*
G36*
X5742593Y30857407D02*
G01*
X5742593Y30584592D01*
X3513037Y30584592D01*
X3513037Y30857407D01*
X5742593Y30857407D01*
G37*
X5742593Y30857407D02*
X5742593Y30584592D01*
X3513037Y30584592D01*
X3513037Y30857407D01*
X5742593Y30857407D01*
G36*
X5742593Y32437852D02*
G01*
X5742593Y32187620D01*
X4995107Y31905866D01*
X4247622Y31624111D01*
X4995107Y31621703D01*
X5742593Y31619295D01*
X5742593Y31346592D01*
X3513037Y31346592D01*
X3513192Y31475944D01*
X3513346Y31605296D01*
X4258729Y31884734D01*
X5004111Y32164172D01*
X4258574Y32164604D01*
X3513037Y32165037D01*
X3513037Y32437852D01*
X5742593Y32437852D01*
G37*
X5742593Y32437852D02*
X5742593Y32187620D01*
X4995107Y31905866D01*
X4247622Y31624111D01*
X4995107Y31621703D01*
X5742593Y31619295D01*
X5742593Y31346592D01*
X3513037Y31346592D01*
X3513192Y31475944D01*
X3513346Y31605296D01*
X4258729Y31884734D01*
X5004111Y32164172D01*
X4258574Y32164604D01*
X3513037Y32165037D01*
X3513037Y32437852D01*
X5742593Y32437852D01*
G36*
X3538907Y33494454D02*
G01*
X3551273Y33497232D01*
X3580800Y33503989D01*
X3626321Y33514454D01*
X3686668Y33528359D01*
X3760675Y33545433D01*
X3847174Y33565407D01*
X3944998Y33588010D01*
X4052978Y33612974D01*
X4169948Y33640029D01*
X4294741Y33668904D01*
X4426188Y33699331D01*
X4563123Y33731039D01*
X4643389Y33749630D01*
X4782579Y33781852D01*
X4916718Y33812867D01*
X5044660Y33842410D01*
X5165261Y33870219D01*
X5277374Y33896032D01*
X5379854Y33919585D01*
X5471557Y33940617D01*
X5551338Y33958863D01*
X5618049Y33974062D01*
X5670548Y33985950D01*
X5707688Y33994265D01*
X5728323Y33998744D01*
X5732296Y33999481D01*
X5736786Y33991098D01*
X5739972Y33965589D01*
X5741894Y33922419D01*
X5742589Y33861051D01*
X5742593Y33855349D01*
X5742593Y33711217D01*
X5523870Y33666423D01*
X5459330Y33653195D01*
X5398406Y33640687D01*
X5344369Y33629574D01*
X5300491Y33620528D01*
X5270041Y33614222D01*
X5260463Y33612220D01*
X5215778Y33602811D01*
X5215778Y33349591D01*
X5215879Y33282775D01*
X5216163Y33222568D01*
X5216604Y33171397D01*
X5217174Y33131690D01*
X5217846Y33105874D01*
X5218592Y33096378D01*
X5218614Y33096370D01*
X5228204Y33094593D01*
X5253870Y33089574D01*
X5293240Y33081784D01*
X5343945Y33071694D01*
X5403615Y33059775D01*
X5469880Y33046497D01*
X5479185Y33044629D01*
X5546158Y33031204D01*
X5606855Y33019074D01*
X5658906Y33008711D01*
X5699942Y33000584D01*
X5727592Y32995164D01*
X5739487Y32992922D01*
X5739756Y32992889D01*
X5740725Y32984013D01*
X5741552Y32959510D01*
X5742174Y32922568D01*
X5742531Y32876376D01*
X5742593Y32846054D01*
X5742593Y32699219D01*
X5716722Y32705790D01*
X5704215Y32708775D01*
X5674605Y32715738D01*
X5629115Y32726394D01*
X5568970Y32740456D01*
X5495391Y32757640D01*
X5409602Y32777661D01*
X5312827Y32800233D01*
X5206287Y32825070D01*
X5091207Y32851887D01*
X4968809Y32880400D01*
X4959426Y32882585D01*
X4959426Y33152853D01*
X4963545Y33157204D01*
X4966654Y33171514D01*
X4968862Y33197620D01*
X4970279Y33237360D01*
X4971014Y33292570D01*
X4971185Y33350370D01*
X4971080Y33416284D01*
X4970633Y33465719D01*
X4969651Y33501010D01*
X4967937Y33524492D01*
X4965298Y33538500D01*
X4961537Y33545369D01*
X4956460Y33547434D01*
X4954722Y33547468D01*
X4942549Y33545560D01*
X4913729Y33540253D01*
X4870051Y33531897D01*
X4813306Y33520843D01*
X4745284Y33507444D01*
X4667774Y33492051D01*
X4582566Y33475015D01*
X4491451Y33456687D01*
X4458482Y33450030D01*
X4339603Y33425801D01*
X4238348Y33404737D01*
X4154856Y33386869D01*
X4089262Y33372229D01*
X4041706Y33360848D01*
X4012326Y33352757D01*
X4001258Y33347986D01*
X4002222Y33346948D01*
X4018247Y33343300D01*
X4049945Y33336524D01*
X4095188Y33327051D01*
X4151848Y33315312D01*
X4217799Y33301739D01*
X4290912Y33286764D01*
X4369060Y33270817D01*
X4450115Y33254331D01*
X4531949Y33237736D01*
X4612435Y33221465D01*
X4689445Y33205948D01*
X4760851Y33191617D01*
X4824526Y33178904D01*
X4878342Y33168240D01*
X4920171Y33160056D01*
X4947886Y33154783D01*
X4959359Y33152854D01*
X4959426Y33152853D01*
X4959426Y32882585D01*
X4840316Y32910322D01*
X4706952Y32941369D01*
X4703074Y32942271D01*
X4567758Y32973772D01*
X4436037Y33004445D01*
X4309259Y33033976D01*
X4188774Y33062050D01*
X4075928Y33088354D01*
X3972071Y33112572D01*
X3878550Y33134390D01*
X3796714Y33153495D01*
X3727910Y33169570D01*
X3673488Y33182303D01*
X3634795Y33191377D01*
X3614167Y33196245D01*
X3513037Y33220308D01*
X3513037Y33489129D01*
X3538907Y33494454D01*
G37*
X3538907Y33494454D02*
X3551273Y33497232D01*
X3580800Y33503989D01*
X3626321Y33514454D01*
X3686668Y33528359D01*
X3760675Y33545433D01*
X3847174Y33565407D01*
X3944998Y33588010D01*
X4052978Y33612974D01*
X4169948Y33640029D01*
X4294741Y33668904D01*
X4426188Y33699331D01*
X4563123Y33731039D01*
X4643389Y33749630D01*
X4782579Y33781852D01*
X4916718Y33812867D01*
X5044660Y33842410D01*
X5165261Y33870219D01*
X5277374Y33896032D01*
X5379854Y33919585D01*
X5471557Y33940617D01*
X5551338Y33958863D01*
X5618049Y33974062D01*
X5670548Y33985950D01*
X5707688Y33994265D01*
X5728323Y33998744D01*
X5732296Y33999481D01*
X5736786Y33991098D01*
X5739972Y33965589D01*
X5741894Y33922419D01*
X5742589Y33861051D01*
X5742593Y33855349D01*
X5742593Y33711217D01*
X5523870Y33666423D01*
X5459330Y33653195D01*
X5398406Y33640687D01*
X5344369Y33629574D01*
X5300491Y33620528D01*
X5270041Y33614222D01*
X5260463Y33612220D01*
X5215778Y33602811D01*
X5215778Y33349591D01*
X5215879Y33282775D01*
X5216163Y33222568D01*
X5216604Y33171397D01*
X5217174Y33131690D01*
X5217846Y33105874D01*
X5218592Y33096378D01*
X5218614Y33096370D01*
X5228204Y33094593D01*
X5253870Y33089574D01*
X5293240Y33081784D01*
X5343945Y33071694D01*
X5403615Y33059775D01*
X5469880Y33046497D01*
X5479185Y33044629D01*
X5546158Y33031204D01*
X5606855Y33019074D01*
X5658906Y33008711D01*
X5699942Y33000584D01*
X5727592Y32995164D01*
X5739487Y32992922D01*
X5739756Y32992889D01*
X5740725Y32984013D01*
X5741552Y32959510D01*
X5742174Y32922568D01*
X5742531Y32876376D01*
X5742593Y32846054D01*
X5742593Y32699219D01*
X5716722Y32705790D01*
X5704215Y32708775D01*
X5674605Y32715738D01*
X5629115Y32726394D01*
X5568970Y32740456D01*
X5495391Y32757640D01*
X5409602Y32777661D01*
X5312827Y32800233D01*
X5206287Y32825070D01*
X5091207Y32851887D01*
X4968809Y32880400D01*
X4959426Y32882585D01*
X4959426Y33152853D01*
X4963545Y33157204D01*
X4966654Y33171514D01*
X4968862Y33197620D01*
X4970279Y33237360D01*
X4971014Y33292570D01*
X4971185Y33350370D01*
X4971080Y33416284D01*
X4970633Y33465719D01*
X4969651Y33501010D01*
X4967937Y33524492D01*
X4965298Y33538500D01*
X4961537Y33545369D01*
X4956460Y33547434D01*
X4954722Y33547468D01*
X4942549Y33545560D01*
X4913729Y33540253D01*
X4870051Y33531897D01*
X4813306Y33520843D01*
X4745284Y33507444D01*
X4667774Y33492051D01*
X4582566Y33475015D01*
X4491451Y33456687D01*
X4458482Y33450030D01*
X4339603Y33425801D01*
X4238348Y33404737D01*
X4154856Y33386869D01*
X4089262Y33372229D01*
X4041706Y33360848D01*
X4012326Y33352757D01*
X4001258Y33347986D01*
X4002222Y33346948D01*
X4018247Y33343300D01*
X4049945Y33336524D01*
X4095188Y33327051D01*
X4151848Y33315312D01*
X4217799Y33301739D01*
X4290912Y33286764D01*
X4369060Y33270817D01*
X4450115Y33254331D01*
X4531949Y33237736D01*
X4612435Y33221465D01*
X4689445Y33205948D01*
X4760851Y33191617D01*
X4824526Y33178904D01*
X4878342Y33168240D01*
X4920171Y33160056D01*
X4947886Y33154783D01*
X4959359Y33152854D01*
X4959426Y33152853D01*
X4959426Y32882585D01*
X4840316Y32910322D01*
X4706952Y32941369D01*
X4703074Y32942271D01*
X4567758Y32973772D01*
X4436037Y33004445D01*
X4309259Y33033976D01*
X4188774Y33062050D01*
X4075928Y33088354D01*
X3972071Y33112572D01*
X3878550Y33134390D01*
X3796714Y33153495D01*
X3727910Y33169570D01*
X3673488Y33182303D01*
X3634795Y33191377D01*
X3614167Y33196245D01*
X3513037Y33220308D01*
X3513037Y33489129D01*
X3538907Y33494454D01*
G36*
X5742593Y35674000D02*
G01*
X5742593Y35391778D01*
X4968833Y35391234D01*
X4195074Y35390690D01*
X4696019Y35220764D01*
X5196963Y35050838D01*
X5196963Y34877201D01*
X4702553Y34708804D01*
X4208142Y34540407D01*
X4975367Y34538000D01*
X5742593Y34535594D01*
X5742593Y34262889D01*
X3513037Y34262889D01*
X3513037Y34393586D01*
X3513275Y34446152D01*
X3514227Y34482906D01*
X3516254Y34506848D01*
X3519715Y34520976D01*
X3524972Y34528291D01*
X3529500Y34530804D01*
X3540982Y34535063D01*
X3568638Y34545183D01*
X3610953Y34560614D01*
X3666413Y34580804D01*
X3733503Y34605204D01*
X3810709Y34633261D01*
X3896516Y34664426D01*
X3989410Y34698148D01*
X4087875Y34733876D01*
X4128417Y34748582D01*
X4228443Y34784895D01*
X4323306Y34819400D01*
X4411518Y34851550D01*
X4491589Y34880800D01*
X4562029Y34906604D01*
X4621349Y34928415D01*
X4668059Y34945688D01*
X4700670Y34957876D01*
X4717691Y34964434D01*
X4719821Y34965370D01*
X4712731Y34969394D01*
X4689329Y34979219D01*
X4651021Y34994318D01*
X4599214Y35014161D01*
X4535314Y35038223D01*
X4460729Y35065975D01*
X4376864Y35096890D01*
X4285126Y35130440D01*
X4186922Y35166099D01*
X4123256Y35189088D01*
X3517741Y35407275D01*
X3515131Y35540638D01*
X3512521Y35674000D01*
X5742593Y35674000D01*
G37*
X5742593Y35674000D02*
X5742593Y35391778D01*
X4968833Y35391234D01*
X4195074Y35390690D01*
X4696019Y35220764D01*
X5196963Y35050838D01*
X5196963Y34877201D01*
X4702553Y34708804D01*
X4208142Y34540407D01*
X4975367Y34538000D01*
X5742593Y34535594D01*
X5742593Y34262889D01*
X3513037Y34262889D01*
X3513037Y34393586D01*
X3513275Y34446152D01*
X3514227Y34482906D01*
X3516254Y34506848D01*
X3519715Y34520976D01*
X3524972Y34528291D01*
X3529500Y34530804D01*
X3540982Y34535063D01*
X3568638Y34545183D01*
X3610953Y34560614D01*
X3666413Y34580804D01*
X3733503Y34605204D01*
X3810709Y34633261D01*
X3896516Y34664426D01*
X3989410Y34698148D01*
X4087875Y34733876D01*
X4128417Y34748582D01*
X4228443Y34784895D01*
X4323306Y34819400D01*
X4411518Y34851550D01*
X4491589Y34880800D01*
X4562029Y34906604D01*
X4621349Y34928415D01*
X4668059Y34945688D01*
X4700670Y34957876D01*
X4717691Y34964434D01*
X4719821Y34965370D01*
X4712731Y34969394D01*
X4689329Y34979219D01*
X4651021Y34994318D01*
X4599214Y35014161D01*
X4535314Y35038223D01*
X4460729Y35065975D01*
X4376864Y35096890D01*
X4285126Y35130440D01*
X4186922Y35166099D01*
X4123256Y35189088D01*
X3517741Y35407275D01*
X3515131Y35540638D01*
X3512521Y35674000D01*
X5742593Y35674000D01*
G36*
X5742593Y36436000D02*
G01*
X5742593Y36153778D01*
X3513037Y36153778D01*
X3513037Y36436000D01*
X5742593Y36436000D01*
G37*
X5742593Y36436000D02*
X5742593Y36153778D01*
X3513037Y36153778D01*
X3513037Y36436000D01*
X5742593Y36436000D01*
G36*
X2126627Y31957193D02*
G01*
X2128380Y31984719D01*
X2131139Y31999478D01*
X2131735Y32000406D01*
X2141065Y31997362D01*
X2164721Y31985853D01*
X2200792Y31966915D01*
X2247364Y31941587D01*
X2302526Y31910905D01*
X2364363Y31875906D01*
X2416504Y31845988D01*
X2482414Y31808081D01*
X2543232Y31773359D01*
X2597024Y31742907D01*
X2641854Y31717810D01*
X2675788Y31699153D01*
X2696889Y31688021D01*
X2703188Y31685259D01*
X2708332Y31686943D01*
X2712503Y31693155D01*
X2715802Y31705636D01*
X2718327Y31726125D01*
X2720177Y31756364D01*
X2721452Y31798091D01*
X2722249Y31853047D01*
X2722670Y31922972D01*
X2722811Y32009607D01*
X2722815Y32030033D01*
X2722815Y32345045D01*
X2743982Y32338701D01*
X2778083Y32323419D01*
X2818601Y32297615D01*
X2859939Y32265249D01*
X2895135Y32231751D01*
X2947111Y32163065D01*
X2984776Y32085152D01*
X3007233Y32001539D01*
X3013585Y31915753D01*
X3002936Y31831319D01*
X2999942Y31819452D01*
X2968394Y31735938D01*
X2922063Y31660988D01*
X2863071Y31596781D01*
X2793541Y31545497D01*
X2715595Y31509316D01*
X2690515Y31501632D01*
X2616071Y31488973D01*
X2537106Y31488568D01*
X2460166Y31499936D01*
X2391798Y31522593D01*
X2388958Y31523902D01*
X2322282Y31560027D01*
X2268413Y31601355D01*
X2221344Y31652716D01*
X2209440Y31668364D01*
X2165169Y31744112D01*
X2137158Y31827971D01*
X2126315Y31917177D01*
X2126236Y31921992D01*
X2126627Y31957193D01*
G37*
X2126627Y31957193D02*
X2128380Y31984719D01*
X2131139Y31999478D01*
X2131735Y32000406D01*
X2141065Y31997362D01*
X2164721Y31985853D01*
X2200792Y31966915D01*
X2247364Y31941587D01*
X2302526Y31910905D01*
X2364363Y31875906D01*
X2416504Y31845988D01*
X2482414Y31808081D01*
X2543232Y31773359D01*
X2597024Y31742907D01*
X2641854Y31717810D01*
X2675788Y31699153D01*
X2696889Y31688021D01*
X2703188Y31685259D01*
X2708332Y31686943D01*
X2712503Y31693155D01*
X2715802Y31705636D01*
X2718327Y31726125D01*
X2720177Y31756364D01*
X2721452Y31798091D01*
X2722249Y31853047D01*
X2722670Y31922972D01*
X2722811Y32009607D01*
X2722815Y32030033D01*
X2722815Y32345045D01*
X2743982Y32338701D01*
X2778083Y32323419D01*
X2818601Y32297615D01*
X2859939Y32265249D01*
X2895135Y32231751D01*
X2947111Y32163065D01*
X2984776Y32085152D01*
X3007233Y32001539D01*
X3013585Y31915753D01*
X3002936Y31831319D01*
X2999942Y31819452D01*
X2968394Y31735938D01*
X2922063Y31660988D01*
X2863071Y31596781D01*
X2793541Y31545497D01*
X2715595Y31509316D01*
X2690515Y31501632D01*
X2616071Y31488973D01*
X2537106Y31488568D01*
X2460166Y31499936D01*
X2391798Y31522593D01*
X2388958Y31523902D01*
X2322282Y31560027D01*
X2268413Y31601355D01*
X2221344Y31652716D01*
X2209440Y31668364D01*
X2165169Y31744112D01*
X2137158Y31827971D01*
X2126315Y31917177D01*
X2126236Y31921992D01*
X2126627Y31957193D01*
G36*
X2126236Y33847415D02*
G01*
X2136147Y33936826D01*
X2163272Y34021037D01*
X2206706Y34097284D01*
X2209440Y34101043D01*
X2255722Y34155817D01*
X2307238Y34199296D01*
X2369994Y34236312D01*
X2388958Y34245505D01*
X2456774Y34268670D01*
X2533462Y34280570D01*
X2612477Y34280719D01*
X2687274Y34268635D01*
X2690515Y34267775D01*
X2770413Y34236847D01*
X2841356Y34191084D01*
X2901977Y34132869D01*
X2950905Y34064585D01*
X2986773Y33988615D01*
X3008210Y33907341D01*
X3013849Y33823147D01*
X3002320Y33738416D01*
X2999942Y33729155D01*
X2968726Y33645830D01*
X2923124Y33571031D01*
X2895135Y33537656D01*
X2858257Y33502716D01*
X2816840Y33470546D01*
X2776479Y33445105D01*
X2743982Y33430706D01*
X2722815Y33424362D01*
X2722815Y33739374D01*
X2722719Y33829730D01*
X2722365Y33903011D01*
X2721655Y33960959D01*
X2720489Y34005313D01*
X2718767Y34037813D01*
X2716392Y34060200D01*
X2713263Y34074214D01*
X2709283Y34081596D01*
X2704351Y34084084D01*
X2703188Y34084148D01*
X2693378Y34079603D01*
X2669235Y34066691D01*
X2632693Y34046498D01*
X2585687Y34020108D01*
X2530154Y33988605D01*
X2468027Y33953076D01*
X2416504Y33923419D01*
X2350754Y33885751D01*
X2290176Y33851583D01*
X2236680Y33821952D01*
X2192180Y33797896D01*
X2158589Y33780451D01*
X2137818Y33770655D01*
X2131735Y33769001D01*
X2128828Y33780823D01*
X2126860Y33806360D01*
X2126190Y33840519D01*
X2126236Y33847415D01*
G37*
X2126236Y33847415D02*
X2136147Y33936826D01*
X2163272Y34021037D01*
X2206706Y34097284D01*
X2209440Y34101043D01*
X2255722Y34155817D01*
X2307238Y34199296D01*
X2369994Y34236312D01*
X2388958Y34245505D01*
X2456774Y34268670D01*
X2533462Y34280570D01*
X2612477Y34280719D01*
X2687274Y34268635D01*
X2690515Y34267775D01*
X2770413Y34236847D01*
X2841356Y34191084D01*
X2901977Y34132869D01*
X2950905Y34064585D01*
X2986773Y33988615D01*
X3008210Y33907341D01*
X3013849Y33823147D01*
X3002320Y33738416D01*
X2999942Y33729155D01*
X2968726Y33645830D01*
X2923124Y33571031D01*
X2895135Y33537656D01*
X2858257Y33502716D01*
X2816840Y33470546D01*
X2776479Y33445105D01*
X2743982Y33430706D01*
X2722815Y33424362D01*
X2722815Y33739374D01*
X2722719Y33829730D01*
X2722365Y33903011D01*
X2721655Y33960959D01*
X2720489Y34005313D01*
X2718767Y34037813D01*
X2716392Y34060200D01*
X2713263Y34074214D01*
X2709283Y34081596D01*
X2704351Y34084084D01*
X2703188Y34084148D01*
X2693378Y34079603D01*
X2669235Y34066691D01*
X2632693Y34046498D01*
X2585687Y34020108D01*
X2530154Y33988605D01*
X2468027Y33953076D01*
X2416504Y33923419D01*
X2350754Y33885751D01*
X2290176Y33851583D01*
X2236680Y33821952D01*
X2192180Y33797896D01*
X2158589Y33780451D01*
X2137818Y33770655D01*
X2131735Y33769001D01*
X2128828Y33780823D01*
X2126860Y33806360D01*
X2126190Y33840519D01*
X2126236Y33847415D01*
G36*
X2085109Y32881613D02*
G01*
X2089686Y32895300D01*
X2098225Y32914816D01*
X2111393Y32941415D01*
X2129859Y32976353D01*
X2154290Y33020883D01*
X2185355Y33076262D01*
X2223720Y33143744D01*
X2270055Y33224586D01*
X2325027Y33320040D01*
X2342995Y33351182D01*
X2392524Y33436889D01*
X2439393Y33517787D01*
X2482733Y33592395D01*
X2521680Y33659230D01*
X2555364Y33716808D01*
X2582919Y33763646D01*
X2603478Y33798261D01*
X2616174Y33819171D01*
X2620021Y33824974D01*
X2621452Y33817203D01*
X2622775Y33791314D01*
X2623982Y33748004D01*
X2625069Y33687971D01*
X2626028Y33611910D01*
X2626853Y33520519D01*
X2627537Y33414495D01*
X2628074Y33294535D01*
X2628458Y33161335D01*
X2628681Y33015592D01*
X2628741Y32884704D01*
X2628657Y32731067D01*
X2628409Y32588816D01*
X2628004Y32458701D01*
X2627449Y32341471D01*
X2626751Y32237877D01*
X2625916Y32148668D01*
X2624953Y32074595D01*
X2623867Y32016408D01*
X2622666Y31974856D01*
X2621356Y31950690D01*
X2620083Y31944433D01*
X2614336Y31953545D01*
X2600228Y31977167D01*
X2578797Y32013513D01*
X2551078Y32060794D01*
X2518110Y32117222D01*
X2480930Y32181008D01*
X2440574Y32250365D01*
X2398080Y32323504D01*
X2354485Y32398638D01*
X2310826Y32473977D01*
X2268140Y32547735D01*
X2227465Y32618122D01*
X2189837Y32683351D01*
X2156293Y32741633D01*
X2127871Y32791180D01*
X2105608Y32830205D01*
X2090541Y32856918D01*
X2085168Y32866701D01*
X2083825Y32872498D01*
X2085109Y32881613D01*
G37*
X2085109Y32881613D02*
X2089686Y32895300D01*
X2098225Y32914816D01*
X2111393Y32941415D01*
X2129859Y32976353D01*
X2154290Y33020883D01*
X2185355Y33076262D01*
X2223720Y33143744D01*
X2270055Y33224586D01*
X2325027Y33320040D01*
X2342995Y33351182D01*
X2392524Y33436889D01*
X2439393Y33517787D01*
X2482733Y33592395D01*
X2521680Y33659230D01*
X2555364Y33716808D01*
X2582919Y33763646D01*
X2603478Y33798261D01*
X2616174Y33819171D01*
X2620021Y33824974D01*
X2621452Y33817203D01*
X2622775Y33791314D01*
X2623982Y33748004D01*
X2625069Y33687971D01*
X2626028Y33611910D01*
X2626853Y33520519D01*
X2627537Y33414495D01*
X2628074Y33294535D01*
X2628458Y33161335D01*
X2628681Y33015592D01*
X2628741Y32884704D01*
X2628657Y32731067D01*
X2628409Y32588816D01*
X2628004Y32458701D01*
X2627449Y32341471D01*
X2626751Y32237877D01*
X2625916Y32148668D01*
X2624953Y32074595D01*
X2623867Y32016408D01*
X2622666Y31974856D01*
X2621356Y31950690D01*
X2620083Y31944433D01*
X2614336Y31953545D01*
X2600228Y31977167D01*
X2578797Y32013513D01*
X2551078Y32060794D01*
X2518110Y32117222D01*
X2480930Y32181008D01*
X2440574Y32250365D01*
X2398080Y32323504D01*
X2354485Y32398638D01*
X2310826Y32473977D01*
X2268140Y32547735D01*
X2227465Y32618122D01*
X2189837Y32683351D01*
X2156293Y32741633D01*
X2127871Y32791180D01*
X2105608Y32830205D01*
X2090541Y32856918D01*
X2085168Y32866701D01*
X2083825Y32872498D01*
X2085109Y32881613D01*
G36*
X897566Y32830069D02*
G01*
X923167Y32830659D01*
X964333Y32831196D01*
X1019436Y32831670D01*
X1086853Y32832071D01*
X1164958Y32832389D01*
X1252125Y32832615D01*
X1346729Y32832738D01*
X1439488Y32832753D01*
X1993741Y32832543D01*
X2261852Y32366778D01*
X2319928Y32265871D01*
X2369290Y32180046D01*
X2410615Y32108085D01*
X2444584Y32048769D01*
X2471876Y32000879D01*
X2493171Y31963195D01*
X2509148Y31934500D01*
X2520487Y31913574D01*
X2527867Y31899198D01*
X2531967Y31890153D01*
X2533467Y31885221D01*
X2533047Y31883183D01*
X2531641Y31882815D01*
X2523173Y31887394D01*
X2499745Y31900621D01*
X2462686Y31921729D01*
X2413328Y31949952D01*
X2352999Y31984523D01*
X2283031Y32024675D01*
X2204752Y32069643D01*
X2119494Y32118659D01*
X2028585Y32170957D01*
X1933357Y32225770D01*
X1835138Y32282332D01*
X1735260Y32339876D01*
X1635052Y32397636D01*
X1535844Y32454845D01*
X1438967Y32510737D01*
X1345749Y32564546D01*
X1257522Y32615503D01*
X1175615Y32662844D01*
X1101359Y32705801D01*
X1036083Y32743609D01*
X981117Y32775499D01*
X937791Y32800707D01*
X907436Y32818465D01*
X891382Y32828007D01*
X889154Y32829435D01*
X897566Y32830069D01*
G37*
X897566Y32830069D02*
X923167Y32830659D01*
X964333Y32831196D01*
X1019436Y32831670D01*
X1086853Y32832071D01*
X1164958Y32832389D01*
X1252125Y32832615D01*
X1346729Y32832738D01*
X1439488Y32832753D01*
X1993741Y32832543D01*
X2261852Y32366778D01*
X2319928Y32265871D01*
X2369290Y32180046D01*
X2410615Y32108085D01*
X2444584Y32048769D01*
X2471876Y32000879D01*
X2493171Y31963195D01*
X2509148Y31934500D01*
X2520487Y31913574D01*
X2527867Y31899198D01*
X2531967Y31890153D01*
X2533467Y31885221D01*
X2533047Y31883183D01*
X2531641Y31882815D01*
X2523173Y31887394D01*
X2499745Y31900621D01*
X2462686Y31921729D01*
X2413328Y31949952D01*
X2352999Y31984523D01*
X2283031Y32024675D01*
X2204752Y32069643D01*
X2119494Y32118659D01*
X2028585Y32170957D01*
X1933357Y32225770D01*
X1835138Y32282332D01*
X1735260Y32339876D01*
X1635052Y32397636D01*
X1535844Y32454845D01*
X1438967Y32510737D01*
X1345749Y32564546D01*
X1257522Y32615503D01*
X1175615Y32662844D01*
X1101359Y32705801D01*
X1036083Y32743609D01*
X981117Y32775499D01*
X937791Y32800707D01*
X907436Y32818465D01*
X891382Y32828007D01*
X889154Y32829435D01*
X897566Y32830069D01*
G36*
X897894Y32945389D02*
G01*
X921567Y32959292D01*
X958842Y32981014D01*
X1008390Y33009790D01*
X1068881Y33044851D01*
X1138986Y33085431D01*
X1217374Y33130764D01*
X1302715Y33180082D01*
X1393680Y33232619D01*
X1488939Y33287608D01*
X1587162Y33344282D01*
X1687019Y33401875D01*
X1787180Y33459620D01*
X1886316Y33516750D01*
X1983096Y33572497D01*
X2076191Y33626097D01*
X2164271Y33676781D01*
X2246005Y33723783D01*
X2320065Y33766336D01*
X2385120Y33803673D01*
X2439840Y33835029D01*
X2482896Y33859635D01*
X2512958Y33876725D01*
X2528695Y33885532D01*
X2530770Y33886592D01*
X2534205Y33879710D01*
X2534195Y33879537D01*
X2529532Y33870316D01*
X2516278Y33846279D01*
X2495269Y33808894D01*
X2467340Y33759627D01*
X2433327Y33699945D01*
X2394066Y33631316D01*
X2350392Y33555207D01*
X2303142Y33473085D01*
X2263732Y33404744D01*
X1993741Y32937008D01*
X1439488Y32936726D01*
X1339450Y32936735D01*
X1245345Y32936859D01*
X1158798Y32937088D01*
X1081434Y32937413D01*
X1014880Y32937823D01*
X960760Y32938309D01*
X920700Y32938861D01*
X896325Y32939468D01*
X889154Y32940072D01*
X897894Y32945389D01*
G37*
X897894Y32945389D02*
X921567Y32959292D01*
X958842Y32981014D01*
X1008390Y33009790D01*
X1068881Y33044851D01*
X1138986Y33085431D01*
X1217374Y33130764D01*
X1302715Y33180082D01*
X1393680Y33232619D01*
X1488939Y33287608D01*
X1587162Y33344282D01*
X1687019Y33401875D01*
X1787180Y33459620D01*
X1886316Y33516750D01*
X1983096Y33572497D01*
X2076191Y33626097D01*
X2164271Y33676781D01*
X2246005Y33723783D01*
X2320065Y33766336D01*
X2385120Y33803673D01*
X2439840Y33835029D01*
X2482896Y33859635D01*
X2512958Y33876725D01*
X2528695Y33885532D01*
X2530770Y33886592D01*
X2534205Y33879710D01*
X2534195Y33879537D01*
X2529532Y33870316D01*
X2516278Y33846279D01*
X2495269Y33808894D01*
X2467340Y33759627D01*
X2433327Y33699945D01*
X2394066Y33631316D01*
X2350392Y33555207D01*
X2303142Y33473085D01*
X2263732Y33404744D01*
X1993741Y32937008D01*
X1439488Y32936726D01*
X1339450Y32936735D01*
X1245345Y32936859D01*
X1158798Y32937088D01*
X1081434Y32937413D01*
X1014880Y32937823D01*
X960760Y32938309D01*
X920700Y32938861D01*
X896325Y32939468D01*
X889154Y32940072D01*
X897894Y32945389D01*
G36*
X482617Y32977389D02*
G01*
X507301Y33061181D01*
X548741Y33136643D01*
X607186Y33204342D01*
X618479Y33214805D01*
X692247Y33269019D01*
X773165Y33306285D01*
X859315Y33326139D01*
X948780Y33328117D01*
X1030245Y33314309D01*
X1061777Y33304004D01*
X1097552Y33289168D01*
X1133346Y33271987D01*
X1164934Y33254650D01*
X1188091Y33239345D01*
X1198591Y33228259D01*
X1198815Y33227019D01*
X1190961Y33220964D01*
X1168638Y33206676D01*
X1133706Y33185273D01*
X1088023Y33157870D01*
X1033447Y33125584D01*
X971839Y33089533D01*
X916593Y33057491D01*
X850517Y33019046D01*
X789935Y32983276D01*
X736710Y32951318D01*
X692704Y32924315D01*
X659778Y32903405D01*
X639794Y32889728D01*
X634370Y32884693D01*
X642235Y32877870D01*
X664587Y32862877D01*
X699563Y32840852D01*
X745302Y32812936D01*
X799939Y32780268D01*
X861613Y32743987D01*
X916593Y32712072D01*
X982644Y32673770D01*
X1043205Y32638295D01*
X1096418Y32606763D01*
X1140421Y32580293D01*
X1173355Y32560000D01*
X1193361Y32547002D01*
X1198815Y32542554D01*
X1191381Y32534671D01*
X1171921Y32520483D01*
X1145486Y32503580D01*
X1065062Y32465375D01*
X980362Y32444437D01*
X893971Y32440518D01*
X808473Y32453367D01*
X726455Y32482734D01*
X650501Y32528368D01*
X618479Y32554602D01*
X557206Y32621075D01*
X512977Y32695218D01*
X485546Y32777596D01*
X474666Y32868776D01*
X474445Y32884704D01*
X482617Y32977389D01*
G37*
X482617Y32977389D02*
X507301Y33061181D01*
X548741Y33136643D01*
X607186Y33204342D01*
X618479Y33214805D01*
X692247Y33269019D01*
X773165Y33306285D01*
X859315Y33326139D01*
X948780Y33328117D01*
X1030245Y33314309D01*
X1061777Y33304004D01*
X1097552Y33289168D01*
X1133346Y33271987D01*
X1164934Y33254650D01*
X1188091Y33239345D01*
X1198591Y33228259D01*
X1198815Y33227019D01*
X1190961Y33220964D01*
X1168638Y33206676D01*
X1133706Y33185273D01*
X1088023Y33157870D01*
X1033447Y33125584D01*
X971839Y33089533D01*
X916593Y33057491D01*
X850517Y33019046D01*
X789935Y32983276D01*
X736710Y32951318D01*
X692704Y32924315D01*
X659778Y32903405D01*
X639794Y32889728D01*
X634370Y32884693D01*
X642235Y32877870D01*
X664587Y32862877D01*
X699563Y32840852D01*
X745302Y32812936D01*
X799939Y32780268D01*
X861613Y32743987D01*
X916593Y32712072D01*
X982644Y32673770D01*
X1043205Y32638295D01*
X1096418Y32606763D01*
X1140421Y32580293D01*
X1173355Y32560000D01*
X1193361Y32547002D01*
X1198815Y32542554D01*
X1191381Y32534671D01*
X1171921Y32520483D01*
X1145486Y32503580D01*
X1065062Y32465375D01*
X980362Y32444437D01*
X893971Y32440518D01*
X808473Y32453367D01*
X726455Y32482734D01*
X650501Y32528368D01*
X618479Y32554602D01*
X557206Y32621075D01*
X512977Y32695218D01*
X485546Y32777596D01*
X474666Y32868776D01*
X474445Y32884704D01*
X482617Y32977389D01*
M02*
