G04 #@! TF.GenerationSoftware,KiCad,Pcbnew,(5.1.6)-1*
G04 #@! TF.CreationDate,2020-06-03T08:45:57+03:00*
G04 #@! TF.ProjectId,TMCM-0021 v1.0,544d434d-2d30-4303-9231-2076312e302e,rev?*
G04 #@! TF.SameCoordinates,Original*
G04 #@! TF.FileFunction,Soldermask,Bot*
G04 #@! TF.FilePolarity,Negative*
%FSLAX46Y46*%
G04 Gerber Fmt 4.6, Leading zero omitted, Abs format (unit mm)*
G04 Created by KiCad (PCBNEW (5.1.6)-1) date 2020-06-03 08:45:57*
%MOMM*%
%LPD*%
G01*
G04 APERTURE LIST*
%ADD10C,0.100000*%
G04 APERTURE END LIST*
D10*
G36*
X4331313Y6240477D02*
G01*
X4849980Y6025638D01*
X4849981Y6025637D01*
X5316769Y5713740D01*
X5713740Y5316769D01*
X5785887Y5208793D01*
X6025638Y4849980D01*
X6240477Y4331313D01*
X6350000Y3780702D01*
X6350000Y3219298D01*
X6240477Y2668687D01*
X6025638Y2150020D01*
X6025637Y2150019D01*
X5713740Y1683231D01*
X5316769Y1286260D01*
X5004871Y1077857D01*
X4849980Y974362D01*
X4331313Y759523D01*
X3780702Y650000D01*
X3219298Y650000D01*
X2668687Y759523D01*
X2150020Y974362D01*
X1995129Y1077857D01*
X1683231Y1286260D01*
X1286260Y1683231D01*
X974363Y2150019D01*
X974362Y2150020D01*
X759523Y2668687D01*
X650000Y3219298D01*
X650000Y3780702D01*
X759523Y4331313D01*
X974362Y4849980D01*
X1214113Y5208793D01*
X1286260Y5316769D01*
X1683231Y5713740D01*
X2150019Y6025637D01*
X2150020Y6025638D01*
X2668687Y6240477D01*
X3219298Y6350000D01*
X3780702Y6350000D01*
X4331313Y6240477D01*
G37*
G36*
X28894561Y3106943D02*
G01*
X28952520Y3095414D01*
X29116310Y3027570D01*
X29263717Y2929076D01*
X29389076Y2803717D01*
X29487570Y2656310D01*
X29555414Y2492520D01*
X29590000Y2318642D01*
X29590000Y2141358D01*
X29555414Y1967480D01*
X29487570Y1803690D01*
X29389076Y1656283D01*
X29263717Y1530924D01*
X29116310Y1432430D01*
X28952520Y1364586D01*
X28931505Y1360406D01*
X28778644Y1330000D01*
X28601356Y1330000D01*
X28448495Y1360406D01*
X28427480Y1364586D01*
X28263690Y1432430D01*
X28116283Y1530924D01*
X27990924Y1656283D01*
X27892430Y1803690D01*
X27824586Y1967480D01*
X27790000Y2141358D01*
X27790000Y2318642D01*
X27824586Y2492520D01*
X27892430Y2656310D01*
X27990924Y2803717D01*
X28116283Y2929076D01*
X28263690Y3027570D01*
X28427480Y3095414D01*
X28485439Y3106943D01*
X28601356Y3130000D01*
X28778644Y3130000D01*
X28894561Y3106943D01*
G37*
G36*
X26354561Y3106943D02*
G01*
X26412520Y3095414D01*
X26576310Y3027570D01*
X26723717Y2929076D01*
X26849076Y2803717D01*
X26947570Y2656310D01*
X27015414Y2492520D01*
X27050000Y2318642D01*
X27050000Y2141358D01*
X27015414Y1967480D01*
X26947570Y1803690D01*
X26849076Y1656283D01*
X26723717Y1530924D01*
X26576310Y1432430D01*
X26412520Y1364586D01*
X26391505Y1360406D01*
X26238644Y1330000D01*
X26061356Y1330000D01*
X25908495Y1360406D01*
X25887480Y1364586D01*
X25723690Y1432430D01*
X25576283Y1530924D01*
X25450924Y1656283D01*
X25352430Y1803690D01*
X25284586Y1967480D01*
X25250000Y2141358D01*
X25250000Y2318642D01*
X25284586Y2492520D01*
X25352430Y2656310D01*
X25450924Y2803717D01*
X25576283Y2929076D01*
X25723690Y3027570D01*
X25887480Y3095414D01*
X25945439Y3106943D01*
X26061356Y3130000D01*
X26238644Y3130000D01*
X26354561Y3106943D01*
G37*
G36*
X23814561Y3106943D02*
G01*
X23872520Y3095414D01*
X24036310Y3027570D01*
X24183717Y2929076D01*
X24309076Y2803717D01*
X24407570Y2656310D01*
X24475414Y2492520D01*
X24510000Y2318642D01*
X24510000Y2141358D01*
X24475414Y1967480D01*
X24407570Y1803690D01*
X24309076Y1656283D01*
X24183717Y1530924D01*
X24036310Y1432430D01*
X23872520Y1364586D01*
X23851505Y1360406D01*
X23698644Y1330000D01*
X23521356Y1330000D01*
X23368495Y1360406D01*
X23347480Y1364586D01*
X23183690Y1432430D01*
X23036283Y1530924D01*
X22910924Y1656283D01*
X22812430Y1803690D01*
X22744586Y1967480D01*
X22710000Y2141358D01*
X22710000Y2318642D01*
X22744586Y2492520D01*
X22812430Y2656310D01*
X22910924Y2803717D01*
X23036283Y2929076D01*
X23183690Y3027570D01*
X23347480Y3095414D01*
X23405439Y3106943D01*
X23521356Y3130000D01*
X23698644Y3130000D01*
X23814561Y3106943D01*
G37*
G36*
X21274561Y3106943D02*
G01*
X21332520Y3095414D01*
X21496310Y3027570D01*
X21643717Y2929076D01*
X21769076Y2803717D01*
X21867570Y2656310D01*
X21935414Y2492520D01*
X21970000Y2318642D01*
X21970000Y2141358D01*
X21935414Y1967480D01*
X21867570Y1803690D01*
X21769076Y1656283D01*
X21643717Y1530924D01*
X21496310Y1432430D01*
X21332520Y1364586D01*
X21311505Y1360406D01*
X21158644Y1330000D01*
X20981356Y1330000D01*
X20828495Y1360406D01*
X20807480Y1364586D01*
X20643690Y1432430D01*
X20496283Y1530924D01*
X20370924Y1656283D01*
X20272430Y1803690D01*
X20204586Y1967480D01*
X20170000Y2141358D01*
X20170000Y2318642D01*
X20204586Y2492520D01*
X20272430Y2656310D01*
X20370924Y2803717D01*
X20496283Y2929076D01*
X20643690Y3027570D01*
X20807480Y3095414D01*
X20865439Y3106943D01*
X20981356Y3130000D01*
X21158644Y3130000D01*
X21274561Y3106943D01*
G37*
G36*
X18734561Y3106943D02*
G01*
X18792520Y3095414D01*
X18956310Y3027570D01*
X19103717Y2929076D01*
X19229076Y2803717D01*
X19327570Y2656310D01*
X19395414Y2492520D01*
X19430000Y2318642D01*
X19430000Y2141358D01*
X19395414Y1967480D01*
X19327570Y1803690D01*
X19229076Y1656283D01*
X19103717Y1530924D01*
X18956310Y1432430D01*
X18792520Y1364586D01*
X18771505Y1360406D01*
X18618644Y1330000D01*
X18441356Y1330000D01*
X18288495Y1360406D01*
X18267480Y1364586D01*
X18103690Y1432430D01*
X17956283Y1530924D01*
X17830924Y1656283D01*
X17732430Y1803690D01*
X17664586Y1967480D01*
X17630000Y2141358D01*
X17630000Y2318642D01*
X17664586Y2492520D01*
X17732430Y2656310D01*
X17830924Y2803717D01*
X17956283Y2929076D01*
X18103690Y3027570D01*
X18267480Y3095414D01*
X18325439Y3106943D01*
X18441356Y3130000D01*
X18618644Y3130000D01*
X18734561Y3106943D01*
G37*
G36*
X16194561Y3106943D02*
G01*
X16252520Y3095414D01*
X16416310Y3027570D01*
X16563717Y2929076D01*
X16689076Y2803717D01*
X16787570Y2656310D01*
X16855414Y2492520D01*
X16890000Y2318642D01*
X16890000Y2141358D01*
X16855414Y1967480D01*
X16787570Y1803690D01*
X16689076Y1656283D01*
X16563717Y1530924D01*
X16416310Y1432430D01*
X16252520Y1364586D01*
X16231505Y1360406D01*
X16078644Y1330000D01*
X15901356Y1330000D01*
X15748495Y1360406D01*
X15727480Y1364586D01*
X15563690Y1432430D01*
X15416283Y1530924D01*
X15290924Y1656283D01*
X15192430Y1803690D01*
X15124586Y1967480D01*
X15090000Y2141358D01*
X15090000Y2318642D01*
X15124586Y2492520D01*
X15192430Y2656310D01*
X15290924Y2803717D01*
X15416283Y2929076D01*
X15563690Y3027570D01*
X15727480Y3095414D01*
X15785439Y3106943D01*
X15901356Y3130000D01*
X16078644Y3130000D01*
X16194561Y3106943D01*
G37*
G36*
X13654561Y3106943D02*
G01*
X13712520Y3095414D01*
X13876310Y3027570D01*
X14023717Y2929076D01*
X14149076Y2803717D01*
X14247570Y2656310D01*
X14315414Y2492520D01*
X14350000Y2318642D01*
X14350000Y2141358D01*
X14315414Y1967480D01*
X14247570Y1803690D01*
X14149076Y1656283D01*
X14023717Y1530924D01*
X13876310Y1432430D01*
X13712520Y1364586D01*
X13691505Y1360406D01*
X13538644Y1330000D01*
X13361356Y1330000D01*
X13208495Y1360406D01*
X13187480Y1364586D01*
X13023690Y1432430D01*
X12876283Y1530924D01*
X12750924Y1656283D01*
X12652430Y1803690D01*
X12584586Y1967480D01*
X12550000Y2141358D01*
X12550000Y2318642D01*
X12584586Y2492520D01*
X12652430Y2656310D01*
X12750924Y2803717D01*
X12876283Y2929076D01*
X13023690Y3027570D01*
X13187480Y3095414D01*
X13245439Y3106943D01*
X13361356Y3130000D01*
X13538644Y3130000D01*
X13654561Y3106943D01*
G37*
G36*
X11114561Y3106943D02*
G01*
X11172520Y3095414D01*
X11336310Y3027570D01*
X11483717Y2929076D01*
X11609076Y2803717D01*
X11707570Y2656310D01*
X11775414Y2492520D01*
X11810000Y2318642D01*
X11810000Y2141358D01*
X11775414Y1967480D01*
X11707570Y1803690D01*
X11609076Y1656283D01*
X11483717Y1530924D01*
X11336310Y1432430D01*
X11172520Y1364586D01*
X11151505Y1360406D01*
X10998644Y1330000D01*
X10821356Y1330000D01*
X10668495Y1360406D01*
X10647480Y1364586D01*
X10483690Y1432430D01*
X10336283Y1530924D01*
X10210924Y1656283D01*
X10112430Y1803690D01*
X10044586Y1967480D01*
X10010000Y2141358D01*
X10010000Y2318642D01*
X10044586Y2492520D01*
X10112430Y2656310D01*
X10210924Y2803717D01*
X10336283Y2929076D01*
X10483690Y3027570D01*
X10647480Y3095414D01*
X10705439Y3106943D01*
X10821356Y3130000D01*
X10998644Y3130000D01*
X11114561Y3106943D01*
G37*
G36*
X8950806Y3122145D02*
G01*
X9025143Y3099594D01*
X9093647Y3062978D01*
X9153696Y3013696D01*
X9202978Y2953647D01*
X9239594Y2885143D01*
X9262145Y2810806D01*
X9270000Y2731046D01*
X9270000Y1728954D01*
X9262145Y1649194D01*
X9239594Y1574857D01*
X9202978Y1506353D01*
X9153696Y1446304D01*
X9093647Y1397022D01*
X9025143Y1360406D01*
X8950806Y1337855D01*
X8871046Y1330000D01*
X7868954Y1330000D01*
X7789194Y1337855D01*
X7714857Y1360406D01*
X7646353Y1397022D01*
X7586304Y1446304D01*
X7537022Y1506353D01*
X7500406Y1574857D01*
X7477855Y1649194D01*
X7470000Y1728954D01*
X7470000Y2731046D01*
X7477855Y2810806D01*
X7500406Y2885143D01*
X7537022Y2953647D01*
X7586304Y3013696D01*
X7646353Y3062978D01*
X7714857Y3099594D01*
X7789194Y3122145D01*
X7868954Y3130000D01*
X8871046Y3130000D01*
X8950806Y3122145D01*
G37*
G36*
X31434561Y3106943D02*
G01*
X31492520Y3095414D01*
X31656310Y3027570D01*
X31803717Y2929076D01*
X31929076Y2803717D01*
X32027570Y2656310D01*
X32095414Y2492520D01*
X32130000Y2318642D01*
X32130000Y2141358D01*
X32095414Y1967480D01*
X32027570Y1803690D01*
X31929076Y1656283D01*
X31803717Y1530924D01*
X31656310Y1432430D01*
X31492520Y1364586D01*
X31471505Y1360406D01*
X31318644Y1330000D01*
X31141356Y1330000D01*
X30988495Y1360406D01*
X30967480Y1364586D01*
X30803690Y1432430D01*
X30656283Y1530924D01*
X30530924Y1656283D01*
X30432430Y1803690D01*
X30364586Y1967480D01*
X30330000Y2141358D01*
X30330000Y2318642D01*
X30364586Y2492520D01*
X30432430Y2656310D01*
X30530924Y2803717D01*
X30656283Y2929076D01*
X30803690Y3027570D01*
X30967480Y3095414D01*
X31025439Y3106943D01*
X31141356Y3130000D01*
X31318644Y3130000D01*
X31434561Y3106943D01*
G37*
G36*
X23791832Y5909505D02*
G01*
X23843351Y5899257D01*
X23903656Y5874278D01*
X23988941Y5838952D01*
X24119969Y5751402D01*
X24231402Y5639969D01*
X24318952Y5508941D01*
X24379257Y5363350D01*
X24410000Y5208795D01*
X24410000Y5051205D01*
X24379257Y4896650D01*
X24318952Y4751059D01*
X24231402Y4620031D01*
X24119969Y4508598D01*
X23988941Y4421048D01*
X23903656Y4385722D01*
X23843351Y4360743D01*
X23791832Y4350495D01*
X23688795Y4330000D01*
X23531205Y4330000D01*
X23428168Y4350495D01*
X23376649Y4360743D01*
X23316344Y4385722D01*
X23231059Y4421048D01*
X23100031Y4508598D01*
X22988598Y4620031D01*
X22901048Y4751059D01*
X22840743Y4896650D01*
X22810000Y5051205D01*
X22810000Y5208795D01*
X22840743Y5363350D01*
X22901048Y5508941D01*
X22988598Y5639969D01*
X23100031Y5751402D01*
X23231059Y5838952D01*
X23316344Y5874278D01*
X23376649Y5899257D01*
X23428168Y5909505D01*
X23531205Y5930000D01*
X23688795Y5930000D01*
X23791832Y5909505D01*
G37*
G36*
X31411832Y5909505D02*
G01*
X31463351Y5899257D01*
X31523656Y5874278D01*
X31608941Y5838952D01*
X31739969Y5751402D01*
X31851402Y5639969D01*
X31938952Y5508941D01*
X31999257Y5363350D01*
X32030000Y5208795D01*
X32030000Y5051205D01*
X31999257Y4896650D01*
X31938952Y4751059D01*
X31851402Y4620031D01*
X31739969Y4508598D01*
X31608941Y4421048D01*
X31523656Y4385722D01*
X31463351Y4360743D01*
X31411832Y4350495D01*
X31308795Y4330000D01*
X31151205Y4330000D01*
X31048168Y4350495D01*
X30996649Y4360743D01*
X30936344Y4385722D01*
X30851059Y4421048D01*
X30720031Y4508598D01*
X30608598Y4620031D01*
X30521048Y4751059D01*
X30460743Y4896650D01*
X30430000Y5051205D01*
X30430000Y5208795D01*
X30460743Y5363350D01*
X30521048Y5508941D01*
X30608598Y5639969D01*
X30720031Y5751402D01*
X30851059Y5838952D01*
X30936344Y5874278D01*
X30996649Y5899257D01*
X31048168Y5909505D01*
X31151205Y5930000D01*
X31308795Y5930000D01*
X31411832Y5909505D01*
G37*
G36*
X28871832Y5909505D02*
G01*
X28923351Y5899257D01*
X28983656Y5874278D01*
X29068941Y5838952D01*
X29199969Y5751402D01*
X29311402Y5639969D01*
X29398952Y5508941D01*
X29459257Y5363350D01*
X29490000Y5208795D01*
X29490000Y5051205D01*
X29459257Y4896650D01*
X29398952Y4751059D01*
X29311402Y4620031D01*
X29199969Y4508598D01*
X29068941Y4421048D01*
X28983656Y4385722D01*
X28923351Y4360743D01*
X28871832Y4350495D01*
X28768795Y4330000D01*
X28611205Y4330000D01*
X28508168Y4350495D01*
X28456649Y4360743D01*
X28396344Y4385722D01*
X28311059Y4421048D01*
X28180031Y4508598D01*
X28068598Y4620031D01*
X27981048Y4751059D01*
X27920743Y4896650D01*
X27890000Y5051205D01*
X27890000Y5208795D01*
X27920743Y5363350D01*
X27981048Y5508941D01*
X28068598Y5639969D01*
X28180031Y5751402D01*
X28311059Y5838952D01*
X28396344Y5874278D01*
X28456649Y5899257D01*
X28508168Y5909505D01*
X28611205Y5930000D01*
X28768795Y5930000D01*
X28871832Y5909505D01*
G37*
G36*
X26331832Y5909505D02*
G01*
X26383351Y5899257D01*
X26443656Y5874278D01*
X26528941Y5838952D01*
X26659969Y5751402D01*
X26771402Y5639969D01*
X26858952Y5508941D01*
X26919257Y5363350D01*
X26950000Y5208795D01*
X26950000Y5051205D01*
X26919257Y4896650D01*
X26858952Y4751059D01*
X26771402Y4620031D01*
X26659969Y4508598D01*
X26528941Y4421048D01*
X26443656Y4385722D01*
X26383351Y4360743D01*
X26331832Y4350495D01*
X26228795Y4330000D01*
X26071205Y4330000D01*
X25968168Y4350495D01*
X25916649Y4360743D01*
X25856344Y4385722D01*
X25771059Y4421048D01*
X25640031Y4508598D01*
X25528598Y4620031D01*
X25441048Y4751059D01*
X25380743Y4896650D01*
X25350000Y5051205D01*
X25350000Y5208795D01*
X25380743Y5363350D01*
X25441048Y5508941D01*
X25528598Y5639969D01*
X25640031Y5751402D01*
X25771059Y5838952D01*
X25856344Y5874278D01*
X25916649Y5899257D01*
X25968168Y5909505D01*
X26071205Y5930000D01*
X26228795Y5930000D01*
X26331832Y5909505D01*
G37*
G36*
X23791832Y18989505D02*
G01*
X23843351Y18979257D01*
X23903656Y18954278D01*
X23988941Y18918952D01*
X24119969Y18831402D01*
X24231402Y18719969D01*
X24318952Y18588941D01*
X24379257Y18443350D01*
X24410000Y18288795D01*
X24410000Y18131205D01*
X24379257Y17976650D01*
X24318952Y17831059D01*
X24231402Y17700031D01*
X24119969Y17588598D01*
X23988941Y17501048D01*
X23903656Y17465722D01*
X23843351Y17440743D01*
X23791832Y17430495D01*
X23688795Y17410000D01*
X23531205Y17410000D01*
X23428168Y17430495D01*
X23376649Y17440743D01*
X23316344Y17465722D01*
X23231059Y17501048D01*
X23100031Y17588598D01*
X22988598Y17700031D01*
X22901048Y17831059D01*
X22840743Y17976650D01*
X22810000Y18131205D01*
X22810000Y18288795D01*
X22840743Y18443350D01*
X22901048Y18588941D01*
X22988598Y18719969D01*
X23100031Y18831402D01*
X23231059Y18918952D01*
X23316344Y18954278D01*
X23376649Y18979257D01*
X23428168Y18989505D01*
X23531205Y19010000D01*
X23688795Y19010000D01*
X23791832Y18989505D01*
G37*
G36*
X31411832Y18989505D02*
G01*
X31463351Y18979257D01*
X31523656Y18954278D01*
X31608941Y18918952D01*
X31739969Y18831402D01*
X31851402Y18719969D01*
X31938952Y18588941D01*
X31999257Y18443350D01*
X32030000Y18288795D01*
X32030000Y18131205D01*
X31999257Y17976650D01*
X31938952Y17831059D01*
X31851402Y17700031D01*
X31739969Y17588598D01*
X31608941Y17501048D01*
X31523656Y17465722D01*
X31463351Y17440743D01*
X31411832Y17430495D01*
X31308795Y17410000D01*
X31151205Y17410000D01*
X31048168Y17430495D01*
X30996649Y17440743D01*
X30936344Y17465722D01*
X30851059Y17501048D01*
X30720031Y17588598D01*
X30608598Y17700031D01*
X30521048Y17831059D01*
X30460743Y17976650D01*
X30430000Y18131205D01*
X30430000Y18288795D01*
X30460743Y18443350D01*
X30521048Y18588941D01*
X30608598Y18719969D01*
X30720031Y18831402D01*
X30851059Y18918952D01*
X30936344Y18954278D01*
X30996649Y18979257D01*
X31048168Y18989505D01*
X31151205Y19010000D01*
X31308795Y19010000D01*
X31411832Y18989505D01*
G37*
G36*
X28871832Y18989505D02*
G01*
X28923351Y18979257D01*
X28983656Y18954278D01*
X29068941Y18918952D01*
X29199969Y18831402D01*
X29311402Y18719969D01*
X29398952Y18588941D01*
X29459257Y18443350D01*
X29490000Y18288795D01*
X29490000Y18131205D01*
X29459257Y17976650D01*
X29398952Y17831059D01*
X29311402Y17700031D01*
X29199969Y17588598D01*
X29068941Y17501048D01*
X28983656Y17465722D01*
X28923351Y17440743D01*
X28871832Y17430495D01*
X28768795Y17410000D01*
X28611205Y17410000D01*
X28508168Y17430495D01*
X28456649Y17440743D01*
X28396344Y17465722D01*
X28311059Y17501048D01*
X28180031Y17588598D01*
X28068598Y17700031D01*
X27981048Y17831059D01*
X27920743Y17976650D01*
X27890000Y18131205D01*
X27890000Y18288795D01*
X27920743Y18443350D01*
X27981048Y18588941D01*
X28068598Y18719969D01*
X28180031Y18831402D01*
X28311059Y18918952D01*
X28396344Y18954278D01*
X28456649Y18979257D01*
X28508168Y18989505D01*
X28611205Y19010000D01*
X28768795Y19010000D01*
X28871832Y18989505D01*
G37*
G36*
X26331832Y18989505D02*
G01*
X26383351Y18979257D01*
X26443656Y18954278D01*
X26528941Y18918952D01*
X26659969Y18831402D01*
X26771402Y18719969D01*
X26858952Y18588941D01*
X26919257Y18443350D01*
X26950000Y18288795D01*
X26950000Y18131205D01*
X26919257Y17976650D01*
X26858952Y17831059D01*
X26771402Y17700031D01*
X26659969Y17588598D01*
X26528941Y17501048D01*
X26443656Y17465722D01*
X26383351Y17440743D01*
X26331832Y17430495D01*
X26228795Y17410000D01*
X26071205Y17410000D01*
X25968168Y17430495D01*
X25916649Y17440743D01*
X25856344Y17465722D01*
X25771059Y17501048D01*
X25640031Y17588598D01*
X25528598Y17700031D01*
X25441048Y17831059D01*
X25380743Y17976650D01*
X25350000Y18131205D01*
X25350000Y18288795D01*
X25380743Y18443350D01*
X25441048Y18588941D01*
X25528598Y18719969D01*
X25640031Y18831402D01*
X25771059Y18918952D01*
X25856344Y18954278D01*
X25916649Y18979257D01*
X25968168Y18989505D01*
X26071205Y19010000D01*
X26228795Y19010000D01*
X26331832Y18989505D01*
G37*
G36*
X28871832Y38569505D02*
G01*
X28923351Y38559257D01*
X28983656Y38534278D01*
X29068941Y38498952D01*
X29199969Y38411402D01*
X29311402Y38299969D01*
X29398952Y38168941D01*
X29459257Y38023350D01*
X29490000Y37868795D01*
X29490000Y37711205D01*
X29459257Y37556650D01*
X29398952Y37411059D01*
X29311402Y37280031D01*
X29199969Y37168598D01*
X29068941Y37081048D01*
X28983656Y37045722D01*
X28923351Y37020743D01*
X28871832Y37010495D01*
X28768795Y36990000D01*
X28611205Y36990000D01*
X28508168Y37010495D01*
X28456649Y37020743D01*
X28396344Y37045722D01*
X28311059Y37081048D01*
X28180031Y37168598D01*
X28068598Y37280031D01*
X27981048Y37411059D01*
X27920743Y37556650D01*
X27890000Y37711205D01*
X27890000Y37868795D01*
X27920743Y38023350D01*
X27981048Y38168941D01*
X28068598Y38299969D01*
X28180031Y38411402D01*
X28311059Y38498952D01*
X28396344Y38534278D01*
X28456649Y38559257D01*
X28508168Y38569505D01*
X28611205Y38590000D01*
X28768795Y38590000D01*
X28871832Y38569505D01*
G37*
G36*
X23791832Y38569505D02*
G01*
X23843351Y38559257D01*
X23903656Y38534278D01*
X23988941Y38498952D01*
X24119969Y38411402D01*
X24231402Y38299969D01*
X24318952Y38168941D01*
X24379257Y38023350D01*
X24410000Y37868795D01*
X24410000Y37711205D01*
X24379257Y37556650D01*
X24318952Y37411059D01*
X24231402Y37280031D01*
X24119969Y37168598D01*
X23988941Y37081048D01*
X23903656Y37045722D01*
X23843351Y37020743D01*
X23791832Y37010495D01*
X23688795Y36990000D01*
X23531205Y36990000D01*
X23428168Y37010495D01*
X23376649Y37020743D01*
X23316344Y37045722D01*
X23231059Y37081048D01*
X23100031Y37168598D01*
X22988598Y37280031D01*
X22901048Y37411059D01*
X22840743Y37556650D01*
X22810000Y37711205D01*
X22810000Y37868795D01*
X22840743Y38023350D01*
X22901048Y38168941D01*
X22988598Y38299969D01*
X23100031Y38411402D01*
X23231059Y38498952D01*
X23316344Y38534278D01*
X23376649Y38559257D01*
X23428168Y38569505D01*
X23531205Y38590000D01*
X23688795Y38590000D01*
X23791832Y38569505D01*
G37*
G36*
X31411832Y38569505D02*
G01*
X31463351Y38559257D01*
X31523656Y38534278D01*
X31608941Y38498952D01*
X31739969Y38411402D01*
X31851402Y38299969D01*
X31938952Y38168941D01*
X31999257Y38023350D01*
X32030000Y37868795D01*
X32030000Y37711205D01*
X31999257Y37556650D01*
X31938952Y37411059D01*
X31851402Y37280031D01*
X31739969Y37168598D01*
X31608941Y37081048D01*
X31523656Y37045722D01*
X31463351Y37020743D01*
X31411832Y37010495D01*
X31308795Y36990000D01*
X31151205Y36990000D01*
X31048168Y37010495D01*
X30996649Y37020743D01*
X30936344Y37045722D01*
X30851059Y37081048D01*
X30720031Y37168598D01*
X30608598Y37280031D01*
X30521048Y37411059D01*
X30460743Y37556650D01*
X30430000Y37711205D01*
X30430000Y37868795D01*
X30460743Y38023350D01*
X30521048Y38168941D01*
X30608598Y38299969D01*
X30720031Y38411402D01*
X30851059Y38498952D01*
X30936344Y38534278D01*
X30996649Y38559257D01*
X31048168Y38569505D01*
X31151205Y38590000D01*
X31308795Y38590000D01*
X31411832Y38569505D01*
G37*
G36*
X26331832Y38569505D02*
G01*
X26383351Y38559257D01*
X26443656Y38534278D01*
X26528941Y38498952D01*
X26659969Y38411402D01*
X26771402Y38299969D01*
X26858952Y38168941D01*
X26919257Y38023350D01*
X26950000Y37868795D01*
X26950000Y37711205D01*
X26919257Y37556650D01*
X26858952Y37411059D01*
X26771402Y37280031D01*
X26659969Y37168598D01*
X26528941Y37081048D01*
X26443656Y37045722D01*
X26383351Y37020743D01*
X26331832Y37010495D01*
X26228795Y36990000D01*
X26071205Y36990000D01*
X25968168Y37010495D01*
X25916649Y37020743D01*
X25856344Y37045722D01*
X25771059Y37081048D01*
X25640031Y37168598D01*
X25528598Y37280031D01*
X25441048Y37411059D01*
X25380743Y37556650D01*
X25350000Y37711205D01*
X25350000Y37868795D01*
X25380743Y38023350D01*
X25441048Y38168941D01*
X25528598Y38299969D01*
X25640031Y38411402D01*
X25771059Y38498952D01*
X25856344Y38534278D01*
X25916649Y38559257D01*
X25968168Y38569505D01*
X26071205Y38590000D01*
X26228795Y38590000D01*
X26331832Y38569505D01*
G37*
G36*
X2434561Y42266943D02*
G01*
X2492520Y42255414D01*
X2656310Y42187570D01*
X2803717Y42089076D01*
X2929076Y41963717D01*
X3027570Y41816310D01*
X3095414Y41652520D01*
X3130000Y41478642D01*
X3130000Y41301358D01*
X3095414Y41127480D01*
X3027570Y40963690D01*
X2929076Y40816283D01*
X2803717Y40690924D01*
X2656310Y40592430D01*
X2492520Y40524586D01*
X2434561Y40513057D01*
X2318644Y40490000D01*
X2141356Y40490000D01*
X2025439Y40513057D01*
X1967480Y40524586D01*
X1803690Y40592430D01*
X1656283Y40690924D01*
X1530924Y40816283D01*
X1432430Y40963690D01*
X1364586Y41127480D01*
X1330000Y41301358D01*
X1330000Y41478642D01*
X1364586Y41652520D01*
X1432430Y41816310D01*
X1530924Y41963717D01*
X1656283Y42089076D01*
X1803690Y42187570D01*
X1967480Y42255414D01*
X2025439Y42266943D01*
X2141356Y42290000D01*
X2318644Y42290000D01*
X2434561Y42266943D01*
G37*
G36*
X2434561Y44806943D02*
G01*
X2492520Y44795414D01*
X2656310Y44727570D01*
X2803717Y44629076D01*
X2929076Y44503717D01*
X3027570Y44356310D01*
X3095414Y44192520D01*
X3130000Y44018642D01*
X3130000Y43841358D01*
X3095414Y43667480D01*
X3027570Y43503690D01*
X2929076Y43356283D01*
X2803717Y43230924D01*
X2656310Y43132430D01*
X2492520Y43064586D01*
X2434561Y43053057D01*
X2318644Y43030000D01*
X2141356Y43030000D01*
X2025439Y43053057D01*
X1967480Y43064586D01*
X1803690Y43132430D01*
X1656283Y43230924D01*
X1530924Y43356283D01*
X1432430Y43503690D01*
X1364586Y43667480D01*
X1330000Y43841358D01*
X1330000Y44018642D01*
X1364586Y44192520D01*
X1432430Y44356310D01*
X1530924Y44503717D01*
X1656283Y44629076D01*
X1803690Y44727570D01*
X1967480Y44795414D01*
X2025439Y44806943D01*
X2141356Y44830000D01*
X2318644Y44830000D01*
X2434561Y44806943D01*
G37*
G36*
X4331313Y55240477D02*
G01*
X4849980Y55025638D01*
X4849981Y55025637D01*
X5316769Y54713740D01*
X5713740Y54316769D01*
X5760358Y54247000D01*
X6025638Y53849980D01*
X6240477Y53331313D01*
X6350000Y52780702D01*
X6350000Y52219298D01*
X6240477Y51668687D01*
X6025638Y51150020D01*
X6025637Y51150019D01*
X5713740Y50683231D01*
X5316769Y50286260D01*
X5004871Y50077857D01*
X4849980Y49974362D01*
X4331313Y49759523D01*
X3780702Y49650000D01*
X3219298Y49650000D01*
X2668687Y49759523D01*
X2150020Y49974362D01*
X1995129Y50077857D01*
X1683231Y50286260D01*
X1286260Y50683231D01*
X974363Y51150019D01*
X974362Y51150020D01*
X759523Y51668687D01*
X650000Y52219298D01*
X650000Y52780702D01*
X759523Y53331313D01*
X974362Y53849980D01*
X1239642Y54247000D01*
X1286260Y54316769D01*
X1683231Y54713740D01*
X2150019Y55025637D01*
X2150020Y55025638D01*
X2668687Y55240477D01*
X3219298Y55350000D01*
X3780702Y55350000D01*
X4331313Y55240477D01*
G37*
G36*
X23791832Y51649505D02*
G01*
X23843351Y51639257D01*
X23903656Y51614278D01*
X23988941Y51578952D01*
X24119969Y51491402D01*
X24231402Y51379969D01*
X24318952Y51248941D01*
X24379257Y51103350D01*
X24410000Y50948795D01*
X24410000Y50791205D01*
X24379257Y50636650D01*
X24318952Y50491059D01*
X24231402Y50360031D01*
X24119969Y50248598D01*
X23988941Y50161048D01*
X23903656Y50125722D01*
X23843351Y50100743D01*
X23791832Y50090495D01*
X23688795Y50070000D01*
X23531205Y50070000D01*
X23428168Y50090495D01*
X23376649Y50100743D01*
X23316344Y50125722D01*
X23231059Y50161048D01*
X23100031Y50248598D01*
X22988598Y50360031D01*
X22901048Y50491059D01*
X22840743Y50636650D01*
X22810000Y50791205D01*
X22810000Y50948795D01*
X22840743Y51103350D01*
X22901048Y51248941D01*
X22988598Y51379969D01*
X23100031Y51491402D01*
X23231059Y51578952D01*
X23316344Y51614278D01*
X23376649Y51639257D01*
X23428168Y51649505D01*
X23531205Y51670000D01*
X23688795Y51670000D01*
X23791832Y51649505D01*
G37*
G36*
X31411832Y51649505D02*
G01*
X31463351Y51639257D01*
X31523656Y51614278D01*
X31608941Y51578952D01*
X31739969Y51491402D01*
X31851402Y51379969D01*
X31938952Y51248941D01*
X31999257Y51103350D01*
X32030000Y50948795D01*
X32030000Y50791205D01*
X31999257Y50636650D01*
X31938952Y50491059D01*
X31851402Y50360031D01*
X31739969Y50248598D01*
X31608941Y50161048D01*
X31523656Y50125722D01*
X31463351Y50100743D01*
X31411832Y50090495D01*
X31308795Y50070000D01*
X31151205Y50070000D01*
X31048168Y50090495D01*
X30996649Y50100743D01*
X30936344Y50125722D01*
X30851059Y50161048D01*
X30720031Y50248598D01*
X30608598Y50360031D01*
X30521048Y50491059D01*
X30460743Y50636650D01*
X30430000Y50791205D01*
X30430000Y50948795D01*
X30460743Y51103350D01*
X30521048Y51248941D01*
X30608598Y51379969D01*
X30720031Y51491402D01*
X30851059Y51578952D01*
X30936344Y51614278D01*
X30996649Y51639257D01*
X31048168Y51649505D01*
X31151205Y51670000D01*
X31308795Y51670000D01*
X31411832Y51649505D01*
G37*
G36*
X28871832Y51649505D02*
G01*
X28923351Y51639257D01*
X28983656Y51614278D01*
X29068941Y51578952D01*
X29199969Y51491402D01*
X29311402Y51379969D01*
X29398952Y51248941D01*
X29459257Y51103350D01*
X29490000Y50948795D01*
X29490000Y50791205D01*
X29459257Y50636650D01*
X29398952Y50491059D01*
X29311402Y50360031D01*
X29199969Y50248598D01*
X29068941Y50161048D01*
X28983656Y50125722D01*
X28923351Y50100743D01*
X28871832Y50090495D01*
X28768795Y50070000D01*
X28611205Y50070000D01*
X28508168Y50090495D01*
X28456649Y50100743D01*
X28396344Y50125722D01*
X28311059Y50161048D01*
X28180031Y50248598D01*
X28068598Y50360031D01*
X27981048Y50491059D01*
X27920743Y50636650D01*
X27890000Y50791205D01*
X27890000Y50948795D01*
X27920743Y51103350D01*
X27981048Y51248941D01*
X28068598Y51379969D01*
X28180031Y51491402D01*
X28311059Y51578952D01*
X28396344Y51614278D01*
X28456649Y51639257D01*
X28508168Y51649505D01*
X28611205Y51670000D01*
X28768795Y51670000D01*
X28871832Y51649505D01*
G37*
G36*
X26331832Y51649505D02*
G01*
X26383351Y51639257D01*
X26443656Y51614278D01*
X26528941Y51578952D01*
X26659969Y51491402D01*
X26771402Y51379969D01*
X26858952Y51248941D01*
X26919257Y51103350D01*
X26950000Y50948795D01*
X26950000Y50791205D01*
X26919257Y50636650D01*
X26858952Y50491059D01*
X26771402Y50360031D01*
X26659969Y50248598D01*
X26528941Y50161048D01*
X26443656Y50125722D01*
X26383351Y50100743D01*
X26331832Y50090495D01*
X26228795Y50070000D01*
X26071205Y50070000D01*
X25968168Y50090495D01*
X25916649Y50100743D01*
X25856344Y50125722D01*
X25771059Y50161048D01*
X25640031Y50248598D01*
X25528598Y50360031D01*
X25441048Y50491059D01*
X25380743Y50636650D01*
X25350000Y50791205D01*
X25350000Y50948795D01*
X25380743Y51103350D01*
X25441048Y51248941D01*
X25528598Y51379969D01*
X25640031Y51491402D01*
X25771059Y51578952D01*
X25856344Y51614278D01*
X25916649Y51639257D01*
X25968168Y51649505D01*
X26071205Y51670000D01*
X26228795Y51670000D01*
X26331832Y51649505D01*
G37*
G36*
X11114561Y54646943D02*
G01*
X11172520Y54635414D01*
X11336310Y54567570D01*
X11483717Y54469076D01*
X11609076Y54343717D01*
X11707570Y54196310D01*
X11775414Y54032520D01*
X11810000Y53858642D01*
X11810000Y53681358D01*
X11775414Y53507480D01*
X11707570Y53343690D01*
X11609076Y53196283D01*
X11483717Y53070924D01*
X11336310Y52972430D01*
X11172520Y52904586D01*
X11151505Y52900406D01*
X10998644Y52870000D01*
X10821356Y52870000D01*
X10668495Y52900406D01*
X10647480Y52904586D01*
X10483690Y52972430D01*
X10336283Y53070924D01*
X10210924Y53196283D01*
X10112430Y53343690D01*
X10044586Y53507480D01*
X10010000Y53681358D01*
X10010000Y53858642D01*
X10044586Y54032520D01*
X10112430Y54196310D01*
X10210924Y54343717D01*
X10336283Y54469076D01*
X10483690Y54567570D01*
X10647480Y54635414D01*
X10705439Y54646943D01*
X10821356Y54670000D01*
X10998644Y54670000D01*
X11114561Y54646943D01*
G37*
G36*
X13654561Y54646943D02*
G01*
X13712520Y54635414D01*
X13876310Y54567570D01*
X14023717Y54469076D01*
X14149076Y54343717D01*
X14247570Y54196310D01*
X14315414Y54032520D01*
X14350000Y53858642D01*
X14350000Y53681358D01*
X14315414Y53507480D01*
X14247570Y53343690D01*
X14149076Y53196283D01*
X14023717Y53070924D01*
X13876310Y52972430D01*
X13712520Y52904586D01*
X13691505Y52900406D01*
X13538644Y52870000D01*
X13361356Y52870000D01*
X13208495Y52900406D01*
X13187480Y52904586D01*
X13023690Y52972430D01*
X12876283Y53070924D01*
X12750924Y53196283D01*
X12652430Y53343690D01*
X12584586Y53507480D01*
X12550000Y53681358D01*
X12550000Y53858642D01*
X12584586Y54032520D01*
X12652430Y54196310D01*
X12750924Y54343717D01*
X12876283Y54469076D01*
X13023690Y54567570D01*
X13187480Y54635414D01*
X13245439Y54646943D01*
X13361356Y54670000D01*
X13538644Y54670000D01*
X13654561Y54646943D01*
G37*
G36*
X16194561Y54646943D02*
G01*
X16252520Y54635414D01*
X16416310Y54567570D01*
X16563717Y54469076D01*
X16689076Y54343717D01*
X16787570Y54196310D01*
X16855414Y54032520D01*
X16890000Y53858642D01*
X16890000Y53681358D01*
X16855414Y53507480D01*
X16787570Y53343690D01*
X16689076Y53196283D01*
X16563717Y53070924D01*
X16416310Y52972430D01*
X16252520Y52904586D01*
X16231505Y52900406D01*
X16078644Y52870000D01*
X15901356Y52870000D01*
X15748495Y52900406D01*
X15727480Y52904586D01*
X15563690Y52972430D01*
X15416283Y53070924D01*
X15290924Y53196283D01*
X15192430Y53343690D01*
X15124586Y53507480D01*
X15090000Y53681358D01*
X15090000Y53858642D01*
X15124586Y54032520D01*
X15192430Y54196310D01*
X15290924Y54343717D01*
X15416283Y54469076D01*
X15563690Y54567570D01*
X15727480Y54635414D01*
X15785439Y54646943D01*
X15901356Y54670000D01*
X16078644Y54670000D01*
X16194561Y54646943D01*
G37*
G36*
X18734561Y54646943D02*
G01*
X18792520Y54635414D01*
X18956310Y54567570D01*
X19103717Y54469076D01*
X19229076Y54343717D01*
X19327570Y54196310D01*
X19395414Y54032520D01*
X19430000Y53858642D01*
X19430000Y53681358D01*
X19395414Y53507480D01*
X19327570Y53343690D01*
X19229076Y53196283D01*
X19103717Y53070924D01*
X18956310Y52972430D01*
X18792520Y52904586D01*
X18771505Y52900406D01*
X18618644Y52870000D01*
X18441356Y52870000D01*
X18288495Y52900406D01*
X18267480Y52904586D01*
X18103690Y52972430D01*
X17956283Y53070924D01*
X17830924Y53196283D01*
X17732430Y53343690D01*
X17664586Y53507480D01*
X17630000Y53681358D01*
X17630000Y53858642D01*
X17664586Y54032520D01*
X17732430Y54196310D01*
X17830924Y54343717D01*
X17956283Y54469076D01*
X18103690Y54567570D01*
X18267480Y54635414D01*
X18325439Y54646943D01*
X18441356Y54670000D01*
X18618644Y54670000D01*
X18734561Y54646943D01*
G37*
G36*
X23814561Y54646943D02*
G01*
X23872520Y54635414D01*
X24036310Y54567570D01*
X24183717Y54469076D01*
X24309076Y54343717D01*
X24407570Y54196310D01*
X24475414Y54032520D01*
X24510000Y53858642D01*
X24510000Y53681358D01*
X24475414Y53507480D01*
X24407570Y53343690D01*
X24309076Y53196283D01*
X24183717Y53070924D01*
X24036310Y52972430D01*
X23872520Y52904586D01*
X23851505Y52900406D01*
X23698644Y52870000D01*
X23521356Y52870000D01*
X23368495Y52900406D01*
X23347480Y52904586D01*
X23183690Y52972430D01*
X23036283Y53070924D01*
X22910924Y53196283D01*
X22812430Y53343690D01*
X22744586Y53507480D01*
X22710000Y53681358D01*
X22710000Y53858642D01*
X22744586Y54032520D01*
X22812430Y54196310D01*
X22910924Y54343717D01*
X23036283Y54469076D01*
X23183690Y54567570D01*
X23347480Y54635414D01*
X23405439Y54646943D01*
X23521356Y54670000D01*
X23698644Y54670000D01*
X23814561Y54646943D01*
G37*
G36*
X26354561Y54646943D02*
G01*
X26412520Y54635414D01*
X26576310Y54567570D01*
X26723717Y54469076D01*
X26849076Y54343717D01*
X26947570Y54196310D01*
X27015414Y54032520D01*
X27050000Y53858642D01*
X27050000Y53681358D01*
X27015414Y53507480D01*
X26947570Y53343690D01*
X26849076Y53196283D01*
X26723717Y53070924D01*
X26576310Y52972430D01*
X26412520Y52904586D01*
X26391505Y52900406D01*
X26238644Y52870000D01*
X26061356Y52870000D01*
X25908495Y52900406D01*
X25887480Y52904586D01*
X25723690Y52972430D01*
X25576283Y53070924D01*
X25450924Y53196283D01*
X25352430Y53343690D01*
X25284586Y53507480D01*
X25250000Y53681358D01*
X25250000Y53858642D01*
X25284586Y54032520D01*
X25352430Y54196310D01*
X25450924Y54343717D01*
X25576283Y54469076D01*
X25723690Y54567570D01*
X25887480Y54635414D01*
X25945439Y54646943D01*
X26061356Y54670000D01*
X26238644Y54670000D01*
X26354561Y54646943D01*
G37*
G36*
X28894561Y54646943D02*
G01*
X28952520Y54635414D01*
X29116310Y54567570D01*
X29263717Y54469076D01*
X29389076Y54343717D01*
X29487570Y54196310D01*
X29555414Y54032520D01*
X29590000Y53858642D01*
X29590000Y53681358D01*
X29555414Y53507480D01*
X29487570Y53343690D01*
X29389076Y53196283D01*
X29263717Y53070924D01*
X29116310Y52972430D01*
X28952520Y52904586D01*
X28931505Y52900406D01*
X28778644Y52870000D01*
X28601356Y52870000D01*
X28448495Y52900406D01*
X28427480Y52904586D01*
X28263690Y52972430D01*
X28116283Y53070924D01*
X27990924Y53196283D01*
X27892430Y53343690D01*
X27824586Y53507480D01*
X27790000Y53681358D01*
X27790000Y53858642D01*
X27824586Y54032520D01*
X27892430Y54196310D01*
X27990924Y54343717D01*
X28116283Y54469076D01*
X28263690Y54567570D01*
X28427480Y54635414D01*
X28485439Y54646943D01*
X28601356Y54670000D01*
X28778644Y54670000D01*
X28894561Y54646943D01*
G37*
G36*
X31434561Y54646943D02*
G01*
X31492520Y54635414D01*
X31656310Y54567570D01*
X31803717Y54469076D01*
X31929076Y54343717D01*
X32027570Y54196310D01*
X32095414Y54032520D01*
X32130000Y53858642D01*
X32130000Y53681358D01*
X32095414Y53507480D01*
X32027570Y53343690D01*
X31929076Y53196283D01*
X31803717Y53070924D01*
X31656310Y52972430D01*
X31492520Y52904586D01*
X31471505Y52900406D01*
X31318644Y52870000D01*
X31141356Y52870000D01*
X30988495Y52900406D01*
X30967480Y52904586D01*
X30803690Y52972430D01*
X30656283Y53070924D01*
X30530924Y53196283D01*
X30432430Y53343690D01*
X30364586Y53507480D01*
X30330000Y53681358D01*
X30330000Y53858642D01*
X30364586Y54032520D01*
X30432430Y54196310D01*
X30530924Y54343717D01*
X30656283Y54469076D01*
X30803690Y54567570D01*
X30967480Y54635414D01*
X31025439Y54646943D01*
X31141356Y54670000D01*
X31318644Y54670000D01*
X31434561Y54646943D01*
G37*
G36*
X8950806Y54662145D02*
G01*
X9025143Y54639594D01*
X9093647Y54602978D01*
X9153696Y54553696D01*
X9202978Y54493647D01*
X9239594Y54425143D01*
X9262145Y54350806D01*
X9270000Y54271046D01*
X9270000Y53268954D01*
X9262145Y53189194D01*
X9239594Y53114857D01*
X9202978Y53046353D01*
X9153696Y52986304D01*
X9093647Y52937022D01*
X9025143Y52900406D01*
X8950806Y52877855D01*
X8871046Y52870000D01*
X7868954Y52870000D01*
X7789194Y52877855D01*
X7714857Y52900406D01*
X7646353Y52937022D01*
X7586304Y52986304D01*
X7537022Y53046353D01*
X7500406Y53114857D01*
X7477855Y53189194D01*
X7470000Y53268954D01*
X7470000Y54271046D01*
X7477855Y54350806D01*
X7500406Y54425143D01*
X7537022Y54493647D01*
X7586304Y54553696D01*
X7646353Y54602978D01*
X7714857Y54639594D01*
X7789194Y54662145D01*
X7868954Y54670000D01*
X8871046Y54670000D01*
X8950806Y54662145D01*
G37*
G36*
X21274561Y54646943D02*
G01*
X21332520Y54635414D01*
X21496310Y54567570D01*
X21643717Y54469076D01*
X21769076Y54343717D01*
X21867570Y54196310D01*
X21935414Y54032520D01*
X21970000Y53858642D01*
X21970000Y53681358D01*
X21935414Y53507480D01*
X21867570Y53343690D01*
X21769076Y53196283D01*
X21643717Y53070924D01*
X21496310Y52972430D01*
X21332520Y52904586D01*
X21311505Y52900406D01*
X21158644Y52870000D01*
X20981356Y52870000D01*
X20828495Y52900406D01*
X20807480Y52904586D01*
X20643690Y52972430D01*
X20496283Y53070924D01*
X20370924Y53196283D01*
X20272430Y53343690D01*
X20204586Y53507480D01*
X20170000Y53681358D01*
X20170000Y53858642D01*
X20204586Y54032520D01*
X20272430Y54196310D01*
X20370924Y54343717D01*
X20496283Y54469076D01*
X20643690Y54567570D01*
X20807480Y54635414D01*
X20865439Y54646943D01*
X20981356Y54670000D01*
X21158644Y54670000D01*
X21274561Y54646943D01*
G37*
M02*
