G04 #@! TF.GenerationSoftware,KiCad,Pcbnew,(5.1.6)-1*
G04 #@! TF.CreationDate,2020-06-03T08:45:57+03:00*
G04 #@! TF.ProjectId,TMCM-0021 v1.0,544d434d-2d30-4303-9231-2076312e302e,rev?*
G04 #@! TF.SameCoordinates,Original*
G04 #@! TF.FileFunction,Copper,L3,Inr*
G04 #@! TF.FilePolarity,Positive*
%FSLAX46Y46*%
G04 Gerber Fmt 4.6, Leading zero omitted, Abs format (unit mm)*
G04 Created by KiCad (PCBNEW (5.1.6)-1) date 2020-06-03 08:45:57*
%MOMM*%
%LPD*%
G01*
G04 APERTURE LIST*
G04 #@! TA.AperFunction,ViaPad*
%ADD10O,1.700000X1.700000*%
G04 #@! TD*
G04 #@! TA.AperFunction,ViaPad*
%ADD11C,1.500000*%
G04 #@! TD*
G04 #@! TA.AperFunction,ViaPad*
%ADD12C,5.600000*%
G04 #@! TD*
G04 #@! TA.AperFunction,ViaPad*
%ADD13C,0.600000*%
G04 #@! TD*
G04 #@! TA.AperFunction,Conductor*
%ADD14C,1.000000*%
G04 #@! TD*
G04 #@! TA.AperFunction,Conductor*
%ADD15C,0.400000*%
G04 #@! TD*
G04 APERTURE END LIST*
D10*
X31230000Y2230000D03*
X28690000Y2230000D03*
X26150000Y2230000D03*
X23610000Y2230000D03*
X21070000Y2230000D03*
X18530000Y2230000D03*
X15990000Y2230000D03*
X13450000Y2230000D03*
X10910000Y2230000D03*
G04 #@! TA.AperFunction,ViaPad*
G36*
G01*
X7919500Y3080000D02*
X8820500Y3080000D01*
G75*
G02*
X9220000Y2680500I0J-399500D01*
G01*
X9220000Y1779500D01*
G75*
G02*
X8820500Y1380000I-399500J0D01*
G01*
X7919500Y1380000D01*
G75*
G02*
X7520000Y1779500I0J399500D01*
G01*
X7520000Y2680500D01*
G75*
G02*
X7919500Y3080000I399500J0D01*
G01*
G37*
G04 #@! TD.AperFunction*
X31230000Y53770000D03*
X28690000Y53770000D03*
X26150000Y53770000D03*
X23610000Y53770000D03*
X21070000Y53770000D03*
X18530000Y53770000D03*
X15990000Y53770000D03*
X13450000Y53770000D03*
X10910000Y53770000D03*
G04 #@! TA.AperFunction,ViaPad*
G36*
G01*
X7919500Y54620000D02*
X8820500Y54620000D01*
G75*
G02*
X9220000Y54220500I0J-399500D01*
G01*
X9220000Y53319500D01*
G75*
G02*
X8820500Y52920000I-399500J0D01*
G01*
X7919500Y52920000D01*
G75*
G02*
X7520000Y53319500I0J399500D01*
G01*
X7520000Y54220500D01*
G75*
G02*
X7919500Y54620000I399500J0D01*
G01*
G37*
G04 #@! TD.AperFunction*
D11*
X23610000Y5130000D03*
X23610000Y18210000D03*
X26150000Y5130000D03*
X26150000Y18210000D03*
X28690000Y5130000D03*
X28690000Y18210000D03*
X31230000Y5130000D03*
X31230000Y18210000D03*
X23610000Y37790000D03*
X23610000Y50870000D03*
X26150000Y37790000D03*
X26150000Y50870000D03*
X28690000Y37790000D03*
X28690000Y50870000D03*
X31230000Y37790000D03*
X31230000Y50870000D03*
D12*
X3500000Y52500000D03*
X3500000Y3500000D03*
D10*
X2230000Y41390000D03*
X2230000Y43930000D03*
D13*
X9370000Y42670000D03*
X8640000Y43580000D03*
X8640000Y41780000D03*
X12270000Y16360000D03*
X5340000Y25460000D03*
X12310000Y22400000D03*
X18510000Y22270000D03*
X18530000Y30430000D03*
X15490000Y30430000D03*
X18540000Y38600000D03*
X15500000Y38600000D03*
X15460000Y22270000D03*
X18540000Y46760000D03*
X15510000Y46760000D03*
X15510000Y49320000D03*
X15490000Y14980000D03*
X16430000Y12460000D03*
X16910000Y8150000D03*
X28050000Y21820000D03*
X26780000Y34180000D03*
X12050000Y12580000D03*
X7850000Y20900000D03*
X8930000Y45210000D03*
X13610000Y48070000D03*
X19490000Y49330000D03*
X10470000Y6690000D03*
X13910000Y7340000D03*
X13600000Y49130000D03*
X18950000Y13440000D03*
X9440000Y47830000D03*
X8910000Y48500000D03*
X5950000Y21870000D03*
X7850000Y21870000D03*
X9760000Y21870000D03*
X29320000Y34180000D03*
X30600000Y34180000D03*
X7270000Y6990000D03*
X7270000Y14540002D03*
X14560000Y41140000D03*
X12260000Y15150000D03*
X14560000Y32960000D03*
X20550000Y11890000D03*
X20550000Y7240000D03*
X14550000Y24790000D03*
X12310000Y23980000D03*
X4750000Y11090000D03*
X4750000Y9540000D03*
X20550000Y10340000D03*
X20550000Y8790000D03*
X18510000Y17600000D03*
X18530000Y25770000D03*
X18540000Y33940000D03*
X18530000Y42120000D03*
X10700000Y51840000D03*
X7620000Y49410000D03*
X10370000Y47220000D03*
X13110000Y47220000D03*
X10470000Y8640000D03*
X29320000Y21820000D03*
X22470000Y3870000D03*
X16010000Y3870000D03*
X32260000Y36430000D03*
X26730000Y35450000D03*
X10470000Y10610000D03*
X7270000Y16360000D03*
X8939998Y40140002D03*
D14*
X23150000Y48100000D02*
X27190000Y48100000D01*
X28690000Y49600000D02*
X28690000Y50870000D01*
X27190000Y48100000D02*
X28690000Y49600000D01*
X10910000Y53770000D02*
X13110000Y51570000D01*
X19680000Y51570000D02*
X23150000Y48100000D01*
X13110000Y51570000D02*
X19680000Y51570000D01*
X21680000Y46630000D02*
X23150000Y48100000D01*
X28690000Y18210000D02*
X21680000Y25220000D01*
X21680000Y25220000D02*
X21680000Y46630000D01*
X11760000Y42960004D02*
X8939998Y40140002D01*
X13110000Y51570000D02*
X11760000Y50220000D01*
X11760000Y50220000D02*
X11760000Y42960004D01*
D15*
G36*
X31494876Y55499319D02*
G01*
X31970906Y55355597D01*
X32409957Y55122150D01*
X32795296Y54807875D01*
X33112258Y54424734D01*
X33348761Y53987330D01*
X33495803Y53512316D01*
X33550001Y52996656D01*
X33550000Y3022005D01*
X33499319Y2505124D01*
X33355596Y2029090D01*
X33122152Y1590046D01*
X32807875Y1204704D01*
X32424735Y887743D01*
X31987329Y651239D01*
X31512316Y504197D01*
X30996664Y450000D01*
X4498649Y450000D01*
X5015768Y664197D01*
X5539881Y1014398D01*
X5985602Y1460119D01*
X6335803Y1984232D01*
X6577025Y2566595D01*
X6599682Y2680500D01*
X7118065Y2680500D01*
X7118065Y1779500D01*
X7133464Y1623148D01*
X7179071Y1472804D01*
X7253131Y1334247D01*
X7352800Y1212800D01*
X7474247Y1113131D01*
X7612804Y1039071D01*
X7763148Y993464D01*
X7919500Y978065D01*
X8820500Y978065D01*
X8976852Y993464D01*
X9127196Y1039071D01*
X9265753Y1113131D01*
X9387200Y1212800D01*
X9486869Y1334247D01*
X9560929Y1472804D01*
X9606536Y1623148D01*
X9621935Y1779500D01*
X9621935Y2353114D01*
X9660000Y2353114D01*
X9660000Y2106886D01*
X9708037Y1865389D01*
X9802265Y1637903D01*
X9939062Y1433172D01*
X10113172Y1259062D01*
X10317903Y1122265D01*
X10545389Y1028037D01*
X10786886Y980000D01*
X11033114Y980000D01*
X11274611Y1028037D01*
X11502097Y1122265D01*
X11706828Y1259062D01*
X11880938Y1433172D01*
X12017735Y1637903D01*
X12111963Y1865389D01*
X12160000Y2106886D01*
X12160000Y2353114D01*
X12200000Y2353114D01*
X12200000Y2106886D01*
X12248037Y1865389D01*
X12342265Y1637903D01*
X12479062Y1433172D01*
X12653172Y1259062D01*
X12857903Y1122265D01*
X13085389Y1028037D01*
X13326886Y980000D01*
X13573114Y980000D01*
X13814611Y1028037D01*
X14042097Y1122265D01*
X14246828Y1259062D01*
X14420938Y1433172D01*
X14557735Y1637903D01*
X14651963Y1865389D01*
X14700000Y2106886D01*
X14700000Y2353114D01*
X14740000Y2353114D01*
X14740000Y2106886D01*
X14788037Y1865389D01*
X14882265Y1637903D01*
X15019062Y1433172D01*
X15193172Y1259062D01*
X15397903Y1122265D01*
X15625389Y1028037D01*
X15866886Y980000D01*
X16113114Y980000D01*
X16354611Y1028037D01*
X16582097Y1122265D01*
X16786828Y1259062D01*
X16960938Y1433172D01*
X17097735Y1637903D01*
X17191963Y1865389D01*
X17240000Y2106886D01*
X17240000Y2353114D01*
X17280000Y2353114D01*
X17280000Y2106886D01*
X17328037Y1865389D01*
X17422265Y1637903D01*
X17559062Y1433172D01*
X17733172Y1259062D01*
X17937903Y1122265D01*
X18165389Y1028037D01*
X18406886Y980000D01*
X18653114Y980000D01*
X18894611Y1028037D01*
X19122097Y1122265D01*
X19326828Y1259062D01*
X19500938Y1433172D01*
X19637735Y1637903D01*
X19731963Y1865389D01*
X19780000Y2106886D01*
X19780000Y2353114D01*
X19820000Y2353114D01*
X19820000Y2106886D01*
X19868037Y1865389D01*
X19962265Y1637903D01*
X20099062Y1433172D01*
X20273172Y1259062D01*
X20477903Y1122265D01*
X20705389Y1028037D01*
X20946886Y980000D01*
X21193114Y980000D01*
X21434611Y1028037D01*
X21662097Y1122265D01*
X21866828Y1259062D01*
X22040938Y1433172D01*
X22177735Y1637903D01*
X22271963Y1865389D01*
X22320000Y2106886D01*
X22320000Y2353114D01*
X22360000Y2353114D01*
X22360000Y2106886D01*
X22408037Y1865389D01*
X22502265Y1637903D01*
X22639062Y1433172D01*
X22813172Y1259062D01*
X23017903Y1122265D01*
X23245389Y1028037D01*
X23486886Y980000D01*
X23733114Y980000D01*
X23974611Y1028037D01*
X24202097Y1122265D01*
X24406828Y1259062D01*
X24580938Y1433172D01*
X24717735Y1637903D01*
X24811963Y1865389D01*
X24860000Y2106886D01*
X24860000Y2353114D01*
X24900000Y2353114D01*
X24900000Y2106886D01*
X24948037Y1865389D01*
X25042265Y1637903D01*
X25179062Y1433172D01*
X25353172Y1259062D01*
X25557903Y1122265D01*
X25785389Y1028037D01*
X26026886Y980000D01*
X26273114Y980000D01*
X26514611Y1028037D01*
X26742097Y1122265D01*
X26946828Y1259062D01*
X27120938Y1433172D01*
X27257735Y1637903D01*
X27351963Y1865389D01*
X27400000Y2106886D01*
X27400000Y2353114D01*
X27440000Y2353114D01*
X27440000Y2106886D01*
X27488037Y1865389D01*
X27582265Y1637903D01*
X27719062Y1433172D01*
X27893172Y1259062D01*
X28097903Y1122265D01*
X28325389Y1028037D01*
X28566886Y980000D01*
X28813114Y980000D01*
X29054611Y1028037D01*
X29282097Y1122265D01*
X29486828Y1259062D01*
X29660938Y1433172D01*
X29797735Y1637903D01*
X29891963Y1865389D01*
X29940000Y2106886D01*
X29940000Y2353114D01*
X29980000Y2353114D01*
X29980000Y2106886D01*
X30028037Y1865389D01*
X30122265Y1637903D01*
X30259062Y1433172D01*
X30433172Y1259062D01*
X30637903Y1122265D01*
X30865389Y1028037D01*
X31106886Y980000D01*
X31353114Y980000D01*
X31594611Y1028037D01*
X31822097Y1122265D01*
X32026828Y1259062D01*
X32200938Y1433172D01*
X32337735Y1637903D01*
X32431963Y1865389D01*
X32480000Y2106886D01*
X32480000Y2353114D01*
X32431963Y2594611D01*
X32337735Y2822097D01*
X32200938Y3026828D01*
X32026828Y3200938D01*
X31822097Y3337735D01*
X31594611Y3431963D01*
X31353114Y3480000D01*
X31106886Y3480000D01*
X30865389Y3431963D01*
X30637903Y3337735D01*
X30433172Y3200938D01*
X30259062Y3026828D01*
X30122265Y2822097D01*
X30028037Y2594611D01*
X29980000Y2353114D01*
X29940000Y2353114D01*
X29891963Y2594611D01*
X29797735Y2822097D01*
X29660938Y3026828D01*
X29486828Y3200938D01*
X29282097Y3337735D01*
X29054611Y3431963D01*
X28813114Y3480000D01*
X28566886Y3480000D01*
X28325389Y3431963D01*
X28097903Y3337735D01*
X27893172Y3200938D01*
X27719062Y3026828D01*
X27582265Y2822097D01*
X27488037Y2594611D01*
X27440000Y2353114D01*
X27400000Y2353114D01*
X27351963Y2594611D01*
X27257735Y2822097D01*
X27120938Y3026828D01*
X26946828Y3200938D01*
X26742097Y3337735D01*
X26514611Y3431963D01*
X26273114Y3480000D01*
X26026886Y3480000D01*
X25785389Y3431963D01*
X25557903Y3337735D01*
X25353172Y3200938D01*
X25179062Y3026828D01*
X25042265Y2822097D01*
X24948037Y2594611D01*
X24900000Y2353114D01*
X24860000Y2353114D01*
X24811963Y2594611D01*
X24717735Y2822097D01*
X24580938Y3026828D01*
X24406828Y3200938D01*
X24202097Y3337735D01*
X23974611Y3431963D01*
X23733114Y3480000D01*
X23486886Y3480000D01*
X23245389Y3431963D01*
X23017903Y3337735D01*
X22813172Y3200938D01*
X22639062Y3026828D01*
X22502265Y2822097D01*
X22408037Y2594611D01*
X22360000Y2353114D01*
X22320000Y2353114D01*
X22271963Y2594611D01*
X22177735Y2822097D01*
X22040938Y3026828D01*
X21866828Y3200938D01*
X21662097Y3337735D01*
X21434611Y3431963D01*
X21193114Y3480000D01*
X20946886Y3480000D01*
X20705389Y3431963D01*
X20477903Y3337735D01*
X20273172Y3200938D01*
X20099062Y3026828D01*
X19962265Y2822097D01*
X19868037Y2594611D01*
X19820000Y2353114D01*
X19780000Y2353114D01*
X19731963Y2594611D01*
X19637735Y2822097D01*
X19500938Y3026828D01*
X19326828Y3200938D01*
X19122097Y3337735D01*
X18894611Y3431963D01*
X18653114Y3480000D01*
X18406886Y3480000D01*
X18165389Y3431963D01*
X17937903Y3337735D01*
X17733172Y3200938D01*
X17559062Y3026828D01*
X17422265Y2822097D01*
X17328037Y2594611D01*
X17280000Y2353114D01*
X17240000Y2353114D01*
X17191963Y2594611D01*
X17097735Y2822097D01*
X16960938Y3026828D01*
X16786828Y3200938D01*
X16582097Y3337735D01*
X16354611Y3431963D01*
X16113114Y3480000D01*
X15866886Y3480000D01*
X15625389Y3431963D01*
X15397903Y3337735D01*
X15193172Y3200938D01*
X15019062Y3026828D01*
X14882265Y2822097D01*
X14788037Y2594611D01*
X14740000Y2353114D01*
X14700000Y2353114D01*
X14651963Y2594611D01*
X14557735Y2822097D01*
X14420938Y3026828D01*
X14246828Y3200938D01*
X14042097Y3337735D01*
X13814611Y3431963D01*
X13573114Y3480000D01*
X13326886Y3480000D01*
X13085389Y3431963D01*
X12857903Y3337735D01*
X12653172Y3200938D01*
X12479062Y3026828D01*
X12342265Y2822097D01*
X12248037Y2594611D01*
X12200000Y2353114D01*
X12160000Y2353114D01*
X12111963Y2594611D01*
X12017735Y2822097D01*
X11880938Y3026828D01*
X11706828Y3200938D01*
X11502097Y3337735D01*
X11274611Y3431963D01*
X11033114Y3480000D01*
X10786886Y3480000D01*
X10545389Y3431963D01*
X10317903Y3337735D01*
X10113172Y3200938D01*
X9939062Y3026828D01*
X9802265Y2822097D01*
X9708037Y2594611D01*
X9660000Y2353114D01*
X9621935Y2353114D01*
X9621935Y2680500D01*
X9606536Y2836852D01*
X9560929Y2987196D01*
X9486869Y3125753D01*
X9387200Y3247200D01*
X9265753Y3346869D01*
X9127196Y3420929D01*
X8976852Y3466536D01*
X8820500Y3481935D01*
X7919500Y3481935D01*
X7763148Y3466536D01*
X7612804Y3420929D01*
X7474247Y3346869D01*
X7352800Y3247200D01*
X7253131Y3125753D01*
X7179071Y2987196D01*
X7133464Y2836852D01*
X7118065Y2680500D01*
X6599682Y2680500D01*
X6700000Y3184828D01*
X6700000Y3815172D01*
X6577025Y4433405D01*
X6335803Y5015768D01*
X6183795Y5243265D01*
X22460000Y5243265D01*
X22460000Y5016735D01*
X22504194Y4794557D01*
X22590884Y4585271D01*
X22716737Y4396918D01*
X22876918Y4236737D01*
X23065271Y4110884D01*
X23274557Y4024194D01*
X23496735Y3980000D01*
X23723265Y3980000D01*
X23945443Y4024194D01*
X24154729Y4110884D01*
X24343082Y4236737D01*
X24503263Y4396918D01*
X24629116Y4585271D01*
X24715806Y4794557D01*
X24760000Y5016735D01*
X24760000Y5243265D01*
X25000000Y5243265D01*
X25000000Y5016735D01*
X25044194Y4794557D01*
X25130884Y4585271D01*
X25256737Y4396918D01*
X25416918Y4236737D01*
X25605271Y4110884D01*
X25814557Y4024194D01*
X26036735Y3980000D01*
X26263265Y3980000D01*
X26485443Y4024194D01*
X26694729Y4110884D01*
X26883082Y4236737D01*
X27043263Y4396918D01*
X27169116Y4585271D01*
X27255806Y4794557D01*
X27300000Y5016735D01*
X27300000Y5243265D01*
X27540000Y5243265D01*
X27540000Y5016735D01*
X27584194Y4794557D01*
X27670884Y4585271D01*
X27796737Y4396918D01*
X27956918Y4236737D01*
X28145271Y4110884D01*
X28354557Y4024194D01*
X28576735Y3980000D01*
X28803265Y3980000D01*
X29025443Y4024194D01*
X29234729Y4110884D01*
X29423082Y4236737D01*
X29583263Y4396918D01*
X29709116Y4585271D01*
X29795806Y4794557D01*
X29840000Y5016735D01*
X29840000Y5243265D01*
X30080000Y5243265D01*
X30080000Y5016735D01*
X30124194Y4794557D01*
X30210884Y4585271D01*
X30336737Y4396918D01*
X30496918Y4236737D01*
X30685271Y4110884D01*
X30894557Y4024194D01*
X31116735Y3980000D01*
X31343265Y3980000D01*
X31565443Y4024194D01*
X31774729Y4110884D01*
X31963082Y4236737D01*
X32123263Y4396918D01*
X32249116Y4585271D01*
X32335806Y4794557D01*
X32380000Y5016735D01*
X32380000Y5243265D01*
X32335806Y5465443D01*
X32249116Y5674729D01*
X32123263Y5863082D01*
X31963082Y6023263D01*
X31774729Y6149116D01*
X31565443Y6235806D01*
X31343265Y6280000D01*
X31116735Y6280000D01*
X30894557Y6235806D01*
X30685271Y6149116D01*
X30496918Y6023263D01*
X30336737Y5863082D01*
X30210884Y5674729D01*
X30124194Y5465443D01*
X30080000Y5243265D01*
X29840000Y5243265D01*
X29795806Y5465443D01*
X29709116Y5674729D01*
X29583263Y5863082D01*
X29423082Y6023263D01*
X29234729Y6149116D01*
X29025443Y6235806D01*
X28803265Y6280000D01*
X28576735Y6280000D01*
X28354557Y6235806D01*
X28145271Y6149116D01*
X27956918Y6023263D01*
X27796737Y5863082D01*
X27670884Y5674729D01*
X27584194Y5465443D01*
X27540000Y5243265D01*
X27300000Y5243265D01*
X27255806Y5465443D01*
X27169116Y5674729D01*
X27043263Y5863082D01*
X26883082Y6023263D01*
X26694729Y6149116D01*
X26485443Y6235806D01*
X26263265Y6280000D01*
X26036735Y6280000D01*
X25814557Y6235806D01*
X25605271Y6149116D01*
X25416918Y6023263D01*
X25256737Y5863082D01*
X25130884Y5674729D01*
X25044194Y5465443D01*
X25000000Y5243265D01*
X24760000Y5243265D01*
X24715806Y5465443D01*
X24629116Y5674729D01*
X24503263Y5863082D01*
X24343082Y6023263D01*
X24154729Y6149116D01*
X23945443Y6235806D01*
X23723265Y6280000D01*
X23496735Y6280000D01*
X23274557Y6235806D01*
X23065271Y6149116D01*
X22876918Y6023263D01*
X22716737Y5863082D01*
X22590884Y5674729D01*
X22504194Y5465443D01*
X22460000Y5243265D01*
X6183795Y5243265D01*
X5985602Y5539881D01*
X5539881Y5985602D01*
X5015768Y6335803D01*
X4433405Y6577025D01*
X3815172Y6700000D01*
X3184828Y6700000D01*
X2566595Y6577025D01*
X1984232Y6335803D01*
X1460119Y5985602D01*
X1014398Y5539881D01*
X664197Y5015768D01*
X450000Y4498649D01*
X450000Y7058944D01*
X6570000Y7058944D01*
X6570000Y6921056D01*
X6596901Y6785818D01*
X6649668Y6658426D01*
X6726274Y6543776D01*
X6823776Y6446274D01*
X6938426Y6369668D01*
X7065818Y6316901D01*
X7201056Y6290000D01*
X7338944Y6290000D01*
X7474182Y6316901D01*
X7601574Y6369668D01*
X7716224Y6446274D01*
X7813726Y6543776D01*
X7890332Y6658426D01*
X7931967Y6758944D01*
X9770000Y6758944D01*
X9770000Y6621056D01*
X9796901Y6485818D01*
X9849668Y6358426D01*
X9926274Y6243776D01*
X10023776Y6146274D01*
X10138426Y6069668D01*
X10265818Y6016901D01*
X10401056Y5990000D01*
X10538944Y5990000D01*
X10674182Y6016901D01*
X10801574Y6069668D01*
X10916224Y6146274D01*
X11013726Y6243776D01*
X11090332Y6358426D01*
X11143099Y6485818D01*
X11170000Y6621056D01*
X11170000Y6758944D01*
X11143099Y6894182D01*
X11090332Y7021574D01*
X11013726Y7136224D01*
X10916224Y7233726D01*
X10801574Y7310332D01*
X10674182Y7363099D01*
X10538944Y7390000D01*
X10401056Y7390000D01*
X10265818Y7363099D01*
X10138426Y7310332D01*
X10023776Y7233726D01*
X9926274Y7136224D01*
X9849668Y7021574D01*
X9796901Y6894182D01*
X9770000Y6758944D01*
X7931967Y6758944D01*
X7943099Y6785818D01*
X7970000Y6921056D01*
X7970000Y7058944D01*
X7943099Y7194182D01*
X7890332Y7321574D01*
X7831954Y7408944D01*
X13210000Y7408944D01*
X13210000Y7271056D01*
X13236901Y7135818D01*
X13289668Y7008426D01*
X13366274Y6893776D01*
X13463776Y6796274D01*
X13578426Y6719668D01*
X13705818Y6666901D01*
X13841056Y6640000D01*
X13978944Y6640000D01*
X14114182Y6666901D01*
X14241574Y6719668D01*
X14356224Y6796274D01*
X14453726Y6893776D01*
X14530332Y7008426D01*
X14583099Y7135818D01*
X14610000Y7271056D01*
X14610000Y7308944D01*
X19850000Y7308944D01*
X19850000Y7171056D01*
X19876901Y7035818D01*
X19929668Y6908426D01*
X20006274Y6793776D01*
X20103776Y6696274D01*
X20218426Y6619668D01*
X20345818Y6566901D01*
X20481056Y6540000D01*
X20618944Y6540000D01*
X20754182Y6566901D01*
X20881574Y6619668D01*
X20996224Y6696274D01*
X21093726Y6793776D01*
X21170332Y6908426D01*
X21223099Y7035818D01*
X21250000Y7171056D01*
X21250000Y7308944D01*
X21223099Y7444182D01*
X21170332Y7571574D01*
X21093726Y7686224D01*
X20996224Y7783726D01*
X20881574Y7860332D01*
X20754182Y7913099D01*
X20618944Y7940000D01*
X20481056Y7940000D01*
X20345818Y7913099D01*
X20218426Y7860332D01*
X20103776Y7783726D01*
X20006274Y7686224D01*
X19929668Y7571574D01*
X19876901Y7444182D01*
X19850000Y7308944D01*
X14610000Y7308944D01*
X14610000Y7408944D01*
X14583099Y7544182D01*
X14530332Y7671574D01*
X14453726Y7786224D01*
X14356224Y7883726D01*
X14241574Y7960332D01*
X14114182Y8013099D01*
X13978944Y8040000D01*
X13841056Y8040000D01*
X13705818Y8013099D01*
X13578426Y7960332D01*
X13463776Y7883726D01*
X13366274Y7786224D01*
X13289668Y7671574D01*
X13236901Y7544182D01*
X13210000Y7408944D01*
X7831954Y7408944D01*
X7813726Y7436224D01*
X7716224Y7533726D01*
X7601574Y7610332D01*
X7474182Y7663099D01*
X7338944Y7690000D01*
X7201056Y7690000D01*
X7065818Y7663099D01*
X6938426Y7610332D01*
X6823776Y7533726D01*
X6726274Y7436224D01*
X6649668Y7321574D01*
X6596901Y7194182D01*
X6570000Y7058944D01*
X450000Y7058944D01*
X450000Y8218944D01*
X16210000Y8218944D01*
X16210000Y8081056D01*
X16236901Y7945818D01*
X16289668Y7818426D01*
X16366274Y7703776D01*
X16463776Y7606274D01*
X16578426Y7529668D01*
X16705818Y7476901D01*
X16841056Y7450000D01*
X16978944Y7450000D01*
X17114182Y7476901D01*
X17241574Y7529668D01*
X17356224Y7606274D01*
X17453726Y7703776D01*
X17530332Y7818426D01*
X17583099Y7945818D01*
X17610000Y8081056D01*
X17610000Y8218944D01*
X17583099Y8354182D01*
X17530332Y8481574D01*
X17453726Y8596224D01*
X17356224Y8693726D01*
X17241574Y8770332D01*
X17114182Y8823099D01*
X16978944Y8850000D01*
X16841056Y8850000D01*
X16705818Y8823099D01*
X16578426Y8770332D01*
X16463776Y8693726D01*
X16366274Y8596224D01*
X16289668Y8481574D01*
X16236901Y8354182D01*
X16210000Y8218944D01*
X450000Y8218944D01*
X450000Y12648944D01*
X11350000Y12648944D01*
X11350000Y12511056D01*
X11376901Y12375818D01*
X11429668Y12248426D01*
X11506274Y12133776D01*
X11603776Y12036274D01*
X11718426Y11959668D01*
X11845818Y11906901D01*
X11981056Y11880000D01*
X12118944Y11880000D01*
X12254182Y11906901D01*
X12381574Y11959668D01*
X12496224Y12036274D01*
X12593726Y12133776D01*
X12670332Y12248426D01*
X12723099Y12375818D01*
X12750000Y12511056D01*
X12750000Y12528944D01*
X15730000Y12528944D01*
X15730000Y12391056D01*
X15756901Y12255818D01*
X15809668Y12128426D01*
X15886274Y12013776D01*
X15983776Y11916274D01*
X16098426Y11839668D01*
X16225818Y11786901D01*
X16361056Y11760000D01*
X16498944Y11760000D01*
X16634182Y11786901D01*
X16761574Y11839668D01*
X16876224Y11916274D01*
X16918894Y11958944D01*
X19850000Y11958944D01*
X19850000Y11821056D01*
X19876901Y11685818D01*
X19929668Y11558426D01*
X20006274Y11443776D01*
X20103776Y11346274D01*
X20218426Y11269668D01*
X20345818Y11216901D01*
X20481056Y11190000D01*
X20618944Y11190000D01*
X20754182Y11216901D01*
X20881574Y11269668D01*
X20996224Y11346274D01*
X21093726Y11443776D01*
X21170332Y11558426D01*
X21223099Y11685818D01*
X21250000Y11821056D01*
X21250000Y11958944D01*
X21223099Y12094182D01*
X21170332Y12221574D01*
X21093726Y12336224D01*
X20996224Y12433726D01*
X20881574Y12510332D01*
X20754182Y12563099D01*
X20618944Y12590000D01*
X20481056Y12590000D01*
X20345818Y12563099D01*
X20218426Y12510332D01*
X20103776Y12433726D01*
X20006274Y12336224D01*
X19929668Y12221574D01*
X19876901Y12094182D01*
X19850000Y11958944D01*
X16918894Y11958944D01*
X16973726Y12013776D01*
X17050332Y12128426D01*
X17103099Y12255818D01*
X17130000Y12391056D01*
X17130000Y12528944D01*
X17103099Y12664182D01*
X17050332Y12791574D01*
X16973726Y12906224D01*
X16876224Y13003726D01*
X16761574Y13080332D01*
X16634182Y13133099D01*
X16498944Y13160000D01*
X16361056Y13160000D01*
X16225818Y13133099D01*
X16098426Y13080332D01*
X15983776Y13003726D01*
X15886274Y12906224D01*
X15809668Y12791574D01*
X15756901Y12664182D01*
X15730000Y12528944D01*
X12750000Y12528944D01*
X12750000Y12648944D01*
X12723099Y12784182D01*
X12670332Y12911574D01*
X12593726Y13026224D01*
X12496224Y13123726D01*
X12381574Y13200332D01*
X12254182Y13253099D01*
X12118944Y13280000D01*
X11981056Y13280000D01*
X11845818Y13253099D01*
X11718426Y13200332D01*
X11603776Y13123726D01*
X11506274Y13026224D01*
X11429668Y12911574D01*
X11376901Y12784182D01*
X11350000Y12648944D01*
X450000Y12648944D01*
X450000Y13508944D01*
X18250000Y13508944D01*
X18250000Y13371056D01*
X18276901Y13235818D01*
X18329668Y13108426D01*
X18406274Y12993776D01*
X18503776Y12896274D01*
X18618426Y12819668D01*
X18745818Y12766901D01*
X18881056Y12740000D01*
X19018944Y12740000D01*
X19154182Y12766901D01*
X19281574Y12819668D01*
X19396224Y12896274D01*
X19493726Y12993776D01*
X19570332Y13108426D01*
X19623099Y13235818D01*
X19650000Y13371056D01*
X19650000Y13508944D01*
X19623099Y13644182D01*
X19570332Y13771574D01*
X19493726Y13886224D01*
X19396224Y13983726D01*
X19281574Y14060332D01*
X19154182Y14113099D01*
X19018944Y14140000D01*
X18881056Y14140000D01*
X18745818Y14113099D01*
X18618426Y14060332D01*
X18503776Y13983726D01*
X18406274Y13886224D01*
X18329668Y13771574D01*
X18276901Y13644182D01*
X18250000Y13508944D01*
X450000Y13508944D01*
X450000Y14608946D01*
X6570000Y14608946D01*
X6570000Y14471058D01*
X6596901Y14335820D01*
X6649668Y14208428D01*
X6726274Y14093778D01*
X6823776Y13996276D01*
X6938426Y13919670D01*
X7065818Y13866903D01*
X7201056Y13840002D01*
X7338944Y13840002D01*
X7474182Y13866903D01*
X7601574Y13919670D01*
X7716224Y13996276D01*
X7813726Y14093778D01*
X7890332Y14208428D01*
X7943099Y14335820D01*
X7970000Y14471058D01*
X7970000Y14608946D01*
X7943099Y14744184D01*
X7890332Y14871576D01*
X7813726Y14986226D01*
X7716224Y15083728D01*
X7601574Y15160334D01*
X7474182Y15213101D01*
X7444808Y15218944D01*
X11560000Y15218944D01*
X11560000Y15081056D01*
X11586901Y14945818D01*
X11639668Y14818426D01*
X11716274Y14703776D01*
X11813776Y14606274D01*
X11928426Y14529668D01*
X12055818Y14476901D01*
X12191056Y14450000D01*
X12328944Y14450000D01*
X12464182Y14476901D01*
X12591574Y14529668D01*
X12706224Y14606274D01*
X12803726Y14703776D01*
X12880332Y14818426D01*
X12933099Y14945818D01*
X12953612Y15048944D01*
X14790000Y15048944D01*
X14790000Y14911056D01*
X14816901Y14775818D01*
X14869668Y14648426D01*
X14946274Y14533776D01*
X15043776Y14436274D01*
X15158426Y14359668D01*
X15285818Y14306901D01*
X15421056Y14280000D01*
X15558944Y14280000D01*
X15694182Y14306901D01*
X15821574Y14359668D01*
X15936224Y14436274D01*
X16033726Y14533776D01*
X16110332Y14648426D01*
X16163099Y14775818D01*
X16190000Y14911056D01*
X16190000Y15048944D01*
X16163099Y15184182D01*
X16110332Y15311574D01*
X16033726Y15426224D01*
X15936224Y15523726D01*
X15821574Y15600332D01*
X15694182Y15653099D01*
X15558944Y15680000D01*
X15421056Y15680000D01*
X15285818Y15653099D01*
X15158426Y15600332D01*
X15043776Y15523726D01*
X14946274Y15426224D01*
X14869668Y15311574D01*
X14816901Y15184182D01*
X14790000Y15048944D01*
X12953612Y15048944D01*
X12960000Y15081056D01*
X12960000Y15218944D01*
X12933099Y15354182D01*
X12880332Y15481574D01*
X12803726Y15596224D01*
X12706224Y15693726D01*
X12619520Y15751659D01*
X12716224Y15816274D01*
X12813726Y15913776D01*
X12890332Y16028426D01*
X12943099Y16155818D01*
X12970000Y16291056D01*
X12970000Y16428944D01*
X12943099Y16564182D01*
X12890332Y16691574D01*
X12813726Y16806224D01*
X12716224Y16903726D01*
X12601574Y16980332D01*
X12474182Y17033099D01*
X12338944Y17060000D01*
X12201056Y17060000D01*
X12065818Y17033099D01*
X11938426Y16980332D01*
X11823776Y16903726D01*
X11726274Y16806224D01*
X11649668Y16691574D01*
X11596901Y16564182D01*
X11570000Y16428944D01*
X11570000Y16291056D01*
X11596901Y16155818D01*
X11649668Y16028426D01*
X11726274Y15913776D01*
X11823776Y15816274D01*
X11910480Y15758341D01*
X11813776Y15693726D01*
X11716274Y15596224D01*
X11639668Y15481574D01*
X11586901Y15354182D01*
X11560000Y15218944D01*
X7444808Y15218944D01*
X7338944Y15240002D01*
X7201056Y15240002D01*
X7065818Y15213101D01*
X6938426Y15160334D01*
X6823776Y15083728D01*
X6726274Y14986226D01*
X6649668Y14871576D01*
X6596901Y14744184D01*
X6570000Y14608946D01*
X450000Y14608946D01*
X450000Y18323265D01*
X22460000Y18323265D01*
X22460000Y18096735D01*
X22504194Y17874557D01*
X22590884Y17665271D01*
X22716737Y17476918D01*
X22876918Y17316737D01*
X23065271Y17190884D01*
X23274557Y17104194D01*
X23496735Y17060000D01*
X23723265Y17060000D01*
X23945443Y17104194D01*
X24154729Y17190884D01*
X24343082Y17316737D01*
X24503263Y17476918D01*
X24629116Y17665271D01*
X24715806Y17874557D01*
X24760000Y18096735D01*
X24760000Y18323265D01*
X24715806Y18545443D01*
X24629116Y18754729D01*
X24503263Y18943082D01*
X24343082Y19103263D01*
X24154729Y19229116D01*
X23945443Y19315806D01*
X23723265Y19360000D01*
X23496735Y19360000D01*
X23274557Y19315806D01*
X23065271Y19229116D01*
X22876918Y19103263D01*
X22716737Y18943082D01*
X22590884Y18754729D01*
X22504194Y18545443D01*
X22460000Y18323265D01*
X450000Y18323265D01*
X450000Y21938944D01*
X5250000Y21938944D01*
X5250000Y21801056D01*
X5276901Y21665818D01*
X5329668Y21538426D01*
X5406274Y21423776D01*
X5503776Y21326274D01*
X5618426Y21249668D01*
X5745818Y21196901D01*
X5881056Y21170000D01*
X6018944Y21170000D01*
X6154182Y21196901D01*
X6281574Y21249668D01*
X6396224Y21326274D01*
X6493726Y21423776D01*
X6570332Y21538426D01*
X6623099Y21665818D01*
X6650000Y21801056D01*
X6650000Y21938944D01*
X7150000Y21938944D01*
X7150000Y21801056D01*
X7176901Y21665818D01*
X7229668Y21538426D01*
X7306274Y21423776D01*
X7345050Y21385000D01*
X7306274Y21346224D01*
X7229668Y21231574D01*
X7176901Y21104182D01*
X7150000Y20968944D01*
X7150000Y20831056D01*
X7176901Y20695818D01*
X7229668Y20568426D01*
X7306274Y20453776D01*
X7403776Y20356274D01*
X7518426Y20279668D01*
X7645818Y20226901D01*
X7781056Y20200000D01*
X7918944Y20200000D01*
X8054182Y20226901D01*
X8181574Y20279668D01*
X8296224Y20356274D01*
X8393726Y20453776D01*
X8470332Y20568426D01*
X8523099Y20695818D01*
X8550000Y20831056D01*
X8550000Y20968944D01*
X8523099Y21104182D01*
X8470332Y21231574D01*
X8393726Y21346224D01*
X8354950Y21385000D01*
X8393726Y21423776D01*
X8470332Y21538426D01*
X8523099Y21665818D01*
X8550000Y21801056D01*
X8550000Y21938944D01*
X9060000Y21938944D01*
X9060000Y21801056D01*
X9086901Y21665818D01*
X9139668Y21538426D01*
X9216274Y21423776D01*
X9313776Y21326274D01*
X9428426Y21249668D01*
X9555818Y21196901D01*
X9691056Y21170000D01*
X9828944Y21170000D01*
X9964182Y21196901D01*
X10091574Y21249668D01*
X10206224Y21326274D01*
X10303726Y21423776D01*
X10380332Y21538426D01*
X10433099Y21665818D01*
X10460000Y21801056D01*
X10460000Y21938944D01*
X10433099Y22074182D01*
X10380332Y22201574D01*
X10303726Y22316224D01*
X10206224Y22413726D01*
X10123584Y22468944D01*
X11610000Y22468944D01*
X11610000Y22331056D01*
X11636901Y22195818D01*
X11689668Y22068426D01*
X11766274Y21953776D01*
X11863776Y21856274D01*
X11978426Y21779668D01*
X12105818Y21726901D01*
X12241056Y21700000D01*
X12378944Y21700000D01*
X12514182Y21726901D01*
X12641574Y21779668D01*
X12756224Y21856274D01*
X12853726Y21953776D01*
X12930332Y22068426D01*
X12983099Y22195818D01*
X13010000Y22331056D01*
X13010000Y22338944D01*
X14760000Y22338944D01*
X14760000Y22201056D01*
X14786901Y22065818D01*
X14839668Y21938426D01*
X14916274Y21823776D01*
X15013776Y21726274D01*
X15128426Y21649668D01*
X15255818Y21596901D01*
X15391056Y21570000D01*
X15528944Y21570000D01*
X15664182Y21596901D01*
X15791574Y21649668D01*
X15906224Y21726274D01*
X16003726Y21823776D01*
X16080332Y21938426D01*
X16133099Y22065818D01*
X16160000Y22201056D01*
X16160000Y22338944D01*
X17810000Y22338944D01*
X17810000Y22201056D01*
X17836901Y22065818D01*
X17889668Y21938426D01*
X17966274Y21823776D01*
X18063776Y21726274D01*
X18178426Y21649668D01*
X18305818Y21596901D01*
X18441056Y21570000D01*
X18578944Y21570000D01*
X18714182Y21596901D01*
X18841574Y21649668D01*
X18956224Y21726274D01*
X19053726Y21823776D01*
X19130332Y21938426D01*
X19183099Y22065818D01*
X19210000Y22201056D01*
X19210000Y22338944D01*
X19183099Y22474182D01*
X19130332Y22601574D01*
X19053726Y22716224D01*
X18956224Y22813726D01*
X18841574Y22890332D01*
X18714182Y22943099D01*
X18578944Y22970000D01*
X18441056Y22970000D01*
X18305818Y22943099D01*
X18178426Y22890332D01*
X18063776Y22813726D01*
X17966274Y22716224D01*
X17889668Y22601574D01*
X17836901Y22474182D01*
X17810000Y22338944D01*
X16160000Y22338944D01*
X16133099Y22474182D01*
X16080332Y22601574D01*
X16003726Y22716224D01*
X15906224Y22813726D01*
X15791574Y22890332D01*
X15664182Y22943099D01*
X15528944Y22970000D01*
X15391056Y22970000D01*
X15255818Y22943099D01*
X15128426Y22890332D01*
X15013776Y22813726D01*
X14916274Y22716224D01*
X14839668Y22601574D01*
X14786901Y22474182D01*
X14760000Y22338944D01*
X13010000Y22338944D01*
X13010000Y22468944D01*
X12983099Y22604182D01*
X12930332Y22731574D01*
X12853726Y22846224D01*
X12756224Y22943726D01*
X12641574Y23020332D01*
X12514182Y23073099D01*
X12378944Y23100000D01*
X12241056Y23100000D01*
X12105818Y23073099D01*
X11978426Y23020332D01*
X11863776Y22943726D01*
X11766274Y22846224D01*
X11689668Y22731574D01*
X11636901Y22604182D01*
X11610000Y22468944D01*
X10123584Y22468944D01*
X10091574Y22490332D01*
X9964182Y22543099D01*
X9828944Y22570000D01*
X9691056Y22570000D01*
X9555818Y22543099D01*
X9428426Y22490332D01*
X9313776Y22413726D01*
X9216274Y22316224D01*
X9139668Y22201574D01*
X9086901Y22074182D01*
X9060000Y21938944D01*
X8550000Y21938944D01*
X8523099Y22074182D01*
X8470332Y22201574D01*
X8393726Y22316224D01*
X8296224Y22413726D01*
X8181574Y22490332D01*
X8054182Y22543099D01*
X7918944Y22570000D01*
X7781056Y22570000D01*
X7645818Y22543099D01*
X7518426Y22490332D01*
X7403776Y22413726D01*
X7306274Y22316224D01*
X7229668Y22201574D01*
X7176901Y22074182D01*
X7150000Y21938944D01*
X6650000Y21938944D01*
X6623099Y22074182D01*
X6570332Y22201574D01*
X6493726Y22316224D01*
X6396224Y22413726D01*
X6281574Y22490332D01*
X6154182Y22543099D01*
X6018944Y22570000D01*
X5881056Y22570000D01*
X5745818Y22543099D01*
X5618426Y22490332D01*
X5503776Y22413726D01*
X5406274Y22316224D01*
X5329668Y22201574D01*
X5276901Y22074182D01*
X5250000Y21938944D01*
X450000Y21938944D01*
X450000Y25528944D01*
X4640000Y25528944D01*
X4640000Y25391056D01*
X4666901Y25255818D01*
X4719668Y25128426D01*
X4796274Y25013776D01*
X4893776Y24916274D01*
X5008426Y24839668D01*
X5135818Y24786901D01*
X5271056Y24760000D01*
X5408944Y24760000D01*
X5544182Y24786901D01*
X5671574Y24839668D01*
X5700422Y24858944D01*
X13850000Y24858944D01*
X13850000Y24721056D01*
X13876901Y24585818D01*
X13929668Y24458426D01*
X14006274Y24343776D01*
X14103776Y24246274D01*
X14218426Y24169668D01*
X14345818Y24116901D01*
X14481056Y24090000D01*
X14618944Y24090000D01*
X14754182Y24116901D01*
X14881574Y24169668D01*
X14996224Y24246274D01*
X15093726Y24343776D01*
X15170332Y24458426D01*
X15223099Y24585818D01*
X15250000Y24721056D01*
X15250000Y24858944D01*
X15223099Y24994182D01*
X15170332Y25121574D01*
X15093726Y25236224D01*
X14996224Y25333726D01*
X14881574Y25410332D01*
X14754182Y25463099D01*
X14618944Y25490000D01*
X14481056Y25490000D01*
X14345818Y25463099D01*
X14218426Y25410332D01*
X14103776Y25333726D01*
X14006274Y25236224D01*
X13929668Y25121574D01*
X13876901Y24994182D01*
X13850000Y24858944D01*
X5700422Y24858944D01*
X5786224Y24916274D01*
X5883726Y25013776D01*
X5960332Y25128426D01*
X6013099Y25255818D01*
X6040000Y25391056D01*
X6040000Y25528944D01*
X6013099Y25664182D01*
X5960332Y25791574D01*
X5883726Y25906224D01*
X5786224Y26003726D01*
X5671574Y26080332D01*
X5544182Y26133099D01*
X5408944Y26160000D01*
X5271056Y26160000D01*
X5135818Y26133099D01*
X5008426Y26080332D01*
X4893776Y26003726D01*
X4796274Y25906224D01*
X4719668Y25791574D01*
X4666901Y25664182D01*
X4640000Y25528944D01*
X450000Y25528944D01*
X450000Y30498944D01*
X14790000Y30498944D01*
X14790000Y30361056D01*
X14816901Y30225818D01*
X14869668Y30098426D01*
X14946274Y29983776D01*
X15043776Y29886274D01*
X15158426Y29809668D01*
X15285818Y29756901D01*
X15421056Y29730000D01*
X15558944Y29730000D01*
X15694182Y29756901D01*
X15821574Y29809668D01*
X15936224Y29886274D01*
X16033726Y29983776D01*
X16110332Y30098426D01*
X16163099Y30225818D01*
X16190000Y30361056D01*
X16190000Y30498944D01*
X17830000Y30498944D01*
X17830000Y30361056D01*
X17856901Y30225818D01*
X17909668Y30098426D01*
X17986274Y29983776D01*
X18083776Y29886274D01*
X18198426Y29809668D01*
X18325818Y29756901D01*
X18461056Y29730000D01*
X18598944Y29730000D01*
X18734182Y29756901D01*
X18861574Y29809668D01*
X18976224Y29886274D01*
X19073726Y29983776D01*
X19150332Y30098426D01*
X19203099Y30225818D01*
X19230000Y30361056D01*
X19230000Y30498944D01*
X19203099Y30634182D01*
X19150332Y30761574D01*
X19073726Y30876224D01*
X18976224Y30973726D01*
X18861574Y31050332D01*
X18734182Y31103099D01*
X18598944Y31130000D01*
X18461056Y31130000D01*
X18325818Y31103099D01*
X18198426Y31050332D01*
X18083776Y30973726D01*
X17986274Y30876224D01*
X17909668Y30761574D01*
X17856901Y30634182D01*
X17830000Y30498944D01*
X16190000Y30498944D01*
X16163099Y30634182D01*
X16110332Y30761574D01*
X16033726Y30876224D01*
X15936224Y30973726D01*
X15821574Y31050332D01*
X15694182Y31103099D01*
X15558944Y31130000D01*
X15421056Y31130000D01*
X15285818Y31103099D01*
X15158426Y31050332D01*
X15043776Y30973726D01*
X14946274Y30876224D01*
X14869668Y30761574D01*
X14816901Y30634182D01*
X14790000Y30498944D01*
X450000Y30498944D01*
X450000Y33028944D01*
X13860000Y33028944D01*
X13860000Y32891056D01*
X13886901Y32755818D01*
X13939668Y32628426D01*
X14016274Y32513776D01*
X14113776Y32416274D01*
X14228426Y32339668D01*
X14355818Y32286901D01*
X14491056Y32260000D01*
X14628944Y32260000D01*
X14764182Y32286901D01*
X14891574Y32339668D01*
X15006224Y32416274D01*
X15103726Y32513776D01*
X15180332Y32628426D01*
X15233099Y32755818D01*
X15260000Y32891056D01*
X15260000Y33028944D01*
X15233099Y33164182D01*
X15180332Y33291574D01*
X15103726Y33406224D01*
X15006224Y33503726D01*
X14891574Y33580332D01*
X14764182Y33633099D01*
X14628944Y33660000D01*
X14491056Y33660000D01*
X14355818Y33633099D01*
X14228426Y33580332D01*
X14113776Y33503726D01*
X14016274Y33406224D01*
X13939668Y33291574D01*
X13886901Y33164182D01*
X13860000Y33028944D01*
X450000Y33028944D01*
X450000Y38668944D01*
X14800000Y38668944D01*
X14800000Y38531056D01*
X14826901Y38395818D01*
X14879668Y38268426D01*
X14956274Y38153776D01*
X15053776Y38056274D01*
X15168426Y37979668D01*
X15295818Y37926901D01*
X15431056Y37900000D01*
X15568944Y37900000D01*
X15704182Y37926901D01*
X15831574Y37979668D01*
X15946224Y38056274D01*
X16043726Y38153776D01*
X16120332Y38268426D01*
X16173099Y38395818D01*
X16200000Y38531056D01*
X16200000Y38668944D01*
X17840000Y38668944D01*
X17840000Y38531056D01*
X17866901Y38395818D01*
X17919668Y38268426D01*
X17996274Y38153776D01*
X18093776Y38056274D01*
X18208426Y37979668D01*
X18335818Y37926901D01*
X18471056Y37900000D01*
X18608944Y37900000D01*
X18744182Y37926901D01*
X18871574Y37979668D01*
X18986224Y38056274D01*
X19083726Y38153776D01*
X19160332Y38268426D01*
X19213099Y38395818D01*
X19240000Y38531056D01*
X19240000Y38668944D01*
X19213099Y38804182D01*
X19160332Y38931574D01*
X19083726Y39046224D01*
X18986224Y39143726D01*
X18871574Y39220332D01*
X18744182Y39273099D01*
X18608944Y39300000D01*
X18471056Y39300000D01*
X18335818Y39273099D01*
X18208426Y39220332D01*
X18093776Y39143726D01*
X17996274Y39046224D01*
X17919668Y38931574D01*
X17866901Y38804182D01*
X17840000Y38668944D01*
X16200000Y38668944D01*
X16173099Y38804182D01*
X16120332Y38931574D01*
X16043726Y39046224D01*
X15946224Y39143726D01*
X15831574Y39220332D01*
X15704182Y39273099D01*
X15568944Y39300000D01*
X15431056Y39300000D01*
X15295818Y39273099D01*
X15168426Y39220332D01*
X15053776Y39143726D01*
X14956274Y39046224D01*
X14879668Y38931574D01*
X14826901Y38804182D01*
X14800000Y38668944D01*
X450000Y38668944D01*
X450000Y41513114D01*
X980000Y41513114D01*
X980000Y41266886D01*
X1028037Y41025389D01*
X1122265Y40797903D01*
X1259062Y40593172D01*
X1433172Y40419062D01*
X1637903Y40282265D01*
X1865389Y40188037D01*
X2106886Y40140000D01*
X2353114Y40140000D01*
X2594611Y40188037D01*
X2822097Y40282265D01*
X3026828Y40419062D01*
X3200938Y40593172D01*
X3337735Y40797903D01*
X3431963Y41025389D01*
X3480000Y41266886D01*
X3480000Y41513114D01*
X3431963Y41754611D01*
X3337735Y41982097D01*
X3200938Y42186828D01*
X3026828Y42360938D01*
X2822097Y42497735D01*
X2594611Y42591963D01*
X2353114Y42640000D01*
X2106886Y42640000D01*
X1865389Y42591963D01*
X1637903Y42497735D01*
X1433172Y42360938D01*
X1259062Y42186828D01*
X1122265Y41982097D01*
X1028037Y41754611D01*
X980000Y41513114D01*
X450000Y41513114D01*
X450000Y44053114D01*
X980000Y44053114D01*
X980000Y43806886D01*
X1028037Y43565389D01*
X1122265Y43337903D01*
X1259062Y43133172D01*
X1433172Y42959062D01*
X1637903Y42822265D01*
X1865389Y42728037D01*
X2106886Y42680000D01*
X2353114Y42680000D01*
X2594611Y42728037D01*
X2822097Y42822265D01*
X3026828Y42959062D01*
X3200938Y43133172D01*
X3337735Y43337903D01*
X3431963Y43565389D01*
X3448583Y43648944D01*
X7940000Y43648944D01*
X7940000Y43511056D01*
X7966901Y43375818D01*
X8019668Y43248426D01*
X8096274Y43133776D01*
X8193776Y43036274D01*
X8308426Y42959668D01*
X8435818Y42906901D01*
X8571056Y42880000D01*
X8699311Y42880000D01*
X8696901Y42874182D01*
X8670000Y42738944D01*
X8670000Y42601056D01*
X8694080Y42480000D01*
X8571056Y42480000D01*
X8435818Y42453099D01*
X8308426Y42400332D01*
X8193776Y42323726D01*
X8096274Y42226224D01*
X8019668Y42111574D01*
X7966901Y41984182D01*
X7940000Y41848944D01*
X7940000Y41711056D01*
X7966901Y41575818D01*
X8019668Y41448426D01*
X8096274Y41333776D01*
X8193776Y41236274D01*
X8308426Y41159668D01*
X8435818Y41106901D01*
X8571056Y41080000D01*
X8607204Y41080000D01*
X8272343Y40745139D01*
X8188055Y40642433D01*
X8104485Y40486083D01*
X8053021Y40316432D01*
X8035644Y40140002D01*
X8053021Y39963572D01*
X8104485Y39793921D01*
X8188055Y39637571D01*
X8300524Y39500528D01*
X8437567Y39388059D01*
X8593917Y39304489D01*
X8763568Y39253025D01*
X8939998Y39235648D01*
X9116428Y39253025D01*
X9286079Y39304489D01*
X9442429Y39388059D01*
X9545135Y39472347D01*
X11281732Y41208944D01*
X13860000Y41208944D01*
X13860000Y41071056D01*
X13886901Y40935818D01*
X13939668Y40808426D01*
X14016274Y40693776D01*
X14113776Y40596274D01*
X14228426Y40519668D01*
X14355818Y40466901D01*
X14491056Y40440000D01*
X14628944Y40440000D01*
X14764182Y40466901D01*
X14891574Y40519668D01*
X15006224Y40596274D01*
X15103726Y40693776D01*
X15180332Y40808426D01*
X15233099Y40935818D01*
X15260000Y41071056D01*
X15260000Y41208944D01*
X15233099Y41344182D01*
X15180332Y41471574D01*
X15103726Y41586224D01*
X15006224Y41683726D01*
X14891574Y41760332D01*
X14764182Y41813099D01*
X14628944Y41840000D01*
X14491056Y41840000D01*
X14355818Y41813099D01*
X14228426Y41760332D01*
X14113776Y41683726D01*
X14016274Y41586224D01*
X13939668Y41471574D01*
X13886901Y41344182D01*
X13860000Y41208944D01*
X11281732Y41208944D01*
X12365140Y42292351D01*
X12399475Y42320529D01*
X12511943Y42457572D01*
X12595514Y42613923D01*
X12646977Y42783573D01*
X12660000Y42915797D01*
X12664354Y42960003D01*
X12660000Y43004210D01*
X12660000Y46828944D01*
X14810000Y46828944D01*
X14810000Y46691056D01*
X14836901Y46555818D01*
X14889668Y46428426D01*
X14966274Y46313776D01*
X15063776Y46216274D01*
X15178426Y46139668D01*
X15305818Y46086901D01*
X15441056Y46060000D01*
X15578944Y46060000D01*
X15714182Y46086901D01*
X15841574Y46139668D01*
X15956224Y46216274D01*
X16053726Y46313776D01*
X16130332Y46428426D01*
X16183099Y46555818D01*
X16210000Y46691056D01*
X16210000Y46828944D01*
X17840000Y46828944D01*
X17840000Y46691056D01*
X17866901Y46555818D01*
X17919668Y46428426D01*
X17996274Y46313776D01*
X18093776Y46216274D01*
X18208426Y46139668D01*
X18335818Y46086901D01*
X18471056Y46060000D01*
X18608944Y46060000D01*
X18744182Y46086901D01*
X18871574Y46139668D01*
X18986224Y46216274D01*
X19083726Y46313776D01*
X19160332Y46428426D01*
X19213099Y46555818D01*
X19240000Y46691056D01*
X19240000Y46828944D01*
X19213099Y46964182D01*
X19160332Y47091574D01*
X19083726Y47206224D01*
X18986224Y47303726D01*
X18871574Y47380332D01*
X18744182Y47433099D01*
X18608944Y47460000D01*
X18471056Y47460000D01*
X18335818Y47433099D01*
X18208426Y47380332D01*
X18093776Y47303726D01*
X17996274Y47206224D01*
X17919668Y47091574D01*
X17866901Y46964182D01*
X17840000Y46828944D01*
X16210000Y46828944D01*
X16183099Y46964182D01*
X16130332Y47091574D01*
X16053726Y47206224D01*
X15956224Y47303726D01*
X15841574Y47380332D01*
X15714182Y47433099D01*
X15578944Y47460000D01*
X15441056Y47460000D01*
X15305818Y47433099D01*
X15178426Y47380332D01*
X15063776Y47303726D01*
X14966274Y47206224D01*
X14889668Y47091574D01*
X14836901Y46964182D01*
X14810000Y46828944D01*
X12660000Y46828944D01*
X12660000Y49198944D01*
X12900000Y49198944D01*
X12900000Y49061056D01*
X12926901Y48925818D01*
X12979668Y48798426D01*
X13056274Y48683776D01*
X13145050Y48595000D01*
X13066274Y48516224D01*
X12989668Y48401574D01*
X12936901Y48274182D01*
X12910000Y48138944D01*
X12910000Y48001056D01*
X12936901Y47865818D01*
X12989668Y47738426D01*
X13066274Y47623776D01*
X13163776Y47526274D01*
X13278426Y47449668D01*
X13405818Y47396901D01*
X13541056Y47370000D01*
X13678944Y47370000D01*
X13814182Y47396901D01*
X13941574Y47449668D01*
X14056224Y47526274D01*
X14153726Y47623776D01*
X14230332Y47738426D01*
X14283099Y47865818D01*
X14310000Y48001056D01*
X14310000Y48138944D01*
X14283099Y48274182D01*
X14230332Y48401574D01*
X14153726Y48516224D01*
X14064950Y48605000D01*
X14143726Y48683776D01*
X14220332Y48798426D01*
X14273099Y48925818D01*
X14300000Y49061056D01*
X14300000Y49198944D01*
X14273099Y49334182D01*
X14250417Y49388944D01*
X14810000Y49388944D01*
X14810000Y49251056D01*
X14836901Y49115818D01*
X14889668Y48988426D01*
X14966274Y48873776D01*
X15063776Y48776274D01*
X15178426Y48699668D01*
X15305818Y48646901D01*
X15441056Y48620000D01*
X15578944Y48620000D01*
X15714182Y48646901D01*
X15841574Y48699668D01*
X15956224Y48776274D01*
X16053726Y48873776D01*
X16130332Y48988426D01*
X16183099Y49115818D01*
X16210000Y49251056D01*
X16210000Y49388944D01*
X16208011Y49398944D01*
X18790000Y49398944D01*
X18790000Y49261056D01*
X18816901Y49125818D01*
X18869668Y48998426D01*
X18946274Y48883776D01*
X19043776Y48786274D01*
X19158426Y48709668D01*
X19285818Y48656901D01*
X19421056Y48630000D01*
X19558944Y48630000D01*
X19694182Y48656901D01*
X19821574Y48709668D01*
X19936224Y48786274D01*
X20033726Y48883776D01*
X20110332Y48998426D01*
X20163099Y49125818D01*
X20190000Y49261056D01*
X20190000Y49398944D01*
X20163099Y49534182D01*
X20110332Y49661574D01*
X20033726Y49776224D01*
X19936224Y49873726D01*
X19821574Y49950332D01*
X19694182Y50003099D01*
X19558944Y50030000D01*
X19421056Y50030000D01*
X19285818Y50003099D01*
X19158426Y49950332D01*
X19043776Y49873726D01*
X18946274Y49776224D01*
X18869668Y49661574D01*
X18816901Y49534182D01*
X18790000Y49398944D01*
X16208011Y49398944D01*
X16183099Y49524182D01*
X16130332Y49651574D01*
X16053726Y49766224D01*
X15956224Y49863726D01*
X15841574Y49940332D01*
X15714182Y49993099D01*
X15578944Y50020000D01*
X15441056Y50020000D01*
X15305818Y49993099D01*
X15178426Y49940332D01*
X15063776Y49863726D01*
X14966274Y49766224D01*
X14889668Y49651574D01*
X14836901Y49524182D01*
X14810000Y49388944D01*
X14250417Y49388944D01*
X14220332Y49461574D01*
X14143726Y49576224D01*
X14046224Y49673726D01*
X13931574Y49750332D01*
X13804182Y49803099D01*
X13668944Y49830000D01*
X13531056Y49830000D01*
X13395818Y49803099D01*
X13268426Y49750332D01*
X13153776Y49673726D01*
X13056274Y49576224D01*
X12979668Y49461574D01*
X12926901Y49334182D01*
X12900000Y49198944D01*
X12660000Y49198944D01*
X12660000Y49847208D01*
X13482792Y50670000D01*
X19307208Y50670000D01*
X21877208Y48100000D01*
X21074861Y47297653D01*
X21040526Y47269475D01*
X21012348Y47235140D01*
X21012345Y47235137D01*
X20928057Y47132431D01*
X20844487Y46976081D01*
X20793023Y46806430D01*
X20775646Y46630000D01*
X20780001Y46585783D01*
X20780000Y25264207D01*
X20775646Y25220000D01*
X20780000Y25175794D01*
X20793023Y25043570D01*
X20844486Y24873920D01*
X20928057Y24717569D01*
X21040525Y24580525D01*
X21074865Y24552343D01*
X26268186Y19359021D01*
X26263265Y19360000D01*
X26036735Y19360000D01*
X25814557Y19315806D01*
X25605271Y19229116D01*
X25416918Y19103263D01*
X25256737Y18943082D01*
X25130884Y18754729D01*
X25044194Y18545443D01*
X25000000Y18323265D01*
X25000000Y18096735D01*
X25044194Y17874557D01*
X25130884Y17665271D01*
X25256737Y17476918D01*
X25416918Y17316737D01*
X25605271Y17190884D01*
X25814557Y17104194D01*
X26036735Y17060000D01*
X26263265Y17060000D01*
X26485443Y17104194D01*
X26694729Y17190884D01*
X26883082Y17316737D01*
X27043263Y17476918D01*
X27169116Y17665271D01*
X27255806Y17874557D01*
X27300000Y18096735D01*
X27300000Y18323265D01*
X27299021Y18328186D01*
X27542366Y18084841D01*
X27584194Y17874557D01*
X27670884Y17665271D01*
X27796737Y17476918D01*
X27956918Y17316737D01*
X28145271Y17190884D01*
X28354557Y17104194D01*
X28576735Y17060000D01*
X28803265Y17060000D01*
X29025443Y17104194D01*
X29234729Y17190884D01*
X29423082Y17316737D01*
X29583263Y17476918D01*
X29709116Y17665271D01*
X29795806Y17874557D01*
X29840000Y18096735D01*
X29840000Y18323265D01*
X30080000Y18323265D01*
X30080000Y18096735D01*
X30124194Y17874557D01*
X30210884Y17665271D01*
X30336737Y17476918D01*
X30496918Y17316737D01*
X30685271Y17190884D01*
X30894557Y17104194D01*
X31116735Y17060000D01*
X31343265Y17060000D01*
X31565443Y17104194D01*
X31774729Y17190884D01*
X31963082Y17316737D01*
X32123263Y17476918D01*
X32249116Y17665271D01*
X32335806Y17874557D01*
X32380000Y18096735D01*
X32380000Y18323265D01*
X32335806Y18545443D01*
X32249116Y18754729D01*
X32123263Y18943082D01*
X31963082Y19103263D01*
X31774729Y19229116D01*
X31565443Y19315806D01*
X31343265Y19360000D01*
X31116735Y19360000D01*
X30894557Y19315806D01*
X30685271Y19229116D01*
X30496918Y19103263D01*
X30336737Y18943082D01*
X30210884Y18754729D01*
X30124194Y18545443D01*
X30080000Y18323265D01*
X29840000Y18323265D01*
X29795806Y18545443D01*
X29709116Y18754729D01*
X29583263Y18943082D01*
X29423082Y19103263D01*
X29234729Y19229116D01*
X29025443Y19315806D01*
X28815159Y19357634D01*
X26283849Y21888944D01*
X27350000Y21888944D01*
X27350000Y21751056D01*
X27376901Y21615818D01*
X27429668Y21488426D01*
X27506274Y21373776D01*
X27603776Y21276274D01*
X27718426Y21199668D01*
X27845818Y21146901D01*
X27981056Y21120000D01*
X28118944Y21120000D01*
X28254182Y21146901D01*
X28381574Y21199668D01*
X28496224Y21276274D01*
X28593726Y21373776D01*
X28670332Y21488426D01*
X28723099Y21615818D01*
X28750000Y21751056D01*
X28750000Y21888944D01*
X28723099Y22024182D01*
X28670332Y22151574D01*
X28593726Y22266224D01*
X28496224Y22363726D01*
X28381574Y22440332D01*
X28254182Y22493099D01*
X28118944Y22520000D01*
X27981056Y22520000D01*
X27845818Y22493099D01*
X27718426Y22440332D01*
X27603776Y22363726D01*
X27506274Y22266224D01*
X27429668Y22151574D01*
X27376901Y22024182D01*
X27350000Y21888944D01*
X26283849Y21888944D01*
X22580000Y25592792D01*
X22580000Y34248944D01*
X26080000Y34248944D01*
X26080000Y34111056D01*
X26106901Y33975818D01*
X26159668Y33848426D01*
X26236274Y33733776D01*
X26333776Y33636274D01*
X26448426Y33559668D01*
X26575818Y33506901D01*
X26711056Y33480000D01*
X26848944Y33480000D01*
X26984182Y33506901D01*
X27111574Y33559668D01*
X27226224Y33636274D01*
X27323726Y33733776D01*
X27400332Y33848426D01*
X27453099Y33975818D01*
X27480000Y34111056D01*
X27480000Y34248944D01*
X28620000Y34248944D01*
X28620000Y34111056D01*
X28646901Y33975818D01*
X28699668Y33848426D01*
X28776274Y33733776D01*
X28873776Y33636274D01*
X28988426Y33559668D01*
X29115818Y33506901D01*
X29251056Y33480000D01*
X29388944Y33480000D01*
X29524182Y33506901D01*
X29651574Y33559668D01*
X29766224Y33636274D01*
X29863726Y33733776D01*
X29940332Y33848426D01*
X29960000Y33895909D01*
X29979668Y33848426D01*
X30056274Y33733776D01*
X30153776Y33636274D01*
X30268426Y33559668D01*
X30395818Y33506901D01*
X30531056Y33480000D01*
X30668944Y33480000D01*
X30804182Y33506901D01*
X30931574Y33559668D01*
X31046224Y33636274D01*
X31143726Y33733776D01*
X31220332Y33848426D01*
X31273099Y33975818D01*
X31300000Y34111056D01*
X31300000Y34248944D01*
X31273099Y34384182D01*
X31220332Y34511574D01*
X31143726Y34626224D01*
X31046224Y34723726D01*
X30931574Y34800332D01*
X30804182Y34853099D01*
X30668944Y34880000D01*
X30531056Y34880000D01*
X30395818Y34853099D01*
X30268426Y34800332D01*
X30153776Y34723726D01*
X30056274Y34626224D01*
X29979668Y34511574D01*
X29960000Y34464091D01*
X29940332Y34511574D01*
X29863726Y34626224D01*
X29766224Y34723726D01*
X29651574Y34800332D01*
X29524182Y34853099D01*
X29388944Y34880000D01*
X29251056Y34880000D01*
X29115818Y34853099D01*
X28988426Y34800332D01*
X28873776Y34723726D01*
X28776274Y34626224D01*
X28699668Y34511574D01*
X28646901Y34384182D01*
X28620000Y34248944D01*
X27480000Y34248944D01*
X27453099Y34384182D01*
X27400332Y34511574D01*
X27323726Y34626224D01*
X27226224Y34723726D01*
X27111574Y34800332D01*
X26984182Y34853099D01*
X26848944Y34880000D01*
X26711056Y34880000D01*
X26575818Y34853099D01*
X26448426Y34800332D01*
X26333776Y34723726D01*
X26236274Y34626224D01*
X26159668Y34511574D01*
X26106901Y34384182D01*
X26080000Y34248944D01*
X22580000Y34248944D01*
X22580000Y37271547D01*
X22590884Y37245271D01*
X22716737Y37056918D01*
X22876918Y36896737D01*
X23065271Y36770884D01*
X23274557Y36684194D01*
X23496735Y36640000D01*
X23723265Y36640000D01*
X23945443Y36684194D01*
X24154729Y36770884D01*
X24343082Y36896737D01*
X24503263Y37056918D01*
X24629116Y37245271D01*
X24715806Y37454557D01*
X24760000Y37676735D01*
X24760000Y37903265D01*
X25000000Y37903265D01*
X25000000Y37676735D01*
X25044194Y37454557D01*
X25130884Y37245271D01*
X25256737Y37056918D01*
X25416918Y36896737D01*
X25605271Y36770884D01*
X25814557Y36684194D01*
X26036735Y36640000D01*
X26263265Y36640000D01*
X26485443Y36684194D01*
X26694729Y36770884D01*
X26883082Y36896737D01*
X27043263Y37056918D01*
X27169116Y37245271D01*
X27255806Y37454557D01*
X27300000Y37676735D01*
X27300000Y37903265D01*
X27540000Y37903265D01*
X27540000Y37676735D01*
X27584194Y37454557D01*
X27670884Y37245271D01*
X27796737Y37056918D01*
X27956918Y36896737D01*
X28145271Y36770884D01*
X28354557Y36684194D01*
X28576735Y36640000D01*
X28803265Y36640000D01*
X29025443Y36684194D01*
X29234729Y36770884D01*
X29423082Y36896737D01*
X29583263Y37056918D01*
X29709116Y37245271D01*
X29795806Y37454557D01*
X29840000Y37676735D01*
X29840000Y37903265D01*
X30080000Y37903265D01*
X30080000Y37676735D01*
X30124194Y37454557D01*
X30210884Y37245271D01*
X30336737Y37056918D01*
X30496918Y36896737D01*
X30685271Y36770884D01*
X30894557Y36684194D01*
X31116735Y36640000D01*
X31343265Y36640000D01*
X31565443Y36684194D01*
X31774729Y36770884D01*
X31963082Y36896737D01*
X32123263Y37056918D01*
X32249116Y37245271D01*
X32335806Y37454557D01*
X32380000Y37676735D01*
X32380000Y37903265D01*
X32335806Y38125443D01*
X32249116Y38334729D01*
X32123263Y38523082D01*
X31963082Y38683263D01*
X31774729Y38809116D01*
X31565443Y38895806D01*
X31343265Y38940000D01*
X31116735Y38940000D01*
X30894557Y38895806D01*
X30685271Y38809116D01*
X30496918Y38683263D01*
X30336737Y38523082D01*
X30210884Y38334729D01*
X30124194Y38125443D01*
X30080000Y37903265D01*
X29840000Y37903265D01*
X29795806Y38125443D01*
X29709116Y38334729D01*
X29583263Y38523082D01*
X29423082Y38683263D01*
X29234729Y38809116D01*
X29025443Y38895806D01*
X28803265Y38940000D01*
X28576735Y38940000D01*
X28354557Y38895806D01*
X28145271Y38809116D01*
X27956918Y38683263D01*
X27796737Y38523082D01*
X27670884Y38334729D01*
X27584194Y38125443D01*
X27540000Y37903265D01*
X27300000Y37903265D01*
X27255806Y38125443D01*
X27169116Y38334729D01*
X27043263Y38523082D01*
X26883082Y38683263D01*
X26694729Y38809116D01*
X26485443Y38895806D01*
X26263265Y38940000D01*
X26036735Y38940000D01*
X25814557Y38895806D01*
X25605271Y38809116D01*
X25416918Y38683263D01*
X25256737Y38523082D01*
X25130884Y38334729D01*
X25044194Y38125443D01*
X25000000Y37903265D01*
X24760000Y37903265D01*
X24715806Y38125443D01*
X24629116Y38334729D01*
X24503263Y38523082D01*
X24343082Y38683263D01*
X24154729Y38809116D01*
X23945443Y38895806D01*
X23723265Y38940000D01*
X23496735Y38940000D01*
X23274557Y38895806D01*
X23065271Y38809116D01*
X22876918Y38683263D01*
X22716737Y38523082D01*
X22590884Y38334729D01*
X22580000Y38308453D01*
X22580000Y46257208D01*
X23522792Y47200000D01*
X27145794Y47200000D01*
X27190000Y47195646D01*
X27234206Y47200000D01*
X27234207Y47200000D01*
X27366431Y47213023D01*
X27536081Y47264486D01*
X27692432Y47348057D01*
X27829475Y47460525D01*
X27857657Y47494865D01*
X29295136Y48932344D01*
X29329475Y48960525D01*
X29441943Y49097568D01*
X29525514Y49253919D01*
X29576977Y49423569D01*
X29590000Y49555793D01*
X29590000Y49555802D01*
X29594353Y49599999D01*
X29590000Y49644196D01*
X29590000Y50147001D01*
X29709116Y50325271D01*
X29795806Y50534557D01*
X29840000Y50756735D01*
X29840000Y50983265D01*
X30080000Y50983265D01*
X30080000Y50756735D01*
X30124194Y50534557D01*
X30210884Y50325271D01*
X30336737Y50136918D01*
X30496918Y49976737D01*
X30685271Y49850884D01*
X30894557Y49764194D01*
X31116735Y49720000D01*
X31343265Y49720000D01*
X31565443Y49764194D01*
X31774729Y49850884D01*
X31963082Y49976737D01*
X32123263Y50136918D01*
X32249116Y50325271D01*
X32335806Y50534557D01*
X32380000Y50756735D01*
X32380000Y50983265D01*
X32335806Y51205443D01*
X32249116Y51414729D01*
X32123263Y51603082D01*
X31963082Y51763263D01*
X31774729Y51889116D01*
X31565443Y51975806D01*
X31343265Y52020000D01*
X31116735Y52020000D01*
X30894557Y51975806D01*
X30685271Y51889116D01*
X30496918Y51763263D01*
X30336737Y51603082D01*
X30210884Y51414729D01*
X30124194Y51205443D01*
X30080000Y50983265D01*
X29840000Y50983265D01*
X29795806Y51205443D01*
X29709116Y51414729D01*
X29583263Y51603082D01*
X29423082Y51763263D01*
X29234729Y51889116D01*
X29025443Y51975806D01*
X28803265Y52020000D01*
X28576735Y52020000D01*
X28354557Y51975806D01*
X28145271Y51889116D01*
X27956918Y51763263D01*
X27796737Y51603082D01*
X27670884Y51414729D01*
X27584194Y51205443D01*
X27540000Y50983265D01*
X27540000Y50756735D01*
X27584194Y50534557D01*
X27670884Y50325271D01*
X27790000Y50147000D01*
X27790000Y49972792D01*
X26817208Y49000000D01*
X23522793Y49000000D01*
X21539528Y50983265D01*
X22460000Y50983265D01*
X22460000Y50756735D01*
X22504194Y50534557D01*
X22590884Y50325271D01*
X22716737Y50136918D01*
X22876918Y49976737D01*
X23065271Y49850884D01*
X23274557Y49764194D01*
X23496735Y49720000D01*
X23723265Y49720000D01*
X23945443Y49764194D01*
X24154729Y49850884D01*
X24343082Y49976737D01*
X24503263Y50136918D01*
X24629116Y50325271D01*
X24715806Y50534557D01*
X24760000Y50756735D01*
X24760000Y50983265D01*
X25000000Y50983265D01*
X25000000Y50756735D01*
X25044194Y50534557D01*
X25130884Y50325271D01*
X25256737Y50136918D01*
X25416918Y49976737D01*
X25605271Y49850884D01*
X25814557Y49764194D01*
X26036735Y49720000D01*
X26263265Y49720000D01*
X26485443Y49764194D01*
X26694729Y49850884D01*
X26883082Y49976737D01*
X27043263Y50136918D01*
X27169116Y50325271D01*
X27255806Y50534557D01*
X27300000Y50756735D01*
X27300000Y50983265D01*
X27255806Y51205443D01*
X27169116Y51414729D01*
X27043263Y51603082D01*
X26883082Y51763263D01*
X26694729Y51889116D01*
X26485443Y51975806D01*
X26263265Y52020000D01*
X26036735Y52020000D01*
X25814557Y51975806D01*
X25605271Y51889116D01*
X25416918Y51763263D01*
X25256737Y51603082D01*
X25130884Y51414729D01*
X25044194Y51205443D01*
X25000000Y50983265D01*
X24760000Y50983265D01*
X24715806Y51205443D01*
X24629116Y51414729D01*
X24503263Y51603082D01*
X24343082Y51763263D01*
X24154729Y51889116D01*
X23945443Y51975806D01*
X23723265Y52020000D01*
X23496735Y52020000D01*
X23274557Y51975806D01*
X23065271Y51889116D01*
X22876918Y51763263D01*
X22716737Y51603082D01*
X22590884Y51414729D01*
X22504194Y51205443D01*
X22460000Y50983265D01*
X21539528Y50983265D01*
X20347655Y52175137D01*
X20319475Y52209475D01*
X20182432Y52321943D01*
X20026081Y52405514D01*
X19856431Y52456977D01*
X19724207Y52470000D01*
X19724206Y52470000D01*
X19680000Y52474354D01*
X19635794Y52470000D01*
X13482792Y52470000D01*
X13432792Y52520000D01*
X13573114Y52520000D01*
X13814611Y52568037D01*
X14042097Y52662265D01*
X14246828Y52799062D01*
X14420938Y52973172D01*
X14557735Y53177903D01*
X14651963Y53405389D01*
X14700000Y53646886D01*
X14700000Y53893114D01*
X14740000Y53893114D01*
X14740000Y53646886D01*
X14788037Y53405389D01*
X14882265Y53177903D01*
X15019062Y52973172D01*
X15193172Y52799062D01*
X15397903Y52662265D01*
X15625389Y52568037D01*
X15866886Y52520000D01*
X16113114Y52520000D01*
X16354611Y52568037D01*
X16582097Y52662265D01*
X16786828Y52799062D01*
X16960938Y52973172D01*
X17097735Y53177903D01*
X17191963Y53405389D01*
X17240000Y53646886D01*
X17240000Y53893114D01*
X17280000Y53893114D01*
X17280000Y53646886D01*
X17328037Y53405389D01*
X17422265Y53177903D01*
X17559062Y52973172D01*
X17733172Y52799062D01*
X17937903Y52662265D01*
X18165389Y52568037D01*
X18406886Y52520000D01*
X18653114Y52520000D01*
X18894611Y52568037D01*
X19122097Y52662265D01*
X19326828Y52799062D01*
X19500938Y52973172D01*
X19637735Y53177903D01*
X19731963Y53405389D01*
X19780000Y53646886D01*
X19780000Y53893114D01*
X19820000Y53893114D01*
X19820000Y53646886D01*
X19868037Y53405389D01*
X19962265Y53177903D01*
X20099062Y52973172D01*
X20273172Y52799062D01*
X20477903Y52662265D01*
X20705389Y52568037D01*
X20946886Y52520000D01*
X21193114Y52520000D01*
X21434611Y52568037D01*
X21662097Y52662265D01*
X21866828Y52799062D01*
X22040938Y52973172D01*
X22177735Y53177903D01*
X22271963Y53405389D01*
X22320000Y53646886D01*
X22320000Y53893114D01*
X22360000Y53893114D01*
X22360000Y53646886D01*
X22408037Y53405389D01*
X22502265Y53177903D01*
X22639062Y52973172D01*
X22813172Y52799062D01*
X23017903Y52662265D01*
X23245389Y52568037D01*
X23486886Y52520000D01*
X23733114Y52520000D01*
X23974611Y52568037D01*
X24202097Y52662265D01*
X24406828Y52799062D01*
X24580938Y52973172D01*
X24717735Y53177903D01*
X24811963Y53405389D01*
X24860000Y53646886D01*
X24860000Y53893114D01*
X24900000Y53893114D01*
X24900000Y53646886D01*
X24948037Y53405389D01*
X25042265Y53177903D01*
X25179062Y52973172D01*
X25353172Y52799062D01*
X25557903Y52662265D01*
X25785389Y52568037D01*
X26026886Y52520000D01*
X26273114Y52520000D01*
X26514611Y52568037D01*
X26742097Y52662265D01*
X26946828Y52799062D01*
X27120938Y52973172D01*
X27257735Y53177903D01*
X27351963Y53405389D01*
X27400000Y53646886D01*
X27400000Y53893114D01*
X27440000Y53893114D01*
X27440000Y53646886D01*
X27488037Y53405389D01*
X27582265Y53177903D01*
X27719062Y52973172D01*
X27893172Y52799062D01*
X28097903Y52662265D01*
X28325389Y52568037D01*
X28566886Y52520000D01*
X28813114Y52520000D01*
X29054611Y52568037D01*
X29282097Y52662265D01*
X29486828Y52799062D01*
X29660938Y52973172D01*
X29797735Y53177903D01*
X29891963Y53405389D01*
X29940000Y53646886D01*
X29940000Y53893114D01*
X29980000Y53893114D01*
X29980000Y53646886D01*
X30028037Y53405389D01*
X30122265Y53177903D01*
X30259062Y52973172D01*
X30433172Y52799062D01*
X30637903Y52662265D01*
X30865389Y52568037D01*
X31106886Y52520000D01*
X31353114Y52520000D01*
X31594611Y52568037D01*
X31822097Y52662265D01*
X32026828Y52799062D01*
X32200938Y52973172D01*
X32337735Y53177903D01*
X32431963Y53405389D01*
X32480000Y53646886D01*
X32480000Y53893114D01*
X32431963Y54134611D01*
X32337735Y54362097D01*
X32200938Y54566828D01*
X32026828Y54740938D01*
X31822097Y54877735D01*
X31594611Y54971963D01*
X31353114Y55020000D01*
X31106886Y55020000D01*
X30865389Y54971963D01*
X30637903Y54877735D01*
X30433172Y54740938D01*
X30259062Y54566828D01*
X30122265Y54362097D01*
X30028037Y54134611D01*
X29980000Y53893114D01*
X29940000Y53893114D01*
X29891963Y54134611D01*
X29797735Y54362097D01*
X29660938Y54566828D01*
X29486828Y54740938D01*
X29282097Y54877735D01*
X29054611Y54971963D01*
X28813114Y55020000D01*
X28566886Y55020000D01*
X28325389Y54971963D01*
X28097903Y54877735D01*
X27893172Y54740938D01*
X27719062Y54566828D01*
X27582265Y54362097D01*
X27488037Y54134611D01*
X27440000Y53893114D01*
X27400000Y53893114D01*
X27351963Y54134611D01*
X27257735Y54362097D01*
X27120938Y54566828D01*
X26946828Y54740938D01*
X26742097Y54877735D01*
X26514611Y54971963D01*
X26273114Y55020000D01*
X26026886Y55020000D01*
X25785389Y54971963D01*
X25557903Y54877735D01*
X25353172Y54740938D01*
X25179062Y54566828D01*
X25042265Y54362097D01*
X24948037Y54134611D01*
X24900000Y53893114D01*
X24860000Y53893114D01*
X24811963Y54134611D01*
X24717735Y54362097D01*
X24580938Y54566828D01*
X24406828Y54740938D01*
X24202097Y54877735D01*
X23974611Y54971963D01*
X23733114Y55020000D01*
X23486886Y55020000D01*
X23245389Y54971963D01*
X23017903Y54877735D01*
X22813172Y54740938D01*
X22639062Y54566828D01*
X22502265Y54362097D01*
X22408037Y54134611D01*
X22360000Y53893114D01*
X22320000Y53893114D01*
X22271963Y54134611D01*
X22177735Y54362097D01*
X22040938Y54566828D01*
X21866828Y54740938D01*
X21662097Y54877735D01*
X21434611Y54971963D01*
X21193114Y55020000D01*
X20946886Y55020000D01*
X20705389Y54971963D01*
X20477903Y54877735D01*
X20273172Y54740938D01*
X20099062Y54566828D01*
X19962265Y54362097D01*
X19868037Y54134611D01*
X19820000Y53893114D01*
X19780000Y53893114D01*
X19731963Y54134611D01*
X19637735Y54362097D01*
X19500938Y54566828D01*
X19326828Y54740938D01*
X19122097Y54877735D01*
X18894611Y54971963D01*
X18653114Y55020000D01*
X18406886Y55020000D01*
X18165389Y54971963D01*
X17937903Y54877735D01*
X17733172Y54740938D01*
X17559062Y54566828D01*
X17422265Y54362097D01*
X17328037Y54134611D01*
X17280000Y53893114D01*
X17240000Y53893114D01*
X17191963Y54134611D01*
X17097735Y54362097D01*
X16960938Y54566828D01*
X16786828Y54740938D01*
X16582097Y54877735D01*
X16354611Y54971963D01*
X16113114Y55020000D01*
X15866886Y55020000D01*
X15625389Y54971963D01*
X15397903Y54877735D01*
X15193172Y54740938D01*
X15019062Y54566828D01*
X14882265Y54362097D01*
X14788037Y54134611D01*
X14740000Y53893114D01*
X14700000Y53893114D01*
X14651963Y54134611D01*
X14557735Y54362097D01*
X14420938Y54566828D01*
X14246828Y54740938D01*
X14042097Y54877735D01*
X13814611Y54971963D01*
X13573114Y55020000D01*
X13326886Y55020000D01*
X13085389Y54971963D01*
X12857903Y54877735D01*
X12653172Y54740938D01*
X12479062Y54566828D01*
X12342265Y54362097D01*
X12248037Y54134611D01*
X12200000Y53893114D01*
X12200000Y53752792D01*
X12160000Y53792792D01*
X12160000Y53893114D01*
X12111963Y54134611D01*
X12017735Y54362097D01*
X11880938Y54566828D01*
X11706828Y54740938D01*
X11502097Y54877735D01*
X11274611Y54971963D01*
X11033114Y55020000D01*
X10786886Y55020000D01*
X10545389Y54971963D01*
X10317903Y54877735D01*
X10113172Y54740938D01*
X9939062Y54566828D01*
X9802265Y54362097D01*
X9708037Y54134611D01*
X9660000Y53893114D01*
X9660000Y53646886D01*
X9708037Y53405389D01*
X9802265Y53177903D01*
X9939062Y52973172D01*
X10113172Y52799062D01*
X10317903Y52662265D01*
X10545389Y52568037D01*
X10786886Y52520000D01*
X10887208Y52520000D01*
X11837208Y51570000D01*
X11154865Y50887657D01*
X11120525Y50859475D01*
X11008057Y50722431D01*
X10924486Y50566080D01*
X10900490Y50486976D01*
X10873023Y50396430D01*
X10855646Y50220000D01*
X10860000Y50175793D01*
X10860001Y43332798D01*
X10055534Y42528330D01*
X10070000Y42601056D01*
X10070000Y42738944D01*
X10043099Y42874182D01*
X9990332Y43001574D01*
X9913726Y43116224D01*
X9816224Y43213726D01*
X9701574Y43290332D01*
X9574182Y43343099D01*
X9438944Y43370000D01*
X9310689Y43370000D01*
X9313099Y43375818D01*
X9340000Y43511056D01*
X9340000Y43648944D01*
X9313099Y43784182D01*
X9260332Y43911574D01*
X9183726Y44026224D01*
X9086224Y44123726D01*
X8971574Y44200332D01*
X8844182Y44253099D01*
X8708944Y44280000D01*
X8571056Y44280000D01*
X8435818Y44253099D01*
X8308426Y44200332D01*
X8193776Y44123726D01*
X8096274Y44026224D01*
X8019668Y43911574D01*
X7966901Y43784182D01*
X7940000Y43648944D01*
X3448583Y43648944D01*
X3480000Y43806886D01*
X3480000Y44053114D01*
X3431963Y44294611D01*
X3337735Y44522097D01*
X3200938Y44726828D01*
X3026828Y44900938D01*
X2822097Y45037735D01*
X2594611Y45131963D01*
X2353114Y45180000D01*
X2106886Y45180000D01*
X1865389Y45131963D01*
X1637903Y45037735D01*
X1433172Y44900938D01*
X1259062Y44726828D01*
X1122265Y44522097D01*
X1028037Y44294611D01*
X980000Y44053114D01*
X450000Y44053114D01*
X450000Y45278944D01*
X8230000Y45278944D01*
X8230000Y45141056D01*
X8256901Y45005818D01*
X8309668Y44878426D01*
X8386274Y44763776D01*
X8483776Y44666274D01*
X8598426Y44589668D01*
X8725818Y44536901D01*
X8861056Y44510000D01*
X8998944Y44510000D01*
X9134182Y44536901D01*
X9261574Y44589668D01*
X9376224Y44666274D01*
X9473726Y44763776D01*
X9550332Y44878426D01*
X9603099Y45005818D01*
X9630000Y45141056D01*
X9630000Y45278944D01*
X9603099Y45414182D01*
X9550332Y45541574D01*
X9473726Y45656224D01*
X9376224Y45753726D01*
X9261574Y45830332D01*
X9134182Y45883099D01*
X8998944Y45910000D01*
X8861056Y45910000D01*
X8725818Y45883099D01*
X8598426Y45830332D01*
X8483776Y45753726D01*
X8386274Y45656224D01*
X8309668Y45541574D01*
X8256901Y45414182D01*
X8230000Y45278944D01*
X450000Y45278944D01*
X450000Y48568944D01*
X8210000Y48568944D01*
X8210000Y48431056D01*
X8236901Y48295818D01*
X8289668Y48168426D01*
X8366274Y48053776D01*
X8463776Y47956274D01*
X8578426Y47879668D01*
X8705818Y47826901D01*
X8740000Y47820102D01*
X8740000Y47761056D01*
X8766901Y47625818D01*
X8819668Y47498426D01*
X8896274Y47383776D01*
X8993776Y47286274D01*
X9108426Y47209668D01*
X9235818Y47156901D01*
X9371056Y47130000D01*
X9508944Y47130000D01*
X9644182Y47156901D01*
X9771574Y47209668D01*
X9886224Y47286274D01*
X9983726Y47383776D01*
X10060332Y47498426D01*
X10113099Y47625818D01*
X10140000Y47761056D01*
X10140000Y47898944D01*
X10113099Y48034182D01*
X10060332Y48161574D01*
X9983726Y48276224D01*
X9886224Y48373726D01*
X9771574Y48450332D01*
X9644182Y48503099D01*
X9610000Y48509898D01*
X9610000Y48568944D01*
X9583099Y48704182D01*
X9530332Y48831574D01*
X9453726Y48946224D01*
X9356224Y49043726D01*
X9241574Y49120332D01*
X9114182Y49173099D01*
X8978944Y49200000D01*
X8841056Y49200000D01*
X8705818Y49173099D01*
X8578426Y49120332D01*
X8463776Y49043726D01*
X8366274Y48946224D01*
X8289668Y48831574D01*
X8236901Y48704182D01*
X8210000Y48568944D01*
X450000Y48568944D01*
X450000Y51501351D01*
X664197Y50984232D01*
X1014398Y50460119D01*
X1460119Y50014398D01*
X1984232Y49664197D01*
X2566595Y49422975D01*
X3184828Y49300000D01*
X3815172Y49300000D01*
X4433405Y49422975D01*
X5015768Y49664197D01*
X5539881Y50014398D01*
X5985602Y50460119D01*
X6335803Y50984232D01*
X6577025Y51566595D01*
X6700000Y52184828D01*
X6700000Y52815172D01*
X6577025Y53433405D01*
X6335803Y54015768D01*
X5985602Y54539881D01*
X5539881Y54985602D01*
X5015768Y55335803D01*
X4498649Y55550000D01*
X30977994Y55550000D01*
X31494876Y55499319D01*
G37*
X31494876Y55499319D02*
X31970906Y55355597D01*
X32409957Y55122150D01*
X32795296Y54807875D01*
X33112258Y54424734D01*
X33348761Y53987330D01*
X33495803Y53512316D01*
X33550001Y52996656D01*
X33550000Y3022005D01*
X33499319Y2505124D01*
X33355596Y2029090D01*
X33122152Y1590046D01*
X32807875Y1204704D01*
X32424735Y887743D01*
X31987329Y651239D01*
X31512316Y504197D01*
X30996664Y450000D01*
X4498649Y450000D01*
X5015768Y664197D01*
X5539881Y1014398D01*
X5985602Y1460119D01*
X6335803Y1984232D01*
X6577025Y2566595D01*
X6599682Y2680500D01*
X7118065Y2680500D01*
X7118065Y1779500D01*
X7133464Y1623148D01*
X7179071Y1472804D01*
X7253131Y1334247D01*
X7352800Y1212800D01*
X7474247Y1113131D01*
X7612804Y1039071D01*
X7763148Y993464D01*
X7919500Y978065D01*
X8820500Y978065D01*
X8976852Y993464D01*
X9127196Y1039071D01*
X9265753Y1113131D01*
X9387200Y1212800D01*
X9486869Y1334247D01*
X9560929Y1472804D01*
X9606536Y1623148D01*
X9621935Y1779500D01*
X9621935Y2353114D01*
X9660000Y2353114D01*
X9660000Y2106886D01*
X9708037Y1865389D01*
X9802265Y1637903D01*
X9939062Y1433172D01*
X10113172Y1259062D01*
X10317903Y1122265D01*
X10545389Y1028037D01*
X10786886Y980000D01*
X11033114Y980000D01*
X11274611Y1028037D01*
X11502097Y1122265D01*
X11706828Y1259062D01*
X11880938Y1433172D01*
X12017735Y1637903D01*
X12111963Y1865389D01*
X12160000Y2106886D01*
X12160000Y2353114D01*
X12200000Y2353114D01*
X12200000Y2106886D01*
X12248037Y1865389D01*
X12342265Y1637903D01*
X12479062Y1433172D01*
X12653172Y1259062D01*
X12857903Y1122265D01*
X13085389Y1028037D01*
X13326886Y980000D01*
X13573114Y980000D01*
X13814611Y1028037D01*
X14042097Y1122265D01*
X14246828Y1259062D01*
X14420938Y1433172D01*
X14557735Y1637903D01*
X14651963Y1865389D01*
X14700000Y2106886D01*
X14700000Y2353114D01*
X14740000Y2353114D01*
X14740000Y2106886D01*
X14788037Y1865389D01*
X14882265Y1637903D01*
X15019062Y1433172D01*
X15193172Y1259062D01*
X15397903Y1122265D01*
X15625389Y1028037D01*
X15866886Y980000D01*
X16113114Y980000D01*
X16354611Y1028037D01*
X16582097Y1122265D01*
X16786828Y1259062D01*
X16960938Y1433172D01*
X17097735Y1637903D01*
X17191963Y1865389D01*
X17240000Y2106886D01*
X17240000Y2353114D01*
X17280000Y2353114D01*
X17280000Y2106886D01*
X17328037Y1865389D01*
X17422265Y1637903D01*
X17559062Y1433172D01*
X17733172Y1259062D01*
X17937903Y1122265D01*
X18165389Y1028037D01*
X18406886Y980000D01*
X18653114Y980000D01*
X18894611Y1028037D01*
X19122097Y1122265D01*
X19326828Y1259062D01*
X19500938Y1433172D01*
X19637735Y1637903D01*
X19731963Y1865389D01*
X19780000Y2106886D01*
X19780000Y2353114D01*
X19820000Y2353114D01*
X19820000Y2106886D01*
X19868037Y1865389D01*
X19962265Y1637903D01*
X20099062Y1433172D01*
X20273172Y1259062D01*
X20477903Y1122265D01*
X20705389Y1028037D01*
X20946886Y980000D01*
X21193114Y980000D01*
X21434611Y1028037D01*
X21662097Y1122265D01*
X21866828Y1259062D01*
X22040938Y1433172D01*
X22177735Y1637903D01*
X22271963Y1865389D01*
X22320000Y2106886D01*
X22320000Y2353114D01*
X22360000Y2353114D01*
X22360000Y2106886D01*
X22408037Y1865389D01*
X22502265Y1637903D01*
X22639062Y1433172D01*
X22813172Y1259062D01*
X23017903Y1122265D01*
X23245389Y1028037D01*
X23486886Y980000D01*
X23733114Y980000D01*
X23974611Y1028037D01*
X24202097Y1122265D01*
X24406828Y1259062D01*
X24580938Y1433172D01*
X24717735Y1637903D01*
X24811963Y1865389D01*
X24860000Y2106886D01*
X24860000Y2353114D01*
X24900000Y2353114D01*
X24900000Y2106886D01*
X24948037Y1865389D01*
X25042265Y1637903D01*
X25179062Y1433172D01*
X25353172Y1259062D01*
X25557903Y1122265D01*
X25785389Y1028037D01*
X26026886Y980000D01*
X26273114Y980000D01*
X26514611Y1028037D01*
X26742097Y1122265D01*
X26946828Y1259062D01*
X27120938Y1433172D01*
X27257735Y1637903D01*
X27351963Y1865389D01*
X27400000Y2106886D01*
X27400000Y2353114D01*
X27440000Y2353114D01*
X27440000Y2106886D01*
X27488037Y1865389D01*
X27582265Y1637903D01*
X27719062Y1433172D01*
X27893172Y1259062D01*
X28097903Y1122265D01*
X28325389Y1028037D01*
X28566886Y980000D01*
X28813114Y980000D01*
X29054611Y1028037D01*
X29282097Y1122265D01*
X29486828Y1259062D01*
X29660938Y1433172D01*
X29797735Y1637903D01*
X29891963Y1865389D01*
X29940000Y2106886D01*
X29940000Y2353114D01*
X29980000Y2353114D01*
X29980000Y2106886D01*
X30028037Y1865389D01*
X30122265Y1637903D01*
X30259062Y1433172D01*
X30433172Y1259062D01*
X30637903Y1122265D01*
X30865389Y1028037D01*
X31106886Y980000D01*
X31353114Y980000D01*
X31594611Y1028037D01*
X31822097Y1122265D01*
X32026828Y1259062D01*
X32200938Y1433172D01*
X32337735Y1637903D01*
X32431963Y1865389D01*
X32480000Y2106886D01*
X32480000Y2353114D01*
X32431963Y2594611D01*
X32337735Y2822097D01*
X32200938Y3026828D01*
X32026828Y3200938D01*
X31822097Y3337735D01*
X31594611Y3431963D01*
X31353114Y3480000D01*
X31106886Y3480000D01*
X30865389Y3431963D01*
X30637903Y3337735D01*
X30433172Y3200938D01*
X30259062Y3026828D01*
X30122265Y2822097D01*
X30028037Y2594611D01*
X29980000Y2353114D01*
X29940000Y2353114D01*
X29891963Y2594611D01*
X29797735Y2822097D01*
X29660938Y3026828D01*
X29486828Y3200938D01*
X29282097Y3337735D01*
X29054611Y3431963D01*
X28813114Y3480000D01*
X28566886Y3480000D01*
X28325389Y3431963D01*
X28097903Y3337735D01*
X27893172Y3200938D01*
X27719062Y3026828D01*
X27582265Y2822097D01*
X27488037Y2594611D01*
X27440000Y2353114D01*
X27400000Y2353114D01*
X27351963Y2594611D01*
X27257735Y2822097D01*
X27120938Y3026828D01*
X26946828Y3200938D01*
X26742097Y3337735D01*
X26514611Y3431963D01*
X26273114Y3480000D01*
X26026886Y3480000D01*
X25785389Y3431963D01*
X25557903Y3337735D01*
X25353172Y3200938D01*
X25179062Y3026828D01*
X25042265Y2822097D01*
X24948037Y2594611D01*
X24900000Y2353114D01*
X24860000Y2353114D01*
X24811963Y2594611D01*
X24717735Y2822097D01*
X24580938Y3026828D01*
X24406828Y3200938D01*
X24202097Y3337735D01*
X23974611Y3431963D01*
X23733114Y3480000D01*
X23486886Y3480000D01*
X23245389Y3431963D01*
X23017903Y3337735D01*
X22813172Y3200938D01*
X22639062Y3026828D01*
X22502265Y2822097D01*
X22408037Y2594611D01*
X22360000Y2353114D01*
X22320000Y2353114D01*
X22271963Y2594611D01*
X22177735Y2822097D01*
X22040938Y3026828D01*
X21866828Y3200938D01*
X21662097Y3337735D01*
X21434611Y3431963D01*
X21193114Y3480000D01*
X20946886Y3480000D01*
X20705389Y3431963D01*
X20477903Y3337735D01*
X20273172Y3200938D01*
X20099062Y3026828D01*
X19962265Y2822097D01*
X19868037Y2594611D01*
X19820000Y2353114D01*
X19780000Y2353114D01*
X19731963Y2594611D01*
X19637735Y2822097D01*
X19500938Y3026828D01*
X19326828Y3200938D01*
X19122097Y3337735D01*
X18894611Y3431963D01*
X18653114Y3480000D01*
X18406886Y3480000D01*
X18165389Y3431963D01*
X17937903Y3337735D01*
X17733172Y3200938D01*
X17559062Y3026828D01*
X17422265Y2822097D01*
X17328037Y2594611D01*
X17280000Y2353114D01*
X17240000Y2353114D01*
X17191963Y2594611D01*
X17097735Y2822097D01*
X16960938Y3026828D01*
X16786828Y3200938D01*
X16582097Y3337735D01*
X16354611Y3431963D01*
X16113114Y3480000D01*
X15866886Y3480000D01*
X15625389Y3431963D01*
X15397903Y3337735D01*
X15193172Y3200938D01*
X15019062Y3026828D01*
X14882265Y2822097D01*
X14788037Y2594611D01*
X14740000Y2353114D01*
X14700000Y2353114D01*
X14651963Y2594611D01*
X14557735Y2822097D01*
X14420938Y3026828D01*
X14246828Y3200938D01*
X14042097Y3337735D01*
X13814611Y3431963D01*
X13573114Y3480000D01*
X13326886Y3480000D01*
X13085389Y3431963D01*
X12857903Y3337735D01*
X12653172Y3200938D01*
X12479062Y3026828D01*
X12342265Y2822097D01*
X12248037Y2594611D01*
X12200000Y2353114D01*
X12160000Y2353114D01*
X12111963Y2594611D01*
X12017735Y2822097D01*
X11880938Y3026828D01*
X11706828Y3200938D01*
X11502097Y3337735D01*
X11274611Y3431963D01*
X11033114Y3480000D01*
X10786886Y3480000D01*
X10545389Y3431963D01*
X10317903Y3337735D01*
X10113172Y3200938D01*
X9939062Y3026828D01*
X9802265Y2822097D01*
X9708037Y2594611D01*
X9660000Y2353114D01*
X9621935Y2353114D01*
X9621935Y2680500D01*
X9606536Y2836852D01*
X9560929Y2987196D01*
X9486869Y3125753D01*
X9387200Y3247200D01*
X9265753Y3346869D01*
X9127196Y3420929D01*
X8976852Y3466536D01*
X8820500Y3481935D01*
X7919500Y3481935D01*
X7763148Y3466536D01*
X7612804Y3420929D01*
X7474247Y3346869D01*
X7352800Y3247200D01*
X7253131Y3125753D01*
X7179071Y2987196D01*
X7133464Y2836852D01*
X7118065Y2680500D01*
X6599682Y2680500D01*
X6700000Y3184828D01*
X6700000Y3815172D01*
X6577025Y4433405D01*
X6335803Y5015768D01*
X6183795Y5243265D01*
X22460000Y5243265D01*
X22460000Y5016735D01*
X22504194Y4794557D01*
X22590884Y4585271D01*
X22716737Y4396918D01*
X22876918Y4236737D01*
X23065271Y4110884D01*
X23274557Y4024194D01*
X23496735Y3980000D01*
X23723265Y3980000D01*
X23945443Y4024194D01*
X24154729Y4110884D01*
X24343082Y4236737D01*
X24503263Y4396918D01*
X24629116Y4585271D01*
X24715806Y4794557D01*
X24760000Y5016735D01*
X24760000Y5243265D01*
X25000000Y5243265D01*
X25000000Y5016735D01*
X25044194Y4794557D01*
X25130884Y4585271D01*
X25256737Y4396918D01*
X25416918Y4236737D01*
X25605271Y4110884D01*
X25814557Y4024194D01*
X26036735Y3980000D01*
X26263265Y3980000D01*
X26485443Y4024194D01*
X26694729Y4110884D01*
X26883082Y4236737D01*
X27043263Y4396918D01*
X27169116Y4585271D01*
X27255806Y4794557D01*
X27300000Y5016735D01*
X27300000Y5243265D01*
X27540000Y5243265D01*
X27540000Y5016735D01*
X27584194Y4794557D01*
X27670884Y4585271D01*
X27796737Y4396918D01*
X27956918Y4236737D01*
X28145271Y4110884D01*
X28354557Y4024194D01*
X28576735Y3980000D01*
X28803265Y3980000D01*
X29025443Y4024194D01*
X29234729Y4110884D01*
X29423082Y4236737D01*
X29583263Y4396918D01*
X29709116Y4585271D01*
X29795806Y4794557D01*
X29840000Y5016735D01*
X29840000Y5243265D01*
X30080000Y5243265D01*
X30080000Y5016735D01*
X30124194Y4794557D01*
X30210884Y4585271D01*
X30336737Y4396918D01*
X30496918Y4236737D01*
X30685271Y4110884D01*
X30894557Y4024194D01*
X31116735Y3980000D01*
X31343265Y3980000D01*
X31565443Y4024194D01*
X31774729Y4110884D01*
X31963082Y4236737D01*
X32123263Y4396918D01*
X32249116Y4585271D01*
X32335806Y4794557D01*
X32380000Y5016735D01*
X32380000Y5243265D01*
X32335806Y5465443D01*
X32249116Y5674729D01*
X32123263Y5863082D01*
X31963082Y6023263D01*
X31774729Y6149116D01*
X31565443Y6235806D01*
X31343265Y6280000D01*
X31116735Y6280000D01*
X30894557Y6235806D01*
X30685271Y6149116D01*
X30496918Y6023263D01*
X30336737Y5863082D01*
X30210884Y5674729D01*
X30124194Y5465443D01*
X30080000Y5243265D01*
X29840000Y5243265D01*
X29795806Y5465443D01*
X29709116Y5674729D01*
X29583263Y5863082D01*
X29423082Y6023263D01*
X29234729Y6149116D01*
X29025443Y6235806D01*
X28803265Y6280000D01*
X28576735Y6280000D01*
X28354557Y6235806D01*
X28145271Y6149116D01*
X27956918Y6023263D01*
X27796737Y5863082D01*
X27670884Y5674729D01*
X27584194Y5465443D01*
X27540000Y5243265D01*
X27300000Y5243265D01*
X27255806Y5465443D01*
X27169116Y5674729D01*
X27043263Y5863082D01*
X26883082Y6023263D01*
X26694729Y6149116D01*
X26485443Y6235806D01*
X26263265Y6280000D01*
X26036735Y6280000D01*
X25814557Y6235806D01*
X25605271Y6149116D01*
X25416918Y6023263D01*
X25256737Y5863082D01*
X25130884Y5674729D01*
X25044194Y5465443D01*
X25000000Y5243265D01*
X24760000Y5243265D01*
X24715806Y5465443D01*
X24629116Y5674729D01*
X24503263Y5863082D01*
X24343082Y6023263D01*
X24154729Y6149116D01*
X23945443Y6235806D01*
X23723265Y6280000D01*
X23496735Y6280000D01*
X23274557Y6235806D01*
X23065271Y6149116D01*
X22876918Y6023263D01*
X22716737Y5863082D01*
X22590884Y5674729D01*
X22504194Y5465443D01*
X22460000Y5243265D01*
X6183795Y5243265D01*
X5985602Y5539881D01*
X5539881Y5985602D01*
X5015768Y6335803D01*
X4433405Y6577025D01*
X3815172Y6700000D01*
X3184828Y6700000D01*
X2566595Y6577025D01*
X1984232Y6335803D01*
X1460119Y5985602D01*
X1014398Y5539881D01*
X664197Y5015768D01*
X450000Y4498649D01*
X450000Y7058944D01*
X6570000Y7058944D01*
X6570000Y6921056D01*
X6596901Y6785818D01*
X6649668Y6658426D01*
X6726274Y6543776D01*
X6823776Y6446274D01*
X6938426Y6369668D01*
X7065818Y6316901D01*
X7201056Y6290000D01*
X7338944Y6290000D01*
X7474182Y6316901D01*
X7601574Y6369668D01*
X7716224Y6446274D01*
X7813726Y6543776D01*
X7890332Y6658426D01*
X7931967Y6758944D01*
X9770000Y6758944D01*
X9770000Y6621056D01*
X9796901Y6485818D01*
X9849668Y6358426D01*
X9926274Y6243776D01*
X10023776Y6146274D01*
X10138426Y6069668D01*
X10265818Y6016901D01*
X10401056Y5990000D01*
X10538944Y5990000D01*
X10674182Y6016901D01*
X10801574Y6069668D01*
X10916224Y6146274D01*
X11013726Y6243776D01*
X11090332Y6358426D01*
X11143099Y6485818D01*
X11170000Y6621056D01*
X11170000Y6758944D01*
X11143099Y6894182D01*
X11090332Y7021574D01*
X11013726Y7136224D01*
X10916224Y7233726D01*
X10801574Y7310332D01*
X10674182Y7363099D01*
X10538944Y7390000D01*
X10401056Y7390000D01*
X10265818Y7363099D01*
X10138426Y7310332D01*
X10023776Y7233726D01*
X9926274Y7136224D01*
X9849668Y7021574D01*
X9796901Y6894182D01*
X9770000Y6758944D01*
X7931967Y6758944D01*
X7943099Y6785818D01*
X7970000Y6921056D01*
X7970000Y7058944D01*
X7943099Y7194182D01*
X7890332Y7321574D01*
X7831954Y7408944D01*
X13210000Y7408944D01*
X13210000Y7271056D01*
X13236901Y7135818D01*
X13289668Y7008426D01*
X13366274Y6893776D01*
X13463776Y6796274D01*
X13578426Y6719668D01*
X13705818Y6666901D01*
X13841056Y6640000D01*
X13978944Y6640000D01*
X14114182Y6666901D01*
X14241574Y6719668D01*
X14356224Y6796274D01*
X14453726Y6893776D01*
X14530332Y7008426D01*
X14583099Y7135818D01*
X14610000Y7271056D01*
X14610000Y7308944D01*
X19850000Y7308944D01*
X19850000Y7171056D01*
X19876901Y7035818D01*
X19929668Y6908426D01*
X20006274Y6793776D01*
X20103776Y6696274D01*
X20218426Y6619668D01*
X20345818Y6566901D01*
X20481056Y6540000D01*
X20618944Y6540000D01*
X20754182Y6566901D01*
X20881574Y6619668D01*
X20996224Y6696274D01*
X21093726Y6793776D01*
X21170332Y6908426D01*
X21223099Y7035818D01*
X21250000Y7171056D01*
X21250000Y7308944D01*
X21223099Y7444182D01*
X21170332Y7571574D01*
X21093726Y7686224D01*
X20996224Y7783726D01*
X20881574Y7860332D01*
X20754182Y7913099D01*
X20618944Y7940000D01*
X20481056Y7940000D01*
X20345818Y7913099D01*
X20218426Y7860332D01*
X20103776Y7783726D01*
X20006274Y7686224D01*
X19929668Y7571574D01*
X19876901Y7444182D01*
X19850000Y7308944D01*
X14610000Y7308944D01*
X14610000Y7408944D01*
X14583099Y7544182D01*
X14530332Y7671574D01*
X14453726Y7786224D01*
X14356224Y7883726D01*
X14241574Y7960332D01*
X14114182Y8013099D01*
X13978944Y8040000D01*
X13841056Y8040000D01*
X13705818Y8013099D01*
X13578426Y7960332D01*
X13463776Y7883726D01*
X13366274Y7786224D01*
X13289668Y7671574D01*
X13236901Y7544182D01*
X13210000Y7408944D01*
X7831954Y7408944D01*
X7813726Y7436224D01*
X7716224Y7533726D01*
X7601574Y7610332D01*
X7474182Y7663099D01*
X7338944Y7690000D01*
X7201056Y7690000D01*
X7065818Y7663099D01*
X6938426Y7610332D01*
X6823776Y7533726D01*
X6726274Y7436224D01*
X6649668Y7321574D01*
X6596901Y7194182D01*
X6570000Y7058944D01*
X450000Y7058944D01*
X450000Y8218944D01*
X16210000Y8218944D01*
X16210000Y8081056D01*
X16236901Y7945818D01*
X16289668Y7818426D01*
X16366274Y7703776D01*
X16463776Y7606274D01*
X16578426Y7529668D01*
X16705818Y7476901D01*
X16841056Y7450000D01*
X16978944Y7450000D01*
X17114182Y7476901D01*
X17241574Y7529668D01*
X17356224Y7606274D01*
X17453726Y7703776D01*
X17530332Y7818426D01*
X17583099Y7945818D01*
X17610000Y8081056D01*
X17610000Y8218944D01*
X17583099Y8354182D01*
X17530332Y8481574D01*
X17453726Y8596224D01*
X17356224Y8693726D01*
X17241574Y8770332D01*
X17114182Y8823099D01*
X16978944Y8850000D01*
X16841056Y8850000D01*
X16705818Y8823099D01*
X16578426Y8770332D01*
X16463776Y8693726D01*
X16366274Y8596224D01*
X16289668Y8481574D01*
X16236901Y8354182D01*
X16210000Y8218944D01*
X450000Y8218944D01*
X450000Y12648944D01*
X11350000Y12648944D01*
X11350000Y12511056D01*
X11376901Y12375818D01*
X11429668Y12248426D01*
X11506274Y12133776D01*
X11603776Y12036274D01*
X11718426Y11959668D01*
X11845818Y11906901D01*
X11981056Y11880000D01*
X12118944Y11880000D01*
X12254182Y11906901D01*
X12381574Y11959668D01*
X12496224Y12036274D01*
X12593726Y12133776D01*
X12670332Y12248426D01*
X12723099Y12375818D01*
X12750000Y12511056D01*
X12750000Y12528944D01*
X15730000Y12528944D01*
X15730000Y12391056D01*
X15756901Y12255818D01*
X15809668Y12128426D01*
X15886274Y12013776D01*
X15983776Y11916274D01*
X16098426Y11839668D01*
X16225818Y11786901D01*
X16361056Y11760000D01*
X16498944Y11760000D01*
X16634182Y11786901D01*
X16761574Y11839668D01*
X16876224Y11916274D01*
X16918894Y11958944D01*
X19850000Y11958944D01*
X19850000Y11821056D01*
X19876901Y11685818D01*
X19929668Y11558426D01*
X20006274Y11443776D01*
X20103776Y11346274D01*
X20218426Y11269668D01*
X20345818Y11216901D01*
X20481056Y11190000D01*
X20618944Y11190000D01*
X20754182Y11216901D01*
X20881574Y11269668D01*
X20996224Y11346274D01*
X21093726Y11443776D01*
X21170332Y11558426D01*
X21223099Y11685818D01*
X21250000Y11821056D01*
X21250000Y11958944D01*
X21223099Y12094182D01*
X21170332Y12221574D01*
X21093726Y12336224D01*
X20996224Y12433726D01*
X20881574Y12510332D01*
X20754182Y12563099D01*
X20618944Y12590000D01*
X20481056Y12590000D01*
X20345818Y12563099D01*
X20218426Y12510332D01*
X20103776Y12433726D01*
X20006274Y12336224D01*
X19929668Y12221574D01*
X19876901Y12094182D01*
X19850000Y11958944D01*
X16918894Y11958944D01*
X16973726Y12013776D01*
X17050332Y12128426D01*
X17103099Y12255818D01*
X17130000Y12391056D01*
X17130000Y12528944D01*
X17103099Y12664182D01*
X17050332Y12791574D01*
X16973726Y12906224D01*
X16876224Y13003726D01*
X16761574Y13080332D01*
X16634182Y13133099D01*
X16498944Y13160000D01*
X16361056Y13160000D01*
X16225818Y13133099D01*
X16098426Y13080332D01*
X15983776Y13003726D01*
X15886274Y12906224D01*
X15809668Y12791574D01*
X15756901Y12664182D01*
X15730000Y12528944D01*
X12750000Y12528944D01*
X12750000Y12648944D01*
X12723099Y12784182D01*
X12670332Y12911574D01*
X12593726Y13026224D01*
X12496224Y13123726D01*
X12381574Y13200332D01*
X12254182Y13253099D01*
X12118944Y13280000D01*
X11981056Y13280000D01*
X11845818Y13253099D01*
X11718426Y13200332D01*
X11603776Y13123726D01*
X11506274Y13026224D01*
X11429668Y12911574D01*
X11376901Y12784182D01*
X11350000Y12648944D01*
X450000Y12648944D01*
X450000Y13508944D01*
X18250000Y13508944D01*
X18250000Y13371056D01*
X18276901Y13235818D01*
X18329668Y13108426D01*
X18406274Y12993776D01*
X18503776Y12896274D01*
X18618426Y12819668D01*
X18745818Y12766901D01*
X18881056Y12740000D01*
X19018944Y12740000D01*
X19154182Y12766901D01*
X19281574Y12819668D01*
X19396224Y12896274D01*
X19493726Y12993776D01*
X19570332Y13108426D01*
X19623099Y13235818D01*
X19650000Y13371056D01*
X19650000Y13508944D01*
X19623099Y13644182D01*
X19570332Y13771574D01*
X19493726Y13886224D01*
X19396224Y13983726D01*
X19281574Y14060332D01*
X19154182Y14113099D01*
X19018944Y14140000D01*
X18881056Y14140000D01*
X18745818Y14113099D01*
X18618426Y14060332D01*
X18503776Y13983726D01*
X18406274Y13886224D01*
X18329668Y13771574D01*
X18276901Y13644182D01*
X18250000Y13508944D01*
X450000Y13508944D01*
X450000Y14608946D01*
X6570000Y14608946D01*
X6570000Y14471058D01*
X6596901Y14335820D01*
X6649668Y14208428D01*
X6726274Y14093778D01*
X6823776Y13996276D01*
X6938426Y13919670D01*
X7065818Y13866903D01*
X7201056Y13840002D01*
X7338944Y13840002D01*
X7474182Y13866903D01*
X7601574Y13919670D01*
X7716224Y13996276D01*
X7813726Y14093778D01*
X7890332Y14208428D01*
X7943099Y14335820D01*
X7970000Y14471058D01*
X7970000Y14608946D01*
X7943099Y14744184D01*
X7890332Y14871576D01*
X7813726Y14986226D01*
X7716224Y15083728D01*
X7601574Y15160334D01*
X7474182Y15213101D01*
X7444808Y15218944D01*
X11560000Y15218944D01*
X11560000Y15081056D01*
X11586901Y14945818D01*
X11639668Y14818426D01*
X11716274Y14703776D01*
X11813776Y14606274D01*
X11928426Y14529668D01*
X12055818Y14476901D01*
X12191056Y14450000D01*
X12328944Y14450000D01*
X12464182Y14476901D01*
X12591574Y14529668D01*
X12706224Y14606274D01*
X12803726Y14703776D01*
X12880332Y14818426D01*
X12933099Y14945818D01*
X12953612Y15048944D01*
X14790000Y15048944D01*
X14790000Y14911056D01*
X14816901Y14775818D01*
X14869668Y14648426D01*
X14946274Y14533776D01*
X15043776Y14436274D01*
X15158426Y14359668D01*
X15285818Y14306901D01*
X15421056Y14280000D01*
X15558944Y14280000D01*
X15694182Y14306901D01*
X15821574Y14359668D01*
X15936224Y14436274D01*
X16033726Y14533776D01*
X16110332Y14648426D01*
X16163099Y14775818D01*
X16190000Y14911056D01*
X16190000Y15048944D01*
X16163099Y15184182D01*
X16110332Y15311574D01*
X16033726Y15426224D01*
X15936224Y15523726D01*
X15821574Y15600332D01*
X15694182Y15653099D01*
X15558944Y15680000D01*
X15421056Y15680000D01*
X15285818Y15653099D01*
X15158426Y15600332D01*
X15043776Y15523726D01*
X14946274Y15426224D01*
X14869668Y15311574D01*
X14816901Y15184182D01*
X14790000Y15048944D01*
X12953612Y15048944D01*
X12960000Y15081056D01*
X12960000Y15218944D01*
X12933099Y15354182D01*
X12880332Y15481574D01*
X12803726Y15596224D01*
X12706224Y15693726D01*
X12619520Y15751659D01*
X12716224Y15816274D01*
X12813726Y15913776D01*
X12890332Y16028426D01*
X12943099Y16155818D01*
X12970000Y16291056D01*
X12970000Y16428944D01*
X12943099Y16564182D01*
X12890332Y16691574D01*
X12813726Y16806224D01*
X12716224Y16903726D01*
X12601574Y16980332D01*
X12474182Y17033099D01*
X12338944Y17060000D01*
X12201056Y17060000D01*
X12065818Y17033099D01*
X11938426Y16980332D01*
X11823776Y16903726D01*
X11726274Y16806224D01*
X11649668Y16691574D01*
X11596901Y16564182D01*
X11570000Y16428944D01*
X11570000Y16291056D01*
X11596901Y16155818D01*
X11649668Y16028426D01*
X11726274Y15913776D01*
X11823776Y15816274D01*
X11910480Y15758341D01*
X11813776Y15693726D01*
X11716274Y15596224D01*
X11639668Y15481574D01*
X11586901Y15354182D01*
X11560000Y15218944D01*
X7444808Y15218944D01*
X7338944Y15240002D01*
X7201056Y15240002D01*
X7065818Y15213101D01*
X6938426Y15160334D01*
X6823776Y15083728D01*
X6726274Y14986226D01*
X6649668Y14871576D01*
X6596901Y14744184D01*
X6570000Y14608946D01*
X450000Y14608946D01*
X450000Y18323265D01*
X22460000Y18323265D01*
X22460000Y18096735D01*
X22504194Y17874557D01*
X22590884Y17665271D01*
X22716737Y17476918D01*
X22876918Y17316737D01*
X23065271Y17190884D01*
X23274557Y17104194D01*
X23496735Y17060000D01*
X23723265Y17060000D01*
X23945443Y17104194D01*
X24154729Y17190884D01*
X24343082Y17316737D01*
X24503263Y17476918D01*
X24629116Y17665271D01*
X24715806Y17874557D01*
X24760000Y18096735D01*
X24760000Y18323265D01*
X24715806Y18545443D01*
X24629116Y18754729D01*
X24503263Y18943082D01*
X24343082Y19103263D01*
X24154729Y19229116D01*
X23945443Y19315806D01*
X23723265Y19360000D01*
X23496735Y19360000D01*
X23274557Y19315806D01*
X23065271Y19229116D01*
X22876918Y19103263D01*
X22716737Y18943082D01*
X22590884Y18754729D01*
X22504194Y18545443D01*
X22460000Y18323265D01*
X450000Y18323265D01*
X450000Y21938944D01*
X5250000Y21938944D01*
X5250000Y21801056D01*
X5276901Y21665818D01*
X5329668Y21538426D01*
X5406274Y21423776D01*
X5503776Y21326274D01*
X5618426Y21249668D01*
X5745818Y21196901D01*
X5881056Y21170000D01*
X6018944Y21170000D01*
X6154182Y21196901D01*
X6281574Y21249668D01*
X6396224Y21326274D01*
X6493726Y21423776D01*
X6570332Y21538426D01*
X6623099Y21665818D01*
X6650000Y21801056D01*
X6650000Y21938944D01*
X7150000Y21938944D01*
X7150000Y21801056D01*
X7176901Y21665818D01*
X7229668Y21538426D01*
X7306274Y21423776D01*
X7345050Y21385000D01*
X7306274Y21346224D01*
X7229668Y21231574D01*
X7176901Y21104182D01*
X7150000Y20968944D01*
X7150000Y20831056D01*
X7176901Y20695818D01*
X7229668Y20568426D01*
X7306274Y20453776D01*
X7403776Y20356274D01*
X7518426Y20279668D01*
X7645818Y20226901D01*
X7781056Y20200000D01*
X7918944Y20200000D01*
X8054182Y20226901D01*
X8181574Y20279668D01*
X8296224Y20356274D01*
X8393726Y20453776D01*
X8470332Y20568426D01*
X8523099Y20695818D01*
X8550000Y20831056D01*
X8550000Y20968944D01*
X8523099Y21104182D01*
X8470332Y21231574D01*
X8393726Y21346224D01*
X8354950Y21385000D01*
X8393726Y21423776D01*
X8470332Y21538426D01*
X8523099Y21665818D01*
X8550000Y21801056D01*
X8550000Y21938944D01*
X9060000Y21938944D01*
X9060000Y21801056D01*
X9086901Y21665818D01*
X9139668Y21538426D01*
X9216274Y21423776D01*
X9313776Y21326274D01*
X9428426Y21249668D01*
X9555818Y21196901D01*
X9691056Y21170000D01*
X9828944Y21170000D01*
X9964182Y21196901D01*
X10091574Y21249668D01*
X10206224Y21326274D01*
X10303726Y21423776D01*
X10380332Y21538426D01*
X10433099Y21665818D01*
X10460000Y21801056D01*
X10460000Y21938944D01*
X10433099Y22074182D01*
X10380332Y22201574D01*
X10303726Y22316224D01*
X10206224Y22413726D01*
X10123584Y22468944D01*
X11610000Y22468944D01*
X11610000Y22331056D01*
X11636901Y22195818D01*
X11689668Y22068426D01*
X11766274Y21953776D01*
X11863776Y21856274D01*
X11978426Y21779668D01*
X12105818Y21726901D01*
X12241056Y21700000D01*
X12378944Y21700000D01*
X12514182Y21726901D01*
X12641574Y21779668D01*
X12756224Y21856274D01*
X12853726Y21953776D01*
X12930332Y22068426D01*
X12983099Y22195818D01*
X13010000Y22331056D01*
X13010000Y22338944D01*
X14760000Y22338944D01*
X14760000Y22201056D01*
X14786901Y22065818D01*
X14839668Y21938426D01*
X14916274Y21823776D01*
X15013776Y21726274D01*
X15128426Y21649668D01*
X15255818Y21596901D01*
X15391056Y21570000D01*
X15528944Y21570000D01*
X15664182Y21596901D01*
X15791574Y21649668D01*
X15906224Y21726274D01*
X16003726Y21823776D01*
X16080332Y21938426D01*
X16133099Y22065818D01*
X16160000Y22201056D01*
X16160000Y22338944D01*
X17810000Y22338944D01*
X17810000Y22201056D01*
X17836901Y22065818D01*
X17889668Y21938426D01*
X17966274Y21823776D01*
X18063776Y21726274D01*
X18178426Y21649668D01*
X18305818Y21596901D01*
X18441056Y21570000D01*
X18578944Y21570000D01*
X18714182Y21596901D01*
X18841574Y21649668D01*
X18956224Y21726274D01*
X19053726Y21823776D01*
X19130332Y21938426D01*
X19183099Y22065818D01*
X19210000Y22201056D01*
X19210000Y22338944D01*
X19183099Y22474182D01*
X19130332Y22601574D01*
X19053726Y22716224D01*
X18956224Y22813726D01*
X18841574Y22890332D01*
X18714182Y22943099D01*
X18578944Y22970000D01*
X18441056Y22970000D01*
X18305818Y22943099D01*
X18178426Y22890332D01*
X18063776Y22813726D01*
X17966274Y22716224D01*
X17889668Y22601574D01*
X17836901Y22474182D01*
X17810000Y22338944D01*
X16160000Y22338944D01*
X16133099Y22474182D01*
X16080332Y22601574D01*
X16003726Y22716224D01*
X15906224Y22813726D01*
X15791574Y22890332D01*
X15664182Y22943099D01*
X15528944Y22970000D01*
X15391056Y22970000D01*
X15255818Y22943099D01*
X15128426Y22890332D01*
X15013776Y22813726D01*
X14916274Y22716224D01*
X14839668Y22601574D01*
X14786901Y22474182D01*
X14760000Y22338944D01*
X13010000Y22338944D01*
X13010000Y22468944D01*
X12983099Y22604182D01*
X12930332Y22731574D01*
X12853726Y22846224D01*
X12756224Y22943726D01*
X12641574Y23020332D01*
X12514182Y23073099D01*
X12378944Y23100000D01*
X12241056Y23100000D01*
X12105818Y23073099D01*
X11978426Y23020332D01*
X11863776Y22943726D01*
X11766274Y22846224D01*
X11689668Y22731574D01*
X11636901Y22604182D01*
X11610000Y22468944D01*
X10123584Y22468944D01*
X10091574Y22490332D01*
X9964182Y22543099D01*
X9828944Y22570000D01*
X9691056Y22570000D01*
X9555818Y22543099D01*
X9428426Y22490332D01*
X9313776Y22413726D01*
X9216274Y22316224D01*
X9139668Y22201574D01*
X9086901Y22074182D01*
X9060000Y21938944D01*
X8550000Y21938944D01*
X8523099Y22074182D01*
X8470332Y22201574D01*
X8393726Y22316224D01*
X8296224Y22413726D01*
X8181574Y22490332D01*
X8054182Y22543099D01*
X7918944Y22570000D01*
X7781056Y22570000D01*
X7645818Y22543099D01*
X7518426Y22490332D01*
X7403776Y22413726D01*
X7306274Y22316224D01*
X7229668Y22201574D01*
X7176901Y22074182D01*
X7150000Y21938944D01*
X6650000Y21938944D01*
X6623099Y22074182D01*
X6570332Y22201574D01*
X6493726Y22316224D01*
X6396224Y22413726D01*
X6281574Y22490332D01*
X6154182Y22543099D01*
X6018944Y22570000D01*
X5881056Y22570000D01*
X5745818Y22543099D01*
X5618426Y22490332D01*
X5503776Y22413726D01*
X5406274Y22316224D01*
X5329668Y22201574D01*
X5276901Y22074182D01*
X5250000Y21938944D01*
X450000Y21938944D01*
X450000Y25528944D01*
X4640000Y25528944D01*
X4640000Y25391056D01*
X4666901Y25255818D01*
X4719668Y25128426D01*
X4796274Y25013776D01*
X4893776Y24916274D01*
X5008426Y24839668D01*
X5135818Y24786901D01*
X5271056Y24760000D01*
X5408944Y24760000D01*
X5544182Y24786901D01*
X5671574Y24839668D01*
X5700422Y24858944D01*
X13850000Y24858944D01*
X13850000Y24721056D01*
X13876901Y24585818D01*
X13929668Y24458426D01*
X14006274Y24343776D01*
X14103776Y24246274D01*
X14218426Y24169668D01*
X14345818Y24116901D01*
X14481056Y24090000D01*
X14618944Y24090000D01*
X14754182Y24116901D01*
X14881574Y24169668D01*
X14996224Y24246274D01*
X15093726Y24343776D01*
X15170332Y24458426D01*
X15223099Y24585818D01*
X15250000Y24721056D01*
X15250000Y24858944D01*
X15223099Y24994182D01*
X15170332Y25121574D01*
X15093726Y25236224D01*
X14996224Y25333726D01*
X14881574Y25410332D01*
X14754182Y25463099D01*
X14618944Y25490000D01*
X14481056Y25490000D01*
X14345818Y25463099D01*
X14218426Y25410332D01*
X14103776Y25333726D01*
X14006274Y25236224D01*
X13929668Y25121574D01*
X13876901Y24994182D01*
X13850000Y24858944D01*
X5700422Y24858944D01*
X5786224Y24916274D01*
X5883726Y25013776D01*
X5960332Y25128426D01*
X6013099Y25255818D01*
X6040000Y25391056D01*
X6040000Y25528944D01*
X6013099Y25664182D01*
X5960332Y25791574D01*
X5883726Y25906224D01*
X5786224Y26003726D01*
X5671574Y26080332D01*
X5544182Y26133099D01*
X5408944Y26160000D01*
X5271056Y26160000D01*
X5135818Y26133099D01*
X5008426Y26080332D01*
X4893776Y26003726D01*
X4796274Y25906224D01*
X4719668Y25791574D01*
X4666901Y25664182D01*
X4640000Y25528944D01*
X450000Y25528944D01*
X450000Y30498944D01*
X14790000Y30498944D01*
X14790000Y30361056D01*
X14816901Y30225818D01*
X14869668Y30098426D01*
X14946274Y29983776D01*
X15043776Y29886274D01*
X15158426Y29809668D01*
X15285818Y29756901D01*
X15421056Y29730000D01*
X15558944Y29730000D01*
X15694182Y29756901D01*
X15821574Y29809668D01*
X15936224Y29886274D01*
X16033726Y29983776D01*
X16110332Y30098426D01*
X16163099Y30225818D01*
X16190000Y30361056D01*
X16190000Y30498944D01*
X17830000Y30498944D01*
X17830000Y30361056D01*
X17856901Y30225818D01*
X17909668Y30098426D01*
X17986274Y29983776D01*
X18083776Y29886274D01*
X18198426Y29809668D01*
X18325818Y29756901D01*
X18461056Y29730000D01*
X18598944Y29730000D01*
X18734182Y29756901D01*
X18861574Y29809668D01*
X18976224Y29886274D01*
X19073726Y29983776D01*
X19150332Y30098426D01*
X19203099Y30225818D01*
X19230000Y30361056D01*
X19230000Y30498944D01*
X19203099Y30634182D01*
X19150332Y30761574D01*
X19073726Y30876224D01*
X18976224Y30973726D01*
X18861574Y31050332D01*
X18734182Y31103099D01*
X18598944Y31130000D01*
X18461056Y31130000D01*
X18325818Y31103099D01*
X18198426Y31050332D01*
X18083776Y30973726D01*
X17986274Y30876224D01*
X17909668Y30761574D01*
X17856901Y30634182D01*
X17830000Y30498944D01*
X16190000Y30498944D01*
X16163099Y30634182D01*
X16110332Y30761574D01*
X16033726Y30876224D01*
X15936224Y30973726D01*
X15821574Y31050332D01*
X15694182Y31103099D01*
X15558944Y31130000D01*
X15421056Y31130000D01*
X15285818Y31103099D01*
X15158426Y31050332D01*
X15043776Y30973726D01*
X14946274Y30876224D01*
X14869668Y30761574D01*
X14816901Y30634182D01*
X14790000Y30498944D01*
X450000Y30498944D01*
X450000Y33028944D01*
X13860000Y33028944D01*
X13860000Y32891056D01*
X13886901Y32755818D01*
X13939668Y32628426D01*
X14016274Y32513776D01*
X14113776Y32416274D01*
X14228426Y32339668D01*
X14355818Y32286901D01*
X14491056Y32260000D01*
X14628944Y32260000D01*
X14764182Y32286901D01*
X14891574Y32339668D01*
X15006224Y32416274D01*
X15103726Y32513776D01*
X15180332Y32628426D01*
X15233099Y32755818D01*
X15260000Y32891056D01*
X15260000Y33028944D01*
X15233099Y33164182D01*
X15180332Y33291574D01*
X15103726Y33406224D01*
X15006224Y33503726D01*
X14891574Y33580332D01*
X14764182Y33633099D01*
X14628944Y33660000D01*
X14491056Y33660000D01*
X14355818Y33633099D01*
X14228426Y33580332D01*
X14113776Y33503726D01*
X14016274Y33406224D01*
X13939668Y33291574D01*
X13886901Y33164182D01*
X13860000Y33028944D01*
X450000Y33028944D01*
X450000Y38668944D01*
X14800000Y38668944D01*
X14800000Y38531056D01*
X14826901Y38395818D01*
X14879668Y38268426D01*
X14956274Y38153776D01*
X15053776Y38056274D01*
X15168426Y37979668D01*
X15295818Y37926901D01*
X15431056Y37900000D01*
X15568944Y37900000D01*
X15704182Y37926901D01*
X15831574Y37979668D01*
X15946224Y38056274D01*
X16043726Y38153776D01*
X16120332Y38268426D01*
X16173099Y38395818D01*
X16200000Y38531056D01*
X16200000Y38668944D01*
X17840000Y38668944D01*
X17840000Y38531056D01*
X17866901Y38395818D01*
X17919668Y38268426D01*
X17996274Y38153776D01*
X18093776Y38056274D01*
X18208426Y37979668D01*
X18335818Y37926901D01*
X18471056Y37900000D01*
X18608944Y37900000D01*
X18744182Y37926901D01*
X18871574Y37979668D01*
X18986224Y38056274D01*
X19083726Y38153776D01*
X19160332Y38268426D01*
X19213099Y38395818D01*
X19240000Y38531056D01*
X19240000Y38668944D01*
X19213099Y38804182D01*
X19160332Y38931574D01*
X19083726Y39046224D01*
X18986224Y39143726D01*
X18871574Y39220332D01*
X18744182Y39273099D01*
X18608944Y39300000D01*
X18471056Y39300000D01*
X18335818Y39273099D01*
X18208426Y39220332D01*
X18093776Y39143726D01*
X17996274Y39046224D01*
X17919668Y38931574D01*
X17866901Y38804182D01*
X17840000Y38668944D01*
X16200000Y38668944D01*
X16173099Y38804182D01*
X16120332Y38931574D01*
X16043726Y39046224D01*
X15946224Y39143726D01*
X15831574Y39220332D01*
X15704182Y39273099D01*
X15568944Y39300000D01*
X15431056Y39300000D01*
X15295818Y39273099D01*
X15168426Y39220332D01*
X15053776Y39143726D01*
X14956274Y39046224D01*
X14879668Y38931574D01*
X14826901Y38804182D01*
X14800000Y38668944D01*
X450000Y38668944D01*
X450000Y41513114D01*
X980000Y41513114D01*
X980000Y41266886D01*
X1028037Y41025389D01*
X1122265Y40797903D01*
X1259062Y40593172D01*
X1433172Y40419062D01*
X1637903Y40282265D01*
X1865389Y40188037D01*
X2106886Y40140000D01*
X2353114Y40140000D01*
X2594611Y40188037D01*
X2822097Y40282265D01*
X3026828Y40419062D01*
X3200938Y40593172D01*
X3337735Y40797903D01*
X3431963Y41025389D01*
X3480000Y41266886D01*
X3480000Y41513114D01*
X3431963Y41754611D01*
X3337735Y41982097D01*
X3200938Y42186828D01*
X3026828Y42360938D01*
X2822097Y42497735D01*
X2594611Y42591963D01*
X2353114Y42640000D01*
X2106886Y42640000D01*
X1865389Y42591963D01*
X1637903Y42497735D01*
X1433172Y42360938D01*
X1259062Y42186828D01*
X1122265Y41982097D01*
X1028037Y41754611D01*
X980000Y41513114D01*
X450000Y41513114D01*
X450000Y44053114D01*
X980000Y44053114D01*
X980000Y43806886D01*
X1028037Y43565389D01*
X1122265Y43337903D01*
X1259062Y43133172D01*
X1433172Y42959062D01*
X1637903Y42822265D01*
X1865389Y42728037D01*
X2106886Y42680000D01*
X2353114Y42680000D01*
X2594611Y42728037D01*
X2822097Y42822265D01*
X3026828Y42959062D01*
X3200938Y43133172D01*
X3337735Y43337903D01*
X3431963Y43565389D01*
X3448583Y43648944D01*
X7940000Y43648944D01*
X7940000Y43511056D01*
X7966901Y43375818D01*
X8019668Y43248426D01*
X8096274Y43133776D01*
X8193776Y43036274D01*
X8308426Y42959668D01*
X8435818Y42906901D01*
X8571056Y42880000D01*
X8699311Y42880000D01*
X8696901Y42874182D01*
X8670000Y42738944D01*
X8670000Y42601056D01*
X8694080Y42480000D01*
X8571056Y42480000D01*
X8435818Y42453099D01*
X8308426Y42400332D01*
X8193776Y42323726D01*
X8096274Y42226224D01*
X8019668Y42111574D01*
X7966901Y41984182D01*
X7940000Y41848944D01*
X7940000Y41711056D01*
X7966901Y41575818D01*
X8019668Y41448426D01*
X8096274Y41333776D01*
X8193776Y41236274D01*
X8308426Y41159668D01*
X8435818Y41106901D01*
X8571056Y41080000D01*
X8607204Y41080000D01*
X8272343Y40745139D01*
X8188055Y40642433D01*
X8104485Y40486083D01*
X8053021Y40316432D01*
X8035644Y40140002D01*
X8053021Y39963572D01*
X8104485Y39793921D01*
X8188055Y39637571D01*
X8300524Y39500528D01*
X8437567Y39388059D01*
X8593917Y39304489D01*
X8763568Y39253025D01*
X8939998Y39235648D01*
X9116428Y39253025D01*
X9286079Y39304489D01*
X9442429Y39388059D01*
X9545135Y39472347D01*
X11281732Y41208944D01*
X13860000Y41208944D01*
X13860000Y41071056D01*
X13886901Y40935818D01*
X13939668Y40808426D01*
X14016274Y40693776D01*
X14113776Y40596274D01*
X14228426Y40519668D01*
X14355818Y40466901D01*
X14491056Y40440000D01*
X14628944Y40440000D01*
X14764182Y40466901D01*
X14891574Y40519668D01*
X15006224Y40596274D01*
X15103726Y40693776D01*
X15180332Y40808426D01*
X15233099Y40935818D01*
X15260000Y41071056D01*
X15260000Y41208944D01*
X15233099Y41344182D01*
X15180332Y41471574D01*
X15103726Y41586224D01*
X15006224Y41683726D01*
X14891574Y41760332D01*
X14764182Y41813099D01*
X14628944Y41840000D01*
X14491056Y41840000D01*
X14355818Y41813099D01*
X14228426Y41760332D01*
X14113776Y41683726D01*
X14016274Y41586224D01*
X13939668Y41471574D01*
X13886901Y41344182D01*
X13860000Y41208944D01*
X11281732Y41208944D01*
X12365140Y42292351D01*
X12399475Y42320529D01*
X12511943Y42457572D01*
X12595514Y42613923D01*
X12646977Y42783573D01*
X12660000Y42915797D01*
X12664354Y42960003D01*
X12660000Y43004210D01*
X12660000Y46828944D01*
X14810000Y46828944D01*
X14810000Y46691056D01*
X14836901Y46555818D01*
X14889668Y46428426D01*
X14966274Y46313776D01*
X15063776Y46216274D01*
X15178426Y46139668D01*
X15305818Y46086901D01*
X15441056Y46060000D01*
X15578944Y46060000D01*
X15714182Y46086901D01*
X15841574Y46139668D01*
X15956224Y46216274D01*
X16053726Y46313776D01*
X16130332Y46428426D01*
X16183099Y46555818D01*
X16210000Y46691056D01*
X16210000Y46828944D01*
X17840000Y46828944D01*
X17840000Y46691056D01*
X17866901Y46555818D01*
X17919668Y46428426D01*
X17996274Y46313776D01*
X18093776Y46216274D01*
X18208426Y46139668D01*
X18335818Y46086901D01*
X18471056Y46060000D01*
X18608944Y46060000D01*
X18744182Y46086901D01*
X18871574Y46139668D01*
X18986224Y46216274D01*
X19083726Y46313776D01*
X19160332Y46428426D01*
X19213099Y46555818D01*
X19240000Y46691056D01*
X19240000Y46828944D01*
X19213099Y46964182D01*
X19160332Y47091574D01*
X19083726Y47206224D01*
X18986224Y47303726D01*
X18871574Y47380332D01*
X18744182Y47433099D01*
X18608944Y47460000D01*
X18471056Y47460000D01*
X18335818Y47433099D01*
X18208426Y47380332D01*
X18093776Y47303726D01*
X17996274Y47206224D01*
X17919668Y47091574D01*
X17866901Y46964182D01*
X17840000Y46828944D01*
X16210000Y46828944D01*
X16183099Y46964182D01*
X16130332Y47091574D01*
X16053726Y47206224D01*
X15956224Y47303726D01*
X15841574Y47380332D01*
X15714182Y47433099D01*
X15578944Y47460000D01*
X15441056Y47460000D01*
X15305818Y47433099D01*
X15178426Y47380332D01*
X15063776Y47303726D01*
X14966274Y47206224D01*
X14889668Y47091574D01*
X14836901Y46964182D01*
X14810000Y46828944D01*
X12660000Y46828944D01*
X12660000Y49198944D01*
X12900000Y49198944D01*
X12900000Y49061056D01*
X12926901Y48925818D01*
X12979668Y48798426D01*
X13056274Y48683776D01*
X13145050Y48595000D01*
X13066274Y48516224D01*
X12989668Y48401574D01*
X12936901Y48274182D01*
X12910000Y48138944D01*
X12910000Y48001056D01*
X12936901Y47865818D01*
X12989668Y47738426D01*
X13066274Y47623776D01*
X13163776Y47526274D01*
X13278426Y47449668D01*
X13405818Y47396901D01*
X13541056Y47370000D01*
X13678944Y47370000D01*
X13814182Y47396901D01*
X13941574Y47449668D01*
X14056224Y47526274D01*
X14153726Y47623776D01*
X14230332Y47738426D01*
X14283099Y47865818D01*
X14310000Y48001056D01*
X14310000Y48138944D01*
X14283099Y48274182D01*
X14230332Y48401574D01*
X14153726Y48516224D01*
X14064950Y48605000D01*
X14143726Y48683776D01*
X14220332Y48798426D01*
X14273099Y48925818D01*
X14300000Y49061056D01*
X14300000Y49198944D01*
X14273099Y49334182D01*
X14250417Y49388944D01*
X14810000Y49388944D01*
X14810000Y49251056D01*
X14836901Y49115818D01*
X14889668Y48988426D01*
X14966274Y48873776D01*
X15063776Y48776274D01*
X15178426Y48699668D01*
X15305818Y48646901D01*
X15441056Y48620000D01*
X15578944Y48620000D01*
X15714182Y48646901D01*
X15841574Y48699668D01*
X15956224Y48776274D01*
X16053726Y48873776D01*
X16130332Y48988426D01*
X16183099Y49115818D01*
X16210000Y49251056D01*
X16210000Y49388944D01*
X16208011Y49398944D01*
X18790000Y49398944D01*
X18790000Y49261056D01*
X18816901Y49125818D01*
X18869668Y48998426D01*
X18946274Y48883776D01*
X19043776Y48786274D01*
X19158426Y48709668D01*
X19285818Y48656901D01*
X19421056Y48630000D01*
X19558944Y48630000D01*
X19694182Y48656901D01*
X19821574Y48709668D01*
X19936224Y48786274D01*
X20033726Y48883776D01*
X20110332Y48998426D01*
X20163099Y49125818D01*
X20190000Y49261056D01*
X20190000Y49398944D01*
X20163099Y49534182D01*
X20110332Y49661574D01*
X20033726Y49776224D01*
X19936224Y49873726D01*
X19821574Y49950332D01*
X19694182Y50003099D01*
X19558944Y50030000D01*
X19421056Y50030000D01*
X19285818Y50003099D01*
X19158426Y49950332D01*
X19043776Y49873726D01*
X18946274Y49776224D01*
X18869668Y49661574D01*
X18816901Y49534182D01*
X18790000Y49398944D01*
X16208011Y49398944D01*
X16183099Y49524182D01*
X16130332Y49651574D01*
X16053726Y49766224D01*
X15956224Y49863726D01*
X15841574Y49940332D01*
X15714182Y49993099D01*
X15578944Y50020000D01*
X15441056Y50020000D01*
X15305818Y49993099D01*
X15178426Y49940332D01*
X15063776Y49863726D01*
X14966274Y49766224D01*
X14889668Y49651574D01*
X14836901Y49524182D01*
X14810000Y49388944D01*
X14250417Y49388944D01*
X14220332Y49461574D01*
X14143726Y49576224D01*
X14046224Y49673726D01*
X13931574Y49750332D01*
X13804182Y49803099D01*
X13668944Y49830000D01*
X13531056Y49830000D01*
X13395818Y49803099D01*
X13268426Y49750332D01*
X13153776Y49673726D01*
X13056274Y49576224D01*
X12979668Y49461574D01*
X12926901Y49334182D01*
X12900000Y49198944D01*
X12660000Y49198944D01*
X12660000Y49847208D01*
X13482792Y50670000D01*
X19307208Y50670000D01*
X21877208Y48100000D01*
X21074861Y47297653D01*
X21040526Y47269475D01*
X21012348Y47235140D01*
X21012345Y47235137D01*
X20928057Y47132431D01*
X20844487Y46976081D01*
X20793023Y46806430D01*
X20775646Y46630000D01*
X20780001Y46585783D01*
X20780000Y25264207D01*
X20775646Y25220000D01*
X20780000Y25175794D01*
X20793023Y25043570D01*
X20844486Y24873920D01*
X20928057Y24717569D01*
X21040525Y24580525D01*
X21074865Y24552343D01*
X26268186Y19359021D01*
X26263265Y19360000D01*
X26036735Y19360000D01*
X25814557Y19315806D01*
X25605271Y19229116D01*
X25416918Y19103263D01*
X25256737Y18943082D01*
X25130884Y18754729D01*
X25044194Y18545443D01*
X25000000Y18323265D01*
X25000000Y18096735D01*
X25044194Y17874557D01*
X25130884Y17665271D01*
X25256737Y17476918D01*
X25416918Y17316737D01*
X25605271Y17190884D01*
X25814557Y17104194D01*
X26036735Y17060000D01*
X26263265Y17060000D01*
X26485443Y17104194D01*
X26694729Y17190884D01*
X26883082Y17316737D01*
X27043263Y17476918D01*
X27169116Y17665271D01*
X27255806Y17874557D01*
X27300000Y18096735D01*
X27300000Y18323265D01*
X27299021Y18328186D01*
X27542366Y18084841D01*
X27584194Y17874557D01*
X27670884Y17665271D01*
X27796737Y17476918D01*
X27956918Y17316737D01*
X28145271Y17190884D01*
X28354557Y17104194D01*
X28576735Y17060000D01*
X28803265Y17060000D01*
X29025443Y17104194D01*
X29234729Y17190884D01*
X29423082Y17316737D01*
X29583263Y17476918D01*
X29709116Y17665271D01*
X29795806Y17874557D01*
X29840000Y18096735D01*
X29840000Y18323265D01*
X30080000Y18323265D01*
X30080000Y18096735D01*
X30124194Y17874557D01*
X30210884Y17665271D01*
X30336737Y17476918D01*
X30496918Y17316737D01*
X30685271Y17190884D01*
X30894557Y17104194D01*
X31116735Y17060000D01*
X31343265Y17060000D01*
X31565443Y17104194D01*
X31774729Y17190884D01*
X31963082Y17316737D01*
X32123263Y17476918D01*
X32249116Y17665271D01*
X32335806Y17874557D01*
X32380000Y18096735D01*
X32380000Y18323265D01*
X32335806Y18545443D01*
X32249116Y18754729D01*
X32123263Y18943082D01*
X31963082Y19103263D01*
X31774729Y19229116D01*
X31565443Y19315806D01*
X31343265Y19360000D01*
X31116735Y19360000D01*
X30894557Y19315806D01*
X30685271Y19229116D01*
X30496918Y19103263D01*
X30336737Y18943082D01*
X30210884Y18754729D01*
X30124194Y18545443D01*
X30080000Y18323265D01*
X29840000Y18323265D01*
X29795806Y18545443D01*
X29709116Y18754729D01*
X29583263Y18943082D01*
X29423082Y19103263D01*
X29234729Y19229116D01*
X29025443Y19315806D01*
X28815159Y19357634D01*
X26283849Y21888944D01*
X27350000Y21888944D01*
X27350000Y21751056D01*
X27376901Y21615818D01*
X27429668Y21488426D01*
X27506274Y21373776D01*
X27603776Y21276274D01*
X27718426Y21199668D01*
X27845818Y21146901D01*
X27981056Y21120000D01*
X28118944Y21120000D01*
X28254182Y21146901D01*
X28381574Y21199668D01*
X28496224Y21276274D01*
X28593726Y21373776D01*
X28670332Y21488426D01*
X28723099Y21615818D01*
X28750000Y21751056D01*
X28750000Y21888944D01*
X28723099Y22024182D01*
X28670332Y22151574D01*
X28593726Y22266224D01*
X28496224Y22363726D01*
X28381574Y22440332D01*
X28254182Y22493099D01*
X28118944Y22520000D01*
X27981056Y22520000D01*
X27845818Y22493099D01*
X27718426Y22440332D01*
X27603776Y22363726D01*
X27506274Y22266224D01*
X27429668Y22151574D01*
X27376901Y22024182D01*
X27350000Y21888944D01*
X26283849Y21888944D01*
X22580000Y25592792D01*
X22580000Y34248944D01*
X26080000Y34248944D01*
X26080000Y34111056D01*
X26106901Y33975818D01*
X26159668Y33848426D01*
X26236274Y33733776D01*
X26333776Y33636274D01*
X26448426Y33559668D01*
X26575818Y33506901D01*
X26711056Y33480000D01*
X26848944Y33480000D01*
X26984182Y33506901D01*
X27111574Y33559668D01*
X27226224Y33636274D01*
X27323726Y33733776D01*
X27400332Y33848426D01*
X27453099Y33975818D01*
X27480000Y34111056D01*
X27480000Y34248944D01*
X28620000Y34248944D01*
X28620000Y34111056D01*
X28646901Y33975818D01*
X28699668Y33848426D01*
X28776274Y33733776D01*
X28873776Y33636274D01*
X28988426Y33559668D01*
X29115818Y33506901D01*
X29251056Y33480000D01*
X29388944Y33480000D01*
X29524182Y33506901D01*
X29651574Y33559668D01*
X29766224Y33636274D01*
X29863726Y33733776D01*
X29940332Y33848426D01*
X29960000Y33895909D01*
X29979668Y33848426D01*
X30056274Y33733776D01*
X30153776Y33636274D01*
X30268426Y33559668D01*
X30395818Y33506901D01*
X30531056Y33480000D01*
X30668944Y33480000D01*
X30804182Y33506901D01*
X30931574Y33559668D01*
X31046224Y33636274D01*
X31143726Y33733776D01*
X31220332Y33848426D01*
X31273099Y33975818D01*
X31300000Y34111056D01*
X31300000Y34248944D01*
X31273099Y34384182D01*
X31220332Y34511574D01*
X31143726Y34626224D01*
X31046224Y34723726D01*
X30931574Y34800332D01*
X30804182Y34853099D01*
X30668944Y34880000D01*
X30531056Y34880000D01*
X30395818Y34853099D01*
X30268426Y34800332D01*
X30153776Y34723726D01*
X30056274Y34626224D01*
X29979668Y34511574D01*
X29960000Y34464091D01*
X29940332Y34511574D01*
X29863726Y34626224D01*
X29766224Y34723726D01*
X29651574Y34800332D01*
X29524182Y34853099D01*
X29388944Y34880000D01*
X29251056Y34880000D01*
X29115818Y34853099D01*
X28988426Y34800332D01*
X28873776Y34723726D01*
X28776274Y34626224D01*
X28699668Y34511574D01*
X28646901Y34384182D01*
X28620000Y34248944D01*
X27480000Y34248944D01*
X27453099Y34384182D01*
X27400332Y34511574D01*
X27323726Y34626224D01*
X27226224Y34723726D01*
X27111574Y34800332D01*
X26984182Y34853099D01*
X26848944Y34880000D01*
X26711056Y34880000D01*
X26575818Y34853099D01*
X26448426Y34800332D01*
X26333776Y34723726D01*
X26236274Y34626224D01*
X26159668Y34511574D01*
X26106901Y34384182D01*
X26080000Y34248944D01*
X22580000Y34248944D01*
X22580000Y37271547D01*
X22590884Y37245271D01*
X22716737Y37056918D01*
X22876918Y36896737D01*
X23065271Y36770884D01*
X23274557Y36684194D01*
X23496735Y36640000D01*
X23723265Y36640000D01*
X23945443Y36684194D01*
X24154729Y36770884D01*
X24343082Y36896737D01*
X24503263Y37056918D01*
X24629116Y37245271D01*
X24715806Y37454557D01*
X24760000Y37676735D01*
X24760000Y37903265D01*
X25000000Y37903265D01*
X25000000Y37676735D01*
X25044194Y37454557D01*
X25130884Y37245271D01*
X25256737Y37056918D01*
X25416918Y36896737D01*
X25605271Y36770884D01*
X25814557Y36684194D01*
X26036735Y36640000D01*
X26263265Y36640000D01*
X26485443Y36684194D01*
X26694729Y36770884D01*
X26883082Y36896737D01*
X27043263Y37056918D01*
X27169116Y37245271D01*
X27255806Y37454557D01*
X27300000Y37676735D01*
X27300000Y37903265D01*
X27540000Y37903265D01*
X27540000Y37676735D01*
X27584194Y37454557D01*
X27670884Y37245271D01*
X27796737Y37056918D01*
X27956918Y36896737D01*
X28145271Y36770884D01*
X28354557Y36684194D01*
X28576735Y36640000D01*
X28803265Y36640000D01*
X29025443Y36684194D01*
X29234729Y36770884D01*
X29423082Y36896737D01*
X29583263Y37056918D01*
X29709116Y37245271D01*
X29795806Y37454557D01*
X29840000Y37676735D01*
X29840000Y37903265D01*
X30080000Y37903265D01*
X30080000Y37676735D01*
X30124194Y37454557D01*
X30210884Y37245271D01*
X30336737Y37056918D01*
X30496918Y36896737D01*
X30685271Y36770884D01*
X30894557Y36684194D01*
X31116735Y36640000D01*
X31343265Y36640000D01*
X31565443Y36684194D01*
X31774729Y36770884D01*
X31963082Y36896737D01*
X32123263Y37056918D01*
X32249116Y37245271D01*
X32335806Y37454557D01*
X32380000Y37676735D01*
X32380000Y37903265D01*
X32335806Y38125443D01*
X32249116Y38334729D01*
X32123263Y38523082D01*
X31963082Y38683263D01*
X31774729Y38809116D01*
X31565443Y38895806D01*
X31343265Y38940000D01*
X31116735Y38940000D01*
X30894557Y38895806D01*
X30685271Y38809116D01*
X30496918Y38683263D01*
X30336737Y38523082D01*
X30210884Y38334729D01*
X30124194Y38125443D01*
X30080000Y37903265D01*
X29840000Y37903265D01*
X29795806Y38125443D01*
X29709116Y38334729D01*
X29583263Y38523082D01*
X29423082Y38683263D01*
X29234729Y38809116D01*
X29025443Y38895806D01*
X28803265Y38940000D01*
X28576735Y38940000D01*
X28354557Y38895806D01*
X28145271Y38809116D01*
X27956918Y38683263D01*
X27796737Y38523082D01*
X27670884Y38334729D01*
X27584194Y38125443D01*
X27540000Y37903265D01*
X27300000Y37903265D01*
X27255806Y38125443D01*
X27169116Y38334729D01*
X27043263Y38523082D01*
X26883082Y38683263D01*
X26694729Y38809116D01*
X26485443Y38895806D01*
X26263265Y38940000D01*
X26036735Y38940000D01*
X25814557Y38895806D01*
X25605271Y38809116D01*
X25416918Y38683263D01*
X25256737Y38523082D01*
X25130884Y38334729D01*
X25044194Y38125443D01*
X25000000Y37903265D01*
X24760000Y37903265D01*
X24715806Y38125443D01*
X24629116Y38334729D01*
X24503263Y38523082D01*
X24343082Y38683263D01*
X24154729Y38809116D01*
X23945443Y38895806D01*
X23723265Y38940000D01*
X23496735Y38940000D01*
X23274557Y38895806D01*
X23065271Y38809116D01*
X22876918Y38683263D01*
X22716737Y38523082D01*
X22590884Y38334729D01*
X22580000Y38308453D01*
X22580000Y46257208D01*
X23522792Y47200000D01*
X27145794Y47200000D01*
X27190000Y47195646D01*
X27234206Y47200000D01*
X27234207Y47200000D01*
X27366431Y47213023D01*
X27536081Y47264486D01*
X27692432Y47348057D01*
X27829475Y47460525D01*
X27857657Y47494865D01*
X29295136Y48932344D01*
X29329475Y48960525D01*
X29441943Y49097568D01*
X29525514Y49253919D01*
X29576977Y49423569D01*
X29590000Y49555793D01*
X29590000Y49555802D01*
X29594353Y49599999D01*
X29590000Y49644196D01*
X29590000Y50147001D01*
X29709116Y50325271D01*
X29795806Y50534557D01*
X29840000Y50756735D01*
X29840000Y50983265D01*
X30080000Y50983265D01*
X30080000Y50756735D01*
X30124194Y50534557D01*
X30210884Y50325271D01*
X30336737Y50136918D01*
X30496918Y49976737D01*
X30685271Y49850884D01*
X30894557Y49764194D01*
X31116735Y49720000D01*
X31343265Y49720000D01*
X31565443Y49764194D01*
X31774729Y49850884D01*
X31963082Y49976737D01*
X32123263Y50136918D01*
X32249116Y50325271D01*
X32335806Y50534557D01*
X32380000Y50756735D01*
X32380000Y50983265D01*
X32335806Y51205443D01*
X32249116Y51414729D01*
X32123263Y51603082D01*
X31963082Y51763263D01*
X31774729Y51889116D01*
X31565443Y51975806D01*
X31343265Y52020000D01*
X31116735Y52020000D01*
X30894557Y51975806D01*
X30685271Y51889116D01*
X30496918Y51763263D01*
X30336737Y51603082D01*
X30210884Y51414729D01*
X30124194Y51205443D01*
X30080000Y50983265D01*
X29840000Y50983265D01*
X29795806Y51205443D01*
X29709116Y51414729D01*
X29583263Y51603082D01*
X29423082Y51763263D01*
X29234729Y51889116D01*
X29025443Y51975806D01*
X28803265Y52020000D01*
X28576735Y52020000D01*
X28354557Y51975806D01*
X28145271Y51889116D01*
X27956918Y51763263D01*
X27796737Y51603082D01*
X27670884Y51414729D01*
X27584194Y51205443D01*
X27540000Y50983265D01*
X27540000Y50756735D01*
X27584194Y50534557D01*
X27670884Y50325271D01*
X27790000Y50147000D01*
X27790000Y49972792D01*
X26817208Y49000000D01*
X23522793Y49000000D01*
X21539528Y50983265D01*
X22460000Y50983265D01*
X22460000Y50756735D01*
X22504194Y50534557D01*
X22590884Y50325271D01*
X22716737Y50136918D01*
X22876918Y49976737D01*
X23065271Y49850884D01*
X23274557Y49764194D01*
X23496735Y49720000D01*
X23723265Y49720000D01*
X23945443Y49764194D01*
X24154729Y49850884D01*
X24343082Y49976737D01*
X24503263Y50136918D01*
X24629116Y50325271D01*
X24715806Y50534557D01*
X24760000Y50756735D01*
X24760000Y50983265D01*
X25000000Y50983265D01*
X25000000Y50756735D01*
X25044194Y50534557D01*
X25130884Y50325271D01*
X25256737Y50136918D01*
X25416918Y49976737D01*
X25605271Y49850884D01*
X25814557Y49764194D01*
X26036735Y49720000D01*
X26263265Y49720000D01*
X26485443Y49764194D01*
X26694729Y49850884D01*
X26883082Y49976737D01*
X27043263Y50136918D01*
X27169116Y50325271D01*
X27255806Y50534557D01*
X27300000Y50756735D01*
X27300000Y50983265D01*
X27255806Y51205443D01*
X27169116Y51414729D01*
X27043263Y51603082D01*
X26883082Y51763263D01*
X26694729Y51889116D01*
X26485443Y51975806D01*
X26263265Y52020000D01*
X26036735Y52020000D01*
X25814557Y51975806D01*
X25605271Y51889116D01*
X25416918Y51763263D01*
X25256737Y51603082D01*
X25130884Y51414729D01*
X25044194Y51205443D01*
X25000000Y50983265D01*
X24760000Y50983265D01*
X24715806Y51205443D01*
X24629116Y51414729D01*
X24503263Y51603082D01*
X24343082Y51763263D01*
X24154729Y51889116D01*
X23945443Y51975806D01*
X23723265Y52020000D01*
X23496735Y52020000D01*
X23274557Y51975806D01*
X23065271Y51889116D01*
X22876918Y51763263D01*
X22716737Y51603082D01*
X22590884Y51414729D01*
X22504194Y51205443D01*
X22460000Y50983265D01*
X21539528Y50983265D01*
X20347655Y52175137D01*
X20319475Y52209475D01*
X20182432Y52321943D01*
X20026081Y52405514D01*
X19856431Y52456977D01*
X19724207Y52470000D01*
X19724206Y52470000D01*
X19680000Y52474354D01*
X19635794Y52470000D01*
X13482792Y52470000D01*
X13432792Y52520000D01*
X13573114Y52520000D01*
X13814611Y52568037D01*
X14042097Y52662265D01*
X14246828Y52799062D01*
X14420938Y52973172D01*
X14557735Y53177903D01*
X14651963Y53405389D01*
X14700000Y53646886D01*
X14700000Y53893114D01*
X14740000Y53893114D01*
X14740000Y53646886D01*
X14788037Y53405389D01*
X14882265Y53177903D01*
X15019062Y52973172D01*
X15193172Y52799062D01*
X15397903Y52662265D01*
X15625389Y52568037D01*
X15866886Y52520000D01*
X16113114Y52520000D01*
X16354611Y52568037D01*
X16582097Y52662265D01*
X16786828Y52799062D01*
X16960938Y52973172D01*
X17097735Y53177903D01*
X17191963Y53405389D01*
X17240000Y53646886D01*
X17240000Y53893114D01*
X17280000Y53893114D01*
X17280000Y53646886D01*
X17328037Y53405389D01*
X17422265Y53177903D01*
X17559062Y52973172D01*
X17733172Y52799062D01*
X17937903Y52662265D01*
X18165389Y52568037D01*
X18406886Y52520000D01*
X18653114Y52520000D01*
X18894611Y52568037D01*
X19122097Y52662265D01*
X19326828Y52799062D01*
X19500938Y52973172D01*
X19637735Y53177903D01*
X19731963Y53405389D01*
X19780000Y53646886D01*
X19780000Y53893114D01*
X19820000Y53893114D01*
X19820000Y53646886D01*
X19868037Y53405389D01*
X19962265Y53177903D01*
X20099062Y52973172D01*
X20273172Y52799062D01*
X20477903Y52662265D01*
X20705389Y52568037D01*
X20946886Y52520000D01*
X21193114Y52520000D01*
X21434611Y52568037D01*
X21662097Y52662265D01*
X21866828Y52799062D01*
X22040938Y52973172D01*
X22177735Y53177903D01*
X22271963Y53405389D01*
X22320000Y53646886D01*
X22320000Y53893114D01*
X22360000Y53893114D01*
X22360000Y53646886D01*
X22408037Y53405389D01*
X22502265Y53177903D01*
X22639062Y52973172D01*
X22813172Y52799062D01*
X23017903Y52662265D01*
X23245389Y52568037D01*
X23486886Y52520000D01*
X23733114Y52520000D01*
X23974611Y52568037D01*
X24202097Y52662265D01*
X24406828Y52799062D01*
X24580938Y52973172D01*
X24717735Y53177903D01*
X24811963Y53405389D01*
X24860000Y53646886D01*
X24860000Y53893114D01*
X24900000Y53893114D01*
X24900000Y53646886D01*
X24948037Y53405389D01*
X25042265Y53177903D01*
X25179062Y52973172D01*
X25353172Y52799062D01*
X25557903Y52662265D01*
X25785389Y52568037D01*
X26026886Y52520000D01*
X26273114Y52520000D01*
X26514611Y52568037D01*
X26742097Y52662265D01*
X26946828Y52799062D01*
X27120938Y52973172D01*
X27257735Y53177903D01*
X27351963Y53405389D01*
X27400000Y53646886D01*
X27400000Y53893114D01*
X27440000Y53893114D01*
X27440000Y53646886D01*
X27488037Y53405389D01*
X27582265Y53177903D01*
X27719062Y52973172D01*
X27893172Y52799062D01*
X28097903Y52662265D01*
X28325389Y52568037D01*
X28566886Y52520000D01*
X28813114Y52520000D01*
X29054611Y52568037D01*
X29282097Y52662265D01*
X29486828Y52799062D01*
X29660938Y52973172D01*
X29797735Y53177903D01*
X29891963Y53405389D01*
X29940000Y53646886D01*
X29940000Y53893114D01*
X29980000Y53893114D01*
X29980000Y53646886D01*
X30028037Y53405389D01*
X30122265Y53177903D01*
X30259062Y52973172D01*
X30433172Y52799062D01*
X30637903Y52662265D01*
X30865389Y52568037D01*
X31106886Y52520000D01*
X31353114Y52520000D01*
X31594611Y52568037D01*
X31822097Y52662265D01*
X32026828Y52799062D01*
X32200938Y52973172D01*
X32337735Y53177903D01*
X32431963Y53405389D01*
X32480000Y53646886D01*
X32480000Y53893114D01*
X32431963Y54134611D01*
X32337735Y54362097D01*
X32200938Y54566828D01*
X32026828Y54740938D01*
X31822097Y54877735D01*
X31594611Y54971963D01*
X31353114Y55020000D01*
X31106886Y55020000D01*
X30865389Y54971963D01*
X30637903Y54877735D01*
X30433172Y54740938D01*
X30259062Y54566828D01*
X30122265Y54362097D01*
X30028037Y54134611D01*
X29980000Y53893114D01*
X29940000Y53893114D01*
X29891963Y54134611D01*
X29797735Y54362097D01*
X29660938Y54566828D01*
X29486828Y54740938D01*
X29282097Y54877735D01*
X29054611Y54971963D01*
X28813114Y55020000D01*
X28566886Y55020000D01*
X28325389Y54971963D01*
X28097903Y54877735D01*
X27893172Y54740938D01*
X27719062Y54566828D01*
X27582265Y54362097D01*
X27488037Y54134611D01*
X27440000Y53893114D01*
X27400000Y53893114D01*
X27351963Y54134611D01*
X27257735Y54362097D01*
X27120938Y54566828D01*
X26946828Y54740938D01*
X26742097Y54877735D01*
X26514611Y54971963D01*
X26273114Y55020000D01*
X26026886Y55020000D01*
X25785389Y54971963D01*
X25557903Y54877735D01*
X25353172Y54740938D01*
X25179062Y54566828D01*
X25042265Y54362097D01*
X24948037Y54134611D01*
X24900000Y53893114D01*
X24860000Y53893114D01*
X24811963Y54134611D01*
X24717735Y54362097D01*
X24580938Y54566828D01*
X24406828Y54740938D01*
X24202097Y54877735D01*
X23974611Y54971963D01*
X23733114Y55020000D01*
X23486886Y55020000D01*
X23245389Y54971963D01*
X23017903Y54877735D01*
X22813172Y54740938D01*
X22639062Y54566828D01*
X22502265Y54362097D01*
X22408037Y54134611D01*
X22360000Y53893114D01*
X22320000Y53893114D01*
X22271963Y54134611D01*
X22177735Y54362097D01*
X22040938Y54566828D01*
X21866828Y54740938D01*
X21662097Y54877735D01*
X21434611Y54971963D01*
X21193114Y55020000D01*
X20946886Y55020000D01*
X20705389Y54971963D01*
X20477903Y54877735D01*
X20273172Y54740938D01*
X20099062Y54566828D01*
X19962265Y54362097D01*
X19868037Y54134611D01*
X19820000Y53893114D01*
X19780000Y53893114D01*
X19731963Y54134611D01*
X19637735Y54362097D01*
X19500938Y54566828D01*
X19326828Y54740938D01*
X19122097Y54877735D01*
X18894611Y54971963D01*
X18653114Y55020000D01*
X18406886Y55020000D01*
X18165389Y54971963D01*
X17937903Y54877735D01*
X17733172Y54740938D01*
X17559062Y54566828D01*
X17422265Y54362097D01*
X17328037Y54134611D01*
X17280000Y53893114D01*
X17240000Y53893114D01*
X17191963Y54134611D01*
X17097735Y54362097D01*
X16960938Y54566828D01*
X16786828Y54740938D01*
X16582097Y54877735D01*
X16354611Y54971963D01*
X16113114Y55020000D01*
X15866886Y55020000D01*
X15625389Y54971963D01*
X15397903Y54877735D01*
X15193172Y54740938D01*
X15019062Y54566828D01*
X14882265Y54362097D01*
X14788037Y54134611D01*
X14740000Y53893114D01*
X14700000Y53893114D01*
X14651963Y54134611D01*
X14557735Y54362097D01*
X14420938Y54566828D01*
X14246828Y54740938D01*
X14042097Y54877735D01*
X13814611Y54971963D01*
X13573114Y55020000D01*
X13326886Y55020000D01*
X13085389Y54971963D01*
X12857903Y54877735D01*
X12653172Y54740938D01*
X12479062Y54566828D01*
X12342265Y54362097D01*
X12248037Y54134611D01*
X12200000Y53893114D01*
X12200000Y53752792D01*
X12160000Y53792792D01*
X12160000Y53893114D01*
X12111963Y54134611D01*
X12017735Y54362097D01*
X11880938Y54566828D01*
X11706828Y54740938D01*
X11502097Y54877735D01*
X11274611Y54971963D01*
X11033114Y55020000D01*
X10786886Y55020000D01*
X10545389Y54971963D01*
X10317903Y54877735D01*
X10113172Y54740938D01*
X9939062Y54566828D01*
X9802265Y54362097D01*
X9708037Y54134611D01*
X9660000Y53893114D01*
X9660000Y53646886D01*
X9708037Y53405389D01*
X9802265Y53177903D01*
X9939062Y52973172D01*
X10113172Y52799062D01*
X10317903Y52662265D01*
X10545389Y52568037D01*
X10786886Y52520000D01*
X10887208Y52520000D01*
X11837208Y51570000D01*
X11154865Y50887657D01*
X11120525Y50859475D01*
X11008057Y50722431D01*
X10924486Y50566080D01*
X10900490Y50486976D01*
X10873023Y50396430D01*
X10855646Y50220000D01*
X10860000Y50175793D01*
X10860001Y43332798D01*
X10055534Y42528330D01*
X10070000Y42601056D01*
X10070000Y42738944D01*
X10043099Y42874182D01*
X9990332Y43001574D01*
X9913726Y43116224D01*
X9816224Y43213726D01*
X9701574Y43290332D01*
X9574182Y43343099D01*
X9438944Y43370000D01*
X9310689Y43370000D01*
X9313099Y43375818D01*
X9340000Y43511056D01*
X9340000Y43648944D01*
X9313099Y43784182D01*
X9260332Y43911574D01*
X9183726Y44026224D01*
X9086224Y44123726D01*
X8971574Y44200332D01*
X8844182Y44253099D01*
X8708944Y44280000D01*
X8571056Y44280000D01*
X8435818Y44253099D01*
X8308426Y44200332D01*
X8193776Y44123726D01*
X8096274Y44026224D01*
X8019668Y43911574D01*
X7966901Y43784182D01*
X7940000Y43648944D01*
X3448583Y43648944D01*
X3480000Y43806886D01*
X3480000Y44053114D01*
X3431963Y44294611D01*
X3337735Y44522097D01*
X3200938Y44726828D01*
X3026828Y44900938D01*
X2822097Y45037735D01*
X2594611Y45131963D01*
X2353114Y45180000D01*
X2106886Y45180000D01*
X1865389Y45131963D01*
X1637903Y45037735D01*
X1433172Y44900938D01*
X1259062Y44726828D01*
X1122265Y44522097D01*
X1028037Y44294611D01*
X980000Y44053114D01*
X450000Y44053114D01*
X450000Y45278944D01*
X8230000Y45278944D01*
X8230000Y45141056D01*
X8256901Y45005818D01*
X8309668Y44878426D01*
X8386274Y44763776D01*
X8483776Y44666274D01*
X8598426Y44589668D01*
X8725818Y44536901D01*
X8861056Y44510000D01*
X8998944Y44510000D01*
X9134182Y44536901D01*
X9261574Y44589668D01*
X9376224Y44666274D01*
X9473726Y44763776D01*
X9550332Y44878426D01*
X9603099Y45005818D01*
X9630000Y45141056D01*
X9630000Y45278944D01*
X9603099Y45414182D01*
X9550332Y45541574D01*
X9473726Y45656224D01*
X9376224Y45753726D01*
X9261574Y45830332D01*
X9134182Y45883099D01*
X8998944Y45910000D01*
X8861056Y45910000D01*
X8725818Y45883099D01*
X8598426Y45830332D01*
X8483776Y45753726D01*
X8386274Y45656224D01*
X8309668Y45541574D01*
X8256901Y45414182D01*
X8230000Y45278944D01*
X450000Y45278944D01*
X450000Y48568944D01*
X8210000Y48568944D01*
X8210000Y48431056D01*
X8236901Y48295818D01*
X8289668Y48168426D01*
X8366274Y48053776D01*
X8463776Y47956274D01*
X8578426Y47879668D01*
X8705818Y47826901D01*
X8740000Y47820102D01*
X8740000Y47761056D01*
X8766901Y47625818D01*
X8819668Y47498426D01*
X8896274Y47383776D01*
X8993776Y47286274D01*
X9108426Y47209668D01*
X9235818Y47156901D01*
X9371056Y47130000D01*
X9508944Y47130000D01*
X9644182Y47156901D01*
X9771574Y47209668D01*
X9886224Y47286274D01*
X9983726Y47383776D01*
X10060332Y47498426D01*
X10113099Y47625818D01*
X10140000Y47761056D01*
X10140000Y47898944D01*
X10113099Y48034182D01*
X10060332Y48161574D01*
X9983726Y48276224D01*
X9886224Y48373726D01*
X9771574Y48450332D01*
X9644182Y48503099D01*
X9610000Y48509898D01*
X9610000Y48568944D01*
X9583099Y48704182D01*
X9530332Y48831574D01*
X9453726Y48946224D01*
X9356224Y49043726D01*
X9241574Y49120332D01*
X9114182Y49173099D01*
X8978944Y49200000D01*
X8841056Y49200000D01*
X8705818Y49173099D01*
X8578426Y49120332D01*
X8463776Y49043726D01*
X8366274Y48946224D01*
X8289668Y48831574D01*
X8236901Y48704182D01*
X8210000Y48568944D01*
X450000Y48568944D01*
X450000Y51501351D01*
X664197Y50984232D01*
X1014398Y50460119D01*
X1460119Y50014398D01*
X1984232Y49664197D01*
X2566595Y49422975D01*
X3184828Y49300000D01*
X3815172Y49300000D01*
X4433405Y49422975D01*
X5015768Y49664197D01*
X5539881Y50014398D01*
X5985602Y50460119D01*
X6335803Y50984232D01*
X6577025Y51566595D01*
X6700000Y52184828D01*
X6700000Y52815172D01*
X6577025Y53433405D01*
X6335803Y54015768D01*
X5985602Y54539881D01*
X5539881Y54985602D01*
X5015768Y55335803D01*
X4498649Y55550000D01*
X30977994Y55550000D01*
X31494876Y55499319D01*
M02*
