G04 #@! TF.GenerationSoftware,KiCad,Pcbnew,(5.1.6)-1*
G04 #@! TF.CreationDate,2020-06-03T08:45:57+03:00*
G04 #@! TF.ProjectId,TMCM-0021 v1.0,544d434d-2d30-4303-9231-2076312e302e,rev?*
G04 #@! TF.SameCoordinates,Original*
G04 #@! TF.FileFunction,Copper,L4,Bot*
G04 #@! TF.FilePolarity,Positive*
%FSLAX46Y46*%
G04 Gerber Fmt 4.6, Leading zero omitted, Abs format (unit mm)*
G04 Created by KiCad (PCBNEW (5.1.6)-1) date 2020-06-03 08:45:57*
%MOMM*%
%LPD*%
G01*
G04 APERTURE LIST*
G04 #@! TA.AperFunction,ComponentPad*
%ADD10O,1.700000X1.700000*%
G04 #@! TD*
G04 #@! TA.AperFunction,ComponentPad*
%ADD11C,1.500000*%
G04 #@! TD*
G04 #@! TA.AperFunction,ComponentPad*
%ADD12C,5.600000*%
G04 #@! TD*
G04 #@! TA.AperFunction,ViaPad*
%ADD13C,0.600000*%
G04 #@! TD*
G04 #@! TA.AperFunction,Conductor*
%ADD14C,0.200000*%
G04 #@! TD*
G04 #@! TA.AperFunction,Conductor*
%ADD15C,0.400000*%
G04 #@! TD*
G04 APERTURE END LIST*
D10*
X31230000Y2230000D03*
X28690000Y2230000D03*
X26150000Y2230000D03*
X23610000Y2230000D03*
X21070000Y2230000D03*
X18530000Y2230000D03*
X15990000Y2230000D03*
X13450000Y2230000D03*
X10910000Y2230000D03*
G04 #@! TA.AperFunction,ComponentPad*
G36*
G01*
X7919500Y3080000D02*
X8820500Y3080000D01*
G75*
G02*
X9220000Y2680500I0J-399500D01*
G01*
X9220000Y1779500D01*
G75*
G02*
X8820500Y1380000I-399500J0D01*
G01*
X7919500Y1380000D01*
G75*
G02*
X7520000Y1779500I0J399500D01*
G01*
X7520000Y2680500D01*
G75*
G02*
X7919500Y3080000I399500J0D01*
G01*
G37*
G04 #@! TD.AperFunction*
X31230000Y53770000D03*
X28690000Y53770000D03*
X26150000Y53770000D03*
X23610000Y53770000D03*
X21070000Y53770000D03*
X18530000Y53770000D03*
X15990000Y53770000D03*
X13450000Y53770000D03*
X10910000Y53770000D03*
G04 #@! TA.AperFunction,ComponentPad*
G36*
G01*
X7919500Y54620000D02*
X8820500Y54620000D01*
G75*
G02*
X9220000Y54220500I0J-399500D01*
G01*
X9220000Y53319500D01*
G75*
G02*
X8820500Y52920000I-399500J0D01*
G01*
X7919500Y52920000D01*
G75*
G02*
X7520000Y53319500I0J399500D01*
G01*
X7520000Y54220500D01*
G75*
G02*
X7919500Y54620000I399500J0D01*
G01*
G37*
G04 #@! TD.AperFunction*
D11*
X23610000Y5130000D03*
X23610000Y18210000D03*
X26150000Y5130000D03*
X26150000Y18210000D03*
X28690000Y5130000D03*
X28690000Y18210000D03*
X31230000Y5130000D03*
X31230000Y18210000D03*
X23610000Y37790000D03*
X23610000Y50870000D03*
X26150000Y37790000D03*
X26150000Y50870000D03*
X28690000Y37790000D03*
X28690000Y50870000D03*
X31230000Y37790000D03*
X31230000Y50870000D03*
D12*
X3500000Y52500000D03*
X3500000Y3500000D03*
D10*
X2230000Y41390000D03*
X2230000Y43930000D03*
D13*
X9370000Y42670000D03*
X8640000Y43580000D03*
X8640000Y41780000D03*
X12270000Y16360000D03*
X5340000Y25460000D03*
X12310000Y22400000D03*
X18510000Y22270000D03*
X18530000Y30430000D03*
X15490000Y30430000D03*
X18540000Y38600000D03*
X15500000Y38600000D03*
X15460000Y22270000D03*
X18540000Y46760000D03*
X15510000Y46760000D03*
X15510000Y49320000D03*
X15490000Y14980000D03*
X16430000Y12460000D03*
X16910000Y8150000D03*
X28050000Y21820000D03*
X26780000Y34180000D03*
X12050000Y12580000D03*
X7850000Y20900000D03*
X8930000Y45210000D03*
X13610000Y48070000D03*
X19490000Y49330000D03*
X10470000Y6690000D03*
X13910000Y7340000D03*
X13600000Y49130000D03*
X18950000Y13440000D03*
X9440000Y47830000D03*
X8910000Y48500000D03*
X5950000Y21870000D03*
X7850000Y21870000D03*
X9760000Y21870000D03*
X29320000Y34180000D03*
X30600000Y34180000D03*
X7270000Y6990000D03*
X7270000Y14540002D03*
X14560000Y41140000D03*
X12260000Y15150000D03*
X14560000Y32960000D03*
X20550000Y11890000D03*
X20550000Y7240000D03*
X14550000Y24790000D03*
X12310000Y23980000D03*
X4750000Y11090000D03*
X4750000Y9540000D03*
X20550000Y10340000D03*
X20550000Y8790000D03*
X18510000Y17600000D03*
X18530000Y25770000D03*
X18540000Y33940000D03*
X18530000Y42120000D03*
X10700000Y51840000D03*
X7620000Y49410000D03*
X10370000Y47220000D03*
X13110000Y47220000D03*
X10470000Y8640000D03*
X29320000Y21820000D03*
X22470000Y3870000D03*
X16010000Y3870000D03*
X32260000Y36430000D03*
X26730000Y35450000D03*
X10470000Y10610000D03*
X7270000Y16360000D03*
X8939998Y40140002D03*
D14*
X19490000Y48905736D02*
X19490000Y49330000D01*
X13510000Y35721999D02*
X19490000Y41701999D01*
X13510000Y9730000D02*
X13510000Y35721999D01*
X19490000Y41701999D02*
X19490000Y48905736D01*
X10470000Y6690000D02*
X13510000Y9730000D01*
X12290000Y52610000D02*
X13450000Y53770000D01*
X13610000Y48070000D02*
X12290000Y49390000D01*
X12290000Y49390000D02*
X12290000Y52610000D01*
X13600000Y51380000D02*
X15990000Y53770000D01*
X13600000Y49130000D02*
X13600000Y51380000D01*
X14920000Y13440000D02*
X18950000Y13440000D01*
X16839999Y52920001D02*
X15990000Y53770000D01*
X20090001Y49669999D02*
X16839999Y52920001D01*
X19890010Y48570000D02*
X20090001Y48769991D01*
X14490000Y13440000D02*
X13910011Y14019989D01*
X14920000Y13440000D02*
X14490000Y13440000D01*
X13910011Y14019989D02*
X13910011Y35556312D01*
X19890010Y41536310D02*
X19890010Y48570000D01*
X20090001Y48769991D02*
X20090001Y49669999D01*
X13910011Y35556312D02*
X19890010Y41536310D01*
X14460000Y13440000D02*
X14920000Y13440000D01*
X13910000Y7340000D02*
X13910000Y12890000D01*
X13910000Y12890000D02*
X14460000Y13440000D01*
X8415688Y4870012D02*
X18429988Y4870012D01*
X18429988Y4870012D02*
X21070000Y2230000D01*
X9440000Y47830000D02*
X8805698Y47830000D01*
X8805698Y47830000D02*
X3960011Y42984313D01*
X3960011Y42984313D02*
X3960011Y9325689D01*
X3960011Y9325689D02*
X8415688Y4870012D01*
X18530000Y2230000D02*
X16289999Y4470001D01*
X3560000Y9160000D02*
X3560000Y43150000D01*
X16289999Y4470001D02*
X8249999Y4470001D01*
X3560000Y43150000D02*
X8610001Y48200001D01*
X8249999Y4470001D02*
X3560000Y9160000D01*
X8610001Y48200001D02*
X8910000Y48500000D01*
X23578002Y3650000D02*
X24730000Y3650000D01*
X24730000Y3650000D02*
X26150000Y2230000D01*
X21957981Y5270021D02*
X23578002Y3650000D01*
X7870001Y7278001D02*
X7870001Y5981395D01*
X7870001Y5981395D02*
X8581375Y5270021D01*
X7870001Y19949999D02*
X7870001Y14252001D01*
X7870001Y14252001D02*
X7670010Y14052010D01*
X8581375Y5270021D02*
X21957981Y5270021D01*
X5950000Y21870000D02*
X7870001Y19949999D01*
X7670010Y7477992D02*
X7870001Y7278001D01*
X7670010Y14052010D02*
X7670010Y7477992D01*
X8470030Y7809368D02*
X8670021Y7609379D01*
X10048001Y21269999D02*
X9725697Y21269999D01*
X27639999Y4625999D02*
X28615998Y3650000D01*
X8680000Y6302792D02*
X8912751Y6070041D01*
X8450001Y22470001D02*
X10048001Y22470001D01*
X7850000Y21870000D02*
X8450001Y22470001D01*
X10360001Y21581999D02*
X10048001Y21269999D01*
X8670021Y20214323D02*
X8670021Y13920623D01*
X10048001Y22470001D02*
X10360001Y22158001D01*
X9725697Y21269999D02*
X8670021Y20214323D01*
X30380001Y3079999D02*
X31230000Y2230000D01*
X10360001Y22158001D02*
X10360001Y21581999D01*
X8670021Y7609379D02*
X8670021Y6815678D01*
X8670021Y6815678D02*
X8680000Y6805699D01*
X8680000Y6805699D02*
X8680000Y6302792D01*
X27639999Y5490001D02*
X27639999Y4625999D01*
X8912751Y6070041D02*
X22430341Y6070041D01*
X8670021Y13920623D02*
X8470030Y13720632D01*
X29810000Y3650000D02*
X30380001Y3079999D01*
X22430341Y6070041D02*
X22940310Y6580011D01*
X22940310Y6580011D02*
X26549989Y6580011D01*
X26549989Y6580011D02*
X27639999Y5490001D01*
X28615998Y3650000D02*
X29810000Y3650000D01*
X8470030Y13720632D02*
X8470030Y7809368D01*
X27840001Y3079999D02*
X28690000Y2230000D01*
X27270000Y3650000D02*
X27840001Y3079999D01*
X26075998Y3650000D02*
X27270000Y3650000D01*
X25099999Y5194003D02*
X25099999Y4625999D01*
X24114001Y6180001D02*
X25099999Y5194003D01*
X23105999Y6180001D02*
X24114001Y6180001D01*
X8270011Y14086312D02*
X8070020Y13886321D01*
X8070020Y7643680D02*
X8270011Y7443690D01*
X8280000Y6640000D02*
X8280000Y6137094D01*
X8270011Y7443690D02*
X8270011Y6649989D01*
X9760000Y21870000D02*
X8270011Y20380011D01*
X8270011Y6649989D02*
X8280000Y6640000D01*
X25099999Y4625999D02*
X26075998Y3650000D01*
X8280000Y6137094D02*
X8747063Y5670031D01*
X8270011Y20380011D02*
X8270011Y14086312D01*
X8747063Y5670031D02*
X22596029Y5670031D01*
X22596029Y5670031D02*
X23105999Y6180001D01*
X8070020Y13886321D02*
X8070020Y7643680D01*
X26150000Y53770000D02*
X27200001Y52719999D01*
X27200001Y36299999D02*
X29320000Y34180000D01*
X27200001Y52719999D02*
X27200001Y36299999D01*
X27539999Y54230001D02*
X27539999Y52945700D01*
X23610000Y53770000D02*
X24760001Y54920001D01*
X27539999Y52945700D02*
X27600011Y52885688D01*
X26849999Y54920001D02*
X27539999Y54230001D01*
X24760001Y54920001D02*
X26849999Y54920001D01*
X27600011Y52885688D02*
X27600011Y50405987D01*
X27600011Y50405987D02*
X27600011Y39900000D01*
X27600011Y39900000D02*
X27600011Y36465687D01*
X27600011Y36465687D02*
X29285697Y34780001D01*
X29285697Y34780001D02*
X29999999Y34780001D01*
X29999999Y34780001D02*
X30600000Y34180000D01*
X7270000Y14217699D02*
X7270000Y14540002D01*
X7270000Y6990000D02*
X7270000Y14217699D01*
X14560000Y41140000D02*
X13109990Y39689990D01*
X13109990Y15999990D02*
X12260000Y15150000D01*
X13109990Y39689990D02*
X13109990Y15999990D01*
X14560000Y32535736D02*
X14310021Y32285757D01*
X14560000Y32960000D02*
X14560000Y32535736D01*
X14310021Y32285757D02*
X14310021Y31290000D01*
X14310021Y31290000D02*
X14310021Y26320000D01*
X14310021Y26320000D02*
X14310021Y25917981D01*
X14310021Y25917981D02*
X15150001Y25078001D01*
X14710031Y23854333D02*
X14710031Y23140000D01*
X15150001Y25078001D02*
X15150001Y24294303D01*
X15150001Y24294303D02*
X14710031Y23854333D01*
X14710031Y23140000D02*
X14710031Y14610000D01*
X14710031Y14355667D02*
X14825678Y14240020D01*
X14710031Y14610000D02*
X14710031Y14355667D01*
X19403690Y14440011D02*
X19950011Y13893690D01*
X18394312Y14440011D02*
X19403690Y14440011D01*
X14825678Y14240020D02*
X18194321Y14240020D01*
X18194321Y14240020D02*
X18394312Y14440011D01*
X19950011Y13893690D02*
X19950011Y12489989D01*
X19950011Y12489989D02*
X20550000Y11890000D01*
X14550000Y24260000D02*
X14550000Y24790000D01*
X14310021Y24020021D02*
X14550000Y24260000D01*
X14310021Y14189979D02*
X14310021Y24020021D01*
X18360010Y13840010D02*
X14659990Y13840010D01*
X14659990Y13840010D02*
X14310021Y14189979D01*
X19550001Y8239999D02*
X19550001Y13728001D01*
X19550001Y13728001D02*
X19238001Y14040001D01*
X18560001Y14040001D02*
X18360010Y13840010D01*
X20550000Y7240000D02*
X19550001Y8239999D01*
X19238001Y14040001D02*
X18560001Y14040001D01*
X10470000Y10610000D02*
X10470000Y8640000D01*
D15*
G36*
X31494876Y55499319D02*
G01*
X31970906Y55355597D01*
X32409957Y55122150D01*
X32795296Y54807875D01*
X33112258Y54424734D01*
X33348761Y53987330D01*
X33495803Y53512316D01*
X33550001Y52996656D01*
X33550000Y3022005D01*
X33499319Y2505124D01*
X33355596Y2029090D01*
X33122152Y1590046D01*
X32807875Y1204704D01*
X32424735Y887743D01*
X31987329Y651239D01*
X31512316Y504197D01*
X30996664Y450000D01*
X3022005Y450000D01*
X2505124Y500681D01*
X2029090Y644404D01*
X1590046Y877848D01*
X1204704Y1192125D01*
X887743Y1575265D01*
X651239Y2012671D01*
X504197Y2487684D01*
X483932Y2680500D01*
X7118065Y2680500D01*
X7118065Y1779500D01*
X7133464Y1623148D01*
X7179071Y1472804D01*
X7253131Y1334247D01*
X7352800Y1212800D01*
X7474247Y1113131D01*
X7612804Y1039071D01*
X7763148Y993464D01*
X7919500Y978065D01*
X8820500Y978065D01*
X8976852Y993464D01*
X9127196Y1039071D01*
X9265753Y1113131D01*
X9387200Y1212800D01*
X9486869Y1334247D01*
X9560929Y1472804D01*
X9606536Y1623148D01*
X9621935Y1779500D01*
X9621935Y2353114D01*
X9660000Y2353114D01*
X9660000Y2106886D01*
X9708037Y1865389D01*
X9802265Y1637903D01*
X9939062Y1433172D01*
X10113172Y1259062D01*
X10317903Y1122265D01*
X10545389Y1028037D01*
X10786886Y980000D01*
X11033114Y980000D01*
X11274611Y1028037D01*
X11502097Y1122265D01*
X11706828Y1259062D01*
X11880938Y1433172D01*
X12017735Y1637903D01*
X12111963Y1865389D01*
X12160000Y2106886D01*
X12160000Y2353114D01*
X12200000Y2353114D01*
X12200000Y2106886D01*
X12248037Y1865389D01*
X12342265Y1637903D01*
X12479062Y1433172D01*
X12653172Y1259062D01*
X12857903Y1122265D01*
X13085389Y1028037D01*
X13326886Y980000D01*
X13573114Y980000D01*
X13814611Y1028037D01*
X14042097Y1122265D01*
X14246828Y1259062D01*
X14420938Y1433172D01*
X14557735Y1637903D01*
X14651963Y1865389D01*
X14700000Y2106886D01*
X14700000Y2353114D01*
X14651963Y2594611D01*
X14557735Y2822097D01*
X14420938Y3026828D01*
X14246828Y3200938D01*
X14042097Y3337735D01*
X13814611Y3431963D01*
X13573114Y3480000D01*
X13326886Y3480000D01*
X13085389Y3431963D01*
X12857903Y3337735D01*
X12653172Y3200938D01*
X12479062Y3026828D01*
X12342265Y2822097D01*
X12248037Y2594611D01*
X12200000Y2353114D01*
X12160000Y2353114D01*
X12111963Y2594611D01*
X12017735Y2822097D01*
X11880938Y3026828D01*
X11706828Y3200938D01*
X11502097Y3337735D01*
X11274611Y3431963D01*
X11033114Y3480000D01*
X10786886Y3480000D01*
X10545389Y3431963D01*
X10317903Y3337735D01*
X10113172Y3200938D01*
X9939062Y3026828D01*
X9802265Y2822097D01*
X9708037Y2594611D01*
X9660000Y2353114D01*
X9621935Y2353114D01*
X9621935Y2680500D01*
X9606536Y2836852D01*
X9560929Y2987196D01*
X9486869Y3125753D01*
X9387200Y3247200D01*
X9265753Y3346869D01*
X9127196Y3420929D01*
X8976852Y3466536D01*
X8820500Y3481935D01*
X7919500Y3481935D01*
X7763148Y3466536D01*
X7612804Y3420929D01*
X7474247Y3346869D01*
X7352800Y3247200D01*
X7253131Y3125753D01*
X7179071Y2987196D01*
X7133464Y2836852D01*
X7118065Y2680500D01*
X483932Y2680500D01*
X450000Y3003336D01*
X450000Y44053114D01*
X980000Y44053114D01*
X980000Y43806886D01*
X1028037Y43565389D01*
X1122265Y43337903D01*
X1259062Y43133172D01*
X1433172Y42959062D01*
X1637903Y42822265D01*
X1865389Y42728037D01*
X2106886Y42680000D01*
X2353114Y42680000D01*
X2594611Y42728037D01*
X2822097Y42822265D01*
X3026828Y42959062D01*
X3060001Y42992235D01*
X3060001Y42327765D01*
X3026828Y42360938D01*
X2822097Y42497735D01*
X2594611Y42591963D01*
X2353114Y42640000D01*
X2106886Y42640000D01*
X1865389Y42591963D01*
X1637903Y42497735D01*
X1433172Y42360938D01*
X1259062Y42186828D01*
X1122265Y41982097D01*
X1028037Y41754611D01*
X980000Y41513114D01*
X980000Y41266886D01*
X1028037Y41025389D01*
X1122265Y40797903D01*
X1259062Y40593172D01*
X1433172Y40419062D01*
X1637903Y40282265D01*
X1865389Y40188037D01*
X2106886Y40140000D01*
X2353114Y40140000D01*
X2594611Y40188037D01*
X2822097Y40282265D01*
X3026828Y40419062D01*
X3060001Y40452235D01*
X3060000Y9184560D01*
X3057581Y9160000D01*
X3067235Y9061984D01*
X3095825Y8967734D01*
X3142254Y8880871D01*
X3204736Y8804736D01*
X3223824Y8789071D01*
X7879074Y4133820D01*
X7894735Y4114737D01*
X7970870Y4052255D01*
X8057732Y4005826D01*
X8151982Y3977236D01*
X8225439Y3970001D01*
X8225440Y3970001D01*
X8249998Y3967582D01*
X8274556Y3970001D01*
X15316178Y3970001D01*
X15310000Y3938944D01*
X15310000Y3801056D01*
X15336901Y3665818D01*
X15389668Y3538426D01*
X15466274Y3423776D01*
X15507089Y3382961D01*
X15397903Y3337735D01*
X15193172Y3200938D01*
X15019062Y3026828D01*
X14882265Y2822097D01*
X14788037Y2594611D01*
X14740000Y2353114D01*
X14740000Y2106886D01*
X14788037Y1865389D01*
X14882265Y1637903D01*
X15019062Y1433172D01*
X15193172Y1259062D01*
X15397903Y1122265D01*
X15625389Y1028037D01*
X15866886Y980000D01*
X16113114Y980000D01*
X16354611Y1028037D01*
X16582097Y1122265D01*
X16786828Y1259062D01*
X16960938Y1433172D01*
X17097735Y1637903D01*
X17191963Y1865389D01*
X17240000Y2106886D01*
X17240000Y2353114D01*
X17191963Y2594611D01*
X17097735Y2822097D01*
X16960938Y3026828D01*
X16786828Y3200938D01*
X16582097Y3337735D01*
X16501196Y3371246D01*
X16553726Y3423776D01*
X16583924Y3468971D01*
X17366185Y2686709D01*
X17328037Y2594611D01*
X17280000Y2353114D01*
X17280000Y2106886D01*
X17328037Y1865389D01*
X17422265Y1637903D01*
X17559062Y1433172D01*
X17733172Y1259062D01*
X17937903Y1122265D01*
X18165389Y1028037D01*
X18406886Y980000D01*
X18653114Y980000D01*
X18894611Y1028037D01*
X19122097Y1122265D01*
X19326828Y1259062D01*
X19500938Y1433172D01*
X19637735Y1637903D01*
X19731963Y1865389D01*
X19780000Y2106886D01*
X19780000Y2353114D01*
X19731963Y2594611D01*
X19637735Y2822097D01*
X19500938Y3026828D01*
X19326828Y3200938D01*
X19122097Y3337735D01*
X18894611Y3431963D01*
X18653114Y3480000D01*
X18406886Y3480000D01*
X18165389Y3431963D01*
X18073291Y3393815D01*
X17097093Y4370012D01*
X18222883Y4370012D01*
X19906185Y2686708D01*
X19868037Y2594611D01*
X19820000Y2353114D01*
X19820000Y2106886D01*
X19868037Y1865389D01*
X19962265Y1637903D01*
X20099062Y1433172D01*
X20273172Y1259062D01*
X20477903Y1122265D01*
X20705389Y1028037D01*
X20946886Y980000D01*
X21193114Y980000D01*
X21434611Y1028037D01*
X21662097Y1122265D01*
X21866828Y1259062D01*
X22040938Y1433172D01*
X22177735Y1637903D01*
X22271963Y1865389D01*
X22320000Y2106886D01*
X22320000Y2353114D01*
X22271963Y2594611D01*
X22177735Y2822097D01*
X22040938Y3026828D01*
X21866828Y3200938D01*
X21662097Y3337735D01*
X21434611Y3431963D01*
X21193114Y3480000D01*
X20946886Y3480000D01*
X20705389Y3431963D01*
X20613292Y3393815D01*
X19237084Y4770021D01*
X21750876Y4770021D01*
X22073767Y4447129D01*
X22023776Y4413726D01*
X21926274Y4316224D01*
X21849668Y4201574D01*
X21796901Y4074182D01*
X21770000Y3938944D01*
X21770000Y3801056D01*
X21796901Y3665818D01*
X21849668Y3538426D01*
X21926274Y3423776D01*
X22023776Y3326274D01*
X22138426Y3249668D01*
X22265818Y3196901D01*
X22401056Y3170000D01*
X22538944Y3170000D01*
X22674182Y3196901D01*
X22801574Y3249668D01*
X22916224Y3326274D01*
X23013726Y3423776D01*
X23047128Y3473767D01*
X23207081Y3313814D01*
X23222738Y3294736D01*
X23241814Y3279081D01*
X23241815Y3279080D01*
X23250118Y3272266D01*
X23298873Y3232254D01*
X23385735Y3185825D01*
X23479985Y3157235D01*
X23578002Y3147581D01*
X23602562Y3150000D01*
X24522895Y3150000D01*
X24986185Y2686709D01*
X24948037Y2594611D01*
X24900000Y2353114D01*
X24900000Y2106886D01*
X24948037Y1865389D01*
X25042265Y1637903D01*
X25179062Y1433172D01*
X25353172Y1259062D01*
X25557903Y1122265D01*
X25785389Y1028037D01*
X26026886Y980000D01*
X26273114Y980000D01*
X26514611Y1028037D01*
X26742097Y1122265D01*
X26946828Y1259062D01*
X27120938Y1433172D01*
X27257735Y1637903D01*
X27351963Y1865389D01*
X27400000Y2106886D01*
X27400000Y2353114D01*
X27351963Y2594611D01*
X27257735Y2822097D01*
X27120938Y3026828D01*
X26997766Y3150000D01*
X27062895Y3150000D01*
X27503814Y2709080D01*
X27503819Y2709076D01*
X27526186Y2686709D01*
X27488037Y2594611D01*
X27440000Y2353114D01*
X27440000Y2106886D01*
X27488037Y1865389D01*
X27582265Y1637903D01*
X27719062Y1433172D01*
X27893172Y1259062D01*
X28097903Y1122265D01*
X28325389Y1028037D01*
X28566886Y980000D01*
X28813114Y980000D01*
X29054611Y1028037D01*
X29282097Y1122265D01*
X29486828Y1259062D01*
X29660938Y1433172D01*
X29797735Y1637903D01*
X29891963Y1865389D01*
X29940000Y2106886D01*
X29940000Y2353114D01*
X29891963Y2594611D01*
X29797735Y2822097D01*
X29660938Y3026828D01*
X29537766Y3150000D01*
X29602895Y3150000D01*
X30043814Y2709080D01*
X30043819Y2709076D01*
X30066186Y2686709D01*
X30028037Y2594611D01*
X29980000Y2353114D01*
X29980000Y2106886D01*
X30028037Y1865389D01*
X30122265Y1637903D01*
X30259062Y1433172D01*
X30433172Y1259062D01*
X30637903Y1122265D01*
X30865389Y1028037D01*
X31106886Y980000D01*
X31353114Y980000D01*
X31594611Y1028037D01*
X31822097Y1122265D01*
X32026828Y1259062D01*
X32200938Y1433172D01*
X32337735Y1637903D01*
X32431963Y1865389D01*
X32480000Y2106886D01*
X32480000Y2353114D01*
X32431963Y2594611D01*
X32337735Y2822097D01*
X32200938Y3026828D01*
X32026828Y3200938D01*
X31822097Y3337735D01*
X31594611Y3431963D01*
X31353114Y3480000D01*
X31106886Y3480000D01*
X30865389Y3431963D01*
X30773291Y3393814D01*
X30750924Y3416181D01*
X30750920Y3416186D01*
X30180929Y3986176D01*
X30165264Y4005264D01*
X30089129Y4067746D01*
X30002267Y4114175D01*
X29908017Y4142765D01*
X29834560Y4150000D01*
X29810000Y4152419D01*
X29785440Y4150000D01*
X29293270Y4150000D01*
X29423082Y4236737D01*
X29583263Y4396918D01*
X29709116Y4585271D01*
X29795806Y4794557D01*
X29840000Y5016735D01*
X29840000Y5243265D01*
X30080000Y5243265D01*
X30080000Y5016735D01*
X30124194Y4794557D01*
X30210884Y4585271D01*
X30336737Y4396918D01*
X30496918Y4236737D01*
X30685271Y4110884D01*
X30894557Y4024194D01*
X31116735Y3980000D01*
X31343265Y3980000D01*
X31565443Y4024194D01*
X31774729Y4110884D01*
X31963082Y4236737D01*
X32123263Y4396918D01*
X32249116Y4585271D01*
X32335806Y4794557D01*
X32380000Y5016735D01*
X32380000Y5243265D01*
X32335806Y5465443D01*
X32249116Y5674729D01*
X32123263Y5863082D01*
X31963082Y6023263D01*
X31774729Y6149116D01*
X31565443Y6235806D01*
X31343265Y6280000D01*
X31116735Y6280000D01*
X30894557Y6235806D01*
X30685271Y6149116D01*
X30496918Y6023263D01*
X30336737Y5863082D01*
X30210884Y5674729D01*
X30124194Y5465443D01*
X30080000Y5243265D01*
X29840000Y5243265D01*
X29795806Y5465443D01*
X29709116Y5674729D01*
X29583263Y5863082D01*
X29423082Y6023263D01*
X29234729Y6149116D01*
X29025443Y6235806D01*
X28803265Y6280000D01*
X28576735Y6280000D01*
X28354557Y6235806D01*
X28145271Y6149116D01*
X27956918Y6023263D01*
X27885380Y5951725D01*
X26920918Y6916187D01*
X26905253Y6935275D01*
X26829118Y6997757D01*
X26742256Y7044186D01*
X26648006Y7072776D01*
X26574549Y7080011D01*
X26549989Y7082430D01*
X26525429Y7080011D01*
X22964869Y7080011D01*
X22940309Y7082430D01*
X22842292Y7072776D01*
X22803047Y7060871D01*
X22748043Y7044186D01*
X22661181Y6997757D01*
X22585046Y6935275D01*
X22569389Y6916197D01*
X22223234Y6570041D01*
X20761763Y6570041D01*
X20881574Y6619668D01*
X20996224Y6696274D01*
X21093726Y6793776D01*
X21170332Y6908426D01*
X21223099Y7035818D01*
X21250000Y7171056D01*
X21250000Y7308944D01*
X21223099Y7444182D01*
X21170332Y7571574D01*
X21093726Y7686224D01*
X20996224Y7783726D01*
X20881574Y7860332D01*
X20754182Y7913099D01*
X20618944Y7940000D01*
X20557106Y7940000D01*
X20388743Y8108363D01*
X20481056Y8090000D01*
X20618944Y8090000D01*
X20754182Y8116901D01*
X20881574Y8169668D01*
X20996224Y8246274D01*
X21093726Y8343776D01*
X21170332Y8458426D01*
X21223099Y8585818D01*
X21250000Y8721056D01*
X21250000Y8858944D01*
X21223099Y8994182D01*
X21170332Y9121574D01*
X21093726Y9236224D01*
X20996224Y9333726D01*
X20881574Y9410332D01*
X20754182Y9463099D01*
X20618944Y9490000D01*
X20481056Y9490000D01*
X20345818Y9463099D01*
X20218426Y9410332D01*
X20103776Y9333726D01*
X20050001Y9279951D01*
X20050001Y9850049D01*
X20103776Y9796274D01*
X20218426Y9719668D01*
X20345818Y9666901D01*
X20481056Y9640000D01*
X20618944Y9640000D01*
X20754182Y9666901D01*
X20881574Y9719668D01*
X20996224Y9796274D01*
X21093726Y9893776D01*
X21170332Y10008426D01*
X21223099Y10135818D01*
X21250000Y10271056D01*
X21250000Y10408944D01*
X21223099Y10544182D01*
X21170332Y10671574D01*
X21093726Y10786224D01*
X20996224Y10883726D01*
X20881574Y10960332D01*
X20754182Y11013099D01*
X20618944Y11040000D01*
X20481056Y11040000D01*
X20345818Y11013099D01*
X20218426Y10960332D01*
X20103776Y10883726D01*
X20050001Y10829951D01*
X20050001Y11400049D01*
X20103776Y11346274D01*
X20218426Y11269668D01*
X20345818Y11216901D01*
X20481056Y11190000D01*
X20618944Y11190000D01*
X20754182Y11216901D01*
X20881574Y11269668D01*
X20996224Y11346274D01*
X21093726Y11443776D01*
X21170332Y11558426D01*
X21223099Y11685818D01*
X21250000Y11821056D01*
X21250000Y11958944D01*
X21223099Y12094182D01*
X21170332Y12221574D01*
X21093726Y12336224D01*
X20996224Y12433726D01*
X20881574Y12510332D01*
X20754182Y12563099D01*
X20618944Y12590000D01*
X20557106Y12590000D01*
X20450011Y12697095D01*
X20450011Y13869130D01*
X20452430Y13893690D01*
X20442776Y13991707D01*
X20440138Y14000403D01*
X20414186Y14085957D01*
X20367757Y14172819D01*
X20305275Y14248954D01*
X20286197Y14264611D01*
X19774619Y14776188D01*
X19758954Y14795275D01*
X19682819Y14857757D01*
X19595957Y14904186D01*
X19501707Y14932776D01*
X19428250Y14940011D01*
X19403690Y14942430D01*
X19379130Y14940011D01*
X18418872Y14940011D01*
X18394312Y14942430D01*
X18296294Y14932776D01*
X18267704Y14924103D01*
X18202045Y14904186D01*
X18115183Y14857757D01*
X18039048Y14795275D01*
X18023383Y14776187D01*
X17987216Y14740020D01*
X15210031Y14740020D01*
X15210031Y17668944D01*
X17810000Y17668944D01*
X17810000Y17531056D01*
X17836901Y17395818D01*
X17889668Y17268426D01*
X17966274Y17153776D01*
X18063776Y17056274D01*
X18178426Y16979668D01*
X18305818Y16926901D01*
X18441056Y16900000D01*
X18578944Y16900000D01*
X18714182Y16926901D01*
X18841574Y16979668D01*
X18956224Y17056274D01*
X19053726Y17153776D01*
X19130332Y17268426D01*
X19183099Y17395818D01*
X19210000Y17531056D01*
X19210000Y17668944D01*
X19183099Y17804182D01*
X19130332Y17931574D01*
X19053726Y18046224D01*
X18956224Y18143726D01*
X18841574Y18220332D01*
X18714182Y18273099D01*
X18578944Y18300000D01*
X18441056Y18300000D01*
X18305818Y18273099D01*
X18178426Y18220332D01*
X18063776Y18143726D01*
X17966274Y18046224D01*
X17889668Y17931574D01*
X17836901Y17804182D01*
X17810000Y17668944D01*
X15210031Y17668944D01*
X15210031Y18323265D01*
X25000000Y18323265D01*
X25000000Y18096735D01*
X25044194Y17874557D01*
X25130884Y17665271D01*
X25256737Y17476918D01*
X25416918Y17316737D01*
X25605271Y17190884D01*
X25814557Y17104194D01*
X26036735Y17060000D01*
X26263265Y17060000D01*
X26485443Y17104194D01*
X26694729Y17190884D01*
X26883082Y17316737D01*
X27043263Y17476918D01*
X27169116Y17665271D01*
X27255806Y17874557D01*
X27300000Y18096735D01*
X27300000Y18323265D01*
X27540000Y18323265D01*
X27540000Y18096735D01*
X27584194Y17874557D01*
X27670884Y17665271D01*
X27796737Y17476918D01*
X27956918Y17316737D01*
X28145271Y17190884D01*
X28354557Y17104194D01*
X28576735Y17060000D01*
X28803265Y17060000D01*
X29025443Y17104194D01*
X29234729Y17190884D01*
X29423082Y17316737D01*
X29583263Y17476918D01*
X29709116Y17665271D01*
X29795806Y17874557D01*
X29840000Y18096735D01*
X29840000Y18323265D01*
X30080000Y18323265D01*
X30080000Y18096735D01*
X30124194Y17874557D01*
X30210884Y17665271D01*
X30336737Y17476918D01*
X30496918Y17316737D01*
X30685271Y17190884D01*
X30894557Y17104194D01*
X31116735Y17060000D01*
X31343265Y17060000D01*
X31565443Y17104194D01*
X31774729Y17190884D01*
X31963082Y17316737D01*
X32123263Y17476918D01*
X32249116Y17665271D01*
X32335806Y17874557D01*
X32380000Y18096735D01*
X32380000Y18323265D01*
X32335806Y18545443D01*
X32249116Y18754729D01*
X32123263Y18943082D01*
X31963082Y19103263D01*
X31774729Y19229116D01*
X31565443Y19315806D01*
X31343265Y19360000D01*
X31116735Y19360000D01*
X30894557Y19315806D01*
X30685271Y19229116D01*
X30496918Y19103263D01*
X30336737Y18943082D01*
X30210884Y18754729D01*
X30124194Y18545443D01*
X30080000Y18323265D01*
X29840000Y18323265D01*
X29795806Y18545443D01*
X29709116Y18754729D01*
X29583263Y18943082D01*
X29423082Y19103263D01*
X29234729Y19229116D01*
X29025443Y19315806D01*
X28803265Y19360000D01*
X28576735Y19360000D01*
X28354557Y19315806D01*
X28145271Y19229116D01*
X27956918Y19103263D01*
X27796737Y18943082D01*
X27670884Y18754729D01*
X27584194Y18545443D01*
X27540000Y18323265D01*
X27300000Y18323265D01*
X27255806Y18545443D01*
X27169116Y18754729D01*
X27043263Y18943082D01*
X26883082Y19103263D01*
X26694729Y19229116D01*
X26485443Y19315806D01*
X26263265Y19360000D01*
X26036735Y19360000D01*
X25814557Y19315806D01*
X25605271Y19229116D01*
X25416918Y19103263D01*
X25256737Y18943082D01*
X25130884Y18754729D01*
X25044194Y18545443D01*
X25000000Y18323265D01*
X15210031Y18323265D01*
X15210031Y21888944D01*
X28620000Y21888944D01*
X28620000Y21751056D01*
X28646901Y21615818D01*
X28699668Y21488426D01*
X28776274Y21373776D01*
X28873776Y21276274D01*
X28988426Y21199668D01*
X29115818Y21146901D01*
X29251056Y21120000D01*
X29388944Y21120000D01*
X29524182Y21146901D01*
X29651574Y21199668D01*
X29766224Y21276274D01*
X29863726Y21373776D01*
X29940332Y21488426D01*
X29993099Y21615818D01*
X30020000Y21751056D01*
X30020000Y21888944D01*
X29993099Y22024182D01*
X29940332Y22151574D01*
X29863726Y22266224D01*
X29766224Y22363726D01*
X29651574Y22440332D01*
X29524182Y22493099D01*
X29388944Y22520000D01*
X29251056Y22520000D01*
X29115818Y22493099D01*
X28988426Y22440332D01*
X28873776Y22363726D01*
X28776274Y22266224D01*
X28699668Y22151574D01*
X28646901Y22024182D01*
X28620000Y21888944D01*
X15210031Y21888944D01*
X15210031Y23647227D01*
X15486187Y23923382D01*
X15505265Y23939039D01*
X15567747Y24015174D01*
X15614176Y24102036D01*
X15642766Y24196286D01*
X15650001Y24269743D01*
X15652420Y24294303D01*
X15650001Y24318863D01*
X15650001Y25053444D01*
X15652420Y25078002D01*
X15648128Y25121574D01*
X15642766Y25176018D01*
X15614176Y25270268D01*
X15567747Y25357130D01*
X15505265Y25433265D01*
X15486182Y25448926D01*
X15096164Y25838944D01*
X17830000Y25838944D01*
X17830000Y25701056D01*
X17856901Y25565818D01*
X17909668Y25438426D01*
X17986274Y25323776D01*
X18083776Y25226274D01*
X18198426Y25149668D01*
X18325818Y25096901D01*
X18461056Y25070000D01*
X18598944Y25070000D01*
X18734182Y25096901D01*
X18861574Y25149668D01*
X18976224Y25226274D01*
X19073726Y25323776D01*
X19150332Y25438426D01*
X19203099Y25565818D01*
X19230000Y25701056D01*
X19230000Y25838944D01*
X19203099Y25974182D01*
X19150332Y26101574D01*
X19073726Y26216224D01*
X18976224Y26313726D01*
X18861574Y26390332D01*
X18734182Y26443099D01*
X18598944Y26470000D01*
X18461056Y26470000D01*
X18325818Y26443099D01*
X18198426Y26390332D01*
X18083776Y26313726D01*
X17986274Y26216224D01*
X17909668Y26101574D01*
X17856901Y25974182D01*
X17830000Y25838944D01*
X15096164Y25838944D01*
X14810021Y26125086D01*
X14810021Y32078651D01*
X14896181Y32164811D01*
X14915264Y32180472D01*
X14977746Y32256607D01*
X15024175Y32343469D01*
X15052765Y32437720D01*
X15055507Y32465557D01*
X15103726Y32513776D01*
X15180332Y32628426D01*
X15233099Y32755818D01*
X15260000Y32891056D01*
X15260000Y33028944D01*
X15233099Y33164182D01*
X15180332Y33291574D01*
X15103726Y33406224D01*
X15006224Y33503726D01*
X14891574Y33580332D01*
X14764182Y33633099D01*
X14628944Y33660000D01*
X14491056Y33660000D01*
X14410011Y33643879D01*
X14410011Y34008944D01*
X17840000Y34008944D01*
X17840000Y33871056D01*
X17866901Y33735818D01*
X17919668Y33608426D01*
X17996274Y33493776D01*
X18093776Y33396274D01*
X18208426Y33319668D01*
X18335818Y33266901D01*
X18471056Y33240000D01*
X18608944Y33240000D01*
X18744182Y33266901D01*
X18871574Y33319668D01*
X18986224Y33396274D01*
X19083726Y33493776D01*
X19160332Y33608426D01*
X19213099Y33735818D01*
X19240000Y33871056D01*
X19240000Y34008944D01*
X19213099Y34144182D01*
X19160332Y34271574D01*
X19083726Y34386224D01*
X18986224Y34483726D01*
X18871574Y34560332D01*
X18744182Y34613099D01*
X18608944Y34640000D01*
X18471056Y34640000D01*
X18335818Y34613099D01*
X18208426Y34560332D01*
X18093776Y34483726D01*
X17996274Y34386224D01*
X17919668Y34271574D01*
X17866901Y34144182D01*
X17840000Y34008944D01*
X14410011Y34008944D01*
X14410011Y35349207D01*
X16964069Y37903265D01*
X22460000Y37903265D01*
X22460000Y37676735D01*
X22504194Y37454557D01*
X22590884Y37245271D01*
X22716737Y37056918D01*
X22876918Y36896737D01*
X23065271Y36770884D01*
X23274557Y36684194D01*
X23496735Y36640000D01*
X23723265Y36640000D01*
X23945443Y36684194D01*
X24154729Y36770884D01*
X24343082Y36896737D01*
X24503263Y37056918D01*
X24629116Y37245271D01*
X24715806Y37454557D01*
X24760000Y37676735D01*
X24760000Y37903265D01*
X24715806Y38125443D01*
X24629116Y38334729D01*
X24503263Y38523082D01*
X24343082Y38683263D01*
X24154729Y38809116D01*
X23945443Y38895806D01*
X23723265Y38940000D01*
X23496735Y38940000D01*
X23274557Y38895806D01*
X23065271Y38809116D01*
X22876918Y38683263D01*
X22716737Y38523082D01*
X22590884Y38334729D01*
X22504194Y38125443D01*
X22460000Y37903265D01*
X16964069Y37903265D01*
X20226191Y41165385D01*
X20245274Y41181046D01*
X20307756Y41257181D01*
X20354185Y41344043D01*
X20382775Y41438293D01*
X20390010Y41511750D01*
X20390010Y41511751D01*
X20392429Y41536309D01*
X20390010Y41560869D01*
X20390010Y48362895D01*
X20426177Y48399062D01*
X20445265Y48414727D01*
X20507747Y48490862D01*
X20554176Y48577724D01*
X20582766Y48671974D01*
X20583929Y48683776D01*
X20592420Y48769991D01*
X20590001Y48794551D01*
X20590001Y49645439D01*
X20592420Y49669999D01*
X20582766Y49768016D01*
X20572124Y49803099D01*
X20554176Y49862266D01*
X20507747Y49949128D01*
X20445265Y50025263D01*
X20426182Y50040924D01*
X17210923Y53256182D01*
X17210918Y53256188D01*
X17153815Y53313291D01*
X17191963Y53405389D01*
X17240000Y53646886D01*
X17240000Y53893114D01*
X17280000Y53893114D01*
X17280000Y53646886D01*
X17328037Y53405389D01*
X17422265Y53177903D01*
X17559062Y52973172D01*
X17733172Y52799062D01*
X17937903Y52662265D01*
X18165389Y52568037D01*
X18406886Y52520000D01*
X18653114Y52520000D01*
X18894611Y52568037D01*
X19122097Y52662265D01*
X19326828Y52799062D01*
X19500938Y52973172D01*
X19637735Y53177903D01*
X19731963Y53405389D01*
X19780000Y53646886D01*
X19780000Y53893114D01*
X22360000Y53893114D01*
X22360000Y53646886D01*
X22408037Y53405389D01*
X22502265Y53177903D01*
X22639062Y52973172D01*
X22813172Y52799062D01*
X23017903Y52662265D01*
X23245389Y52568037D01*
X23486886Y52520000D01*
X23733114Y52520000D01*
X23974611Y52568037D01*
X24202097Y52662265D01*
X24406828Y52799062D01*
X24580938Y52973172D01*
X24717735Y53177903D01*
X24811963Y53405389D01*
X24860000Y53646886D01*
X24860000Y53893114D01*
X24811963Y54134611D01*
X24773815Y54226709D01*
X24967107Y54420001D01*
X25080955Y54420001D01*
X25042265Y54362097D01*
X24948037Y54134611D01*
X24900000Y53893114D01*
X24900000Y53646886D01*
X24948037Y53405389D01*
X25042265Y53177903D01*
X25179062Y52973172D01*
X25353172Y52799062D01*
X25557903Y52662265D01*
X25785389Y52568037D01*
X26026886Y52520000D01*
X26273114Y52520000D01*
X26514611Y52568037D01*
X26606708Y52606185D01*
X26700001Y52512892D01*
X26700001Y51885593D01*
X26694729Y51889116D01*
X26485443Y51975806D01*
X26263265Y52020000D01*
X26036735Y52020000D01*
X25814557Y51975806D01*
X25605271Y51889116D01*
X25416918Y51763263D01*
X25256737Y51603082D01*
X25130884Y51414729D01*
X25044194Y51205443D01*
X25000000Y50983265D01*
X25000000Y50756735D01*
X25044194Y50534557D01*
X25130884Y50325271D01*
X25256737Y50136918D01*
X25416918Y49976737D01*
X25605271Y49850884D01*
X25814557Y49764194D01*
X26036735Y49720000D01*
X26263265Y49720000D01*
X26485443Y49764194D01*
X26694729Y49850884D01*
X26700001Y49854407D01*
X26700002Y38805593D01*
X26694729Y38809116D01*
X26485443Y38895806D01*
X26263265Y38940000D01*
X26036735Y38940000D01*
X25814557Y38895806D01*
X25605271Y38809116D01*
X25416918Y38683263D01*
X25256737Y38523082D01*
X25130884Y38334729D01*
X25044194Y38125443D01*
X25000000Y37903265D01*
X25000000Y37676735D01*
X25044194Y37454557D01*
X25130884Y37245271D01*
X25256737Y37056918D01*
X25416918Y36896737D01*
X25605271Y36770884D01*
X25814557Y36684194D01*
X26036735Y36640000D01*
X26263265Y36640000D01*
X26485443Y36684194D01*
X26694729Y36770884D01*
X26700002Y36774407D01*
X26700002Y36324569D01*
X26697582Y36299999D01*
X26707236Y36201982D01*
X26723005Y36150000D01*
X26661056Y36150000D01*
X26525818Y36123099D01*
X26398426Y36070332D01*
X26283776Y35993726D01*
X26186274Y35896224D01*
X26109668Y35781574D01*
X26056901Y35654182D01*
X26030000Y35518944D01*
X26030000Y35381056D01*
X26056901Y35245818D01*
X26109668Y35118426D01*
X26186274Y35003776D01*
X26283776Y34906274D01*
X26398426Y34829668D01*
X26525818Y34776901D01*
X26661056Y34750000D01*
X26798944Y34750000D01*
X26934182Y34776901D01*
X27061574Y34829668D01*
X27176224Y34906274D01*
X27273726Y35003776D01*
X27350332Y35118426D01*
X27403099Y35245818D01*
X27426987Y35365908D01*
X28620000Y34172893D01*
X28620000Y34111056D01*
X28646901Y33975818D01*
X28699668Y33848426D01*
X28776274Y33733776D01*
X28873776Y33636274D01*
X28988426Y33559668D01*
X29115818Y33506901D01*
X29251056Y33480000D01*
X29388944Y33480000D01*
X29524182Y33506901D01*
X29651574Y33559668D01*
X29766224Y33636274D01*
X29863726Y33733776D01*
X29940332Y33848426D01*
X29960000Y33895909D01*
X29979668Y33848426D01*
X30056274Y33733776D01*
X30153776Y33636274D01*
X30268426Y33559668D01*
X30395818Y33506901D01*
X30531056Y33480000D01*
X30668944Y33480000D01*
X30804182Y33506901D01*
X30931574Y33559668D01*
X31046224Y33636274D01*
X31143726Y33733776D01*
X31220332Y33848426D01*
X31273099Y33975818D01*
X31300000Y34111056D01*
X31300000Y34248944D01*
X31273099Y34384182D01*
X31220332Y34511574D01*
X31143726Y34626224D01*
X31046224Y34723726D01*
X30931574Y34800332D01*
X30804182Y34853099D01*
X30668944Y34880000D01*
X30607106Y34880000D01*
X30370928Y35116177D01*
X30355263Y35135265D01*
X30279128Y35197747D01*
X30192266Y35244176D01*
X30098016Y35272766D01*
X30024559Y35280001D01*
X29999999Y35282420D01*
X29975439Y35280001D01*
X29492803Y35280001D01*
X28100011Y36672792D01*
X28100011Y36801126D01*
X28145271Y36770884D01*
X28354557Y36684194D01*
X28576735Y36640000D01*
X28803265Y36640000D01*
X29025443Y36684194D01*
X29234729Y36770884D01*
X29423082Y36896737D01*
X29583263Y37056918D01*
X29709116Y37245271D01*
X29795806Y37454557D01*
X29840000Y37676735D01*
X29840000Y37903265D01*
X30080000Y37903265D01*
X30080000Y37676735D01*
X30124194Y37454557D01*
X30210884Y37245271D01*
X30336737Y37056918D01*
X30496918Y36896737D01*
X30685271Y36770884D01*
X30894557Y36684194D01*
X31116735Y36640000D01*
X31343265Y36640000D01*
X31565443Y36684194D01*
X31616351Y36705281D01*
X31586901Y36634182D01*
X31560000Y36498944D01*
X31560000Y36361056D01*
X31586901Y36225818D01*
X31639668Y36098426D01*
X31716274Y35983776D01*
X31813776Y35886274D01*
X31928426Y35809668D01*
X32055818Y35756901D01*
X32191056Y35730000D01*
X32328944Y35730000D01*
X32464182Y35756901D01*
X32591574Y35809668D01*
X32706224Y35886274D01*
X32803726Y35983776D01*
X32880332Y36098426D01*
X32933099Y36225818D01*
X32960000Y36361056D01*
X32960000Y36498944D01*
X32933099Y36634182D01*
X32880332Y36761574D01*
X32803726Y36876224D01*
X32706224Y36973726D01*
X32591574Y37050332D01*
X32464182Y37103099D01*
X32328944Y37130000D01*
X32191056Y37130000D01*
X32169188Y37125650D01*
X32249116Y37245271D01*
X32335806Y37454557D01*
X32380000Y37676735D01*
X32380000Y37903265D01*
X32335806Y38125443D01*
X32249116Y38334729D01*
X32123263Y38523082D01*
X31963082Y38683263D01*
X31774729Y38809116D01*
X31565443Y38895806D01*
X31343265Y38940000D01*
X31116735Y38940000D01*
X30894557Y38895806D01*
X30685271Y38809116D01*
X30496918Y38683263D01*
X30336737Y38523082D01*
X30210884Y38334729D01*
X30124194Y38125443D01*
X30080000Y37903265D01*
X29840000Y37903265D01*
X29795806Y38125443D01*
X29709116Y38334729D01*
X29583263Y38523082D01*
X29423082Y38683263D01*
X29234729Y38809116D01*
X29025443Y38895806D01*
X28803265Y38940000D01*
X28576735Y38940000D01*
X28354557Y38895806D01*
X28145271Y38809116D01*
X28100011Y38778874D01*
X28100011Y49881126D01*
X28145271Y49850884D01*
X28354557Y49764194D01*
X28576735Y49720000D01*
X28803265Y49720000D01*
X29025443Y49764194D01*
X29234729Y49850884D01*
X29423082Y49976737D01*
X29583263Y50136918D01*
X29709116Y50325271D01*
X29795806Y50534557D01*
X29840000Y50756735D01*
X29840000Y50983265D01*
X30080000Y50983265D01*
X30080000Y50756735D01*
X30124194Y50534557D01*
X30210884Y50325271D01*
X30336737Y50136918D01*
X30496918Y49976737D01*
X30685271Y49850884D01*
X30894557Y49764194D01*
X31116735Y49720000D01*
X31343265Y49720000D01*
X31565443Y49764194D01*
X31774729Y49850884D01*
X31963082Y49976737D01*
X32123263Y50136918D01*
X32249116Y50325271D01*
X32335806Y50534557D01*
X32380000Y50756735D01*
X32380000Y50983265D01*
X32335806Y51205443D01*
X32249116Y51414729D01*
X32123263Y51603082D01*
X31963082Y51763263D01*
X31774729Y51889116D01*
X31565443Y51975806D01*
X31343265Y52020000D01*
X31116735Y52020000D01*
X30894557Y51975806D01*
X30685271Y51889116D01*
X30496918Y51763263D01*
X30336737Y51603082D01*
X30210884Y51414729D01*
X30124194Y51205443D01*
X30080000Y50983265D01*
X29840000Y50983265D01*
X29795806Y51205443D01*
X29709116Y51414729D01*
X29583263Y51603082D01*
X29423082Y51763263D01*
X29234729Y51889116D01*
X29025443Y51975806D01*
X28803265Y52020000D01*
X28576735Y52020000D01*
X28354557Y51975806D01*
X28145271Y51889116D01*
X28100011Y51858874D01*
X28100011Y52861128D01*
X28102430Y52885688D01*
X28092776Y52983704D01*
X28089263Y52995285D01*
X28064186Y53077955D01*
X28039999Y53123205D01*
X28039999Y54205452D01*
X28042417Y54230002D01*
X28039999Y54254552D01*
X28039999Y54254561D01*
X28032764Y54328018D01*
X28004174Y54422268D01*
X27957745Y54509130D01*
X27895263Y54585265D01*
X27876185Y54600921D01*
X27220928Y55256177D01*
X27205263Y55275265D01*
X27129128Y55337747D01*
X27042266Y55384176D01*
X26948016Y55412766D01*
X26874559Y55420001D01*
X26849999Y55422420D01*
X26825439Y55420001D01*
X24784560Y55420001D01*
X24760000Y55422420D01*
X24661983Y55412766D01*
X24633393Y55404093D01*
X24567734Y55384176D01*
X24480872Y55337747D01*
X24404737Y55275265D01*
X24389076Y55256182D01*
X24066709Y54933815D01*
X23974611Y54971963D01*
X23733114Y55020000D01*
X23486886Y55020000D01*
X23245389Y54971963D01*
X23017903Y54877735D01*
X22813172Y54740938D01*
X22639062Y54566828D01*
X22502265Y54362097D01*
X22408037Y54134611D01*
X22360000Y53893114D01*
X19780000Y53893114D01*
X19731963Y54134611D01*
X19637735Y54362097D01*
X19500938Y54566828D01*
X19326828Y54740938D01*
X19122097Y54877735D01*
X18894611Y54971963D01*
X18653114Y55020000D01*
X18406886Y55020000D01*
X18165389Y54971963D01*
X17937903Y54877735D01*
X17733172Y54740938D01*
X17559062Y54566828D01*
X17422265Y54362097D01*
X17328037Y54134611D01*
X17280000Y53893114D01*
X17240000Y53893114D01*
X17191963Y54134611D01*
X17097735Y54362097D01*
X16960938Y54566828D01*
X16786828Y54740938D01*
X16582097Y54877735D01*
X16354611Y54971963D01*
X16113114Y55020000D01*
X15866886Y55020000D01*
X15625389Y54971963D01*
X15397903Y54877735D01*
X15193172Y54740938D01*
X15019062Y54566828D01*
X14882265Y54362097D01*
X14788037Y54134611D01*
X14740000Y53893114D01*
X14740000Y53646886D01*
X14788037Y53405389D01*
X14826185Y53313291D01*
X13263819Y51750924D01*
X13244737Y51735264D01*
X13182255Y51659129D01*
X13169795Y51635818D01*
X13135826Y51572267D01*
X13107235Y51478017D01*
X13097581Y51380000D01*
X13100001Y51355430D01*
X13100000Y49619950D01*
X13056274Y49576224D01*
X12979668Y49461574D01*
X12963812Y49423294D01*
X12790000Y49597105D01*
X12790000Y52402895D01*
X12993291Y52606185D01*
X13085389Y52568037D01*
X13326886Y52520000D01*
X13573114Y52520000D01*
X13814611Y52568037D01*
X14042097Y52662265D01*
X14246828Y52799062D01*
X14420938Y52973172D01*
X14557735Y53177903D01*
X14651963Y53405389D01*
X14700000Y53646886D01*
X14700000Y53893114D01*
X14651963Y54134611D01*
X14557735Y54362097D01*
X14420938Y54566828D01*
X14246828Y54740938D01*
X14042097Y54877735D01*
X13814611Y54971963D01*
X13573114Y55020000D01*
X13326886Y55020000D01*
X13085389Y54971963D01*
X12857903Y54877735D01*
X12653172Y54740938D01*
X12479062Y54566828D01*
X12342265Y54362097D01*
X12248037Y54134611D01*
X12200000Y53893114D01*
X12200000Y53646886D01*
X12248037Y53405389D01*
X12286185Y53313291D01*
X11953819Y52980924D01*
X11934737Y52965264D01*
X11872255Y52889129D01*
X11861996Y52869936D01*
X11825826Y52802267D01*
X11797235Y52708017D01*
X11787581Y52610000D01*
X11790001Y52585430D01*
X11790000Y49414560D01*
X11787581Y49390000D01*
X11790000Y49365441D01*
X11797235Y49291984D01*
X11825825Y49197734D01*
X11872254Y49110871D01*
X11934736Y49034736D01*
X11953824Y49019071D01*
X12910000Y48062894D01*
X12910000Y48001056D01*
X12930498Y47898008D01*
X12905818Y47893099D01*
X12778426Y47840332D01*
X12663776Y47763726D01*
X12566274Y47666224D01*
X12489668Y47551574D01*
X12436901Y47424182D01*
X12410000Y47288944D01*
X12410000Y47151056D01*
X12436901Y47015818D01*
X12489668Y46888426D01*
X12566274Y46773776D01*
X12663776Y46676274D01*
X12778426Y46599668D01*
X12905818Y46546901D01*
X13041056Y46520000D01*
X13178944Y46520000D01*
X13314182Y46546901D01*
X13441574Y46599668D01*
X13556224Y46676274D01*
X13653726Y46773776D01*
X13730332Y46888426D01*
X13783099Y47015818D01*
X13810000Y47151056D01*
X13810000Y47288944D01*
X13789502Y47391992D01*
X13814182Y47396901D01*
X13941574Y47449668D01*
X14056224Y47526274D01*
X14153726Y47623776D01*
X14230332Y47738426D01*
X14283099Y47865818D01*
X14310000Y48001056D01*
X14310000Y48138944D01*
X14283099Y48274182D01*
X14230332Y48401574D01*
X14153726Y48516224D01*
X14064950Y48605000D01*
X14143726Y48683776D01*
X14220332Y48798426D01*
X14273099Y48925818D01*
X14300000Y49061056D01*
X14300000Y49198944D01*
X14273099Y49334182D01*
X14220332Y49461574D01*
X14143726Y49576224D01*
X14100000Y49619950D01*
X14100000Y51172895D01*
X15533291Y52606185D01*
X15625389Y52568037D01*
X15866886Y52520000D01*
X16113114Y52520000D01*
X16354611Y52568037D01*
X16446709Y52606185D01*
X16503812Y52549082D01*
X16503818Y52549077D01*
X19124938Y49927956D01*
X19043776Y49873726D01*
X18946274Y49776224D01*
X18869668Y49661574D01*
X18816901Y49534182D01*
X18790000Y49398944D01*
X18790000Y49261056D01*
X18816901Y49125818D01*
X18869668Y48998426D01*
X18946274Y48883776D01*
X18990001Y48840049D01*
X18990000Y42649950D01*
X18976224Y42663726D01*
X18861574Y42740332D01*
X18734182Y42793099D01*
X18598944Y42820000D01*
X18461056Y42820000D01*
X18325818Y42793099D01*
X18198426Y42740332D01*
X18083776Y42663726D01*
X17986274Y42566224D01*
X17909668Y42451574D01*
X17856901Y42324182D01*
X17830000Y42188944D01*
X17830000Y42051056D01*
X17856901Y41915818D01*
X17909668Y41788426D01*
X17986274Y41673776D01*
X18083776Y41576274D01*
X18198426Y41499668D01*
X18325818Y41446901D01*
X18461056Y41420000D01*
X18500895Y41420000D01*
X13609990Y36529094D01*
X13609990Y39482885D01*
X14567107Y40440000D01*
X14628944Y40440000D01*
X14764182Y40466901D01*
X14891574Y40519668D01*
X15006224Y40596274D01*
X15103726Y40693776D01*
X15180332Y40808426D01*
X15233099Y40935818D01*
X15260000Y41071056D01*
X15260000Y41208944D01*
X15233099Y41344182D01*
X15180332Y41471574D01*
X15103726Y41586224D01*
X15006224Y41683726D01*
X14891574Y41760332D01*
X14764182Y41813099D01*
X14628944Y41840000D01*
X14491056Y41840000D01*
X14355818Y41813099D01*
X14228426Y41760332D01*
X14113776Y41683726D01*
X14016274Y41586224D01*
X13939668Y41471574D01*
X13886901Y41344182D01*
X13860000Y41208944D01*
X13860000Y41147107D01*
X12773814Y40060919D01*
X12754726Y40045254D01*
X12692244Y39969119D01*
X12645815Y39882256D01*
X12625898Y39816597D01*
X12617225Y39788007D01*
X12607571Y39689990D01*
X12609990Y39665430D01*
X12609991Y24613414D01*
X12514182Y24653099D01*
X12378944Y24680000D01*
X12241056Y24680000D01*
X12105818Y24653099D01*
X11978426Y24600332D01*
X11863776Y24523726D01*
X11766274Y24426224D01*
X11689668Y24311574D01*
X11636901Y24184182D01*
X11610000Y24048944D01*
X11610000Y23911056D01*
X11636901Y23775818D01*
X11689668Y23648426D01*
X11766274Y23533776D01*
X11863776Y23436274D01*
X11978426Y23359668D01*
X12105818Y23306901D01*
X12241056Y23280000D01*
X12378944Y23280000D01*
X12514182Y23306901D01*
X12609991Y23346586D01*
X12609991Y16207098D01*
X12252894Y15850000D01*
X12191056Y15850000D01*
X12055818Y15823099D01*
X11928426Y15770332D01*
X11813776Y15693726D01*
X11716274Y15596224D01*
X11639668Y15481574D01*
X11586901Y15354182D01*
X11560000Y15218944D01*
X11560000Y15081056D01*
X11586901Y14945818D01*
X11639668Y14818426D01*
X11716274Y14703776D01*
X11813776Y14606274D01*
X11928426Y14529668D01*
X12055818Y14476901D01*
X12191056Y14450000D01*
X12328944Y14450000D01*
X12464182Y14476901D01*
X12591574Y14529668D01*
X12706224Y14606274D01*
X12803726Y14703776D01*
X12880332Y14818426D01*
X12933099Y14945818D01*
X12960000Y15081056D01*
X12960000Y15142894D01*
X13010000Y15192894D01*
X13010000Y9937107D01*
X10462895Y7390000D01*
X10401056Y7390000D01*
X10265818Y7363099D01*
X10138426Y7310332D01*
X10023776Y7233726D01*
X9926274Y7136224D01*
X9849668Y7021574D01*
X9796901Y6894182D01*
X9770000Y6758944D01*
X9770000Y6621056D01*
X9780148Y6570041D01*
X9180000Y6570041D01*
X9180000Y6781150D01*
X9182418Y6805700D01*
X9180000Y6830250D01*
X9180000Y6830259D01*
X9172765Y6903716D01*
X9170021Y6912762D01*
X9170021Y7584822D01*
X9172440Y7609382D01*
X9167149Y7663099D01*
X9162786Y7707396D01*
X9134196Y7801646D01*
X9087767Y7888508D01*
X9025285Y7964643D01*
X9006200Y7980306D01*
X8970030Y8016475D01*
X8970030Y10678944D01*
X9770000Y10678944D01*
X9770000Y10541056D01*
X9796901Y10405818D01*
X9849668Y10278426D01*
X9926274Y10163776D01*
X9970000Y10120050D01*
X9970001Y9129951D01*
X9926274Y9086224D01*
X9849668Y8971574D01*
X9796901Y8844182D01*
X9770000Y8708944D01*
X9770000Y8571056D01*
X9796901Y8435818D01*
X9849668Y8308426D01*
X9926274Y8193776D01*
X10023776Y8096274D01*
X10138426Y8019668D01*
X10265818Y7966901D01*
X10401056Y7940000D01*
X10538944Y7940000D01*
X10674182Y7966901D01*
X10801574Y8019668D01*
X10916224Y8096274D01*
X11013726Y8193776D01*
X11090332Y8308426D01*
X11143099Y8435818D01*
X11170000Y8571056D01*
X11170000Y8708944D01*
X11143099Y8844182D01*
X11090332Y8971574D01*
X11013726Y9086224D01*
X10970000Y9129950D01*
X10970000Y10120050D01*
X11013726Y10163776D01*
X11090332Y10278426D01*
X11143099Y10405818D01*
X11170000Y10541056D01*
X11170000Y10678944D01*
X11143099Y10814182D01*
X11090332Y10941574D01*
X11013726Y11056224D01*
X10916224Y11153726D01*
X10801574Y11230332D01*
X10674182Y11283099D01*
X10538944Y11310000D01*
X10401056Y11310000D01*
X10265818Y11283099D01*
X10138426Y11230332D01*
X10023776Y11153726D01*
X9926274Y11056224D01*
X9849668Y10941574D01*
X9796901Y10814182D01*
X9770000Y10678944D01*
X8970030Y10678944D01*
X8970030Y13513527D01*
X9006197Y13549694D01*
X9025285Y13565359D01*
X9087767Y13641494D01*
X9134196Y13728356D01*
X9159241Y13810919D01*
X9162786Y13822605D01*
X9172440Y13920623D01*
X9170021Y13945183D01*
X9170021Y20007218D01*
X9932804Y20769999D01*
X10023441Y20769999D01*
X10048001Y20767580D01*
X10072561Y20769999D01*
X10146018Y20777234D01*
X10240268Y20805824D01*
X10327130Y20852253D01*
X10403265Y20914735D01*
X10418930Y20933823D01*
X10696182Y21211074D01*
X10715265Y21226735D01*
X10777747Y21302870D01*
X10824176Y21389732D01*
X10852766Y21483982D01*
X10860001Y21557439D01*
X10862420Y21581999D01*
X10860001Y21606559D01*
X10860001Y22133441D01*
X10862420Y22158001D01*
X10852766Y22256018D01*
X10846179Y22277733D01*
X10824176Y22350268D01*
X10777747Y22437130D01*
X10715265Y22513265D01*
X10696182Y22528926D01*
X10418930Y22806177D01*
X10403265Y22825265D01*
X10327130Y22887747D01*
X10240268Y22934176D01*
X10146018Y22962766D01*
X10072561Y22970001D01*
X10048001Y22972420D01*
X10023441Y22970001D01*
X8474561Y22970001D01*
X8450001Y22972420D01*
X8425441Y22970001D01*
X8351984Y22962766D01*
X8257734Y22934176D01*
X8170872Y22887747D01*
X8094737Y22825265D01*
X8079081Y22806187D01*
X7842894Y22570000D01*
X7781056Y22570000D01*
X7645818Y22543099D01*
X7518426Y22490332D01*
X7403776Y22413726D01*
X7306274Y22316224D01*
X7229668Y22201574D01*
X7176901Y22074182D01*
X7150000Y21938944D01*
X7150000Y21801056D01*
X7176901Y21665818D01*
X7229668Y21538426D01*
X7306274Y21423776D01*
X7403776Y21326274D01*
X7518426Y21249668D01*
X7645818Y21196901D01*
X7781056Y21170000D01*
X7918944Y21170000D01*
X8054182Y21196901D01*
X8181574Y21249668D01*
X8296224Y21326274D01*
X8393726Y21423776D01*
X8470332Y21538426D01*
X8523099Y21665818D01*
X8550000Y21801056D01*
X8550000Y21862894D01*
X8657107Y21970001D01*
X9066178Y21970001D01*
X9060000Y21938944D01*
X9060000Y21877107D01*
X7933835Y20750940D01*
X7914747Y20735275D01*
X7859343Y20667764D01*
X6650000Y21877105D01*
X6650000Y21938944D01*
X6623099Y22074182D01*
X6570332Y22201574D01*
X6493726Y22316224D01*
X6396224Y22413726D01*
X6281574Y22490332D01*
X6154182Y22543099D01*
X6018944Y22570000D01*
X5881056Y22570000D01*
X5745818Y22543099D01*
X5618426Y22490332D01*
X5503776Y22413726D01*
X5406274Y22316224D01*
X5329668Y22201574D01*
X5276901Y22074182D01*
X5250000Y21938944D01*
X5250000Y21801056D01*
X5276901Y21665818D01*
X5329668Y21538426D01*
X5406274Y21423776D01*
X5503776Y21326274D01*
X5618426Y21249668D01*
X5745818Y21196901D01*
X5881056Y21170000D01*
X5942895Y21170000D01*
X7370001Y19742892D01*
X7370002Y17053822D01*
X7338944Y17060000D01*
X7201056Y17060000D01*
X7065818Y17033099D01*
X6938426Y16980332D01*
X6823776Y16903726D01*
X6726274Y16806224D01*
X6649668Y16691574D01*
X6596901Y16564182D01*
X6570000Y16428944D01*
X6570000Y16291056D01*
X6596901Y16155818D01*
X6649668Y16028426D01*
X6726274Y15913776D01*
X6823776Y15816274D01*
X6938426Y15739668D01*
X7065818Y15686901D01*
X7201056Y15660000D01*
X7338944Y15660000D01*
X7370002Y15666178D01*
X7370002Y15233824D01*
X7338944Y15240002D01*
X7201056Y15240002D01*
X7065818Y15213101D01*
X6938426Y15160334D01*
X6823776Y15083728D01*
X6726274Y14986226D01*
X6649668Y14871576D01*
X6596901Y14744184D01*
X6570000Y14608946D01*
X6570000Y14471058D01*
X6596901Y14335820D01*
X6649668Y14208428D01*
X6726274Y14093778D01*
X6770001Y14050051D01*
X6770000Y7479950D01*
X6726274Y7436224D01*
X6658305Y7334501D01*
X5075608Y8917197D01*
X5081574Y8919668D01*
X5196224Y8996274D01*
X5293726Y9093776D01*
X5370332Y9208426D01*
X5423099Y9335818D01*
X5450000Y9471056D01*
X5450000Y9608944D01*
X5423099Y9744182D01*
X5370332Y9871574D01*
X5293726Y9986224D01*
X5196224Y10083726D01*
X5081574Y10160332D01*
X4954182Y10213099D01*
X4818944Y10240000D01*
X4681056Y10240000D01*
X4545818Y10213099D01*
X4460011Y10177557D01*
X4460011Y10452443D01*
X4545818Y10416901D01*
X4681056Y10390000D01*
X4818944Y10390000D01*
X4954182Y10416901D01*
X5081574Y10469668D01*
X5196224Y10546274D01*
X5293726Y10643776D01*
X5370332Y10758426D01*
X5423099Y10885818D01*
X5450000Y11021056D01*
X5450000Y11158944D01*
X5423099Y11294182D01*
X5370332Y11421574D01*
X5293726Y11536224D01*
X5196224Y11633726D01*
X5081574Y11710332D01*
X4954182Y11763099D01*
X4818944Y11790000D01*
X4681056Y11790000D01*
X4545818Y11763099D01*
X4460011Y11727557D01*
X4460011Y40208946D01*
X8239998Y40208946D01*
X8239998Y40071058D01*
X8266899Y39935820D01*
X8319666Y39808428D01*
X8396272Y39693778D01*
X8493774Y39596276D01*
X8608424Y39519670D01*
X8735816Y39466903D01*
X8871054Y39440002D01*
X9008942Y39440002D01*
X9144180Y39466903D01*
X9271572Y39519670D01*
X9386222Y39596276D01*
X9483724Y39693778D01*
X9560330Y39808428D01*
X9613097Y39935820D01*
X9639998Y40071058D01*
X9639998Y40208946D01*
X9613097Y40344184D01*
X9560330Y40471576D01*
X9483724Y40586226D01*
X9386222Y40683728D01*
X9271572Y40760334D01*
X9144180Y40813101D01*
X9008942Y40840002D01*
X8871054Y40840002D01*
X8735816Y40813101D01*
X8608424Y40760334D01*
X8493774Y40683728D01*
X8396272Y40586226D01*
X8319666Y40471576D01*
X8266899Y40344184D01*
X8239998Y40208946D01*
X4460011Y40208946D01*
X4460011Y42777208D01*
X8981427Y47298623D01*
X8993776Y47286274D01*
X9108426Y47209668D01*
X9235818Y47156901D01*
X9371056Y47130000D01*
X9508944Y47130000D01*
X9644182Y47156901D01*
X9670000Y47167595D01*
X9670000Y47151056D01*
X9696901Y47015818D01*
X9749668Y46888426D01*
X9826274Y46773776D01*
X9923776Y46676274D01*
X10038426Y46599668D01*
X10165818Y46546901D01*
X10301056Y46520000D01*
X10438944Y46520000D01*
X10574182Y46546901D01*
X10701574Y46599668D01*
X10816224Y46676274D01*
X10913726Y46773776D01*
X10990332Y46888426D01*
X11043099Y47015818D01*
X11070000Y47151056D01*
X11070000Y47288944D01*
X11043099Y47424182D01*
X10990332Y47551574D01*
X10913726Y47666224D01*
X10816224Y47763726D01*
X10701574Y47840332D01*
X10574182Y47893099D01*
X10438944Y47920000D01*
X10301056Y47920000D01*
X10165818Y47893099D01*
X10140000Y47882405D01*
X10140000Y47898944D01*
X10113099Y48034182D01*
X10060332Y48161574D01*
X9983726Y48276224D01*
X9886224Y48373726D01*
X9771574Y48450332D01*
X9644182Y48503099D01*
X9610000Y48509898D01*
X9610000Y48568944D01*
X9583099Y48704182D01*
X9530332Y48831574D01*
X9453726Y48946224D01*
X9356224Y49043726D01*
X9241574Y49120332D01*
X9114182Y49173099D01*
X8978944Y49200000D01*
X8841056Y49200000D01*
X8705818Y49173099D01*
X8578426Y49120332D01*
X8463776Y49043726D01*
X8366274Y48946224D01*
X8289668Y48831574D01*
X8236901Y48704182D01*
X8210000Y48568944D01*
X8210000Y48507107D01*
X3472605Y43769710D01*
X3480000Y43806886D01*
X3480000Y44053114D01*
X3431963Y44294611D01*
X3337735Y44522097D01*
X3200938Y44726828D01*
X3026828Y44900938D01*
X2822097Y45037735D01*
X2594611Y45131963D01*
X2353114Y45180000D01*
X2106886Y45180000D01*
X1865389Y45131963D01*
X1637903Y45037735D01*
X1433172Y44900938D01*
X1259062Y44726828D01*
X1122265Y44522097D01*
X1028037Y44294611D01*
X980000Y44053114D01*
X450000Y44053114D01*
X450000Y49478944D01*
X6920000Y49478944D01*
X6920000Y49341056D01*
X6946901Y49205818D01*
X6999668Y49078426D01*
X7076274Y48963776D01*
X7173776Y48866274D01*
X7288426Y48789668D01*
X7415818Y48736901D01*
X7551056Y48710000D01*
X7688944Y48710000D01*
X7824182Y48736901D01*
X7951574Y48789668D01*
X8066224Y48866274D01*
X8163726Y48963776D01*
X8240332Y49078426D01*
X8293099Y49205818D01*
X8320000Y49341056D01*
X8320000Y49478944D01*
X8293099Y49614182D01*
X8240332Y49741574D01*
X8163726Y49856224D01*
X8066224Y49953726D01*
X7951574Y50030332D01*
X7824182Y50083099D01*
X7688944Y50110000D01*
X7551056Y50110000D01*
X7415818Y50083099D01*
X7288426Y50030332D01*
X7173776Y49953726D01*
X7076274Y49856224D01*
X6999668Y49741574D01*
X6946901Y49614182D01*
X6920000Y49478944D01*
X450000Y49478944D01*
X450000Y52977994D01*
X500681Y53494876D01*
X644403Y53970906D01*
X777114Y54220500D01*
X7118065Y54220500D01*
X7118065Y53319500D01*
X7133464Y53163148D01*
X7179071Y53012804D01*
X7253131Y52874247D01*
X7352800Y52752800D01*
X7474247Y52653131D01*
X7612804Y52579071D01*
X7763148Y52533464D01*
X7919500Y52518065D01*
X8820500Y52518065D01*
X8976852Y52533464D01*
X9127196Y52579071D01*
X9265753Y52653131D01*
X9387200Y52752800D01*
X9486869Y52874247D01*
X9560929Y53012804D01*
X9606536Y53163148D01*
X9621935Y53319500D01*
X9621935Y53893114D01*
X9660000Y53893114D01*
X9660000Y53646886D01*
X9708037Y53405389D01*
X9802265Y53177903D01*
X9939062Y52973172D01*
X10113172Y52799062D01*
X10317903Y52662265D01*
X10545389Y52568037D01*
X10686340Y52540000D01*
X10631056Y52540000D01*
X10495818Y52513099D01*
X10368426Y52460332D01*
X10253776Y52383726D01*
X10156274Y52286224D01*
X10079668Y52171574D01*
X10026901Y52044182D01*
X10000000Y51908944D01*
X10000000Y51771056D01*
X10026901Y51635818D01*
X10079668Y51508426D01*
X10156274Y51393776D01*
X10253776Y51296274D01*
X10368426Y51219668D01*
X10495818Y51166901D01*
X10631056Y51140000D01*
X10768944Y51140000D01*
X10904182Y51166901D01*
X11031574Y51219668D01*
X11146224Y51296274D01*
X11243726Y51393776D01*
X11320332Y51508426D01*
X11373099Y51635818D01*
X11400000Y51771056D01*
X11400000Y51908944D01*
X11373099Y52044182D01*
X11320332Y52171574D01*
X11243726Y52286224D01*
X11146224Y52383726D01*
X11031574Y52460332D01*
X10904182Y52513099D01*
X10869489Y52520000D01*
X11033114Y52520000D01*
X11274611Y52568037D01*
X11502097Y52662265D01*
X11706828Y52799062D01*
X11880938Y52973172D01*
X12017735Y53177903D01*
X12111963Y53405389D01*
X12160000Y53646886D01*
X12160000Y53893114D01*
X12111963Y54134611D01*
X12017735Y54362097D01*
X11880938Y54566828D01*
X11706828Y54740938D01*
X11502097Y54877735D01*
X11274611Y54971963D01*
X11033114Y55020000D01*
X10786886Y55020000D01*
X10545389Y54971963D01*
X10317903Y54877735D01*
X10113172Y54740938D01*
X9939062Y54566828D01*
X9802265Y54362097D01*
X9708037Y54134611D01*
X9660000Y53893114D01*
X9621935Y53893114D01*
X9621935Y54220500D01*
X9606536Y54376852D01*
X9560929Y54527196D01*
X9486869Y54665753D01*
X9387200Y54787200D01*
X9265753Y54886869D01*
X9127196Y54960929D01*
X8976852Y55006536D01*
X8820500Y55021935D01*
X7919500Y55021935D01*
X7763148Y55006536D01*
X7612804Y54960929D01*
X7474247Y54886869D01*
X7352800Y54787200D01*
X7253131Y54665753D01*
X7179071Y54527196D01*
X7133464Y54376852D01*
X7118065Y54220500D01*
X777114Y54220500D01*
X877850Y54409957D01*
X1192125Y54795296D01*
X1575266Y55112258D01*
X2012670Y55348761D01*
X2487684Y55495803D01*
X3003335Y55550000D01*
X30977994Y55550000D01*
X31494876Y55499319D01*
G37*
X31494876Y55499319D02*
X31970906Y55355597D01*
X32409957Y55122150D01*
X32795296Y54807875D01*
X33112258Y54424734D01*
X33348761Y53987330D01*
X33495803Y53512316D01*
X33550001Y52996656D01*
X33550000Y3022005D01*
X33499319Y2505124D01*
X33355596Y2029090D01*
X33122152Y1590046D01*
X32807875Y1204704D01*
X32424735Y887743D01*
X31987329Y651239D01*
X31512316Y504197D01*
X30996664Y450000D01*
X3022005Y450000D01*
X2505124Y500681D01*
X2029090Y644404D01*
X1590046Y877848D01*
X1204704Y1192125D01*
X887743Y1575265D01*
X651239Y2012671D01*
X504197Y2487684D01*
X483932Y2680500D01*
X7118065Y2680500D01*
X7118065Y1779500D01*
X7133464Y1623148D01*
X7179071Y1472804D01*
X7253131Y1334247D01*
X7352800Y1212800D01*
X7474247Y1113131D01*
X7612804Y1039071D01*
X7763148Y993464D01*
X7919500Y978065D01*
X8820500Y978065D01*
X8976852Y993464D01*
X9127196Y1039071D01*
X9265753Y1113131D01*
X9387200Y1212800D01*
X9486869Y1334247D01*
X9560929Y1472804D01*
X9606536Y1623148D01*
X9621935Y1779500D01*
X9621935Y2353114D01*
X9660000Y2353114D01*
X9660000Y2106886D01*
X9708037Y1865389D01*
X9802265Y1637903D01*
X9939062Y1433172D01*
X10113172Y1259062D01*
X10317903Y1122265D01*
X10545389Y1028037D01*
X10786886Y980000D01*
X11033114Y980000D01*
X11274611Y1028037D01*
X11502097Y1122265D01*
X11706828Y1259062D01*
X11880938Y1433172D01*
X12017735Y1637903D01*
X12111963Y1865389D01*
X12160000Y2106886D01*
X12160000Y2353114D01*
X12200000Y2353114D01*
X12200000Y2106886D01*
X12248037Y1865389D01*
X12342265Y1637903D01*
X12479062Y1433172D01*
X12653172Y1259062D01*
X12857903Y1122265D01*
X13085389Y1028037D01*
X13326886Y980000D01*
X13573114Y980000D01*
X13814611Y1028037D01*
X14042097Y1122265D01*
X14246828Y1259062D01*
X14420938Y1433172D01*
X14557735Y1637903D01*
X14651963Y1865389D01*
X14700000Y2106886D01*
X14700000Y2353114D01*
X14651963Y2594611D01*
X14557735Y2822097D01*
X14420938Y3026828D01*
X14246828Y3200938D01*
X14042097Y3337735D01*
X13814611Y3431963D01*
X13573114Y3480000D01*
X13326886Y3480000D01*
X13085389Y3431963D01*
X12857903Y3337735D01*
X12653172Y3200938D01*
X12479062Y3026828D01*
X12342265Y2822097D01*
X12248037Y2594611D01*
X12200000Y2353114D01*
X12160000Y2353114D01*
X12111963Y2594611D01*
X12017735Y2822097D01*
X11880938Y3026828D01*
X11706828Y3200938D01*
X11502097Y3337735D01*
X11274611Y3431963D01*
X11033114Y3480000D01*
X10786886Y3480000D01*
X10545389Y3431963D01*
X10317903Y3337735D01*
X10113172Y3200938D01*
X9939062Y3026828D01*
X9802265Y2822097D01*
X9708037Y2594611D01*
X9660000Y2353114D01*
X9621935Y2353114D01*
X9621935Y2680500D01*
X9606536Y2836852D01*
X9560929Y2987196D01*
X9486869Y3125753D01*
X9387200Y3247200D01*
X9265753Y3346869D01*
X9127196Y3420929D01*
X8976852Y3466536D01*
X8820500Y3481935D01*
X7919500Y3481935D01*
X7763148Y3466536D01*
X7612804Y3420929D01*
X7474247Y3346869D01*
X7352800Y3247200D01*
X7253131Y3125753D01*
X7179071Y2987196D01*
X7133464Y2836852D01*
X7118065Y2680500D01*
X483932Y2680500D01*
X450000Y3003336D01*
X450000Y44053114D01*
X980000Y44053114D01*
X980000Y43806886D01*
X1028037Y43565389D01*
X1122265Y43337903D01*
X1259062Y43133172D01*
X1433172Y42959062D01*
X1637903Y42822265D01*
X1865389Y42728037D01*
X2106886Y42680000D01*
X2353114Y42680000D01*
X2594611Y42728037D01*
X2822097Y42822265D01*
X3026828Y42959062D01*
X3060001Y42992235D01*
X3060001Y42327765D01*
X3026828Y42360938D01*
X2822097Y42497735D01*
X2594611Y42591963D01*
X2353114Y42640000D01*
X2106886Y42640000D01*
X1865389Y42591963D01*
X1637903Y42497735D01*
X1433172Y42360938D01*
X1259062Y42186828D01*
X1122265Y41982097D01*
X1028037Y41754611D01*
X980000Y41513114D01*
X980000Y41266886D01*
X1028037Y41025389D01*
X1122265Y40797903D01*
X1259062Y40593172D01*
X1433172Y40419062D01*
X1637903Y40282265D01*
X1865389Y40188037D01*
X2106886Y40140000D01*
X2353114Y40140000D01*
X2594611Y40188037D01*
X2822097Y40282265D01*
X3026828Y40419062D01*
X3060001Y40452235D01*
X3060000Y9184560D01*
X3057581Y9160000D01*
X3067235Y9061984D01*
X3095825Y8967734D01*
X3142254Y8880871D01*
X3204736Y8804736D01*
X3223824Y8789071D01*
X7879074Y4133820D01*
X7894735Y4114737D01*
X7970870Y4052255D01*
X8057732Y4005826D01*
X8151982Y3977236D01*
X8225439Y3970001D01*
X8225440Y3970001D01*
X8249998Y3967582D01*
X8274556Y3970001D01*
X15316178Y3970001D01*
X15310000Y3938944D01*
X15310000Y3801056D01*
X15336901Y3665818D01*
X15389668Y3538426D01*
X15466274Y3423776D01*
X15507089Y3382961D01*
X15397903Y3337735D01*
X15193172Y3200938D01*
X15019062Y3026828D01*
X14882265Y2822097D01*
X14788037Y2594611D01*
X14740000Y2353114D01*
X14740000Y2106886D01*
X14788037Y1865389D01*
X14882265Y1637903D01*
X15019062Y1433172D01*
X15193172Y1259062D01*
X15397903Y1122265D01*
X15625389Y1028037D01*
X15866886Y980000D01*
X16113114Y980000D01*
X16354611Y1028037D01*
X16582097Y1122265D01*
X16786828Y1259062D01*
X16960938Y1433172D01*
X17097735Y1637903D01*
X17191963Y1865389D01*
X17240000Y2106886D01*
X17240000Y2353114D01*
X17191963Y2594611D01*
X17097735Y2822097D01*
X16960938Y3026828D01*
X16786828Y3200938D01*
X16582097Y3337735D01*
X16501196Y3371246D01*
X16553726Y3423776D01*
X16583924Y3468971D01*
X17366185Y2686709D01*
X17328037Y2594611D01*
X17280000Y2353114D01*
X17280000Y2106886D01*
X17328037Y1865389D01*
X17422265Y1637903D01*
X17559062Y1433172D01*
X17733172Y1259062D01*
X17937903Y1122265D01*
X18165389Y1028037D01*
X18406886Y980000D01*
X18653114Y980000D01*
X18894611Y1028037D01*
X19122097Y1122265D01*
X19326828Y1259062D01*
X19500938Y1433172D01*
X19637735Y1637903D01*
X19731963Y1865389D01*
X19780000Y2106886D01*
X19780000Y2353114D01*
X19731963Y2594611D01*
X19637735Y2822097D01*
X19500938Y3026828D01*
X19326828Y3200938D01*
X19122097Y3337735D01*
X18894611Y3431963D01*
X18653114Y3480000D01*
X18406886Y3480000D01*
X18165389Y3431963D01*
X18073291Y3393815D01*
X17097093Y4370012D01*
X18222883Y4370012D01*
X19906185Y2686708D01*
X19868037Y2594611D01*
X19820000Y2353114D01*
X19820000Y2106886D01*
X19868037Y1865389D01*
X19962265Y1637903D01*
X20099062Y1433172D01*
X20273172Y1259062D01*
X20477903Y1122265D01*
X20705389Y1028037D01*
X20946886Y980000D01*
X21193114Y980000D01*
X21434611Y1028037D01*
X21662097Y1122265D01*
X21866828Y1259062D01*
X22040938Y1433172D01*
X22177735Y1637903D01*
X22271963Y1865389D01*
X22320000Y2106886D01*
X22320000Y2353114D01*
X22271963Y2594611D01*
X22177735Y2822097D01*
X22040938Y3026828D01*
X21866828Y3200938D01*
X21662097Y3337735D01*
X21434611Y3431963D01*
X21193114Y3480000D01*
X20946886Y3480000D01*
X20705389Y3431963D01*
X20613292Y3393815D01*
X19237084Y4770021D01*
X21750876Y4770021D01*
X22073767Y4447129D01*
X22023776Y4413726D01*
X21926274Y4316224D01*
X21849668Y4201574D01*
X21796901Y4074182D01*
X21770000Y3938944D01*
X21770000Y3801056D01*
X21796901Y3665818D01*
X21849668Y3538426D01*
X21926274Y3423776D01*
X22023776Y3326274D01*
X22138426Y3249668D01*
X22265818Y3196901D01*
X22401056Y3170000D01*
X22538944Y3170000D01*
X22674182Y3196901D01*
X22801574Y3249668D01*
X22916224Y3326274D01*
X23013726Y3423776D01*
X23047128Y3473767D01*
X23207081Y3313814D01*
X23222738Y3294736D01*
X23241814Y3279081D01*
X23241815Y3279080D01*
X23250118Y3272266D01*
X23298873Y3232254D01*
X23385735Y3185825D01*
X23479985Y3157235D01*
X23578002Y3147581D01*
X23602562Y3150000D01*
X24522895Y3150000D01*
X24986185Y2686709D01*
X24948037Y2594611D01*
X24900000Y2353114D01*
X24900000Y2106886D01*
X24948037Y1865389D01*
X25042265Y1637903D01*
X25179062Y1433172D01*
X25353172Y1259062D01*
X25557903Y1122265D01*
X25785389Y1028037D01*
X26026886Y980000D01*
X26273114Y980000D01*
X26514611Y1028037D01*
X26742097Y1122265D01*
X26946828Y1259062D01*
X27120938Y1433172D01*
X27257735Y1637903D01*
X27351963Y1865389D01*
X27400000Y2106886D01*
X27400000Y2353114D01*
X27351963Y2594611D01*
X27257735Y2822097D01*
X27120938Y3026828D01*
X26997766Y3150000D01*
X27062895Y3150000D01*
X27503814Y2709080D01*
X27503819Y2709076D01*
X27526186Y2686709D01*
X27488037Y2594611D01*
X27440000Y2353114D01*
X27440000Y2106886D01*
X27488037Y1865389D01*
X27582265Y1637903D01*
X27719062Y1433172D01*
X27893172Y1259062D01*
X28097903Y1122265D01*
X28325389Y1028037D01*
X28566886Y980000D01*
X28813114Y980000D01*
X29054611Y1028037D01*
X29282097Y1122265D01*
X29486828Y1259062D01*
X29660938Y1433172D01*
X29797735Y1637903D01*
X29891963Y1865389D01*
X29940000Y2106886D01*
X29940000Y2353114D01*
X29891963Y2594611D01*
X29797735Y2822097D01*
X29660938Y3026828D01*
X29537766Y3150000D01*
X29602895Y3150000D01*
X30043814Y2709080D01*
X30043819Y2709076D01*
X30066186Y2686709D01*
X30028037Y2594611D01*
X29980000Y2353114D01*
X29980000Y2106886D01*
X30028037Y1865389D01*
X30122265Y1637903D01*
X30259062Y1433172D01*
X30433172Y1259062D01*
X30637903Y1122265D01*
X30865389Y1028037D01*
X31106886Y980000D01*
X31353114Y980000D01*
X31594611Y1028037D01*
X31822097Y1122265D01*
X32026828Y1259062D01*
X32200938Y1433172D01*
X32337735Y1637903D01*
X32431963Y1865389D01*
X32480000Y2106886D01*
X32480000Y2353114D01*
X32431963Y2594611D01*
X32337735Y2822097D01*
X32200938Y3026828D01*
X32026828Y3200938D01*
X31822097Y3337735D01*
X31594611Y3431963D01*
X31353114Y3480000D01*
X31106886Y3480000D01*
X30865389Y3431963D01*
X30773291Y3393814D01*
X30750924Y3416181D01*
X30750920Y3416186D01*
X30180929Y3986176D01*
X30165264Y4005264D01*
X30089129Y4067746D01*
X30002267Y4114175D01*
X29908017Y4142765D01*
X29834560Y4150000D01*
X29810000Y4152419D01*
X29785440Y4150000D01*
X29293270Y4150000D01*
X29423082Y4236737D01*
X29583263Y4396918D01*
X29709116Y4585271D01*
X29795806Y4794557D01*
X29840000Y5016735D01*
X29840000Y5243265D01*
X30080000Y5243265D01*
X30080000Y5016735D01*
X30124194Y4794557D01*
X30210884Y4585271D01*
X30336737Y4396918D01*
X30496918Y4236737D01*
X30685271Y4110884D01*
X30894557Y4024194D01*
X31116735Y3980000D01*
X31343265Y3980000D01*
X31565443Y4024194D01*
X31774729Y4110884D01*
X31963082Y4236737D01*
X32123263Y4396918D01*
X32249116Y4585271D01*
X32335806Y4794557D01*
X32380000Y5016735D01*
X32380000Y5243265D01*
X32335806Y5465443D01*
X32249116Y5674729D01*
X32123263Y5863082D01*
X31963082Y6023263D01*
X31774729Y6149116D01*
X31565443Y6235806D01*
X31343265Y6280000D01*
X31116735Y6280000D01*
X30894557Y6235806D01*
X30685271Y6149116D01*
X30496918Y6023263D01*
X30336737Y5863082D01*
X30210884Y5674729D01*
X30124194Y5465443D01*
X30080000Y5243265D01*
X29840000Y5243265D01*
X29795806Y5465443D01*
X29709116Y5674729D01*
X29583263Y5863082D01*
X29423082Y6023263D01*
X29234729Y6149116D01*
X29025443Y6235806D01*
X28803265Y6280000D01*
X28576735Y6280000D01*
X28354557Y6235806D01*
X28145271Y6149116D01*
X27956918Y6023263D01*
X27885380Y5951725D01*
X26920918Y6916187D01*
X26905253Y6935275D01*
X26829118Y6997757D01*
X26742256Y7044186D01*
X26648006Y7072776D01*
X26574549Y7080011D01*
X26549989Y7082430D01*
X26525429Y7080011D01*
X22964869Y7080011D01*
X22940309Y7082430D01*
X22842292Y7072776D01*
X22803047Y7060871D01*
X22748043Y7044186D01*
X22661181Y6997757D01*
X22585046Y6935275D01*
X22569389Y6916197D01*
X22223234Y6570041D01*
X20761763Y6570041D01*
X20881574Y6619668D01*
X20996224Y6696274D01*
X21093726Y6793776D01*
X21170332Y6908426D01*
X21223099Y7035818D01*
X21250000Y7171056D01*
X21250000Y7308944D01*
X21223099Y7444182D01*
X21170332Y7571574D01*
X21093726Y7686224D01*
X20996224Y7783726D01*
X20881574Y7860332D01*
X20754182Y7913099D01*
X20618944Y7940000D01*
X20557106Y7940000D01*
X20388743Y8108363D01*
X20481056Y8090000D01*
X20618944Y8090000D01*
X20754182Y8116901D01*
X20881574Y8169668D01*
X20996224Y8246274D01*
X21093726Y8343776D01*
X21170332Y8458426D01*
X21223099Y8585818D01*
X21250000Y8721056D01*
X21250000Y8858944D01*
X21223099Y8994182D01*
X21170332Y9121574D01*
X21093726Y9236224D01*
X20996224Y9333726D01*
X20881574Y9410332D01*
X20754182Y9463099D01*
X20618944Y9490000D01*
X20481056Y9490000D01*
X20345818Y9463099D01*
X20218426Y9410332D01*
X20103776Y9333726D01*
X20050001Y9279951D01*
X20050001Y9850049D01*
X20103776Y9796274D01*
X20218426Y9719668D01*
X20345818Y9666901D01*
X20481056Y9640000D01*
X20618944Y9640000D01*
X20754182Y9666901D01*
X20881574Y9719668D01*
X20996224Y9796274D01*
X21093726Y9893776D01*
X21170332Y10008426D01*
X21223099Y10135818D01*
X21250000Y10271056D01*
X21250000Y10408944D01*
X21223099Y10544182D01*
X21170332Y10671574D01*
X21093726Y10786224D01*
X20996224Y10883726D01*
X20881574Y10960332D01*
X20754182Y11013099D01*
X20618944Y11040000D01*
X20481056Y11040000D01*
X20345818Y11013099D01*
X20218426Y10960332D01*
X20103776Y10883726D01*
X20050001Y10829951D01*
X20050001Y11400049D01*
X20103776Y11346274D01*
X20218426Y11269668D01*
X20345818Y11216901D01*
X20481056Y11190000D01*
X20618944Y11190000D01*
X20754182Y11216901D01*
X20881574Y11269668D01*
X20996224Y11346274D01*
X21093726Y11443776D01*
X21170332Y11558426D01*
X21223099Y11685818D01*
X21250000Y11821056D01*
X21250000Y11958944D01*
X21223099Y12094182D01*
X21170332Y12221574D01*
X21093726Y12336224D01*
X20996224Y12433726D01*
X20881574Y12510332D01*
X20754182Y12563099D01*
X20618944Y12590000D01*
X20557106Y12590000D01*
X20450011Y12697095D01*
X20450011Y13869130D01*
X20452430Y13893690D01*
X20442776Y13991707D01*
X20440138Y14000403D01*
X20414186Y14085957D01*
X20367757Y14172819D01*
X20305275Y14248954D01*
X20286197Y14264611D01*
X19774619Y14776188D01*
X19758954Y14795275D01*
X19682819Y14857757D01*
X19595957Y14904186D01*
X19501707Y14932776D01*
X19428250Y14940011D01*
X19403690Y14942430D01*
X19379130Y14940011D01*
X18418872Y14940011D01*
X18394312Y14942430D01*
X18296294Y14932776D01*
X18267704Y14924103D01*
X18202045Y14904186D01*
X18115183Y14857757D01*
X18039048Y14795275D01*
X18023383Y14776187D01*
X17987216Y14740020D01*
X15210031Y14740020D01*
X15210031Y17668944D01*
X17810000Y17668944D01*
X17810000Y17531056D01*
X17836901Y17395818D01*
X17889668Y17268426D01*
X17966274Y17153776D01*
X18063776Y17056274D01*
X18178426Y16979668D01*
X18305818Y16926901D01*
X18441056Y16900000D01*
X18578944Y16900000D01*
X18714182Y16926901D01*
X18841574Y16979668D01*
X18956224Y17056274D01*
X19053726Y17153776D01*
X19130332Y17268426D01*
X19183099Y17395818D01*
X19210000Y17531056D01*
X19210000Y17668944D01*
X19183099Y17804182D01*
X19130332Y17931574D01*
X19053726Y18046224D01*
X18956224Y18143726D01*
X18841574Y18220332D01*
X18714182Y18273099D01*
X18578944Y18300000D01*
X18441056Y18300000D01*
X18305818Y18273099D01*
X18178426Y18220332D01*
X18063776Y18143726D01*
X17966274Y18046224D01*
X17889668Y17931574D01*
X17836901Y17804182D01*
X17810000Y17668944D01*
X15210031Y17668944D01*
X15210031Y18323265D01*
X25000000Y18323265D01*
X25000000Y18096735D01*
X25044194Y17874557D01*
X25130884Y17665271D01*
X25256737Y17476918D01*
X25416918Y17316737D01*
X25605271Y17190884D01*
X25814557Y17104194D01*
X26036735Y17060000D01*
X26263265Y17060000D01*
X26485443Y17104194D01*
X26694729Y17190884D01*
X26883082Y17316737D01*
X27043263Y17476918D01*
X27169116Y17665271D01*
X27255806Y17874557D01*
X27300000Y18096735D01*
X27300000Y18323265D01*
X27540000Y18323265D01*
X27540000Y18096735D01*
X27584194Y17874557D01*
X27670884Y17665271D01*
X27796737Y17476918D01*
X27956918Y17316737D01*
X28145271Y17190884D01*
X28354557Y17104194D01*
X28576735Y17060000D01*
X28803265Y17060000D01*
X29025443Y17104194D01*
X29234729Y17190884D01*
X29423082Y17316737D01*
X29583263Y17476918D01*
X29709116Y17665271D01*
X29795806Y17874557D01*
X29840000Y18096735D01*
X29840000Y18323265D01*
X30080000Y18323265D01*
X30080000Y18096735D01*
X30124194Y17874557D01*
X30210884Y17665271D01*
X30336737Y17476918D01*
X30496918Y17316737D01*
X30685271Y17190884D01*
X30894557Y17104194D01*
X31116735Y17060000D01*
X31343265Y17060000D01*
X31565443Y17104194D01*
X31774729Y17190884D01*
X31963082Y17316737D01*
X32123263Y17476918D01*
X32249116Y17665271D01*
X32335806Y17874557D01*
X32380000Y18096735D01*
X32380000Y18323265D01*
X32335806Y18545443D01*
X32249116Y18754729D01*
X32123263Y18943082D01*
X31963082Y19103263D01*
X31774729Y19229116D01*
X31565443Y19315806D01*
X31343265Y19360000D01*
X31116735Y19360000D01*
X30894557Y19315806D01*
X30685271Y19229116D01*
X30496918Y19103263D01*
X30336737Y18943082D01*
X30210884Y18754729D01*
X30124194Y18545443D01*
X30080000Y18323265D01*
X29840000Y18323265D01*
X29795806Y18545443D01*
X29709116Y18754729D01*
X29583263Y18943082D01*
X29423082Y19103263D01*
X29234729Y19229116D01*
X29025443Y19315806D01*
X28803265Y19360000D01*
X28576735Y19360000D01*
X28354557Y19315806D01*
X28145271Y19229116D01*
X27956918Y19103263D01*
X27796737Y18943082D01*
X27670884Y18754729D01*
X27584194Y18545443D01*
X27540000Y18323265D01*
X27300000Y18323265D01*
X27255806Y18545443D01*
X27169116Y18754729D01*
X27043263Y18943082D01*
X26883082Y19103263D01*
X26694729Y19229116D01*
X26485443Y19315806D01*
X26263265Y19360000D01*
X26036735Y19360000D01*
X25814557Y19315806D01*
X25605271Y19229116D01*
X25416918Y19103263D01*
X25256737Y18943082D01*
X25130884Y18754729D01*
X25044194Y18545443D01*
X25000000Y18323265D01*
X15210031Y18323265D01*
X15210031Y21888944D01*
X28620000Y21888944D01*
X28620000Y21751056D01*
X28646901Y21615818D01*
X28699668Y21488426D01*
X28776274Y21373776D01*
X28873776Y21276274D01*
X28988426Y21199668D01*
X29115818Y21146901D01*
X29251056Y21120000D01*
X29388944Y21120000D01*
X29524182Y21146901D01*
X29651574Y21199668D01*
X29766224Y21276274D01*
X29863726Y21373776D01*
X29940332Y21488426D01*
X29993099Y21615818D01*
X30020000Y21751056D01*
X30020000Y21888944D01*
X29993099Y22024182D01*
X29940332Y22151574D01*
X29863726Y22266224D01*
X29766224Y22363726D01*
X29651574Y22440332D01*
X29524182Y22493099D01*
X29388944Y22520000D01*
X29251056Y22520000D01*
X29115818Y22493099D01*
X28988426Y22440332D01*
X28873776Y22363726D01*
X28776274Y22266224D01*
X28699668Y22151574D01*
X28646901Y22024182D01*
X28620000Y21888944D01*
X15210031Y21888944D01*
X15210031Y23647227D01*
X15486187Y23923382D01*
X15505265Y23939039D01*
X15567747Y24015174D01*
X15614176Y24102036D01*
X15642766Y24196286D01*
X15650001Y24269743D01*
X15652420Y24294303D01*
X15650001Y24318863D01*
X15650001Y25053444D01*
X15652420Y25078002D01*
X15648128Y25121574D01*
X15642766Y25176018D01*
X15614176Y25270268D01*
X15567747Y25357130D01*
X15505265Y25433265D01*
X15486182Y25448926D01*
X15096164Y25838944D01*
X17830000Y25838944D01*
X17830000Y25701056D01*
X17856901Y25565818D01*
X17909668Y25438426D01*
X17986274Y25323776D01*
X18083776Y25226274D01*
X18198426Y25149668D01*
X18325818Y25096901D01*
X18461056Y25070000D01*
X18598944Y25070000D01*
X18734182Y25096901D01*
X18861574Y25149668D01*
X18976224Y25226274D01*
X19073726Y25323776D01*
X19150332Y25438426D01*
X19203099Y25565818D01*
X19230000Y25701056D01*
X19230000Y25838944D01*
X19203099Y25974182D01*
X19150332Y26101574D01*
X19073726Y26216224D01*
X18976224Y26313726D01*
X18861574Y26390332D01*
X18734182Y26443099D01*
X18598944Y26470000D01*
X18461056Y26470000D01*
X18325818Y26443099D01*
X18198426Y26390332D01*
X18083776Y26313726D01*
X17986274Y26216224D01*
X17909668Y26101574D01*
X17856901Y25974182D01*
X17830000Y25838944D01*
X15096164Y25838944D01*
X14810021Y26125086D01*
X14810021Y32078651D01*
X14896181Y32164811D01*
X14915264Y32180472D01*
X14977746Y32256607D01*
X15024175Y32343469D01*
X15052765Y32437720D01*
X15055507Y32465557D01*
X15103726Y32513776D01*
X15180332Y32628426D01*
X15233099Y32755818D01*
X15260000Y32891056D01*
X15260000Y33028944D01*
X15233099Y33164182D01*
X15180332Y33291574D01*
X15103726Y33406224D01*
X15006224Y33503726D01*
X14891574Y33580332D01*
X14764182Y33633099D01*
X14628944Y33660000D01*
X14491056Y33660000D01*
X14410011Y33643879D01*
X14410011Y34008944D01*
X17840000Y34008944D01*
X17840000Y33871056D01*
X17866901Y33735818D01*
X17919668Y33608426D01*
X17996274Y33493776D01*
X18093776Y33396274D01*
X18208426Y33319668D01*
X18335818Y33266901D01*
X18471056Y33240000D01*
X18608944Y33240000D01*
X18744182Y33266901D01*
X18871574Y33319668D01*
X18986224Y33396274D01*
X19083726Y33493776D01*
X19160332Y33608426D01*
X19213099Y33735818D01*
X19240000Y33871056D01*
X19240000Y34008944D01*
X19213099Y34144182D01*
X19160332Y34271574D01*
X19083726Y34386224D01*
X18986224Y34483726D01*
X18871574Y34560332D01*
X18744182Y34613099D01*
X18608944Y34640000D01*
X18471056Y34640000D01*
X18335818Y34613099D01*
X18208426Y34560332D01*
X18093776Y34483726D01*
X17996274Y34386224D01*
X17919668Y34271574D01*
X17866901Y34144182D01*
X17840000Y34008944D01*
X14410011Y34008944D01*
X14410011Y35349207D01*
X16964069Y37903265D01*
X22460000Y37903265D01*
X22460000Y37676735D01*
X22504194Y37454557D01*
X22590884Y37245271D01*
X22716737Y37056918D01*
X22876918Y36896737D01*
X23065271Y36770884D01*
X23274557Y36684194D01*
X23496735Y36640000D01*
X23723265Y36640000D01*
X23945443Y36684194D01*
X24154729Y36770884D01*
X24343082Y36896737D01*
X24503263Y37056918D01*
X24629116Y37245271D01*
X24715806Y37454557D01*
X24760000Y37676735D01*
X24760000Y37903265D01*
X24715806Y38125443D01*
X24629116Y38334729D01*
X24503263Y38523082D01*
X24343082Y38683263D01*
X24154729Y38809116D01*
X23945443Y38895806D01*
X23723265Y38940000D01*
X23496735Y38940000D01*
X23274557Y38895806D01*
X23065271Y38809116D01*
X22876918Y38683263D01*
X22716737Y38523082D01*
X22590884Y38334729D01*
X22504194Y38125443D01*
X22460000Y37903265D01*
X16964069Y37903265D01*
X20226191Y41165385D01*
X20245274Y41181046D01*
X20307756Y41257181D01*
X20354185Y41344043D01*
X20382775Y41438293D01*
X20390010Y41511750D01*
X20390010Y41511751D01*
X20392429Y41536309D01*
X20390010Y41560869D01*
X20390010Y48362895D01*
X20426177Y48399062D01*
X20445265Y48414727D01*
X20507747Y48490862D01*
X20554176Y48577724D01*
X20582766Y48671974D01*
X20583929Y48683776D01*
X20592420Y48769991D01*
X20590001Y48794551D01*
X20590001Y49645439D01*
X20592420Y49669999D01*
X20582766Y49768016D01*
X20572124Y49803099D01*
X20554176Y49862266D01*
X20507747Y49949128D01*
X20445265Y50025263D01*
X20426182Y50040924D01*
X17210923Y53256182D01*
X17210918Y53256188D01*
X17153815Y53313291D01*
X17191963Y53405389D01*
X17240000Y53646886D01*
X17240000Y53893114D01*
X17280000Y53893114D01*
X17280000Y53646886D01*
X17328037Y53405389D01*
X17422265Y53177903D01*
X17559062Y52973172D01*
X17733172Y52799062D01*
X17937903Y52662265D01*
X18165389Y52568037D01*
X18406886Y52520000D01*
X18653114Y52520000D01*
X18894611Y52568037D01*
X19122097Y52662265D01*
X19326828Y52799062D01*
X19500938Y52973172D01*
X19637735Y53177903D01*
X19731963Y53405389D01*
X19780000Y53646886D01*
X19780000Y53893114D01*
X22360000Y53893114D01*
X22360000Y53646886D01*
X22408037Y53405389D01*
X22502265Y53177903D01*
X22639062Y52973172D01*
X22813172Y52799062D01*
X23017903Y52662265D01*
X23245389Y52568037D01*
X23486886Y52520000D01*
X23733114Y52520000D01*
X23974611Y52568037D01*
X24202097Y52662265D01*
X24406828Y52799062D01*
X24580938Y52973172D01*
X24717735Y53177903D01*
X24811963Y53405389D01*
X24860000Y53646886D01*
X24860000Y53893114D01*
X24811963Y54134611D01*
X24773815Y54226709D01*
X24967107Y54420001D01*
X25080955Y54420001D01*
X25042265Y54362097D01*
X24948037Y54134611D01*
X24900000Y53893114D01*
X24900000Y53646886D01*
X24948037Y53405389D01*
X25042265Y53177903D01*
X25179062Y52973172D01*
X25353172Y52799062D01*
X25557903Y52662265D01*
X25785389Y52568037D01*
X26026886Y52520000D01*
X26273114Y52520000D01*
X26514611Y52568037D01*
X26606708Y52606185D01*
X26700001Y52512892D01*
X26700001Y51885593D01*
X26694729Y51889116D01*
X26485443Y51975806D01*
X26263265Y52020000D01*
X26036735Y52020000D01*
X25814557Y51975806D01*
X25605271Y51889116D01*
X25416918Y51763263D01*
X25256737Y51603082D01*
X25130884Y51414729D01*
X25044194Y51205443D01*
X25000000Y50983265D01*
X25000000Y50756735D01*
X25044194Y50534557D01*
X25130884Y50325271D01*
X25256737Y50136918D01*
X25416918Y49976737D01*
X25605271Y49850884D01*
X25814557Y49764194D01*
X26036735Y49720000D01*
X26263265Y49720000D01*
X26485443Y49764194D01*
X26694729Y49850884D01*
X26700001Y49854407D01*
X26700002Y38805593D01*
X26694729Y38809116D01*
X26485443Y38895806D01*
X26263265Y38940000D01*
X26036735Y38940000D01*
X25814557Y38895806D01*
X25605271Y38809116D01*
X25416918Y38683263D01*
X25256737Y38523082D01*
X25130884Y38334729D01*
X25044194Y38125443D01*
X25000000Y37903265D01*
X25000000Y37676735D01*
X25044194Y37454557D01*
X25130884Y37245271D01*
X25256737Y37056918D01*
X25416918Y36896737D01*
X25605271Y36770884D01*
X25814557Y36684194D01*
X26036735Y36640000D01*
X26263265Y36640000D01*
X26485443Y36684194D01*
X26694729Y36770884D01*
X26700002Y36774407D01*
X26700002Y36324569D01*
X26697582Y36299999D01*
X26707236Y36201982D01*
X26723005Y36150000D01*
X26661056Y36150000D01*
X26525818Y36123099D01*
X26398426Y36070332D01*
X26283776Y35993726D01*
X26186274Y35896224D01*
X26109668Y35781574D01*
X26056901Y35654182D01*
X26030000Y35518944D01*
X26030000Y35381056D01*
X26056901Y35245818D01*
X26109668Y35118426D01*
X26186274Y35003776D01*
X26283776Y34906274D01*
X26398426Y34829668D01*
X26525818Y34776901D01*
X26661056Y34750000D01*
X26798944Y34750000D01*
X26934182Y34776901D01*
X27061574Y34829668D01*
X27176224Y34906274D01*
X27273726Y35003776D01*
X27350332Y35118426D01*
X27403099Y35245818D01*
X27426987Y35365908D01*
X28620000Y34172893D01*
X28620000Y34111056D01*
X28646901Y33975818D01*
X28699668Y33848426D01*
X28776274Y33733776D01*
X28873776Y33636274D01*
X28988426Y33559668D01*
X29115818Y33506901D01*
X29251056Y33480000D01*
X29388944Y33480000D01*
X29524182Y33506901D01*
X29651574Y33559668D01*
X29766224Y33636274D01*
X29863726Y33733776D01*
X29940332Y33848426D01*
X29960000Y33895909D01*
X29979668Y33848426D01*
X30056274Y33733776D01*
X30153776Y33636274D01*
X30268426Y33559668D01*
X30395818Y33506901D01*
X30531056Y33480000D01*
X30668944Y33480000D01*
X30804182Y33506901D01*
X30931574Y33559668D01*
X31046224Y33636274D01*
X31143726Y33733776D01*
X31220332Y33848426D01*
X31273099Y33975818D01*
X31300000Y34111056D01*
X31300000Y34248944D01*
X31273099Y34384182D01*
X31220332Y34511574D01*
X31143726Y34626224D01*
X31046224Y34723726D01*
X30931574Y34800332D01*
X30804182Y34853099D01*
X30668944Y34880000D01*
X30607106Y34880000D01*
X30370928Y35116177D01*
X30355263Y35135265D01*
X30279128Y35197747D01*
X30192266Y35244176D01*
X30098016Y35272766D01*
X30024559Y35280001D01*
X29999999Y35282420D01*
X29975439Y35280001D01*
X29492803Y35280001D01*
X28100011Y36672792D01*
X28100011Y36801126D01*
X28145271Y36770884D01*
X28354557Y36684194D01*
X28576735Y36640000D01*
X28803265Y36640000D01*
X29025443Y36684194D01*
X29234729Y36770884D01*
X29423082Y36896737D01*
X29583263Y37056918D01*
X29709116Y37245271D01*
X29795806Y37454557D01*
X29840000Y37676735D01*
X29840000Y37903265D01*
X30080000Y37903265D01*
X30080000Y37676735D01*
X30124194Y37454557D01*
X30210884Y37245271D01*
X30336737Y37056918D01*
X30496918Y36896737D01*
X30685271Y36770884D01*
X30894557Y36684194D01*
X31116735Y36640000D01*
X31343265Y36640000D01*
X31565443Y36684194D01*
X31616351Y36705281D01*
X31586901Y36634182D01*
X31560000Y36498944D01*
X31560000Y36361056D01*
X31586901Y36225818D01*
X31639668Y36098426D01*
X31716274Y35983776D01*
X31813776Y35886274D01*
X31928426Y35809668D01*
X32055818Y35756901D01*
X32191056Y35730000D01*
X32328944Y35730000D01*
X32464182Y35756901D01*
X32591574Y35809668D01*
X32706224Y35886274D01*
X32803726Y35983776D01*
X32880332Y36098426D01*
X32933099Y36225818D01*
X32960000Y36361056D01*
X32960000Y36498944D01*
X32933099Y36634182D01*
X32880332Y36761574D01*
X32803726Y36876224D01*
X32706224Y36973726D01*
X32591574Y37050332D01*
X32464182Y37103099D01*
X32328944Y37130000D01*
X32191056Y37130000D01*
X32169188Y37125650D01*
X32249116Y37245271D01*
X32335806Y37454557D01*
X32380000Y37676735D01*
X32380000Y37903265D01*
X32335806Y38125443D01*
X32249116Y38334729D01*
X32123263Y38523082D01*
X31963082Y38683263D01*
X31774729Y38809116D01*
X31565443Y38895806D01*
X31343265Y38940000D01*
X31116735Y38940000D01*
X30894557Y38895806D01*
X30685271Y38809116D01*
X30496918Y38683263D01*
X30336737Y38523082D01*
X30210884Y38334729D01*
X30124194Y38125443D01*
X30080000Y37903265D01*
X29840000Y37903265D01*
X29795806Y38125443D01*
X29709116Y38334729D01*
X29583263Y38523082D01*
X29423082Y38683263D01*
X29234729Y38809116D01*
X29025443Y38895806D01*
X28803265Y38940000D01*
X28576735Y38940000D01*
X28354557Y38895806D01*
X28145271Y38809116D01*
X28100011Y38778874D01*
X28100011Y49881126D01*
X28145271Y49850884D01*
X28354557Y49764194D01*
X28576735Y49720000D01*
X28803265Y49720000D01*
X29025443Y49764194D01*
X29234729Y49850884D01*
X29423082Y49976737D01*
X29583263Y50136918D01*
X29709116Y50325271D01*
X29795806Y50534557D01*
X29840000Y50756735D01*
X29840000Y50983265D01*
X30080000Y50983265D01*
X30080000Y50756735D01*
X30124194Y50534557D01*
X30210884Y50325271D01*
X30336737Y50136918D01*
X30496918Y49976737D01*
X30685271Y49850884D01*
X30894557Y49764194D01*
X31116735Y49720000D01*
X31343265Y49720000D01*
X31565443Y49764194D01*
X31774729Y49850884D01*
X31963082Y49976737D01*
X32123263Y50136918D01*
X32249116Y50325271D01*
X32335806Y50534557D01*
X32380000Y50756735D01*
X32380000Y50983265D01*
X32335806Y51205443D01*
X32249116Y51414729D01*
X32123263Y51603082D01*
X31963082Y51763263D01*
X31774729Y51889116D01*
X31565443Y51975806D01*
X31343265Y52020000D01*
X31116735Y52020000D01*
X30894557Y51975806D01*
X30685271Y51889116D01*
X30496918Y51763263D01*
X30336737Y51603082D01*
X30210884Y51414729D01*
X30124194Y51205443D01*
X30080000Y50983265D01*
X29840000Y50983265D01*
X29795806Y51205443D01*
X29709116Y51414729D01*
X29583263Y51603082D01*
X29423082Y51763263D01*
X29234729Y51889116D01*
X29025443Y51975806D01*
X28803265Y52020000D01*
X28576735Y52020000D01*
X28354557Y51975806D01*
X28145271Y51889116D01*
X28100011Y51858874D01*
X28100011Y52861128D01*
X28102430Y52885688D01*
X28092776Y52983704D01*
X28089263Y52995285D01*
X28064186Y53077955D01*
X28039999Y53123205D01*
X28039999Y54205452D01*
X28042417Y54230002D01*
X28039999Y54254552D01*
X28039999Y54254561D01*
X28032764Y54328018D01*
X28004174Y54422268D01*
X27957745Y54509130D01*
X27895263Y54585265D01*
X27876185Y54600921D01*
X27220928Y55256177D01*
X27205263Y55275265D01*
X27129128Y55337747D01*
X27042266Y55384176D01*
X26948016Y55412766D01*
X26874559Y55420001D01*
X26849999Y55422420D01*
X26825439Y55420001D01*
X24784560Y55420001D01*
X24760000Y55422420D01*
X24661983Y55412766D01*
X24633393Y55404093D01*
X24567734Y55384176D01*
X24480872Y55337747D01*
X24404737Y55275265D01*
X24389076Y55256182D01*
X24066709Y54933815D01*
X23974611Y54971963D01*
X23733114Y55020000D01*
X23486886Y55020000D01*
X23245389Y54971963D01*
X23017903Y54877735D01*
X22813172Y54740938D01*
X22639062Y54566828D01*
X22502265Y54362097D01*
X22408037Y54134611D01*
X22360000Y53893114D01*
X19780000Y53893114D01*
X19731963Y54134611D01*
X19637735Y54362097D01*
X19500938Y54566828D01*
X19326828Y54740938D01*
X19122097Y54877735D01*
X18894611Y54971963D01*
X18653114Y55020000D01*
X18406886Y55020000D01*
X18165389Y54971963D01*
X17937903Y54877735D01*
X17733172Y54740938D01*
X17559062Y54566828D01*
X17422265Y54362097D01*
X17328037Y54134611D01*
X17280000Y53893114D01*
X17240000Y53893114D01*
X17191963Y54134611D01*
X17097735Y54362097D01*
X16960938Y54566828D01*
X16786828Y54740938D01*
X16582097Y54877735D01*
X16354611Y54971963D01*
X16113114Y55020000D01*
X15866886Y55020000D01*
X15625389Y54971963D01*
X15397903Y54877735D01*
X15193172Y54740938D01*
X15019062Y54566828D01*
X14882265Y54362097D01*
X14788037Y54134611D01*
X14740000Y53893114D01*
X14740000Y53646886D01*
X14788037Y53405389D01*
X14826185Y53313291D01*
X13263819Y51750924D01*
X13244737Y51735264D01*
X13182255Y51659129D01*
X13169795Y51635818D01*
X13135826Y51572267D01*
X13107235Y51478017D01*
X13097581Y51380000D01*
X13100001Y51355430D01*
X13100000Y49619950D01*
X13056274Y49576224D01*
X12979668Y49461574D01*
X12963812Y49423294D01*
X12790000Y49597105D01*
X12790000Y52402895D01*
X12993291Y52606185D01*
X13085389Y52568037D01*
X13326886Y52520000D01*
X13573114Y52520000D01*
X13814611Y52568037D01*
X14042097Y52662265D01*
X14246828Y52799062D01*
X14420938Y52973172D01*
X14557735Y53177903D01*
X14651963Y53405389D01*
X14700000Y53646886D01*
X14700000Y53893114D01*
X14651963Y54134611D01*
X14557735Y54362097D01*
X14420938Y54566828D01*
X14246828Y54740938D01*
X14042097Y54877735D01*
X13814611Y54971963D01*
X13573114Y55020000D01*
X13326886Y55020000D01*
X13085389Y54971963D01*
X12857903Y54877735D01*
X12653172Y54740938D01*
X12479062Y54566828D01*
X12342265Y54362097D01*
X12248037Y54134611D01*
X12200000Y53893114D01*
X12200000Y53646886D01*
X12248037Y53405389D01*
X12286185Y53313291D01*
X11953819Y52980924D01*
X11934737Y52965264D01*
X11872255Y52889129D01*
X11861996Y52869936D01*
X11825826Y52802267D01*
X11797235Y52708017D01*
X11787581Y52610000D01*
X11790001Y52585430D01*
X11790000Y49414560D01*
X11787581Y49390000D01*
X11790000Y49365441D01*
X11797235Y49291984D01*
X11825825Y49197734D01*
X11872254Y49110871D01*
X11934736Y49034736D01*
X11953824Y49019071D01*
X12910000Y48062894D01*
X12910000Y48001056D01*
X12930498Y47898008D01*
X12905818Y47893099D01*
X12778426Y47840332D01*
X12663776Y47763726D01*
X12566274Y47666224D01*
X12489668Y47551574D01*
X12436901Y47424182D01*
X12410000Y47288944D01*
X12410000Y47151056D01*
X12436901Y47015818D01*
X12489668Y46888426D01*
X12566274Y46773776D01*
X12663776Y46676274D01*
X12778426Y46599668D01*
X12905818Y46546901D01*
X13041056Y46520000D01*
X13178944Y46520000D01*
X13314182Y46546901D01*
X13441574Y46599668D01*
X13556224Y46676274D01*
X13653726Y46773776D01*
X13730332Y46888426D01*
X13783099Y47015818D01*
X13810000Y47151056D01*
X13810000Y47288944D01*
X13789502Y47391992D01*
X13814182Y47396901D01*
X13941574Y47449668D01*
X14056224Y47526274D01*
X14153726Y47623776D01*
X14230332Y47738426D01*
X14283099Y47865818D01*
X14310000Y48001056D01*
X14310000Y48138944D01*
X14283099Y48274182D01*
X14230332Y48401574D01*
X14153726Y48516224D01*
X14064950Y48605000D01*
X14143726Y48683776D01*
X14220332Y48798426D01*
X14273099Y48925818D01*
X14300000Y49061056D01*
X14300000Y49198944D01*
X14273099Y49334182D01*
X14220332Y49461574D01*
X14143726Y49576224D01*
X14100000Y49619950D01*
X14100000Y51172895D01*
X15533291Y52606185D01*
X15625389Y52568037D01*
X15866886Y52520000D01*
X16113114Y52520000D01*
X16354611Y52568037D01*
X16446709Y52606185D01*
X16503812Y52549082D01*
X16503818Y52549077D01*
X19124938Y49927956D01*
X19043776Y49873726D01*
X18946274Y49776224D01*
X18869668Y49661574D01*
X18816901Y49534182D01*
X18790000Y49398944D01*
X18790000Y49261056D01*
X18816901Y49125818D01*
X18869668Y48998426D01*
X18946274Y48883776D01*
X18990001Y48840049D01*
X18990000Y42649950D01*
X18976224Y42663726D01*
X18861574Y42740332D01*
X18734182Y42793099D01*
X18598944Y42820000D01*
X18461056Y42820000D01*
X18325818Y42793099D01*
X18198426Y42740332D01*
X18083776Y42663726D01*
X17986274Y42566224D01*
X17909668Y42451574D01*
X17856901Y42324182D01*
X17830000Y42188944D01*
X17830000Y42051056D01*
X17856901Y41915818D01*
X17909668Y41788426D01*
X17986274Y41673776D01*
X18083776Y41576274D01*
X18198426Y41499668D01*
X18325818Y41446901D01*
X18461056Y41420000D01*
X18500895Y41420000D01*
X13609990Y36529094D01*
X13609990Y39482885D01*
X14567107Y40440000D01*
X14628944Y40440000D01*
X14764182Y40466901D01*
X14891574Y40519668D01*
X15006224Y40596274D01*
X15103726Y40693776D01*
X15180332Y40808426D01*
X15233099Y40935818D01*
X15260000Y41071056D01*
X15260000Y41208944D01*
X15233099Y41344182D01*
X15180332Y41471574D01*
X15103726Y41586224D01*
X15006224Y41683726D01*
X14891574Y41760332D01*
X14764182Y41813099D01*
X14628944Y41840000D01*
X14491056Y41840000D01*
X14355818Y41813099D01*
X14228426Y41760332D01*
X14113776Y41683726D01*
X14016274Y41586224D01*
X13939668Y41471574D01*
X13886901Y41344182D01*
X13860000Y41208944D01*
X13860000Y41147107D01*
X12773814Y40060919D01*
X12754726Y40045254D01*
X12692244Y39969119D01*
X12645815Y39882256D01*
X12625898Y39816597D01*
X12617225Y39788007D01*
X12607571Y39689990D01*
X12609990Y39665430D01*
X12609991Y24613414D01*
X12514182Y24653099D01*
X12378944Y24680000D01*
X12241056Y24680000D01*
X12105818Y24653099D01*
X11978426Y24600332D01*
X11863776Y24523726D01*
X11766274Y24426224D01*
X11689668Y24311574D01*
X11636901Y24184182D01*
X11610000Y24048944D01*
X11610000Y23911056D01*
X11636901Y23775818D01*
X11689668Y23648426D01*
X11766274Y23533776D01*
X11863776Y23436274D01*
X11978426Y23359668D01*
X12105818Y23306901D01*
X12241056Y23280000D01*
X12378944Y23280000D01*
X12514182Y23306901D01*
X12609991Y23346586D01*
X12609991Y16207098D01*
X12252894Y15850000D01*
X12191056Y15850000D01*
X12055818Y15823099D01*
X11928426Y15770332D01*
X11813776Y15693726D01*
X11716274Y15596224D01*
X11639668Y15481574D01*
X11586901Y15354182D01*
X11560000Y15218944D01*
X11560000Y15081056D01*
X11586901Y14945818D01*
X11639668Y14818426D01*
X11716274Y14703776D01*
X11813776Y14606274D01*
X11928426Y14529668D01*
X12055818Y14476901D01*
X12191056Y14450000D01*
X12328944Y14450000D01*
X12464182Y14476901D01*
X12591574Y14529668D01*
X12706224Y14606274D01*
X12803726Y14703776D01*
X12880332Y14818426D01*
X12933099Y14945818D01*
X12960000Y15081056D01*
X12960000Y15142894D01*
X13010000Y15192894D01*
X13010000Y9937107D01*
X10462895Y7390000D01*
X10401056Y7390000D01*
X10265818Y7363099D01*
X10138426Y7310332D01*
X10023776Y7233726D01*
X9926274Y7136224D01*
X9849668Y7021574D01*
X9796901Y6894182D01*
X9770000Y6758944D01*
X9770000Y6621056D01*
X9780148Y6570041D01*
X9180000Y6570041D01*
X9180000Y6781150D01*
X9182418Y6805700D01*
X9180000Y6830250D01*
X9180000Y6830259D01*
X9172765Y6903716D01*
X9170021Y6912762D01*
X9170021Y7584822D01*
X9172440Y7609382D01*
X9167149Y7663099D01*
X9162786Y7707396D01*
X9134196Y7801646D01*
X9087767Y7888508D01*
X9025285Y7964643D01*
X9006200Y7980306D01*
X8970030Y8016475D01*
X8970030Y10678944D01*
X9770000Y10678944D01*
X9770000Y10541056D01*
X9796901Y10405818D01*
X9849668Y10278426D01*
X9926274Y10163776D01*
X9970000Y10120050D01*
X9970001Y9129951D01*
X9926274Y9086224D01*
X9849668Y8971574D01*
X9796901Y8844182D01*
X9770000Y8708944D01*
X9770000Y8571056D01*
X9796901Y8435818D01*
X9849668Y8308426D01*
X9926274Y8193776D01*
X10023776Y8096274D01*
X10138426Y8019668D01*
X10265818Y7966901D01*
X10401056Y7940000D01*
X10538944Y7940000D01*
X10674182Y7966901D01*
X10801574Y8019668D01*
X10916224Y8096274D01*
X11013726Y8193776D01*
X11090332Y8308426D01*
X11143099Y8435818D01*
X11170000Y8571056D01*
X11170000Y8708944D01*
X11143099Y8844182D01*
X11090332Y8971574D01*
X11013726Y9086224D01*
X10970000Y9129950D01*
X10970000Y10120050D01*
X11013726Y10163776D01*
X11090332Y10278426D01*
X11143099Y10405818D01*
X11170000Y10541056D01*
X11170000Y10678944D01*
X11143099Y10814182D01*
X11090332Y10941574D01*
X11013726Y11056224D01*
X10916224Y11153726D01*
X10801574Y11230332D01*
X10674182Y11283099D01*
X10538944Y11310000D01*
X10401056Y11310000D01*
X10265818Y11283099D01*
X10138426Y11230332D01*
X10023776Y11153726D01*
X9926274Y11056224D01*
X9849668Y10941574D01*
X9796901Y10814182D01*
X9770000Y10678944D01*
X8970030Y10678944D01*
X8970030Y13513527D01*
X9006197Y13549694D01*
X9025285Y13565359D01*
X9087767Y13641494D01*
X9134196Y13728356D01*
X9159241Y13810919D01*
X9162786Y13822605D01*
X9172440Y13920623D01*
X9170021Y13945183D01*
X9170021Y20007218D01*
X9932804Y20769999D01*
X10023441Y20769999D01*
X10048001Y20767580D01*
X10072561Y20769999D01*
X10146018Y20777234D01*
X10240268Y20805824D01*
X10327130Y20852253D01*
X10403265Y20914735D01*
X10418930Y20933823D01*
X10696182Y21211074D01*
X10715265Y21226735D01*
X10777747Y21302870D01*
X10824176Y21389732D01*
X10852766Y21483982D01*
X10860001Y21557439D01*
X10862420Y21581999D01*
X10860001Y21606559D01*
X10860001Y22133441D01*
X10862420Y22158001D01*
X10852766Y22256018D01*
X10846179Y22277733D01*
X10824176Y22350268D01*
X10777747Y22437130D01*
X10715265Y22513265D01*
X10696182Y22528926D01*
X10418930Y22806177D01*
X10403265Y22825265D01*
X10327130Y22887747D01*
X10240268Y22934176D01*
X10146018Y22962766D01*
X10072561Y22970001D01*
X10048001Y22972420D01*
X10023441Y22970001D01*
X8474561Y22970001D01*
X8450001Y22972420D01*
X8425441Y22970001D01*
X8351984Y22962766D01*
X8257734Y22934176D01*
X8170872Y22887747D01*
X8094737Y22825265D01*
X8079081Y22806187D01*
X7842894Y22570000D01*
X7781056Y22570000D01*
X7645818Y22543099D01*
X7518426Y22490332D01*
X7403776Y22413726D01*
X7306274Y22316224D01*
X7229668Y22201574D01*
X7176901Y22074182D01*
X7150000Y21938944D01*
X7150000Y21801056D01*
X7176901Y21665818D01*
X7229668Y21538426D01*
X7306274Y21423776D01*
X7403776Y21326274D01*
X7518426Y21249668D01*
X7645818Y21196901D01*
X7781056Y21170000D01*
X7918944Y21170000D01*
X8054182Y21196901D01*
X8181574Y21249668D01*
X8296224Y21326274D01*
X8393726Y21423776D01*
X8470332Y21538426D01*
X8523099Y21665818D01*
X8550000Y21801056D01*
X8550000Y21862894D01*
X8657107Y21970001D01*
X9066178Y21970001D01*
X9060000Y21938944D01*
X9060000Y21877107D01*
X7933835Y20750940D01*
X7914747Y20735275D01*
X7859343Y20667764D01*
X6650000Y21877105D01*
X6650000Y21938944D01*
X6623099Y22074182D01*
X6570332Y22201574D01*
X6493726Y22316224D01*
X6396224Y22413726D01*
X6281574Y22490332D01*
X6154182Y22543099D01*
X6018944Y22570000D01*
X5881056Y22570000D01*
X5745818Y22543099D01*
X5618426Y22490332D01*
X5503776Y22413726D01*
X5406274Y22316224D01*
X5329668Y22201574D01*
X5276901Y22074182D01*
X5250000Y21938944D01*
X5250000Y21801056D01*
X5276901Y21665818D01*
X5329668Y21538426D01*
X5406274Y21423776D01*
X5503776Y21326274D01*
X5618426Y21249668D01*
X5745818Y21196901D01*
X5881056Y21170000D01*
X5942895Y21170000D01*
X7370001Y19742892D01*
X7370002Y17053822D01*
X7338944Y17060000D01*
X7201056Y17060000D01*
X7065818Y17033099D01*
X6938426Y16980332D01*
X6823776Y16903726D01*
X6726274Y16806224D01*
X6649668Y16691574D01*
X6596901Y16564182D01*
X6570000Y16428944D01*
X6570000Y16291056D01*
X6596901Y16155818D01*
X6649668Y16028426D01*
X6726274Y15913776D01*
X6823776Y15816274D01*
X6938426Y15739668D01*
X7065818Y15686901D01*
X7201056Y15660000D01*
X7338944Y15660000D01*
X7370002Y15666178D01*
X7370002Y15233824D01*
X7338944Y15240002D01*
X7201056Y15240002D01*
X7065818Y15213101D01*
X6938426Y15160334D01*
X6823776Y15083728D01*
X6726274Y14986226D01*
X6649668Y14871576D01*
X6596901Y14744184D01*
X6570000Y14608946D01*
X6570000Y14471058D01*
X6596901Y14335820D01*
X6649668Y14208428D01*
X6726274Y14093778D01*
X6770001Y14050051D01*
X6770000Y7479950D01*
X6726274Y7436224D01*
X6658305Y7334501D01*
X5075608Y8917197D01*
X5081574Y8919668D01*
X5196224Y8996274D01*
X5293726Y9093776D01*
X5370332Y9208426D01*
X5423099Y9335818D01*
X5450000Y9471056D01*
X5450000Y9608944D01*
X5423099Y9744182D01*
X5370332Y9871574D01*
X5293726Y9986224D01*
X5196224Y10083726D01*
X5081574Y10160332D01*
X4954182Y10213099D01*
X4818944Y10240000D01*
X4681056Y10240000D01*
X4545818Y10213099D01*
X4460011Y10177557D01*
X4460011Y10452443D01*
X4545818Y10416901D01*
X4681056Y10390000D01*
X4818944Y10390000D01*
X4954182Y10416901D01*
X5081574Y10469668D01*
X5196224Y10546274D01*
X5293726Y10643776D01*
X5370332Y10758426D01*
X5423099Y10885818D01*
X5450000Y11021056D01*
X5450000Y11158944D01*
X5423099Y11294182D01*
X5370332Y11421574D01*
X5293726Y11536224D01*
X5196224Y11633726D01*
X5081574Y11710332D01*
X4954182Y11763099D01*
X4818944Y11790000D01*
X4681056Y11790000D01*
X4545818Y11763099D01*
X4460011Y11727557D01*
X4460011Y40208946D01*
X8239998Y40208946D01*
X8239998Y40071058D01*
X8266899Y39935820D01*
X8319666Y39808428D01*
X8396272Y39693778D01*
X8493774Y39596276D01*
X8608424Y39519670D01*
X8735816Y39466903D01*
X8871054Y39440002D01*
X9008942Y39440002D01*
X9144180Y39466903D01*
X9271572Y39519670D01*
X9386222Y39596276D01*
X9483724Y39693778D01*
X9560330Y39808428D01*
X9613097Y39935820D01*
X9639998Y40071058D01*
X9639998Y40208946D01*
X9613097Y40344184D01*
X9560330Y40471576D01*
X9483724Y40586226D01*
X9386222Y40683728D01*
X9271572Y40760334D01*
X9144180Y40813101D01*
X9008942Y40840002D01*
X8871054Y40840002D01*
X8735816Y40813101D01*
X8608424Y40760334D01*
X8493774Y40683728D01*
X8396272Y40586226D01*
X8319666Y40471576D01*
X8266899Y40344184D01*
X8239998Y40208946D01*
X4460011Y40208946D01*
X4460011Y42777208D01*
X8981427Y47298623D01*
X8993776Y47286274D01*
X9108426Y47209668D01*
X9235818Y47156901D01*
X9371056Y47130000D01*
X9508944Y47130000D01*
X9644182Y47156901D01*
X9670000Y47167595D01*
X9670000Y47151056D01*
X9696901Y47015818D01*
X9749668Y46888426D01*
X9826274Y46773776D01*
X9923776Y46676274D01*
X10038426Y46599668D01*
X10165818Y46546901D01*
X10301056Y46520000D01*
X10438944Y46520000D01*
X10574182Y46546901D01*
X10701574Y46599668D01*
X10816224Y46676274D01*
X10913726Y46773776D01*
X10990332Y46888426D01*
X11043099Y47015818D01*
X11070000Y47151056D01*
X11070000Y47288944D01*
X11043099Y47424182D01*
X10990332Y47551574D01*
X10913726Y47666224D01*
X10816224Y47763726D01*
X10701574Y47840332D01*
X10574182Y47893099D01*
X10438944Y47920000D01*
X10301056Y47920000D01*
X10165818Y47893099D01*
X10140000Y47882405D01*
X10140000Y47898944D01*
X10113099Y48034182D01*
X10060332Y48161574D01*
X9983726Y48276224D01*
X9886224Y48373726D01*
X9771574Y48450332D01*
X9644182Y48503099D01*
X9610000Y48509898D01*
X9610000Y48568944D01*
X9583099Y48704182D01*
X9530332Y48831574D01*
X9453726Y48946224D01*
X9356224Y49043726D01*
X9241574Y49120332D01*
X9114182Y49173099D01*
X8978944Y49200000D01*
X8841056Y49200000D01*
X8705818Y49173099D01*
X8578426Y49120332D01*
X8463776Y49043726D01*
X8366274Y48946224D01*
X8289668Y48831574D01*
X8236901Y48704182D01*
X8210000Y48568944D01*
X8210000Y48507107D01*
X3472605Y43769710D01*
X3480000Y43806886D01*
X3480000Y44053114D01*
X3431963Y44294611D01*
X3337735Y44522097D01*
X3200938Y44726828D01*
X3026828Y44900938D01*
X2822097Y45037735D01*
X2594611Y45131963D01*
X2353114Y45180000D01*
X2106886Y45180000D01*
X1865389Y45131963D01*
X1637903Y45037735D01*
X1433172Y44900938D01*
X1259062Y44726828D01*
X1122265Y44522097D01*
X1028037Y44294611D01*
X980000Y44053114D01*
X450000Y44053114D01*
X450000Y49478944D01*
X6920000Y49478944D01*
X6920000Y49341056D01*
X6946901Y49205818D01*
X6999668Y49078426D01*
X7076274Y48963776D01*
X7173776Y48866274D01*
X7288426Y48789668D01*
X7415818Y48736901D01*
X7551056Y48710000D01*
X7688944Y48710000D01*
X7824182Y48736901D01*
X7951574Y48789668D01*
X8066224Y48866274D01*
X8163726Y48963776D01*
X8240332Y49078426D01*
X8293099Y49205818D01*
X8320000Y49341056D01*
X8320000Y49478944D01*
X8293099Y49614182D01*
X8240332Y49741574D01*
X8163726Y49856224D01*
X8066224Y49953726D01*
X7951574Y50030332D01*
X7824182Y50083099D01*
X7688944Y50110000D01*
X7551056Y50110000D01*
X7415818Y50083099D01*
X7288426Y50030332D01*
X7173776Y49953726D01*
X7076274Y49856224D01*
X6999668Y49741574D01*
X6946901Y49614182D01*
X6920000Y49478944D01*
X450000Y49478944D01*
X450000Y52977994D01*
X500681Y53494876D01*
X644403Y53970906D01*
X777114Y54220500D01*
X7118065Y54220500D01*
X7118065Y53319500D01*
X7133464Y53163148D01*
X7179071Y53012804D01*
X7253131Y52874247D01*
X7352800Y52752800D01*
X7474247Y52653131D01*
X7612804Y52579071D01*
X7763148Y52533464D01*
X7919500Y52518065D01*
X8820500Y52518065D01*
X8976852Y52533464D01*
X9127196Y52579071D01*
X9265753Y52653131D01*
X9387200Y52752800D01*
X9486869Y52874247D01*
X9560929Y53012804D01*
X9606536Y53163148D01*
X9621935Y53319500D01*
X9621935Y53893114D01*
X9660000Y53893114D01*
X9660000Y53646886D01*
X9708037Y53405389D01*
X9802265Y53177903D01*
X9939062Y52973172D01*
X10113172Y52799062D01*
X10317903Y52662265D01*
X10545389Y52568037D01*
X10686340Y52540000D01*
X10631056Y52540000D01*
X10495818Y52513099D01*
X10368426Y52460332D01*
X10253776Y52383726D01*
X10156274Y52286224D01*
X10079668Y52171574D01*
X10026901Y52044182D01*
X10000000Y51908944D01*
X10000000Y51771056D01*
X10026901Y51635818D01*
X10079668Y51508426D01*
X10156274Y51393776D01*
X10253776Y51296274D01*
X10368426Y51219668D01*
X10495818Y51166901D01*
X10631056Y51140000D01*
X10768944Y51140000D01*
X10904182Y51166901D01*
X11031574Y51219668D01*
X11146224Y51296274D01*
X11243726Y51393776D01*
X11320332Y51508426D01*
X11373099Y51635818D01*
X11400000Y51771056D01*
X11400000Y51908944D01*
X11373099Y52044182D01*
X11320332Y52171574D01*
X11243726Y52286224D01*
X11146224Y52383726D01*
X11031574Y52460332D01*
X10904182Y52513099D01*
X10869489Y52520000D01*
X11033114Y52520000D01*
X11274611Y52568037D01*
X11502097Y52662265D01*
X11706828Y52799062D01*
X11880938Y52973172D01*
X12017735Y53177903D01*
X12111963Y53405389D01*
X12160000Y53646886D01*
X12160000Y53893114D01*
X12111963Y54134611D01*
X12017735Y54362097D01*
X11880938Y54566828D01*
X11706828Y54740938D01*
X11502097Y54877735D01*
X11274611Y54971963D01*
X11033114Y55020000D01*
X10786886Y55020000D01*
X10545389Y54971963D01*
X10317903Y54877735D01*
X10113172Y54740938D01*
X9939062Y54566828D01*
X9802265Y54362097D01*
X9708037Y54134611D01*
X9660000Y53893114D01*
X9621935Y53893114D01*
X9621935Y54220500D01*
X9606536Y54376852D01*
X9560929Y54527196D01*
X9486869Y54665753D01*
X9387200Y54787200D01*
X9265753Y54886869D01*
X9127196Y54960929D01*
X8976852Y55006536D01*
X8820500Y55021935D01*
X7919500Y55021935D01*
X7763148Y55006536D01*
X7612804Y54960929D01*
X7474247Y54886869D01*
X7352800Y54787200D01*
X7253131Y54665753D01*
X7179071Y54527196D01*
X7133464Y54376852D01*
X7118065Y54220500D01*
X777114Y54220500D01*
X877850Y54409957D01*
X1192125Y54795296D01*
X1575266Y55112258D01*
X2012670Y55348761D01*
X2487684Y55495803D01*
X3003335Y55550000D01*
X30977994Y55550000D01*
X31494876Y55499319D01*
G36*
X18503776Y12896274D02*
G01*
X18618426Y12819668D01*
X18745818Y12766901D01*
X18881056Y12740000D01*
X19018944Y12740000D01*
X19050002Y12746178D01*
X19050001Y8264559D01*
X19047582Y8239999D01*
X19050001Y8215440D01*
X19057236Y8141983D01*
X19085826Y8047733D01*
X19132255Y7960870D01*
X19194737Y7884735D01*
X19213825Y7869070D01*
X19850000Y7232894D01*
X19850000Y7171056D01*
X19876901Y7035818D01*
X19929668Y6908426D01*
X20006274Y6793776D01*
X20103776Y6696274D01*
X20218426Y6619668D01*
X20338237Y6570041D01*
X11159852Y6570041D01*
X11170000Y6621056D01*
X11170000Y6682895D01*
X13410000Y8922894D01*
X13410000Y7829950D01*
X13366274Y7786224D01*
X13289668Y7671574D01*
X13236901Y7544182D01*
X13210000Y7408944D01*
X13210000Y7271056D01*
X13236901Y7135818D01*
X13289668Y7008426D01*
X13366274Y6893776D01*
X13463776Y6796274D01*
X13578426Y6719668D01*
X13705818Y6666901D01*
X13841056Y6640000D01*
X13978944Y6640000D01*
X14114182Y6666901D01*
X14241574Y6719668D01*
X14356224Y6796274D01*
X14453726Y6893776D01*
X14530332Y7008426D01*
X14583099Y7135818D01*
X14610000Y7271056D01*
X14610000Y7408944D01*
X14583099Y7544182D01*
X14530332Y7671574D01*
X14453726Y7786224D01*
X14410000Y7829950D01*
X14410000Y12682894D01*
X14667106Y12940000D01*
X18460050Y12940000D01*
X18503776Y12896274D01*
G37*
X18503776Y12896274D02*
X18618426Y12819668D01*
X18745818Y12766901D01*
X18881056Y12740000D01*
X19018944Y12740000D01*
X19050002Y12746178D01*
X19050001Y8264559D01*
X19047582Y8239999D01*
X19050001Y8215440D01*
X19057236Y8141983D01*
X19085826Y8047733D01*
X19132255Y7960870D01*
X19194737Y7884735D01*
X19213825Y7869070D01*
X19850000Y7232894D01*
X19850000Y7171056D01*
X19876901Y7035818D01*
X19929668Y6908426D01*
X20006274Y6793776D01*
X20103776Y6696274D01*
X20218426Y6619668D01*
X20338237Y6570041D01*
X11159852Y6570041D01*
X11170000Y6621056D01*
X11170000Y6682895D01*
X13410000Y8922894D01*
X13410000Y7829950D01*
X13366274Y7786224D01*
X13289668Y7671574D01*
X13236901Y7544182D01*
X13210000Y7408944D01*
X13210000Y7271056D01*
X13236901Y7135818D01*
X13289668Y7008426D01*
X13366274Y6893776D01*
X13463776Y6796274D01*
X13578426Y6719668D01*
X13705818Y6666901D01*
X13841056Y6640000D01*
X13978944Y6640000D01*
X14114182Y6666901D01*
X14241574Y6719668D01*
X14356224Y6796274D01*
X14453726Y6893776D01*
X14530332Y7008426D01*
X14583099Y7135818D01*
X14610000Y7271056D01*
X14610000Y7408944D01*
X14583099Y7544182D01*
X14530332Y7671574D01*
X14453726Y7786224D01*
X14410000Y7829950D01*
X14410000Y12682894D01*
X14667106Y12940000D01*
X18460050Y12940000D01*
X18503776Y12896274D01*
M02*
