G04 #@! TF.GenerationSoftware,KiCad,Pcbnew,(5.1.6)-1*
G04 #@! TF.CreationDate,2020-06-03T08:45:57+03:00*
G04 #@! TF.ProjectId,TMCM-0021 v1.0,544d434d-2d30-4303-9231-2076312e302e,rev?*
G04 #@! TF.SameCoordinates,Original*
G04 #@! TF.FileFunction,Soldermask,Top*
G04 #@! TF.FilePolarity,Negative*
%FSLAX46Y46*%
G04 Gerber Fmt 4.6, Leading zero omitted, Abs format (unit mm)*
G04 Created by KiCad (PCBNEW (5.1.6)-1) date 2020-06-03 08:45:57*
%MOMM*%
%LPD*%
G01*
G04 APERTURE LIST*
%ADD10C,0.100000*%
G04 APERTURE END LIST*
D10*
G36*
X4331313Y6240477D02*
G01*
X4849980Y6025638D01*
X4849981Y6025637D01*
X5316769Y5713740D01*
X5713740Y5316769D01*
X5891182Y5051207D01*
X6025638Y4849980D01*
X6240477Y4331313D01*
X6350000Y3780702D01*
X6350000Y3219298D01*
X6240477Y2668687D01*
X6025638Y2150020D01*
X6025637Y2150019D01*
X5713740Y1683231D01*
X5316769Y1286260D01*
X5004871Y1077857D01*
X4849980Y974362D01*
X4331313Y759523D01*
X3780702Y650000D01*
X3219298Y650000D01*
X2668687Y759523D01*
X2150020Y974362D01*
X1995129Y1077857D01*
X1683231Y1286260D01*
X1286260Y1683231D01*
X974363Y2150019D01*
X974362Y2150020D01*
X759523Y2668687D01*
X650000Y3219298D01*
X650000Y3780702D01*
X759523Y4331313D01*
X974362Y4849980D01*
X1108818Y5051207D01*
X1286260Y5316769D01*
X1683231Y5713740D01*
X2150019Y6025637D01*
X2150020Y6025638D01*
X2668687Y6240477D01*
X3219298Y6350000D01*
X3780702Y6350000D01*
X4331313Y6240477D01*
G37*
G36*
X31434561Y3106943D02*
G01*
X31492520Y3095414D01*
X31656310Y3027570D01*
X31803717Y2929076D01*
X31929076Y2803717D01*
X32027570Y2656310D01*
X32095414Y2492520D01*
X32130000Y2318642D01*
X32130000Y2141358D01*
X32095414Y1967480D01*
X32027570Y1803690D01*
X31929076Y1656283D01*
X31803717Y1530924D01*
X31656310Y1432430D01*
X31492520Y1364586D01*
X31471505Y1360406D01*
X31318644Y1330000D01*
X31141356Y1330000D01*
X30988495Y1360406D01*
X30967480Y1364586D01*
X30803690Y1432430D01*
X30656283Y1530924D01*
X30530924Y1656283D01*
X30432430Y1803690D01*
X30364586Y1967480D01*
X30330000Y2141358D01*
X30330000Y2318642D01*
X30364586Y2492520D01*
X30432430Y2656310D01*
X30530924Y2803717D01*
X30656283Y2929076D01*
X30803690Y3027570D01*
X30967480Y3095414D01*
X31025439Y3106943D01*
X31141356Y3130000D01*
X31318644Y3130000D01*
X31434561Y3106943D01*
G37*
G36*
X28894561Y3106943D02*
G01*
X28952520Y3095414D01*
X29116310Y3027570D01*
X29263717Y2929076D01*
X29389076Y2803717D01*
X29487570Y2656310D01*
X29555414Y2492520D01*
X29590000Y2318642D01*
X29590000Y2141358D01*
X29555414Y1967480D01*
X29487570Y1803690D01*
X29389076Y1656283D01*
X29263717Y1530924D01*
X29116310Y1432430D01*
X28952520Y1364586D01*
X28931505Y1360406D01*
X28778644Y1330000D01*
X28601356Y1330000D01*
X28448495Y1360406D01*
X28427480Y1364586D01*
X28263690Y1432430D01*
X28116283Y1530924D01*
X27990924Y1656283D01*
X27892430Y1803690D01*
X27824586Y1967480D01*
X27790000Y2141358D01*
X27790000Y2318642D01*
X27824586Y2492520D01*
X27892430Y2656310D01*
X27990924Y2803717D01*
X28116283Y2929076D01*
X28263690Y3027570D01*
X28427480Y3095414D01*
X28485439Y3106943D01*
X28601356Y3130000D01*
X28778644Y3130000D01*
X28894561Y3106943D01*
G37*
G36*
X26354561Y3106943D02*
G01*
X26412520Y3095414D01*
X26576310Y3027570D01*
X26723717Y2929076D01*
X26849076Y2803717D01*
X26947570Y2656310D01*
X27015414Y2492520D01*
X27050000Y2318642D01*
X27050000Y2141358D01*
X27015414Y1967480D01*
X26947570Y1803690D01*
X26849076Y1656283D01*
X26723717Y1530924D01*
X26576310Y1432430D01*
X26412520Y1364586D01*
X26391505Y1360406D01*
X26238644Y1330000D01*
X26061356Y1330000D01*
X25908495Y1360406D01*
X25887480Y1364586D01*
X25723690Y1432430D01*
X25576283Y1530924D01*
X25450924Y1656283D01*
X25352430Y1803690D01*
X25284586Y1967480D01*
X25250000Y2141358D01*
X25250000Y2318642D01*
X25284586Y2492520D01*
X25352430Y2656310D01*
X25450924Y2803717D01*
X25576283Y2929076D01*
X25723690Y3027570D01*
X25887480Y3095414D01*
X25945439Y3106943D01*
X26061356Y3130000D01*
X26238644Y3130000D01*
X26354561Y3106943D01*
G37*
G36*
X23814561Y3106943D02*
G01*
X23872520Y3095414D01*
X24036310Y3027570D01*
X24183717Y2929076D01*
X24309076Y2803717D01*
X24407570Y2656310D01*
X24475414Y2492520D01*
X24510000Y2318642D01*
X24510000Y2141358D01*
X24475414Y1967480D01*
X24407570Y1803690D01*
X24309076Y1656283D01*
X24183717Y1530924D01*
X24036310Y1432430D01*
X23872520Y1364586D01*
X23851505Y1360406D01*
X23698644Y1330000D01*
X23521356Y1330000D01*
X23368495Y1360406D01*
X23347480Y1364586D01*
X23183690Y1432430D01*
X23036283Y1530924D01*
X22910924Y1656283D01*
X22812430Y1803690D01*
X22744586Y1967480D01*
X22710000Y2141358D01*
X22710000Y2318642D01*
X22744586Y2492520D01*
X22812430Y2656310D01*
X22910924Y2803717D01*
X23036283Y2929076D01*
X23183690Y3027570D01*
X23347480Y3095414D01*
X23405439Y3106943D01*
X23521356Y3130000D01*
X23698644Y3130000D01*
X23814561Y3106943D01*
G37*
G36*
X21274561Y3106943D02*
G01*
X21332520Y3095414D01*
X21496310Y3027570D01*
X21643717Y2929076D01*
X21769076Y2803717D01*
X21867570Y2656310D01*
X21935414Y2492520D01*
X21970000Y2318642D01*
X21970000Y2141358D01*
X21935414Y1967480D01*
X21867570Y1803690D01*
X21769076Y1656283D01*
X21643717Y1530924D01*
X21496310Y1432430D01*
X21332520Y1364586D01*
X21311505Y1360406D01*
X21158644Y1330000D01*
X20981356Y1330000D01*
X20828495Y1360406D01*
X20807480Y1364586D01*
X20643690Y1432430D01*
X20496283Y1530924D01*
X20370924Y1656283D01*
X20272430Y1803690D01*
X20204586Y1967480D01*
X20170000Y2141358D01*
X20170000Y2318642D01*
X20204586Y2492520D01*
X20272430Y2656310D01*
X20370924Y2803717D01*
X20496283Y2929076D01*
X20643690Y3027570D01*
X20807480Y3095414D01*
X20865439Y3106943D01*
X20981356Y3130000D01*
X21158644Y3130000D01*
X21274561Y3106943D01*
G37*
G36*
X16194561Y3106943D02*
G01*
X16252520Y3095414D01*
X16416310Y3027570D01*
X16563717Y2929076D01*
X16689076Y2803717D01*
X16787570Y2656310D01*
X16855414Y2492520D01*
X16890000Y2318642D01*
X16890000Y2141358D01*
X16855414Y1967480D01*
X16787570Y1803690D01*
X16689076Y1656283D01*
X16563717Y1530924D01*
X16416310Y1432430D01*
X16252520Y1364586D01*
X16231505Y1360406D01*
X16078644Y1330000D01*
X15901356Y1330000D01*
X15748495Y1360406D01*
X15727480Y1364586D01*
X15563690Y1432430D01*
X15416283Y1530924D01*
X15290924Y1656283D01*
X15192430Y1803690D01*
X15124586Y1967480D01*
X15090000Y2141358D01*
X15090000Y2318642D01*
X15124586Y2492520D01*
X15192430Y2656310D01*
X15290924Y2803717D01*
X15416283Y2929076D01*
X15563690Y3027570D01*
X15727480Y3095414D01*
X15785439Y3106943D01*
X15901356Y3130000D01*
X16078644Y3130000D01*
X16194561Y3106943D01*
G37*
G36*
X18734561Y3106943D02*
G01*
X18792520Y3095414D01*
X18956310Y3027570D01*
X19103717Y2929076D01*
X19229076Y2803717D01*
X19327570Y2656310D01*
X19395414Y2492520D01*
X19430000Y2318642D01*
X19430000Y2141358D01*
X19395414Y1967480D01*
X19327570Y1803690D01*
X19229076Y1656283D01*
X19103717Y1530924D01*
X18956310Y1432430D01*
X18792520Y1364586D01*
X18771505Y1360406D01*
X18618644Y1330000D01*
X18441356Y1330000D01*
X18288495Y1360406D01*
X18267480Y1364586D01*
X18103690Y1432430D01*
X17956283Y1530924D01*
X17830924Y1656283D01*
X17732430Y1803690D01*
X17664586Y1967480D01*
X17630000Y2141358D01*
X17630000Y2318642D01*
X17664586Y2492520D01*
X17732430Y2656310D01*
X17830924Y2803717D01*
X17956283Y2929076D01*
X18103690Y3027570D01*
X18267480Y3095414D01*
X18325439Y3106943D01*
X18441356Y3130000D01*
X18618644Y3130000D01*
X18734561Y3106943D01*
G37*
G36*
X8950806Y3122145D02*
G01*
X9025143Y3099594D01*
X9093647Y3062978D01*
X9153696Y3013696D01*
X9202978Y2953647D01*
X9239594Y2885143D01*
X9262145Y2810806D01*
X9270000Y2731046D01*
X9270000Y1728954D01*
X9262145Y1649194D01*
X9239594Y1574857D01*
X9202978Y1506353D01*
X9153696Y1446304D01*
X9093647Y1397022D01*
X9025143Y1360406D01*
X8950806Y1337855D01*
X8871046Y1330000D01*
X7868954Y1330000D01*
X7789194Y1337855D01*
X7714857Y1360406D01*
X7646353Y1397022D01*
X7586304Y1446304D01*
X7537022Y1506353D01*
X7500406Y1574857D01*
X7477855Y1649194D01*
X7470000Y1728954D01*
X7470000Y2731046D01*
X7477855Y2810806D01*
X7500406Y2885143D01*
X7537022Y2953647D01*
X7586304Y3013696D01*
X7646353Y3062978D01*
X7714857Y3099594D01*
X7789194Y3122145D01*
X7868954Y3130000D01*
X8871046Y3130000D01*
X8950806Y3122145D01*
G37*
G36*
X13654561Y3106943D02*
G01*
X13712520Y3095414D01*
X13876310Y3027570D01*
X14023717Y2929076D01*
X14149076Y2803717D01*
X14247570Y2656310D01*
X14315414Y2492520D01*
X14350000Y2318642D01*
X14350000Y2141358D01*
X14315414Y1967480D01*
X14247570Y1803690D01*
X14149076Y1656283D01*
X14023717Y1530924D01*
X13876310Y1432430D01*
X13712520Y1364586D01*
X13691505Y1360406D01*
X13538644Y1330000D01*
X13361356Y1330000D01*
X13208495Y1360406D01*
X13187480Y1364586D01*
X13023690Y1432430D01*
X12876283Y1530924D01*
X12750924Y1656283D01*
X12652430Y1803690D01*
X12584586Y1967480D01*
X12550000Y2141358D01*
X12550000Y2318642D01*
X12584586Y2492520D01*
X12652430Y2656310D01*
X12750924Y2803717D01*
X12876283Y2929076D01*
X13023690Y3027570D01*
X13187480Y3095414D01*
X13245439Y3106943D01*
X13361356Y3130000D01*
X13538644Y3130000D01*
X13654561Y3106943D01*
G37*
G36*
X11114561Y3106943D02*
G01*
X11172520Y3095414D01*
X11336310Y3027570D01*
X11483717Y2929076D01*
X11609076Y2803717D01*
X11707570Y2656310D01*
X11775414Y2492520D01*
X11810000Y2318642D01*
X11810000Y2141358D01*
X11775414Y1967480D01*
X11707570Y1803690D01*
X11609076Y1656283D01*
X11483717Y1530924D01*
X11336310Y1432430D01*
X11172520Y1364586D01*
X11151505Y1360406D01*
X10998644Y1330000D01*
X10821356Y1330000D01*
X10668495Y1360406D01*
X10647480Y1364586D01*
X10483690Y1432430D01*
X10336283Y1530924D01*
X10210924Y1656283D01*
X10112430Y1803690D01*
X10044586Y1967480D01*
X10010000Y2141358D01*
X10010000Y2318642D01*
X10044586Y2492520D01*
X10112430Y2656310D01*
X10210924Y2803717D01*
X10336283Y2929076D01*
X10483690Y3027570D01*
X10647480Y3095414D01*
X10705439Y3106943D01*
X10821356Y3130000D01*
X10998644Y3130000D01*
X11114561Y3106943D01*
G37*
G36*
X21838879Y5330560D02*
G01*
X21879870Y5318126D01*
X21917645Y5297935D01*
X21950758Y5270758D01*
X21977935Y5237645D01*
X21998126Y5199870D01*
X22010560Y5158879D01*
X22015000Y5113796D01*
X22015000Y4506204D01*
X22010560Y4461121D01*
X21998126Y4420130D01*
X21977935Y4382355D01*
X21950758Y4349242D01*
X21917645Y4322065D01*
X21879870Y4301874D01*
X21838879Y4289440D01*
X21793796Y4285000D01*
X21261204Y4285000D01*
X21216121Y4289440D01*
X21175130Y4301874D01*
X21137355Y4322065D01*
X21104242Y4349242D01*
X21077065Y4382355D01*
X21056874Y4420130D01*
X21044440Y4461121D01*
X21040000Y4506204D01*
X21040000Y5113796D01*
X21044440Y5158879D01*
X21056874Y5199870D01*
X21077065Y5237645D01*
X21104242Y5270758D01*
X21137355Y5297935D01*
X21175130Y5318126D01*
X21216121Y5330560D01*
X21261204Y5335000D01*
X21793796Y5335000D01*
X21838879Y5330560D01*
G37*
G36*
X20263879Y5330560D02*
G01*
X20304870Y5318126D01*
X20342645Y5297935D01*
X20375758Y5270758D01*
X20402935Y5237645D01*
X20423126Y5199870D01*
X20435560Y5158879D01*
X20440000Y5113796D01*
X20440000Y4506204D01*
X20435560Y4461121D01*
X20423126Y4420130D01*
X20402935Y4382355D01*
X20375758Y4349242D01*
X20342645Y4322065D01*
X20304870Y4301874D01*
X20263879Y4289440D01*
X20218796Y4285000D01*
X19686204Y4285000D01*
X19641121Y4289440D01*
X19600130Y4301874D01*
X19562355Y4322065D01*
X19529242Y4349242D01*
X19502065Y4382355D01*
X19481874Y4420130D01*
X19469440Y4461121D01*
X19465000Y4506204D01*
X19465000Y5113796D01*
X19469440Y5158879D01*
X19481874Y5199870D01*
X19502065Y5237645D01*
X19529242Y5270758D01*
X19562355Y5297935D01*
X19600130Y5318126D01*
X19641121Y5330560D01*
X19686204Y5335000D01*
X20218796Y5335000D01*
X20263879Y5330560D01*
G37*
G36*
X18838879Y5330560D02*
G01*
X18879870Y5318126D01*
X18917645Y5297935D01*
X18950758Y5270758D01*
X18977935Y5237645D01*
X18998126Y5199870D01*
X19010560Y5158879D01*
X19015000Y5113796D01*
X19015000Y4506204D01*
X19010560Y4461121D01*
X18998126Y4420130D01*
X18977935Y4382355D01*
X18950758Y4349242D01*
X18917645Y4322065D01*
X18879870Y4301874D01*
X18838879Y4289440D01*
X18793796Y4285000D01*
X18261204Y4285000D01*
X18216121Y4289440D01*
X18175130Y4301874D01*
X18137355Y4322065D01*
X18104242Y4349242D01*
X18077065Y4382355D01*
X18056874Y4420130D01*
X18044440Y4461121D01*
X18040000Y4506204D01*
X18040000Y5113796D01*
X18044440Y5158879D01*
X18056874Y5199870D01*
X18077065Y5237645D01*
X18104242Y5270758D01*
X18137355Y5297935D01*
X18175130Y5318126D01*
X18216121Y5330560D01*
X18261204Y5335000D01*
X18793796Y5335000D01*
X18838879Y5330560D01*
G37*
G36*
X17263879Y5330560D02*
G01*
X17304870Y5318126D01*
X17342645Y5297935D01*
X17375758Y5270758D01*
X17402935Y5237645D01*
X17423126Y5199870D01*
X17435560Y5158879D01*
X17440000Y5113796D01*
X17440000Y4506204D01*
X17435560Y4461121D01*
X17423126Y4420130D01*
X17402935Y4382355D01*
X17375758Y4349242D01*
X17342645Y4322065D01*
X17304870Y4301874D01*
X17263879Y4289440D01*
X17218796Y4285000D01*
X16686204Y4285000D01*
X16641121Y4289440D01*
X16600130Y4301874D01*
X16562355Y4322065D01*
X16529242Y4349242D01*
X16502065Y4382355D01*
X16481874Y4420130D01*
X16469440Y4461121D01*
X16465000Y4506204D01*
X16465000Y5113796D01*
X16469440Y5158879D01*
X16481874Y5199870D01*
X16502065Y5237645D01*
X16529242Y5270758D01*
X16562355Y5297935D01*
X16600130Y5318126D01*
X16641121Y5330560D01*
X16686204Y5335000D01*
X17218796Y5335000D01*
X17263879Y5330560D01*
G37*
G36*
X26300439Y5915749D02*
G01*
X26383351Y5899257D01*
X26443656Y5874278D01*
X26528941Y5838952D01*
X26659969Y5751402D01*
X26771402Y5639969D01*
X26858952Y5508941D01*
X26919257Y5363350D01*
X26950000Y5208795D01*
X26950000Y5051205D01*
X26919257Y4896650D01*
X26858952Y4751059D01*
X26771402Y4620031D01*
X26659969Y4508598D01*
X26528941Y4421048D01*
X26462023Y4393330D01*
X26383351Y4360743D01*
X26331832Y4350495D01*
X26228795Y4330000D01*
X26071205Y4330000D01*
X25968168Y4350495D01*
X25916649Y4360743D01*
X25837977Y4393330D01*
X25771059Y4421048D01*
X25640031Y4508598D01*
X25528598Y4620031D01*
X25441048Y4751059D01*
X25380743Y4896650D01*
X25350000Y5051205D01*
X25350000Y5208795D01*
X25380743Y5363350D01*
X25441048Y5508941D01*
X25528598Y5639969D01*
X25640031Y5751402D01*
X25771059Y5838952D01*
X25856344Y5874278D01*
X25916649Y5899257D01*
X25999561Y5915749D01*
X26071205Y5930000D01*
X26228795Y5930000D01*
X26300439Y5915749D01*
G37*
G36*
X28840439Y5915749D02*
G01*
X28923351Y5899257D01*
X28983656Y5874278D01*
X29068941Y5838952D01*
X29199969Y5751402D01*
X29311402Y5639969D01*
X29398952Y5508941D01*
X29459257Y5363350D01*
X29490000Y5208795D01*
X29490000Y5051205D01*
X29459257Y4896650D01*
X29398952Y4751059D01*
X29311402Y4620031D01*
X29199969Y4508598D01*
X29068941Y4421048D01*
X29002023Y4393330D01*
X28923351Y4360743D01*
X28871832Y4350495D01*
X28768795Y4330000D01*
X28611205Y4330000D01*
X28508168Y4350495D01*
X28456649Y4360743D01*
X28377977Y4393330D01*
X28311059Y4421048D01*
X28180031Y4508598D01*
X28068598Y4620031D01*
X27981048Y4751059D01*
X27920743Y4896650D01*
X27890000Y5051205D01*
X27890000Y5208795D01*
X27920743Y5363350D01*
X27981048Y5508941D01*
X28068598Y5639969D01*
X28180031Y5751402D01*
X28311059Y5838952D01*
X28396344Y5874278D01*
X28456649Y5899257D01*
X28539561Y5915749D01*
X28611205Y5930000D01*
X28768795Y5930000D01*
X28840439Y5915749D01*
G37*
G36*
X31380439Y5915749D02*
G01*
X31463351Y5899257D01*
X31523656Y5874278D01*
X31608941Y5838952D01*
X31739969Y5751402D01*
X31851402Y5639969D01*
X31938952Y5508941D01*
X31999257Y5363350D01*
X32030000Y5208795D01*
X32030000Y5051205D01*
X31999257Y4896650D01*
X31938952Y4751059D01*
X31851402Y4620031D01*
X31739969Y4508598D01*
X31608941Y4421048D01*
X31542023Y4393330D01*
X31463351Y4360743D01*
X31411832Y4350495D01*
X31308795Y4330000D01*
X31151205Y4330000D01*
X31048168Y4350495D01*
X30996649Y4360743D01*
X30917977Y4393330D01*
X30851059Y4421048D01*
X30720031Y4508598D01*
X30608598Y4620031D01*
X30521048Y4751059D01*
X30460743Y4896650D01*
X30430000Y5051205D01*
X30430000Y5208795D01*
X30460743Y5363350D01*
X30521048Y5508941D01*
X30608598Y5639969D01*
X30720031Y5751402D01*
X30851059Y5838952D01*
X30936344Y5874278D01*
X30996649Y5899257D01*
X31079561Y5915749D01*
X31151205Y5930000D01*
X31308795Y5930000D01*
X31380439Y5915749D01*
G37*
G36*
X23760439Y5915749D02*
G01*
X23843351Y5899257D01*
X23903656Y5874278D01*
X23988941Y5838952D01*
X24119969Y5751402D01*
X24231402Y5639969D01*
X24318952Y5508941D01*
X24379257Y5363350D01*
X24410000Y5208795D01*
X24410000Y5051205D01*
X24379257Y4896650D01*
X24318952Y4751059D01*
X24231402Y4620031D01*
X24119969Y4508598D01*
X23988941Y4421048D01*
X23922023Y4393330D01*
X23843351Y4360743D01*
X23791832Y4350495D01*
X23688795Y4330000D01*
X23531205Y4330000D01*
X23428168Y4350495D01*
X23376649Y4360743D01*
X23297977Y4393330D01*
X23231059Y4421048D01*
X23100031Y4508598D01*
X22988598Y4620031D01*
X22901048Y4751059D01*
X22840743Y4896650D01*
X22810000Y5051205D01*
X22810000Y5208795D01*
X22840743Y5363350D01*
X22901048Y5508941D01*
X22988598Y5639969D01*
X23100031Y5751402D01*
X23231059Y5838952D01*
X23316344Y5874278D01*
X23376649Y5899257D01*
X23459561Y5915749D01*
X23531205Y5930000D01*
X23688795Y5930000D01*
X23760439Y5915749D01*
G37*
G36*
X15722900Y6310179D02*
G01*
X15767615Y6296615D01*
X15808824Y6274587D01*
X15844944Y6244944D01*
X15874587Y6208824D01*
X15896615Y6167615D01*
X15910179Y6122900D01*
X15915000Y6073947D01*
X15915000Y6006053D01*
X15910179Y5957100D01*
X15896615Y5912385D01*
X15874587Y5871176D01*
X15844944Y5835056D01*
X15808824Y5805413D01*
X15767615Y5783385D01*
X15722900Y5769821D01*
X15673947Y5765000D01*
X14606053Y5765000D01*
X14557100Y5769821D01*
X14512385Y5783385D01*
X14471176Y5805413D01*
X14435056Y5835056D01*
X14405413Y5871176D01*
X14383385Y5912385D01*
X14369821Y5957100D01*
X14365000Y6006053D01*
X14365000Y6073947D01*
X14369821Y6122900D01*
X14383385Y6167615D01*
X14405413Y6208824D01*
X14435056Y6244944D01*
X14471176Y6274587D01*
X14512385Y6296615D01*
X14557100Y6310179D01*
X14606053Y6315000D01*
X15673947Y6315000D01*
X15722900Y6310179D01*
G37*
G36*
X9822900Y6310179D02*
G01*
X9867615Y6296615D01*
X9908824Y6274587D01*
X9944944Y6244944D01*
X9974587Y6208824D01*
X9996615Y6167615D01*
X10010179Y6122900D01*
X10015000Y6073947D01*
X10015000Y6006053D01*
X10010179Y5957100D01*
X9996615Y5912385D01*
X9974587Y5871176D01*
X9944944Y5835056D01*
X9908824Y5805413D01*
X9867615Y5783385D01*
X9822900Y5769821D01*
X9773947Y5765000D01*
X8706053Y5765000D01*
X8657100Y5769821D01*
X8612385Y5783385D01*
X8571176Y5805413D01*
X8535056Y5835056D01*
X8505413Y5871176D01*
X8483385Y5912385D01*
X8469821Y5957100D01*
X8465000Y6006053D01*
X8465000Y6073947D01*
X8469821Y6122900D01*
X8483385Y6167615D01*
X8505413Y6208824D01*
X8535056Y6244944D01*
X8571176Y6274587D01*
X8612385Y6296615D01*
X8657100Y6310179D01*
X8706053Y6315000D01*
X9773947Y6315000D01*
X9822900Y6310179D01*
G37*
G36*
X15722900Y6960179D02*
G01*
X15767615Y6946615D01*
X15808824Y6924587D01*
X15844944Y6894944D01*
X15874587Y6858824D01*
X15896615Y6817615D01*
X15910179Y6772900D01*
X15915000Y6723947D01*
X15915000Y6656053D01*
X15910179Y6607100D01*
X15896615Y6562385D01*
X15874587Y6521176D01*
X15844944Y6485056D01*
X15808824Y6455413D01*
X15767615Y6433385D01*
X15722900Y6419821D01*
X15673947Y6415000D01*
X14606053Y6415000D01*
X14557100Y6419821D01*
X14512385Y6433385D01*
X14471176Y6455413D01*
X14435056Y6485056D01*
X14405413Y6521176D01*
X14383385Y6562385D01*
X14369821Y6607100D01*
X14365000Y6656053D01*
X14365000Y6723947D01*
X14369821Y6772900D01*
X14383385Y6817615D01*
X14405413Y6858824D01*
X14435056Y6894944D01*
X14471176Y6924587D01*
X14512385Y6946615D01*
X14557100Y6960179D01*
X14606053Y6965000D01*
X15673947Y6965000D01*
X15722900Y6960179D01*
G37*
G36*
X9822900Y6960179D02*
G01*
X9867615Y6946615D01*
X9908824Y6924587D01*
X9944944Y6894944D01*
X9974587Y6858824D01*
X9996615Y6817615D01*
X10010179Y6772900D01*
X10015000Y6723947D01*
X10015000Y6656053D01*
X10010179Y6607100D01*
X9996615Y6562385D01*
X9974587Y6521176D01*
X9944944Y6485056D01*
X9908824Y6455413D01*
X9867615Y6433385D01*
X9822900Y6419821D01*
X9773947Y6415000D01*
X8706053Y6415000D01*
X8657100Y6419821D01*
X8612385Y6433385D01*
X8571176Y6455413D01*
X8535056Y6485056D01*
X8505413Y6521176D01*
X8483385Y6562385D01*
X8469821Y6607100D01*
X8465000Y6656053D01*
X8465000Y6723947D01*
X8469821Y6772900D01*
X8483385Y6817615D01*
X8505413Y6858824D01*
X8535056Y6894944D01*
X8571176Y6924587D01*
X8612385Y6946615D01*
X8657100Y6960179D01*
X8706053Y6965000D01*
X9773947Y6965000D01*
X9822900Y6960179D01*
G37*
G36*
X19918879Y7760559D02*
G01*
X19959870Y7748125D01*
X19997645Y7727934D01*
X20030758Y7700757D01*
X20057935Y7667644D01*
X20078126Y7629869D01*
X20090560Y7588878D01*
X20095000Y7543795D01*
X20095000Y6936203D01*
X20090560Y6891120D01*
X20078126Y6850129D01*
X20057935Y6812354D01*
X20030758Y6779241D01*
X19997645Y6752064D01*
X19959870Y6731873D01*
X19918879Y6719439D01*
X19873796Y6714999D01*
X19341204Y6714999D01*
X19296121Y6719439D01*
X19255130Y6731873D01*
X19217355Y6752064D01*
X19184242Y6779241D01*
X19157065Y6812354D01*
X19136874Y6850129D01*
X19124440Y6891120D01*
X19120000Y6936203D01*
X19120000Y7543795D01*
X19124440Y7588878D01*
X19136874Y7629869D01*
X19157065Y7667644D01*
X19184242Y7700757D01*
X19217355Y7727934D01*
X19255130Y7748125D01*
X19296121Y7760559D01*
X19341204Y7764999D01*
X19873796Y7764999D01*
X19918879Y7760559D01*
G37*
G36*
X18343879Y7760559D02*
G01*
X18384870Y7748125D01*
X18422645Y7727934D01*
X18455758Y7700757D01*
X18482935Y7667644D01*
X18503126Y7629869D01*
X18515560Y7588878D01*
X18520000Y7543795D01*
X18520000Y6936203D01*
X18515560Y6891120D01*
X18503126Y6850129D01*
X18482935Y6812354D01*
X18455758Y6779241D01*
X18422645Y6752064D01*
X18384870Y6731873D01*
X18343879Y6719439D01*
X18298796Y6714999D01*
X17766204Y6714999D01*
X17721121Y6719439D01*
X17680130Y6731873D01*
X17642355Y6752064D01*
X17609242Y6779241D01*
X17582065Y6812354D01*
X17561874Y6850129D01*
X17549440Y6891120D01*
X17545000Y6936203D01*
X17545000Y7543795D01*
X17549440Y7588878D01*
X17561874Y7629869D01*
X17582065Y7667644D01*
X17609242Y7700757D01*
X17642355Y7727934D01*
X17680130Y7748125D01*
X17721121Y7760559D01*
X17766204Y7764999D01*
X18298796Y7764999D01*
X18343879Y7760559D01*
G37*
G36*
X15722900Y7610179D02*
G01*
X15767615Y7596615D01*
X15808824Y7574587D01*
X15844944Y7544944D01*
X15874587Y7508824D01*
X15896615Y7467615D01*
X15910179Y7422900D01*
X15915000Y7373947D01*
X15915000Y7306053D01*
X15910179Y7257100D01*
X15896615Y7212385D01*
X15874587Y7171176D01*
X15844944Y7135056D01*
X15808824Y7105413D01*
X15767615Y7083385D01*
X15722900Y7069821D01*
X15673947Y7065000D01*
X14606053Y7065000D01*
X14557100Y7069821D01*
X14512385Y7083385D01*
X14471176Y7105413D01*
X14435056Y7135056D01*
X14405413Y7171176D01*
X14383385Y7212385D01*
X14369821Y7257100D01*
X14365000Y7306053D01*
X14365000Y7373947D01*
X14369821Y7422900D01*
X14383385Y7467615D01*
X14405413Y7508824D01*
X14435056Y7544944D01*
X14471176Y7574587D01*
X14512385Y7596615D01*
X14557100Y7610179D01*
X14606053Y7615000D01*
X15673947Y7615000D01*
X15722900Y7610179D01*
G37*
G36*
X9822900Y7610179D02*
G01*
X9867615Y7596615D01*
X9908824Y7574587D01*
X9944944Y7544944D01*
X9974587Y7508824D01*
X9996615Y7467615D01*
X10010179Y7422900D01*
X10015000Y7373947D01*
X10015000Y7306053D01*
X10010179Y7257100D01*
X9996615Y7212385D01*
X9974587Y7171176D01*
X9944944Y7135056D01*
X9908824Y7105413D01*
X9867615Y7083385D01*
X9822900Y7069821D01*
X9773947Y7065000D01*
X8706053Y7065000D01*
X8657100Y7069821D01*
X8612385Y7083385D01*
X8571176Y7105413D01*
X8535056Y7135056D01*
X8505413Y7171176D01*
X8483385Y7212385D01*
X8469821Y7257100D01*
X8465000Y7306053D01*
X8465000Y7373947D01*
X8469821Y7422900D01*
X8483385Y7467615D01*
X8505413Y7508824D01*
X8535056Y7544944D01*
X8571176Y7574587D01*
X8612385Y7596615D01*
X8657100Y7610179D01*
X8706053Y7615000D01*
X9773947Y7615000D01*
X9822900Y7610179D01*
G37*
G36*
X6003879Y8510559D02*
G01*
X6044870Y8498125D01*
X6082645Y8477934D01*
X6115758Y8450757D01*
X6142935Y8417644D01*
X6163126Y8379869D01*
X6175560Y8338878D01*
X6180000Y8293795D01*
X6180000Y7686203D01*
X6175560Y7641120D01*
X6163126Y7600129D01*
X6142935Y7562354D01*
X6115758Y7529241D01*
X6082645Y7502064D01*
X6044870Y7481873D01*
X6003879Y7469439D01*
X5958796Y7464999D01*
X5426204Y7464999D01*
X5381121Y7469439D01*
X5340130Y7481873D01*
X5302355Y7502064D01*
X5269242Y7529241D01*
X5242065Y7562354D01*
X5221874Y7600129D01*
X5209440Y7641120D01*
X5205000Y7686203D01*
X5205000Y8293795D01*
X5209440Y8338878D01*
X5221874Y8379869D01*
X5242065Y8417644D01*
X5269242Y8450757D01*
X5302355Y8477934D01*
X5340130Y8498125D01*
X5381121Y8510559D01*
X5426204Y8514999D01*
X5958796Y8514999D01*
X6003879Y8510559D01*
G37*
G36*
X7578879Y8510559D02*
G01*
X7619870Y8498125D01*
X7657645Y8477934D01*
X7690758Y8450757D01*
X7717935Y8417644D01*
X7738126Y8379869D01*
X7750560Y8338878D01*
X7755000Y8293795D01*
X7755000Y7686203D01*
X7750560Y7641120D01*
X7738126Y7600129D01*
X7717935Y7562354D01*
X7690758Y7529241D01*
X7657645Y7502064D01*
X7619870Y7481873D01*
X7578879Y7469439D01*
X7533796Y7464999D01*
X7001204Y7464999D01*
X6956121Y7469439D01*
X6915130Y7481873D01*
X6877355Y7502064D01*
X6844242Y7529241D01*
X6817065Y7562354D01*
X6796874Y7600129D01*
X6784440Y7641120D01*
X6780000Y7686203D01*
X6780000Y8293795D01*
X6784440Y8338878D01*
X6796874Y8379869D01*
X6817065Y8417644D01*
X6844242Y8450757D01*
X6877355Y8477934D01*
X6915130Y8498125D01*
X6956121Y8510559D01*
X7001204Y8514999D01*
X7533796Y8514999D01*
X7578879Y8510559D01*
G37*
G36*
X2695090Y9480785D02*
G01*
X2791689Y9461571D01*
X2973678Y9386189D01*
X3137463Y9276751D01*
X3276751Y9137463D01*
X3386189Y8973678D01*
X3461571Y8791689D01*
X3475254Y8722900D01*
X3500000Y8598493D01*
X3500000Y8401507D01*
X3492738Y8365000D01*
X3461571Y8208311D01*
X3386189Y8026322D01*
X3276751Y7862537D01*
X3137463Y7723249D01*
X2973678Y7613811D01*
X2791689Y7538429D01*
X2705318Y7521249D01*
X2598493Y7500000D01*
X2401507Y7500000D01*
X2294682Y7521249D01*
X2208311Y7538429D01*
X2026322Y7613811D01*
X1862537Y7723249D01*
X1723249Y7862537D01*
X1613811Y8026322D01*
X1538429Y8208311D01*
X1507262Y8365000D01*
X1500000Y8401507D01*
X1500000Y8598493D01*
X1524746Y8722900D01*
X1538429Y8791689D01*
X1613811Y8973678D01*
X1723249Y9137463D01*
X1862537Y9276751D01*
X2026322Y9386189D01*
X2208311Y9461571D01*
X2304910Y9480785D01*
X2401507Y9500000D01*
X2598493Y9500000D01*
X2695090Y9480785D01*
G37*
G36*
X9822900Y8260179D02*
G01*
X9867615Y8246615D01*
X9908824Y8224587D01*
X9944944Y8194944D01*
X9974587Y8158824D01*
X9996615Y8117615D01*
X10010179Y8072900D01*
X10015000Y8023947D01*
X10015000Y7956053D01*
X10010179Y7907100D01*
X9996615Y7862385D01*
X9974587Y7821176D01*
X9944944Y7785056D01*
X9908824Y7755413D01*
X9867615Y7733385D01*
X9822900Y7719821D01*
X9773947Y7715000D01*
X8706053Y7715000D01*
X8657100Y7719821D01*
X8612385Y7733385D01*
X8571176Y7755413D01*
X8535056Y7785056D01*
X8505413Y7821176D01*
X8483385Y7862385D01*
X8469821Y7907100D01*
X8465000Y7956053D01*
X8465000Y8023947D01*
X8469821Y8072900D01*
X8483385Y8117615D01*
X8505413Y8158824D01*
X8535056Y8194944D01*
X8571176Y8224587D01*
X8612385Y8246615D01*
X8657100Y8260179D01*
X8706053Y8265000D01*
X9773947Y8265000D01*
X9822900Y8260179D01*
G37*
G36*
X15722900Y8260179D02*
G01*
X15767615Y8246615D01*
X15808824Y8224587D01*
X15844944Y8194944D01*
X15874587Y8158824D01*
X15896615Y8117615D01*
X15910179Y8072900D01*
X15915000Y8023947D01*
X15915000Y7956053D01*
X15910179Y7907100D01*
X15896615Y7862385D01*
X15874587Y7821176D01*
X15844944Y7785056D01*
X15808824Y7755413D01*
X15767615Y7733385D01*
X15722900Y7719821D01*
X15673947Y7715000D01*
X14606053Y7715000D01*
X14557100Y7719821D01*
X14512385Y7733385D01*
X14471176Y7755413D01*
X14435056Y7785056D01*
X14405413Y7821176D01*
X14383385Y7862385D01*
X14369821Y7907100D01*
X14365000Y7956053D01*
X14365000Y8023947D01*
X14369821Y8072900D01*
X14383385Y8117615D01*
X14405413Y8158824D01*
X14435056Y8194944D01*
X14471176Y8224587D01*
X14512385Y8246615D01*
X14557100Y8260179D01*
X14606053Y8265000D01*
X15673947Y8265000D01*
X15722900Y8260179D01*
G37*
G36*
X18343879Y9310561D02*
G01*
X18384870Y9298127D01*
X18422645Y9277936D01*
X18455758Y9250759D01*
X18482935Y9217646D01*
X18503126Y9179871D01*
X18515560Y9138880D01*
X18520000Y9093797D01*
X18520000Y8486205D01*
X18515560Y8441122D01*
X18503126Y8400131D01*
X18482935Y8362356D01*
X18455758Y8329243D01*
X18422645Y8302066D01*
X18384870Y8281875D01*
X18343879Y8269441D01*
X18298796Y8265001D01*
X17766204Y8265001D01*
X17721121Y8269441D01*
X17680130Y8281875D01*
X17642355Y8302066D01*
X17609242Y8329243D01*
X17582065Y8362356D01*
X17561874Y8400131D01*
X17549440Y8441122D01*
X17545000Y8486205D01*
X17545000Y9093797D01*
X17549440Y9138880D01*
X17561874Y9179871D01*
X17582065Y9217646D01*
X17609242Y9250759D01*
X17642355Y9277936D01*
X17680130Y9298127D01*
X17721121Y9310561D01*
X17766204Y9315001D01*
X18298796Y9315001D01*
X18343879Y9310561D01*
G37*
G36*
X19918879Y9310561D02*
G01*
X19959870Y9298127D01*
X19997645Y9277936D01*
X20030758Y9250759D01*
X20057935Y9217646D01*
X20078126Y9179871D01*
X20090560Y9138880D01*
X20095000Y9093797D01*
X20095000Y8486205D01*
X20090560Y8441122D01*
X20078126Y8400131D01*
X20057935Y8362356D01*
X20030758Y8329243D01*
X19997645Y8302066D01*
X19959870Y8281875D01*
X19918879Y8269441D01*
X19873796Y8265001D01*
X19341204Y8265001D01*
X19296121Y8269441D01*
X19255130Y8281875D01*
X19217355Y8302066D01*
X19184242Y8329243D01*
X19157065Y8362356D01*
X19136874Y8400131D01*
X19124440Y8441122D01*
X19120000Y8486205D01*
X19120000Y9093797D01*
X19124440Y9138880D01*
X19136874Y9179871D01*
X19157065Y9217646D01*
X19184242Y9250759D01*
X19217355Y9277936D01*
X19255130Y9298127D01*
X19296121Y9310561D01*
X19341204Y9315001D01*
X19873796Y9315001D01*
X19918879Y9310561D01*
G37*
G36*
X9822900Y8910179D02*
G01*
X9867615Y8896615D01*
X9908824Y8874587D01*
X9944944Y8844944D01*
X9974587Y8808824D01*
X9996615Y8767615D01*
X10010179Y8722900D01*
X10015000Y8673947D01*
X10015000Y8606053D01*
X10010179Y8557100D01*
X9996615Y8512385D01*
X9974587Y8471176D01*
X9944944Y8435056D01*
X9908824Y8405413D01*
X9867615Y8383385D01*
X9822900Y8369821D01*
X9773947Y8365000D01*
X8706053Y8365000D01*
X8657100Y8369821D01*
X8612385Y8383385D01*
X8571176Y8405413D01*
X8535056Y8435056D01*
X8505413Y8471176D01*
X8483385Y8512385D01*
X8469821Y8557100D01*
X8465000Y8606053D01*
X8465000Y8673947D01*
X8469821Y8722900D01*
X8483385Y8767615D01*
X8505413Y8808824D01*
X8535056Y8844944D01*
X8571176Y8874587D01*
X8612385Y8896615D01*
X8657100Y8910179D01*
X8706053Y8915000D01*
X9773947Y8915000D01*
X9822900Y8910179D01*
G37*
G36*
X15722900Y8910179D02*
G01*
X15767615Y8896615D01*
X15808824Y8874587D01*
X15844944Y8844944D01*
X15874587Y8808824D01*
X15896615Y8767615D01*
X15910179Y8722900D01*
X15915000Y8673947D01*
X15915000Y8606053D01*
X15910179Y8557100D01*
X15896615Y8512385D01*
X15874587Y8471176D01*
X15844944Y8435056D01*
X15808824Y8405413D01*
X15767615Y8383385D01*
X15722900Y8369821D01*
X15673947Y8365000D01*
X14606053Y8365000D01*
X14557100Y8369821D01*
X14512385Y8383385D01*
X14471176Y8405413D01*
X14435056Y8435056D01*
X14405413Y8471176D01*
X14383385Y8512385D01*
X14369821Y8557100D01*
X14365000Y8606053D01*
X14365000Y8673947D01*
X14369821Y8722900D01*
X14383385Y8767615D01*
X14405413Y8808824D01*
X14435056Y8844944D01*
X14471176Y8874587D01*
X14512385Y8896615D01*
X14557100Y8910179D01*
X14606053Y8915000D01*
X15673947Y8915000D01*
X15722900Y8910179D01*
G37*
G36*
X9822900Y9560179D02*
G01*
X9867615Y9546615D01*
X9908824Y9524587D01*
X9944944Y9494944D01*
X9974587Y9458824D01*
X9996615Y9417615D01*
X10010179Y9372900D01*
X10015000Y9323947D01*
X10015000Y9256053D01*
X10010179Y9207100D01*
X9996615Y9162385D01*
X9974587Y9121176D01*
X9944944Y9085056D01*
X9908824Y9055413D01*
X9867615Y9033385D01*
X9822900Y9019821D01*
X9773947Y9015000D01*
X8706053Y9015000D01*
X8657100Y9019821D01*
X8612385Y9033385D01*
X8571176Y9055413D01*
X8535056Y9085056D01*
X8505413Y9121176D01*
X8483385Y9162385D01*
X8469821Y9207100D01*
X8465000Y9256053D01*
X8465000Y9323947D01*
X8469821Y9372900D01*
X8483385Y9417615D01*
X8505413Y9458824D01*
X8535056Y9494944D01*
X8571176Y9524587D01*
X8612385Y9546615D01*
X8657100Y9560179D01*
X8706053Y9565000D01*
X9773947Y9565000D01*
X9822900Y9560179D01*
G37*
G36*
X15722900Y9560179D02*
G01*
X15767615Y9546615D01*
X15808824Y9524587D01*
X15844944Y9494944D01*
X15874587Y9458824D01*
X15896615Y9417615D01*
X15910179Y9372900D01*
X15915000Y9323947D01*
X15915000Y9256053D01*
X15910179Y9207100D01*
X15896615Y9162385D01*
X15874587Y9121176D01*
X15844944Y9085056D01*
X15808824Y9055413D01*
X15767615Y9033385D01*
X15722900Y9019821D01*
X15673947Y9015000D01*
X14606053Y9015000D01*
X14557100Y9019821D01*
X14512385Y9033385D01*
X14471176Y9055413D01*
X14435056Y9085056D01*
X14405413Y9121176D01*
X14383385Y9162385D01*
X14369821Y9207100D01*
X14365000Y9256053D01*
X14365000Y9323947D01*
X14369821Y9372900D01*
X14383385Y9417615D01*
X14405413Y9458824D01*
X14435056Y9494944D01*
X14471176Y9524587D01*
X14512385Y9546615D01*
X14557100Y9560179D01*
X14606053Y9565000D01*
X15673947Y9565000D01*
X15722900Y9560179D01*
G37*
G36*
X6003879Y10060561D02*
G01*
X6044870Y10048127D01*
X6082645Y10027936D01*
X6115758Y10000759D01*
X6142935Y9967646D01*
X6163126Y9929871D01*
X6175560Y9888880D01*
X6180000Y9843797D01*
X6180000Y9236205D01*
X6175560Y9191122D01*
X6163126Y9150131D01*
X6142935Y9112356D01*
X6115758Y9079243D01*
X6082645Y9052066D01*
X6044870Y9031875D01*
X6003879Y9019441D01*
X5958796Y9015001D01*
X5426204Y9015001D01*
X5381121Y9019441D01*
X5340130Y9031875D01*
X5302355Y9052066D01*
X5269242Y9079243D01*
X5242065Y9112356D01*
X5221874Y9150131D01*
X5209440Y9191122D01*
X5205000Y9236205D01*
X5205000Y9843797D01*
X5209440Y9888880D01*
X5221874Y9929871D01*
X5242065Y9967646D01*
X5269242Y10000759D01*
X5302355Y10027936D01*
X5340130Y10048127D01*
X5381121Y10060561D01*
X5426204Y10065001D01*
X5958796Y10065001D01*
X6003879Y10060561D01*
G37*
G36*
X7578879Y10060561D02*
G01*
X7619870Y10048127D01*
X7657645Y10027936D01*
X7690758Y10000759D01*
X7717935Y9967646D01*
X7738126Y9929871D01*
X7750560Y9888880D01*
X7755000Y9843797D01*
X7755000Y9236205D01*
X7750560Y9191122D01*
X7738126Y9150131D01*
X7717935Y9112356D01*
X7690758Y9079243D01*
X7657645Y9052066D01*
X7619870Y9031875D01*
X7578879Y9019441D01*
X7533796Y9015001D01*
X7001204Y9015001D01*
X6956121Y9019441D01*
X6915130Y9031875D01*
X6877355Y9052066D01*
X6844242Y9079243D01*
X6817065Y9112356D01*
X6796874Y9150131D01*
X6784440Y9191122D01*
X6780000Y9236205D01*
X6780000Y9843797D01*
X6784440Y9888880D01*
X6796874Y9929871D01*
X6817065Y9967646D01*
X6844242Y10000759D01*
X6877355Y10027936D01*
X6915130Y10048127D01*
X6956121Y10060561D01*
X7001204Y10065001D01*
X7533796Y10065001D01*
X7578879Y10060561D01*
G37*
G36*
X9822900Y10210179D02*
G01*
X9867615Y10196615D01*
X9908824Y10174587D01*
X9944944Y10144944D01*
X9974587Y10108824D01*
X9996615Y10067615D01*
X10010179Y10022900D01*
X10015000Y9973947D01*
X10015000Y9906053D01*
X10010179Y9857100D01*
X9996615Y9812385D01*
X9974587Y9771176D01*
X9944944Y9735056D01*
X9908824Y9705413D01*
X9867615Y9683385D01*
X9822900Y9669821D01*
X9773947Y9665000D01*
X8706053Y9665000D01*
X8657100Y9669821D01*
X8612385Y9683385D01*
X8571176Y9705413D01*
X8535056Y9735056D01*
X8505413Y9771176D01*
X8483385Y9812385D01*
X8469821Y9857100D01*
X8465000Y9906053D01*
X8465000Y9973947D01*
X8469821Y10022900D01*
X8483385Y10067615D01*
X8505413Y10108824D01*
X8535056Y10144944D01*
X8571176Y10174587D01*
X8612385Y10196615D01*
X8657100Y10210179D01*
X8706053Y10215000D01*
X9773947Y10215000D01*
X9822900Y10210179D01*
G37*
G36*
X15722900Y10210179D02*
G01*
X15767615Y10196615D01*
X15808824Y10174587D01*
X15844944Y10144944D01*
X15874587Y10108824D01*
X15896615Y10067615D01*
X15910179Y10022900D01*
X15915000Y9973947D01*
X15915000Y9906053D01*
X15910179Y9857100D01*
X15896615Y9812385D01*
X15874587Y9771176D01*
X15844944Y9735056D01*
X15808824Y9705413D01*
X15767615Y9683385D01*
X15722900Y9669821D01*
X15673947Y9665000D01*
X14606053Y9665000D01*
X14557100Y9669821D01*
X14512385Y9683385D01*
X14471176Y9705413D01*
X14435056Y9735056D01*
X14405413Y9771176D01*
X14383385Y9812385D01*
X14369821Y9857100D01*
X14365000Y9906053D01*
X14365000Y9973947D01*
X14369821Y10022900D01*
X14383385Y10067615D01*
X14405413Y10108824D01*
X14435056Y10144944D01*
X14471176Y10174587D01*
X14512385Y10196615D01*
X14557100Y10210179D01*
X14606053Y10215000D01*
X15673947Y10215000D01*
X15722900Y10210179D01*
G37*
G36*
X19918879Y10860559D02*
G01*
X19959870Y10848125D01*
X19997645Y10827934D01*
X20030758Y10800757D01*
X20057935Y10767644D01*
X20078126Y10729869D01*
X20090560Y10688878D01*
X20095000Y10643795D01*
X20095000Y10036203D01*
X20090560Y9991120D01*
X20078126Y9950129D01*
X20057935Y9912354D01*
X20030758Y9879241D01*
X19997645Y9852064D01*
X19959870Y9831873D01*
X19918879Y9819439D01*
X19873796Y9814999D01*
X19341204Y9814999D01*
X19296121Y9819439D01*
X19255130Y9831873D01*
X19217355Y9852064D01*
X19184242Y9879241D01*
X19157065Y9912354D01*
X19136874Y9950129D01*
X19124440Y9991120D01*
X19120000Y10036203D01*
X19120000Y10643795D01*
X19124440Y10688878D01*
X19136874Y10729869D01*
X19157065Y10767644D01*
X19184242Y10800757D01*
X19217355Y10827934D01*
X19255130Y10848125D01*
X19296121Y10860559D01*
X19341204Y10864999D01*
X19873796Y10864999D01*
X19918879Y10860559D01*
G37*
G36*
X18343879Y10860559D02*
G01*
X18384870Y10848125D01*
X18422645Y10827934D01*
X18455758Y10800757D01*
X18482935Y10767644D01*
X18503126Y10729869D01*
X18515560Y10688878D01*
X18520000Y10643795D01*
X18520000Y10036203D01*
X18515560Y9991120D01*
X18503126Y9950129D01*
X18482935Y9912354D01*
X18455758Y9879241D01*
X18422645Y9852064D01*
X18384870Y9831873D01*
X18343879Y9819439D01*
X18298796Y9814999D01*
X17766204Y9814999D01*
X17721121Y9819439D01*
X17680130Y9831873D01*
X17642355Y9852064D01*
X17609242Y9879241D01*
X17582065Y9912354D01*
X17561874Y9950129D01*
X17549440Y9991120D01*
X17545000Y10036203D01*
X17545000Y10643795D01*
X17549440Y10688878D01*
X17561874Y10729869D01*
X17582065Y10767644D01*
X17609242Y10800757D01*
X17642355Y10827934D01*
X17680130Y10848125D01*
X17721121Y10860559D01*
X17766204Y10864999D01*
X18298796Y10864999D01*
X18343879Y10860559D01*
G37*
G36*
X7578879Y11610559D02*
G01*
X7619870Y11598125D01*
X7657645Y11577934D01*
X7690758Y11550757D01*
X7717935Y11517644D01*
X7738126Y11479869D01*
X7750560Y11438878D01*
X7755000Y11393795D01*
X7755000Y10786203D01*
X7750560Y10741120D01*
X7738126Y10700129D01*
X7717935Y10662354D01*
X7690758Y10629241D01*
X7657645Y10602064D01*
X7619870Y10581873D01*
X7578879Y10569439D01*
X7533796Y10564999D01*
X7001204Y10564999D01*
X6956121Y10569439D01*
X6915130Y10581873D01*
X6877355Y10602064D01*
X6844242Y10629241D01*
X6817065Y10662354D01*
X6796874Y10700129D01*
X6784440Y10741120D01*
X6780000Y10786203D01*
X6780000Y11393795D01*
X6784440Y11438878D01*
X6796874Y11479869D01*
X6817065Y11517644D01*
X6844242Y11550757D01*
X6877355Y11577934D01*
X6915130Y11598125D01*
X6956121Y11610559D01*
X7001204Y11614999D01*
X7533796Y11614999D01*
X7578879Y11610559D01*
G37*
G36*
X6003879Y11610559D02*
G01*
X6044870Y11598125D01*
X6082645Y11577934D01*
X6115758Y11550757D01*
X6142935Y11517644D01*
X6163126Y11479869D01*
X6175560Y11438878D01*
X6180000Y11393795D01*
X6180000Y10786203D01*
X6175560Y10741120D01*
X6163126Y10700129D01*
X6142935Y10662354D01*
X6115758Y10629241D01*
X6082645Y10602064D01*
X6044870Y10581873D01*
X6003879Y10569439D01*
X5958796Y10564999D01*
X5426204Y10564999D01*
X5381121Y10569439D01*
X5340130Y10581873D01*
X5302355Y10602064D01*
X5269242Y10629241D01*
X5242065Y10662354D01*
X5221874Y10700129D01*
X5209440Y10741120D01*
X5205000Y10786203D01*
X5205000Y11393795D01*
X5209440Y11438878D01*
X5221874Y11479869D01*
X5242065Y11517644D01*
X5269242Y11550757D01*
X5302355Y11577934D01*
X5340130Y11598125D01*
X5381121Y11610559D01*
X5426204Y11614999D01*
X5958796Y11614999D01*
X6003879Y11610559D01*
G37*
G36*
X10783879Y12110560D02*
G01*
X10824870Y12098126D01*
X10862645Y12077935D01*
X10895758Y12050758D01*
X10922935Y12017645D01*
X10943126Y11979870D01*
X10955560Y11938879D01*
X10960000Y11893796D01*
X10960000Y11286204D01*
X10955560Y11241121D01*
X10943126Y11200130D01*
X10922935Y11162355D01*
X10895758Y11129242D01*
X10862645Y11102065D01*
X10824870Y11081874D01*
X10783879Y11069440D01*
X10738796Y11065000D01*
X10206204Y11065000D01*
X10161121Y11069440D01*
X10120130Y11081874D01*
X10082355Y11102065D01*
X10049242Y11129242D01*
X10022065Y11162355D01*
X10001874Y11200130D01*
X9989440Y11241121D01*
X9985000Y11286204D01*
X9985000Y11893796D01*
X9989440Y11938879D01*
X10001874Y11979870D01*
X10022065Y12017645D01*
X10049242Y12050758D01*
X10082355Y12077935D01*
X10120130Y12098126D01*
X10161121Y12110560D01*
X10206204Y12115000D01*
X10738796Y12115000D01*
X10783879Y12110560D01*
G37*
G36*
X12358879Y12110560D02*
G01*
X12399870Y12098126D01*
X12437645Y12077935D01*
X12470758Y12050758D01*
X12497935Y12017645D01*
X12518126Y11979870D01*
X12530560Y11938879D01*
X12535000Y11893796D01*
X12535000Y11286204D01*
X12530560Y11241121D01*
X12518126Y11200130D01*
X12497935Y11162355D01*
X12470758Y11129242D01*
X12437645Y11102065D01*
X12399870Y11081874D01*
X12358879Y11069440D01*
X12313796Y11065000D01*
X11781204Y11065000D01*
X11736121Y11069440D01*
X11695130Y11081874D01*
X11657355Y11102065D01*
X11624242Y11129242D01*
X11597065Y11162355D01*
X11576874Y11200130D01*
X11564440Y11241121D01*
X11560000Y11286204D01*
X11560000Y11893796D01*
X11564440Y11938879D01*
X11576874Y11979870D01*
X11597065Y12017645D01*
X11624242Y12050758D01*
X11657355Y12077935D01*
X11695130Y12098126D01*
X11736121Y12110560D01*
X11781204Y12115000D01*
X12313796Y12115000D01*
X12358879Y12110560D01*
G37*
G36*
X18343879Y12410561D02*
G01*
X18384870Y12398127D01*
X18422645Y12377936D01*
X18455758Y12350759D01*
X18482935Y12317646D01*
X18503126Y12279871D01*
X18515560Y12238880D01*
X18520000Y12193797D01*
X18520000Y11586205D01*
X18515560Y11541122D01*
X18503126Y11500131D01*
X18482935Y11462356D01*
X18455758Y11429243D01*
X18422645Y11402066D01*
X18384870Y11381875D01*
X18343879Y11369441D01*
X18298796Y11365001D01*
X17766204Y11365001D01*
X17721121Y11369441D01*
X17680130Y11381875D01*
X17642355Y11402066D01*
X17609242Y11429243D01*
X17582065Y11462356D01*
X17561874Y11500131D01*
X17549440Y11541122D01*
X17545000Y11586205D01*
X17545000Y12193797D01*
X17549440Y12238880D01*
X17561874Y12279871D01*
X17582065Y12317646D01*
X17609242Y12350759D01*
X17642355Y12377936D01*
X17680130Y12398127D01*
X17721121Y12410561D01*
X17766204Y12415001D01*
X18298796Y12415001D01*
X18343879Y12410561D01*
G37*
G36*
X19918879Y12410561D02*
G01*
X19959870Y12398127D01*
X19997645Y12377936D01*
X20030758Y12350759D01*
X20057935Y12317646D01*
X20078126Y12279871D01*
X20090560Y12238880D01*
X20095000Y12193797D01*
X20095000Y11586205D01*
X20090560Y11541122D01*
X20078126Y11500131D01*
X20057935Y11462356D01*
X20030758Y11429243D01*
X19997645Y11402066D01*
X19959870Y11381875D01*
X19918879Y11369441D01*
X19873796Y11365001D01*
X19341204Y11365001D01*
X19296121Y11369441D01*
X19255130Y11381875D01*
X19217355Y11402066D01*
X19184242Y11429243D01*
X19157065Y11462356D01*
X19136874Y11500131D01*
X19124440Y11541122D01*
X19120000Y11586205D01*
X19120000Y12193797D01*
X19124440Y12238880D01*
X19136874Y12279871D01*
X19157065Y12317646D01*
X19184242Y12350759D01*
X19217355Y12377936D01*
X19255130Y12398127D01*
X19296121Y12410561D01*
X19341204Y12415001D01*
X19873796Y12415001D01*
X19918879Y12410561D01*
G37*
G36*
X7578879Y13160561D02*
G01*
X7619870Y13148127D01*
X7657645Y13127936D01*
X7690758Y13100759D01*
X7717935Y13067646D01*
X7738126Y13029871D01*
X7750560Y12988880D01*
X7755000Y12943797D01*
X7755000Y12336205D01*
X7750560Y12291122D01*
X7738126Y12250131D01*
X7717935Y12212356D01*
X7690758Y12179243D01*
X7657645Y12152066D01*
X7619870Y12131875D01*
X7578879Y12119441D01*
X7533796Y12115001D01*
X7001204Y12115001D01*
X6956121Y12119441D01*
X6915130Y12131875D01*
X6877355Y12152066D01*
X6844242Y12179243D01*
X6817065Y12212356D01*
X6796874Y12250131D01*
X6784440Y12291122D01*
X6780000Y12336205D01*
X6780000Y12943797D01*
X6784440Y12988880D01*
X6796874Y13029871D01*
X6817065Y13067646D01*
X6844242Y13100759D01*
X6877355Y13127936D01*
X6915130Y13148127D01*
X6956121Y13160561D01*
X7001204Y13165001D01*
X7533796Y13165001D01*
X7578879Y13160561D01*
G37*
G36*
X6003879Y13160561D02*
G01*
X6044870Y13148127D01*
X6082645Y13127936D01*
X6115758Y13100759D01*
X6142935Y13067646D01*
X6163126Y13029871D01*
X6175560Y12988880D01*
X6180000Y12943797D01*
X6180000Y12336205D01*
X6175560Y12291122D01*
X6163126Y12250131D01*
X6142935Y12212356D01*
X6115758Y12179243D01*
X6082645Y12152066D01*
X6044870Y12131875D01*
X6003879Y12119441D01*
X5958796Y12115001D01*
X5426204Y12115001D01*
X5381121Y12119441D01*
X5340130Y12131875D01*
X5302355Y12152066D01*
X5269242Y12179243D01*
X5242065Y12212356D01*
X5221874Y12250131D01*
X5209440Y12291122D01*
X5205000Y12336205D01*
X5205000Y12943797D01*
X5209440Y12988880D01*
X5221874Y13029871D01*
X5242065Y13067646D01*
X5269242Y13100759D01*
X5302355Y13127936D01*
X5340130Y13148127D01*
X5381121Y13160561D01*
X5426204Y13165001D01*
X5958796Y13165001D01*
X6003879Y13160561D01*
G37*
G36*
X18318879Y13960560D02*
G01*
X18359870Y13948126D01*
X18397645Y13927935D01*
X18430758Y13900758D01*
X18457935Y13867645D01*
X18478126Y13829870D01*
X18490560Y13788879D01*
X18495000Y13743796D01*
X18495000Y13136204D01*
X18490560Y13091121D01*
X18478126Y13050130D01*
X18457935Y13012355D01*
X18430758Y12979242D01*
X18397645Y12952065D01*
X18359870Y12931874D01*
X18318879Y12919440D01*
X18273796Y12915000D01*
X17741204Y12915000D01*
X17696121Y12919440D01*
X17655130Y12931874D01*
X17617355Y12952065D01*
X17584242Y12979242D01*
X17557065Y13012355D01*
X17536874Y13050130D01*
X17524440Y13091121D01*
X17520000Y13136204D01*
X17520000Y13743796D01*
X17524440Y13788879D01*
X17536874Y13829870D01*
X17557065Y13867645D01*
X17584242Y13900758D01*
X17617355Y13927935D01*
X17655130Y13948126D01*
X17696121Y13960560D01*
X17741204Y13965000D01*
X18273796Y13965000D01*
X18318879Y13960560D01*
G37*
G36*
X16743879Y13960560D02*
G01*
X16784870Y13948126D01*
X16822645Y13927935D01*
X16855758Y13900758D01*
X16882935Y13867645D01*
X16903126Y13829870D01*
X16915560Y13788879D01*
X16920000Y13743796D01*
X16920000Y13136204D01*
X16915560Y13091121D01*
X16903126Y13050130D01*
X16882935Y13012355D01*
X16855758Y12979242D01*
X16822645Y12952065D01*
X16784870Y12931874D01*
X16743879Y12919440D01*
X16698796Y12915000D01*
X16166204Y12915000D01*
X16121121Y12919440D01*
X16080130Y12931874D01*
X16042355Y12952065D01*
X16009242Y12979242D01*
X15982065Y13012355D01*
X15961874Y13050130D01*
X15949440Y13091121D01*
X15945000Y13136204D01*
X15945000Y13743796D01*
X15949440Y13788879D01*
X15961874Y13829870D01*
X15982065Y13867645D01*
X16009242Y13900758D01*
X16042355Y13927935D01*
X16080130Y13948126D01*
X16121121Y13960560D01*
X16166204Y13965000D01*
X16698796Y13965000D01*
X16743879Y13960560D01*
G37*
G36*
X19783879Y15500560D02*
G01*
X19824870Y15488126D01*
X19862645Y15467935D01*
X19895758Y15440758D01*
X19922935Y15407645D01*
X19943126Y15369870D01*
X19955560Y15328879D01*
X19960000Y15283796D01*
X19960000Y14676204D01*
X19955560Y14631121D01*
X19943126Y14590130D01*
X19922935Y14552355D01*
X19895758Y14519242D01*
X19862645Y14492065D01*
X19824870Y14471874D01*
X19783879Y14459440D01*
X19738796Y14455000D01*
X19206204Y14455000D01*
X19161121Y14459440D01*
X19120130Y14471874D01*
X19082355Y14492065D01*
X19049242Y14519242D01*
X19022065Y14552355D01*
X19001874Y14590130D01*
X18989440Y14631121D01*
X18985000Y14676204D01*
X18985000Y15283796D01*
X18989440Y15328879D01*
X19001874Y15369870D01*
X19022065Y15407645D01*
X19049242Y15440758D01*
X19082355Y15467935D01*
X19120130Y15488126D01*
X19161121Y15500560D01*
X19206204Y15505000D01*
X19738796Y15505000D01*
X19783879Y15500560D01*
G37*
G36*
X21358879Y15500560D02*
G01*
X21399870Y15488126D01*
X21437645Y15467935D01*
X21470758Y15440758D01*
X21497935Y15407645D01*
X21518126Y15369870D01*
X21530560Y15328879D01*
X21535000Y15283796D01*
X21535000Y14676204D01*
X21530560Y14631121D01*
X21518126Y14590130D01*
X21497935Y14552355D01*
X21470758Y14519242D01*
X21437645Y14492065D01*
X21399870Y14471874D01*
X21358879Y14459440D01*
X21313796Y14455000D01*
X20781204Y14455000D01*
X20736121Y14459440D01*
X20695130Y14471874D01*
X20657355Y14492065D01*
X20624242Y14519242D01*
X20597065Y14552355D01*
X20576874Y14590130D01*
X20564440Y14631121D01*
X20560000Y14676204D01*
X20560000Y15283796D01*
X20564440Y15328879D01*
X20576874Y15369870D01*
X20597065Y15407645D01*
X20624242Y15440758D01*
X20657355Y15467935D01*
X20695130Y15488126D01*
X20736121Y15500560D01*
X20781204Y15505000D01*
X21313796Y15505000D01*
X21358879Y15500560D01*
G37*
G36*
X18318879Y15500560D02*
G01*
X18359870Y15488126D01*
X18397645Y15467935D01*
X18430758Y15440758D01*
X18457935Y15407645D01*
X18478126Y15369870D01*
X18490560Y15328879D01*
X18495000Y15283796D01*
X18495000Y14676204D01*
X18490560Y14631121D01*
X18478126Y14590130D01*
X18457935Y14552355D01*
X18430758Y14519242D01*
X18397645Y14492065D01*
X18359870Y14471874D01*
X18318879Y14459440D01*
X18273796Y14455000D01*
X17741204Y14455000D01*
X17696121Y14459440D01*
X17655130Y14471874D01*
X17617355Y14492065D01*
X17584242Y14519242D01*
X17557065Y14552355D01*
X17536874Y14590130D01*
X17524440Y14631121D01*
X17520000Y14676204D01*
X17520000Y15283796D01*
X17524440Y15328879D01*
X17536874Y15369870D01*
X17557065Y15407645D01*
X17584242Y15440758D01*
X17617355Y15467935D01*
X17655130Y15488126D01*
X17696121Y15500560D01*
X17741204Y15505000D01*
X18273796Y15505000D01*
X18318879Y15500560D01*
G37*
G36*
X16743879Y15500560D02*
G01*
X16784870Y15488126D01*
X16822645Y15467935D01*
X16855758Y15440758D01*
X16882935Y15407645D01*
X16903126Y15369870D01*
X16915560Y15328879D01*
X16920000Y15283796D01*
X16920000Y14676204D01*
X16915560Y14631121D01*
X16903126Y14590130D01*
X16882935Y14552355D01*
X16855758Y14519242D01*
X16822645Y14492065D01*
X16784870Y14471874D01*
X16743879Y14459440D01*
X16698796Y14455000D01*
X16166204Y14455000D01*
X16121121Y14459440D01*
X16080130Y14471874D01*
X16042355Y14492065D01*
X16009242Y14519242D01*
X15982065Y14552355D01*
X15961874Y14590130D01*
X15949440Y14631121D01*
X15945000Y14676204D01*
X15945000Y15283796D01*
X15949440Y15328879D01*
X15961874Y15369870D01*
X15982065Y15407645D01*
X16009242Y15440758D01*
X16042355Y15467935D01*
X16080130Y15488126D01*
X16121121Y15500560D01*
X16166204Y15505000D01*
X16698796Y15505000D01*
X16743879Y15500560D01*
G37*
G36*
X11638879Y16880560D02*
G01*
X11679870Y16868126D01*
X11717645Y16847935D01*
X11750758Y16820758D01*
X11777935Y16787645D01*
X11798126Y16749870D01*
X11810560Y16708879D01*
X11815000Y16663796D01*
X11815000Y16056204D01*
X11810560Y16011121D01*
X11798126Y15970130D01*
X11777935Y15932355D01*
X11750758Y15899242D01*
X11717645Y15872065D01*
X11679870Y15851874D01*
X11638879Y15839440D01*
X11593796Y15835000D01*
X11061204Y15835000D01*
X11016121Y15839440D01*
X10975130Y15851874D01*
X10937355Y15872065D01*
X10904242Y15899242D01*
X10877065Y15932355D01*
X10856874Y15970130D01*
X10844440Y16011121D01*
X10840000Y16056204D01*
X10840000Y16663796D01*
X10844440Y16708879D01*
X10856874Y16749870D01*
X10877065Y16787645D01*
X10904242Y16820758D01*
X10937355Y16847935D01*
X10975130Y16868126D01*
X11016121Y16880560D01*
X11061204Y16885000D01*
X11593796Y16885000D01*
X11638879Y16880560D01*
G37*
G36*
X10063879Y16880560D02*
G01*
X10104870Y16868126D01*
X10142645Y16847935D01*
X10175758Y16820758D01*
X10202935Y16787645D01*
X10223126Y16749870D01*
X10235560Y16708879D01*
X10240000Y16663796D01*
X10240000Y16056204D01*
X10235560Y16011121D01*
X10223126Y15970130D01*
X10202935Y15932355D01*
X10175758Y15899242D01*
X10142645Y15872065D01*
X10104870Y15851874D01*
X10063879Y15839440D01*
X10018796Y15835000D01*
X9486204Y15835000D01*
X9441121Y15839440D01*
X9400130Y15851874D01*
X9362355Y15872065D01*
X9329242Y15899242D01*
X9302065Y15932355D01*
X9281874Y15970130D01*
X9269440Y16011121D01*
X9265000Y16056204D01*
X9265000Y16663796D01*
X9269440Y16708879D01*
X9281874Y16749870D01*
X9302065Y16787645D01*
X9329242Y16820758D01*
X9362355Y16847935D01*
X9400130Y16868126D01*
X9441121Y16880560D01*
X9486204Y16885000D01*
X10018796Y16885000D01*
X10063879Y16880560D01*
G37*
G36*
X15783879Y17140560D02*
G01*
X15824870Y17128126D01*
X15862645Y17107935D01*
X15895758Y17080758D01*
X15922935Y17047645D01*
X15943126Y17009870D01*
X15955560Y16968879D01*
X15960000Y16923796D01*
X15960000Y16316204D01*
X15955560Y16271121D01*
X15943126Y16230130D01*
X15922935Y16192355D01*
X15895758Y16159242D01*
X15862645Y16132065D01*
X15824870Y16111874D01*
X15783879Y16099440D01*
X15738796Y16095000D01*
X15206204Y16095000D01*
X15161121Y16099440D01*
X15120130Y16111874D01*
X15082355Y16132065D01*
X15049242Y16159242D01*
X15022065Y16192355D01*
X15001874Y16230130D01*
X14989440Y16271121D01*
X14985000Y16316204D01*
X14985000Y16923796D01*
X14989440Y16968879D01*
X15001874Y17009870D01*
X15022065Y17047645D01*
X15049242Y17080758D01*
X15082355Y17107935D01*
X15120130Y17128126D01*
X15161121Y17140560D01*
X15206204Y17145000D01*
X15738796Y17145000D01*
X15783879Y17140560D01*
G37*
G36*
X17358879Y17140560D02*
G01*
X17399870Y17128126D01*
X17437645Y17107935D01*
X17470758Y17080758D01*
X17497935Y17047645D01*
X17518126Y17009870D01*
X17530560Y16968879D01*
X17535000Y16923796D01*
X17535000Y16316204D01*
X17530560Y16271121D01*
X17518126Y16230130D01*
X17497935Y16192355D01*
X17470758Y16159242D01*
X17437645Y16132065D01*
X17399870Y16111874D01*
X17358879Y16099440D01*
X17313796Y16095000D01*
X16781204Y16095000D01*
X16736121Y16099440D01*
X16695130Y16111874D01*
X16657355Y16132065D01*
X16624242Y16159242D01*
X16597065Y16192355D01*
X16576874Y16230130D01*
X16564440Y16271121D01*
X16560000Y16316204D01*
X16560000Y16923796D01*
X16564440Y16968879D01*
X16576874Y17009870D01*
X16597065Y17047645D01*
X16624242Y17080758D01*
X16657355Y17107935D01*
X16695130Y17128126D01*
X16736121Y17140560D01*
X16781204Y17145000D01*
X17313796Y17145000D01*
X17358879Y17140560D01*
G37*
G36*
X20398879Y17140560D02*
G01*
X20439870Y17128126D01*
X20477645Y17107935D01*
X20510758Y17080758D01*
X20537935Y17047645D01*
X20558126Y17009870D01*
X20570560Y16968879D01*
X20575000Y16923796D01*
X20575000Y16316204D01*
X20570560Y16271121D01*
X20558126Y16230130D01*
X20537935Y16192355D01*
X20510758Y16159242D01*
X20477645Y16132065D01*
X20439870Y16111874D01*
X20398879Y16099440D01*
X20353796Y16095000D01*
X19821204Y16095000D01*
X19776121Y16099440D01*
X19735130Y16111874D01*
X19697355Y16132065D01*
X19664242Y16159242D01*
X19637065Y16192355D01*
X19616874Y16230130D01*
X19604440Y16271121D01*
X19600000Y16316204D01*
X19600000Y16923796D01*
X19604440Y16968879D01*
X19616874Y17009870D01*
X19637065Y17047645D01*
X19664242Y17080758D01*
X19697355Y17107935D01*
X19735130Y17128126D01*
X19776121Y17140560D01*
X19821204Y17145000D01*
X20353796Y17145000D01*
X20398879Y17140560D01*
G37*
G36*
X18823879Y17140560D02*
G01*
X18864870Y17128126D01*
X18902645Y17107935D01*
X18935758Y17080758D01*
X18962935Y17047645D01*
X18983126Y17009870D01*
X18995560Y16968879D01*
X19000000Y16923796D01*
X19000000Y16316204D01*
X18995560Y16271121D01*
X18983126Y16230130D01*
X18962935Y16192355D01*
X18935758Y16159242D01*
X18902645Y16132065D01*
X18864870Y16111874D01*
X18823879Y16099440D01*
X18778796Y16095000D01*
X18246204Y16095000D01*
X18201121Y16099440D01*
X18160130Y16111874D01*
X18122355Y16132065D01*
X18089242Y16159242D01*
X18062065Y16192355D01*
X18041874Y16230130D01*
X18029440Y16271121D01*
X18025000Y16316204D01*
X18025000Y16923796D01*
X18029440Y16968879D01*
X18041874Y17009870D01*
X18062065Y17047645D01*
X18089242Y17080758D01*
X18122355Y17107935D01*
X18160130Y17128126D01*
X18201121Y17140560D01*
X18246204Y17145000D01*
X18778796Y17145000D01*
X18823879Y17140560D01*
G37*
G36*
X7365945Y19472304D02*
G01*
X7407478Y19459705D01*
X7445757Y19439244D01*
X7479309Y19411709D01*
X7506844Y19378157D01*
X7527305Y19339878D01*
X7539904Y19298345D01*
X7544400Y19252696D01*
X7544400Y17619704D01*
X7539904Y17574055D01*
X7527305Y17532522D01*
X7506844Y17494243D01*
X7479309Y17460691D01*
X7445757Y17433156D01*
X7407478Y17412695D01*
X7365945Y17400096D01*
X7320296Y17395600D01*
X7109704Y17395600D01*
X7064055Y17400096D01*
X7022522Y17412695D01*
X6984243Y17433156D01*
X6950691Y17460691D01*
X6923156Y17494243D01*
X6902695Y17532522D01*
X6890096Y17574055D01*
X6885600Y17619704D01*
X6885600Y19252696D01*
X6890096Y19298345D01*
X6902695Y19339878D01*
X6923156Y19378157D01*
X6950691Y19411709D01*
X6984243Y19439244D01*
X7022522Y19459705D01*
X7064055Y19472304D01*
X7109704Y19476800D01*
X7320296Y19476800D01*
X7365945Y19472304D01*
G37*
G36*
X6095945Y19472304D02*
G01*
X6137478Y19459705D01*
X6175757Y19439244D01*
X6209309Y19411709D01*
X6236844Y19378157D01*
X6257305Y19339878D01*
X6269904Y19298345D01*
X6274400Y19252696D01*
X6274400Y17619704D01*
X6269904Y17574055D01*
X6257305Y17532522D01*
X6236844Y17494243D01*
X6209309Y17460691D01*
X6175757Y17433156D01*
X6137478Y17412695D01*
X6095945Y17400096D01*
X6050296Y17395600D01*
X5839704Y17395600D01*
X5794055Y17400096D01*
X5752522Y17412695D01*
X5714243Y17433156D01*
X5680691Y17460691D01*
X5653156Y17494243D01*
X5632695Y17532522D01*
X5620096Y17574055D01*
X5615600Y17619704D01*
X5615600Y19252696D01*
X5620096Y19298345D01*
X5632695Y19339878D01*
X5653156Y19378157D01*
X5680691Y19411709D01*
X5714243Y19439244D01*
X5752522Y19459705D01*
X5794055Y19472304D01*
X5839704Y19476800D01*
X6050296Y19476800D01*
X6095945Y19472304D01*
G37*
G36*
X8635945Y19472304D02*
G01*
X8677478Y19459705D01*
X8715757Y19439244D01*
X8749309Y19411709D01*
X8776844Y19378157D01*
X8797305Y19339878D01*
X8809904Y19298345D01*
X8814400Y19252696D01*
X8814400Y17619704D01*
X8809904Y17574055D01*
X8797305Y17532522D01*
X8776844Y17494243D01*
X8749309Y17460691D01*
X8715757Y17433156D01*
X8677478Y17412695D01*
X8635945Y17400096D01*
X8590296Y17395600D01*
X8379704Y17395600D01*
X8334055Y17400096D01*
X8292522Y17412695D01*
X8254243Y17433156D01*
X8220691Y17460691D01*
X8193156Y17494243D01*
X8172695Y17532522D01*
X8160096Y17574055D01*
X8155600Y17619704D01*
X8155600Y19252696D01*
X8160096Y19298345D01*
X8172695Y19339878D01*
X8193156Y19378157D01*
X8220691Y19411709D01*
X8254243Y19439244D01*
X8292522Y19459705D01*
X8334055Y19472304D01*
X8379704Y19476800D01*
X8590296Y19476800D01*
X8635945Y19472304D01*
G37*
G36*
X9905945Y19472304D02*
G01*
X9947478Y19459705D01*
X9985757Y19439244D01*
X10019309Y19411709D01*
X10046844Y19378157D01*
X10067305Y19339878D01*
X10079904Y19298345D01*
X10084400Y19252696D01*
X10084400Y17619704D01*
X10079904Y17574055D01*
X10067305Y17532522D01*
X10046844Y17494243D01*
X10019309Y17460691D01*
X9985757Y17433156D01*
X9947478Y17412695D01*
X9905945Y17400096D01*
X9860296Y17395600D01*
X9649704Y17395600D01*
X9604055Y17400096D01*
X9562522Y17412695D01*
X9524243Y17433156D01*
X9490691Y17460691D01*
X9463156Y17494243D01*
X9442695Y17532522D01*
X9430096Y17574055D01*
X9425600Y17619704D01*
X9425600Y19252696D01*
X9430096Y19298345D01*
X9442695Y19339878D01*
X9463156Y19378157D01*
X9490691Y19411709D01*
X9524243Y19439244D01*
X9562522Y19459705D01*
X9604055Y19472304D01*
X9649704Y19476800D01*
X9860296Y19476800D01*
X9905945Y19472304D01*
G37*
G36*
X23791832Y18989505D02*
G01*
X23843351Y18979257D01*
X23900259Y18955685D01*
X23988941Y18918952D01*
X24119969Y18831402D01*
X24231402Y18719969D01*
X24318952Y18588941D01*
X24379257Y18443350D01*
X24410000Y18288795D01*
X24410000Y18131205D01*
X24379257Y17976650D01*
X24318952Y17831059D01*
X24231402Y17700031D01*
X24119969Y17588598D01*
X23988941Y17501048D01*
X23903656Y17465722D01*
X23843351Y17440743D01*
X23816228Y17435348D01*
X23688795Y17410000D01*
X23531205Y17410000D01*
X23403772Y17435348D01*
X23376649Y17440743D01*
X23316344Y17465722D01*
X23231059Y17501048D01*
X23100031Y17588598D01*
X22988598Y17700031D01*
X22901048Y17831059D01*
X22840743Y17976650D01*
X22810000Y18131205D01*
X22810000Y18288795D01*
X22840743Y18443350D01*
X22901048Y18588941D01*
X22988598Y18719969D01*
X23100031Y18831402D01*
X23231059Y18918952D01*
X23319741Y18955685D01*
X23376649Y18979257D01*
X23428168Y18989505D01*
X23531205Y19010000D01*
X23688795Y19010000D01*
X23791832Y18989505D01*
G37*
G36*
X26331832Y18989505D02*
G01*
X26383351Y18979257D01*
X26440259Y18955685D01*
X26528941Y18918952D01*
X26659969Y18831402D01*
X26771402Y18719969D01*
X26858952Y18588941D01*
X26919257Y18443350D01*
X26950000Y18288795D01*
X26950000Y18131205D01*
X26919257Y17976650D01*
X26858952Y17831059D01*
X26771402Y17700031D01*
X26659969Y17588598D01*
X26528941Y17501048D01*
X26443656Y17465722D01*
X26383351Y17440743D01*
X26356228Y17435348D01*
X26228795Y17410000D01*
X26071205Y17410000D01*
X25943772Y17435348D01*
X25916649Y17440743D01*
X25856344Y17465722D01*
X25771059Y17501048D01*
X25640031Y17588598D01*
X25528598Y17700031D01*
X25441048Y17831059D01*
X25380743Y17976650D01*
X25350000Y18131205D01*
X25350000Y18288795D01*
X25380743Y18443350D01*
X25441048Y18588941D01*
X25528598Y18719969D01*
X25640031Y18831402D01*
X25771059Y18918952D01*
X25859741Y18955685D01*
X25916649Y18979257D01*
X25968168Y18989505D01*
X26071205Y19010000D01*
X26228795Y19010000D01*
X26331832Y18989505D01*
G37*
G36*
X28871832Y18989505D02*
G01*
X28923351Y18979257D01*
X28980259Y18955685D01*
X29068941Y18918952D01*
X29199969Y18831402D01*
X29311402Y18719969D01*
X29398952Y18588941D01*
X29459257Y18443350D01*
X29490000Y18288795D01*
X29490000Y18131205D01*
X29459257Y17976650D01*
X29398952Y17831059D01*
X29311402Y17700031D01*
X29199969Y17588598D01*
X29068941Y17501048D01*
X28983656Y17465722D01*
X28923351Y17440743D01*
X28896228Y17435348D01*
X28768795Y17410000D01*
X28611205Y17410000D01*
X28483772Y17435348D01*
X28456649Y17440743D01*
X28396344Y17465722D01*
X28311059Y17501048D01*
X28180031Y17588598D01*
X28068598Y17700031D01*
X27981048Y17831059D01*
X27920743Y17976650D01*
X27890000Y18131205D01*
X27890000Y18288795D01*
X27920743Y18443350D01*
X27981048Y18588941D01*
X28068598Y18719969D01*
X28180031Y18831402D01*
X28311059Y18918952D01*
X28399741Y18955685D01*
X28456649Y18979257D01*
X28508168Y18989505D01*
X28611205Y19010000D01*
X28768795Y19010000D01*
X28871832Y18989505D01*
G37*
G36*
X31411832Y18989505D02*
G01*
X31463351Y18979257D01*
X31520259Y18955685D01*
X31608941Y18918952D01*
X31739969Y18831402D01*
X31851402Y18719969D01*
X31938952Y18588941D01*
X31999257Y18443350D01*
X32030000Y18288795D01*
X32030000Y18131205D01*
X31999257Y17976650D01*
X31938952Y17831059D01*
X31851402Y17700031D01*
X31739969Y17588598D01*
X31608941Y17501048D01*
X31523656Y17465722D01*
X31463351Y17440743D01*
X31436228Y17435348D01*
X31308795Y17410000D01*
X31151205Y17410000D01*
X31023772Y17435348D01*
X30996649Y17440743D01*
X30936344Y17465722D01*
X30851059Y17501048D01*
X30720031Y17588598D01*
X30608598Y17700031D01*
X30521048Y17831059D01*
X30460743Y17976650D01*
X30430000Y18131205D01*
X30430000Y18288795D01*
X30460743Y18443350D01*
X30521048Y18588941D01*
X30608598Y18719969D01*
X30720031Y18831402D01*
X30851059Y18918952D01*
X30939741Y18955685D01*
X30996649Y18979257D01*
X31048168Y18989505D01*
X31151205Y19010000D01*
X31308795Y19010000D01*
X31411832Y18989505D01*
G37*
G36*
X20994263Y19476285D02*
G01*
X21028170Y19465999D01*
X21059425Y19449294D01*
X21086815Y19426815D01*
X21109294Y19399425D01*
X21125999Y19368170D01*
X21136285Y19334263D01*
X21140000Y19296546D01*
X21140000Y18263454D01*
X21136285Y18225737D01*
X21125999Y18191830D01*
X21109294Y18160575D01*
X21086815Y18133185D01*
X21059425Y18110706D01*
X21028170Y18094001D01*
X20994263Y18083715D01*
X20956546Y18080000D01*
X19223454Y18080000D01*
X19185737Y18083715D01*
X19151830Y18094001D01*
X19120575Y18110706D01*
X19093185Y18133185D01*
X19070706Y18160575D01*
X19054001Y18191830D01*
X19043715Y18225737D01*
X19040000Y18263454D01*
X19040000Y19296546D01*
X19043715Y19334263D01*
X19054001Y19368170D01*
X19070706Y19399425D01*
X19093185Y19426815D01*
X19120575Y19449294D01*
X19151830Y19465999D01*
X19185737Y19476285D01*
X19223454Y19480000D01*
X20956546Y19480000D01*
X20994263Y19476285D01*
G37*
G36*
X17003117Y20976497D02*
G01*
X17034962Y20966837D01*
X17064315Y20951147D01*
X17090038Y20930038D01*
X17111147Y20904315D01*
X17126837Y20874962D01*
X17136497Y20843117D01*
X17140000Y20807547D01*
X17140000Y19052453D01*
X17136497Y19016883D01*
X17126837Y18985038D01*
X17111147Y18955685D01*
X17090038Y18929962D01*
X17064315Y18908853D01*
X17034962Y18893163D01*
X17003117Y18883503D01*
X16967547Y18880000D01*
X15212453Y18880000D01*
X15176883Y18883503D01*
X15145038Y18893163D01*
X15115685Y18908853D01*
X15089962Y18929962D01*
X15068853Y18955685D01*
X15053163Y18985038D01*
X15043503Y19016883D01*
X15040000Y19052453D01*
X15040000Y20807547D01*
X15043503Y20843117D01*
X15053163Y20874962D01*
X15068853Y20904315D01*
X15089962Y20930038D01*
X15115685Y20951147D01*
X15145038Y20966837D01*
X15176883Y20976497D01*
X15212453Y20980000D01*
X16967547Y20980000D01*
X17003117Y20976497D01*
G37*
G36*
X31495090Y21600786D02*
G01*
X31591689Y21581571D01*
X31773678Y21506189D01*
X31937463Y21396751D01*
X32076751Y21257463D01*
X32186189Y21093678D01*
X32261571Y20911689D01*
X32268876Y20874962D01*
X32300000Y20718493D01*
X32300000Y20521507D01*
X32280785Y20424910D01*
X32261571Y20328311D01*
X32186189Y20146322D01*
X32076751Y19982537D01*
X31937463Y19843249D01*
X31773678Y19733811D01*
X31591689Y19658429D01*
X31495090Y19639214D01*
X31398493Y19620000D01*
X31201507Y19620000D01*
X31104910Y19639214D01*
X31008311Y19658429D01*
X30826322Y19733811D01*
X30662537Y19843249D01*
X30523249Y19982537D01*
X30413811Y20146322D01*
X30338429Y20328311D01*
X30319215Y20424910D01*
X30300000Y20521507D01*
X30300000Y20718493D01*
X30331124Y20874962D01*
X30338429Y20911689D01*
X30413811Y21093678D01*
X30523249Y21257463D01*
X30662537Y21396751D01*
X30826322Y21506189D01*
X31008311Y21581571D01*
X31104910Y21600786D01*
X31201507Y21620000D01*
X31398493Y21620000D01*
X31495090Y21600786D01*
G37*
G36*
X4578879Y20810560D02*
G01*
X4619870Y20798126D01*
X4657645Y20777935D01*
X4690758Y20750758D01*
X4717935Y20717645D01*
X4738126Y20679870D01*
X4750560Y20638879D01*
X4755000Y20593796D01*
X4755000Y19986204D01*
X4750560Y19941121D01*
X4738126Y19900130D01*
X4717935Y19862355D01*
X4690758Y19829242D01*
X4657645Y19802065D01*
X4619870Y19781874D01*
X4578879Y19769440D01*
X4533796Y19765000D01*
X4001204Y19765000D01*
X3956121Y19769440D01*
X3915130Y19781874D01*
X3877355Y19802065D01*
X3844242Y19829242D01*
X3817065Y19862355D01*
X3796874Y19900130D01*
X3784440Y19941121D01*
X3780000Y19986204D01*
X3780000Y20593796D01*
X3784440Y20638879D01*
X3796874Y20679870D01*
X3817065Y20717645D01*
X3844242Y20750758D01*
X3877355Y20777935D01*
X3915130Y20798126D01*
X3956121Y20810560D01*
X4001204Y20815000D01*
X4533796Y20815000D01*
X4578879Y20810560D01*
G37*
G36*
X3003879Y20810560D02*
G01*
X3044870Y20798126D01*
X3082645Y20777935D01*
X3115758Y20750758D01*
X3142935Y20717645D01*
X3163126Y20679870D01*
X3175560Y20638879D01*
X3180000Y20593796D01*
X3180000Y19986204D01*
X3175560Y19941121D01*
X3163126Y19900130D01*
X3142935Y19862355D01*
X3115758Y19829242D01*
X3082645Y19802065D01*
X3044870Y19781874D01*
X3003879Y19769440D01*
X2958796Y19765000D01*
X2426204Y19765000D01*
X2381121Y19769440D01*
X2340130Y19781874D01*
X2302355Y19802065D01*
X2269242Y19829242D01*
X2242065Y19862355D01*
X2221874Y19900130D01*
X2209440Y19941121D01*
X2205000Y19986204D01*
X2205000Y20593796D01*
X2209440Y20638879D01*
X2221874Y20679870D01*
X2242065Y20717645D01*
X2269242Y20750758D01*
X2302355Y20777935D01*
X2340130Y20798126D01*
X2381121Y20810560D01*
X2426204Y20815000D01*
X2958796Y20815000D01*
X3003879Y20810560D01*
G37*
G36*
X11743879Y20820560D02*
G01*
X11784870Y20808126D01*
X11822645Y20787935D01*
X11855758Y20760758D01*
X11882935Y20727645D01*
X11903126Y20689870D01*
X11915560Y20648879D01*
X11920000Y20603796D01*
X11920000Y19996204D01*
X11915560Y19951121D01*
X11903126Y19910130D01*
X11882935Y19872355D01*
X11855758Y19839242D01*
X11822645Y19812065D01*
X11784870Y19791874D01*
X11743879Y19779440D01*
X11698796Y19775000D01*
X11166204Y19775000D01*
X11121121Y19779440D01*
X11080130Y19791874D01*
X11042355Y19812065D01*
X11009242Y19839242D01*
X10982065Y19872355D01*
X10961874Y19910130D01*
X10949440Y19951121D01*
X10945000Y19996204D01*
X10945000Y20603796D01*
X10949440Y20648879D01*
X10961874Y20689870D01*
X10982065Y20727645D01*
X11009242Y20760758D01*
X11042355Y20787935D01*
X11080130Y20808126D01*
X11121121Y20820560D01*
X11166204Y20825000D01*
X11698796Y20825000D01*
X11743879Y20820560D01*
G37*
G36*
X13318879Y20820560D02*
G01*
X13359870Y20808126D01*
X13397645Y20787935D01*
X13430758Y20760758D01*
X13457935Y20727645D01*
X13478126Y20689870D01*
X13490560Y20648879D01*
X13495000Y20603796D01*
X13495000Y19996204D01*
X13490560Y19951121D01*
X13478126Y19910130D01*
X13457935Y19872355D01*
X13430758Y19839242D01*
X13397645Y19812065D01*
X13359870Y19791874D01*
X13318879Y19779440D01*
X13273796Y19775000D01*
X12741204Y19775000D01*
X12696121Y19779440D01*
X12655130Y19791874D01*
X12617355Y19812065D01*
X12584242Y19839242D01*
X12557065Y19872355D01*
X12536874Y19910130D01*
X12524440Y19951121D01*
X12520000Y19996204D01*
X12520000Y20603796D01*
X12524440Y20648879D01*
X12536874Y20689870D01*
X12557065Y20727645D01*
X12584242Y20760758D01*
X12617355Y20787935D01*
X12655130Y20808126D01*
X12696121Y20820560D01*
X12741204Y20825000D01*
X13273796Y20825000D01*
X13318879Y20820560D01*
G37*
G36*
X20994263Y21776285D02*
G01*
X21028170Y21765999D01*
X21059425Y21749294D01*
X21086815Y21726815D01*
X21109294Y21699425D01*
X21125999Y21668170D01*
X21136285Y21634263D01*
X21140000Y21596546D01*
X21140000Y20563454D01*
X21136285Y20525737D01*
X21125999Y20491830D01*
X21109294Y20460575D01*
X21086815Y20433185D01*
X21059425Y20410706D01*
X21028170Y20394001D01*
X20994263Y20383715D01*
X20956546Y20380000D01*
X19223454Y20380000D01*
X19185737Y20383715D01*
X19151830Y20394001D01*
X19120575Y20410706D01*
X19093185Y20433185D01*
X19070706Y20460575D01*
X19054001Y20491830D01*
X19043715Y20525737D01*
X19040000Y20563454D01*
X19040000Y21596546D01*
X19043715Y21634263D01*
X19054001Y21668170D01*
X19070706Y21699425D01*
X19093185Y21726815D01*
X19120575Y21749294D01*
X19151830Y21765999D01*
X19185737Y21776285D01*
X19223454Y21780000D01*
X20956546Y21780000D01*
X20994263Y21776285D01*
G37*
G36*
X11678879Y22885560D02*
G01*
X11719870Y22873126D01*
X11757645Y22852935D01*
X11790758Y22825758D01*
X11817935Y22792645D01*
X11838126Y22754870D01*
X11850560Y22713879D01*
X11855000Y22668796D01*
X11855000Y22136204D01*
X11850560Y22091121D01*
X11838126Y22050130D01*
X11817935Y22012355D01*
X11790758Y21979242D01*
X11757645Y21952065D01*
X11719870Y21931874D01*
X11678879Y21919440D01*
X11633796Y21915000D01*
X11026204Y21915000D01*
X10981121Y21919440D01*
X10940130Y21931874D01*
X10902355Y21952065D01*
X10869242Y21979242D01*
X10842065Y22012355D01*
X10821874Y22050130D01*
X10809440Y22091121D01*
X10805000Y22136204D01*
X10805000Y22668796D01*
X10809440Y22713879D01*
X10821874Y22754870D01*
X10842065Y22792645D01*
X10869242Y22825758D01*
X10902355Y22852935D01*
X10940130Y22873126D01*
X10981121Y22885560D01*
X11026204Y22890000D01*
X11633796Y22890000D01*
X11678879Y22885560D01*
G37*
G36*
X24474216Y24421881D02*
G01*
X24502309Y24413359D01*
X24528204Y24399517D01*
X24550896Y24380896D01*
X24569517Y24358204D01*
X24583359Y24332309D01*
X24591881Y24304216D01*
X24595000Y24272546D01*
X24595000Y22427454D01*
X24591881Y22395784D01*
X24583359Y22367691D01*
X24569517Y22341796D01*
X24550896Y22319104D01*
X24528204Y22300483D01*
X24502309Y22286641D01*
X24474216Y22278119D01*
X24442546Y22275000D01*
X24047454Y22275000D01*
X24015784Y22278119D01*
X23987691Y22286641D01*
X23961796Y22300483D01*
X23939104Y22319104D01*
X23920483Y22341796D01*
X23906641Y22367691D01*
X23898119Y22395784D01*
X23895000Y22427454D01*
X23895000Y24272546D01*
X23898119Y24304216D01*
X23906641Y24332309D01*
X23920483Y24358204D01*
X23939104Y24380896D01*
X23961796Y24399517D01*
X23987691Y24413359D01*
X24015784Y24421881D01*
X24047454Y24425000D01*
X24442546Y24425000D01*
X24474216Y24421881D01*
G37*
G36*
X32094216Y24421881D02*
G01*
X32122309Y24413359D01*
X32148204Y24399517D01*
X32170896Y24380896D01*
X32189517Y24358204D01*
X32203359Y24332309D01*
X32211881Y24304216D01*
X32215000Y24272546D01*
X32215000Y22427454D01*
X32211881Y22395784D01*
X32203359Y22367691D01*
X32189517Y22341796D01*
X32170896Y22319104D01*
X32148204Y22300483D01*
X32122309Y22286641D01*
X32094216Y22278119D01*
X32062546Y22275000D01*
X31667454Y22275000D01*
X31635784Y22278119D01*
X31607691Y22286641D01*
X31581796Y22300483D01*
X31559104Y22319104D01*
X31540483Y22341796D01*
X31526641Y22367691D01*
X31518119Y22395784D01*
X31515000Y22427454D01*
X31515000Y24272546D01*
X31518119Y24304216D01*
X31526641Y24332309D01*
X31540483Y24358204D01*
X31559104Y24380896D01*
X31581796Y24399517D01*
X31607691Y24413359D01*
X31635784Y24421881D01*
X31667454Y24425000D01*
X32062546Y24425000D01*
X32094216Y24421881D01*
G37*
G36*
X30824216Y24421881D02*
G01*
X30852309Y24413359D01*
X30878204Y24399517D01*
X30900896Y24380896D01*
X30919517Y24358204D01*
X30933359Y24332309D01*
X30941881Y24304216D01*
X30945000Y24272546D01*
X30945000Y22427454D01*
X30941881Y22395784D01*
X30933359Y22367691D01*
X30919517Y22341796D01*
X30900896Y22319104D01*
X30878204Y22300483D01*
X30852309Y22286641D01*
X30824216Y22278119D01*
X30792546Y22275000D01*
X30397454Y22275000D01*
X30365784Y22278119D01*
X30337691Y22286641D01*
X30311796Y22300483D01*
X30289104Y22319104D01*
X30270483Y22341796D01*
X30256641Y22367691D01*
X30248119Y22395784D01*
X30245000Y22427454D01*
X30245000Y24272546D01*
X30248119Y24304216D01*
X30256641Y24332309D01*
X30270483Y24358204D01*
X30289104Y24380896D01*
X30311796Y24399517D01*
X30337691Y24413359D01*
X30365784Y24421881D01*
X30397454Y24425000D01*
X30792546Y24425000D01*
X30824216Y24421881D01*
G37*
G36*
X29554216Y24421881D02*
G01*
X29582309Y24413359D01*
X29608204Y24399517D01*
X29630896Y24380896D01*
X29649517Y24358204D01*
X29663359Y24332309D01*
X29671881Y24304216D01*
X29675000Y24272546D01*
X29675000Y22427454D01*
X29671881Y22395784D01*
X29663359Y22367691D01*
X29649517Y22341796D01*
X29630896Y22319104D01*
X29608204Y22300483D01*
X29582309Y22286641D01*
X29554216Y22278119D01*
X29522546Y22275000D01*
X29127454Y22275000D01*
X29095784Y22278119D01*
X29067691Y22286641D01*
X29041796Y22300483D01*
X29019104Y22319104D01*
X29000483Y22341796D01*
X28986641Y22367691D01*
X28978119Y22395784D01*
X28975000Y22427454D01*
X28975000Y24272546D01*
X28978119Y24304216D01*
X28986641Y24332309D01*
X29000483Y24358204D01*
X29019104Y24380896D01*
X29041796Y24399517D01*
X29067691Y24413359D01*
X29095784Y24421881D01*
X29127454Y24425000D01*
X29522546Y24425000D01*
X29554216Y24421881D01*
G37*
G36*
X28284216Y24421881D02*
G01*
X28312309Y24413359D01*
X28338204Y24399517D01*
X28360896Y24380896D01*
X28379517Y24358204D01*
X28393359Y24332309D01*
X28401881Y24304216D01*
X28405000Y24272546D01*
X28405000Y22427454D01*
X28401881Y22395784D01*
X28393359Y22367691D01*
X28379517Y22341796D01*
X28360896Y22319104D01*
X28338204Y22300483D01*
X28312309Y22286641D01*
X28284216Y22278119D01*
X28252546Y22275000D01*
X27857454Y22275000D01*
X27825784Y22278119D01*
X27797691Y22286641D01*
X27771796Y22300483D01*
X27749104Y22319104D01*
X27730483Y22341796D01*
X27716641Y22367691D01*
X27708119Y22395784D01*
X27705000Y22427454D01*
X27705000Y24272546D01*
X27708119Y24304216D01*
X27716641Y24332309D01*
X27730483Y24358204D01*
X27749104Y24380896D01*
X27771796Y24399517D01*
X27797691Y24413359D01*
X27825784Y24421881D01*
X27857454Y24425000D01*
X28252546Y24425000D01*
X28284216Y24421881D01*
G37*
G36*
X27014216Y24421881D02*
G01*
X27042309Y24413359D01*
X27068204Y24399517D01*
X27090896Y24380896D01*
X27109517Y24358204D01*
X27123359Y24332309D01*
X27131881Y24304216D01*
X27135000Y24272546D01*
X27135000Y22427454D01*
X27131881Y22395784D01*
X27123359Y22367691D01*
X27109517Y22341796D01*
X27090896Y22319104D01*
X27068204Y22300483D01*
X27042309Y22286641D01*
X27014216Y22278119D01*
X26982546Y22275000D01*
X26587454Y22275000D01*
X26555784Y22278119D01*
X26527691Y22286641D01*
X26501796Y22300483D01*
X26479104Y22319104D01*
X26460483Y22341796D01*
X26446641Y22367691D01*
X26438119Y22395784D01*
X26435000Y22427454D01*
X26435000Y24272546D01*
X26438119Y24304216D01*
X26446641Y24332309D01*
X26460483Y24358204D01*
X26479104Y24380896D01*
X26501796Y24399517D01*
X26527691Y24413359D01*
X26555784Y24421881D01*
X26587454Y24425000D01*
X26982546Y24425000D01*
X27014216Y24421881D01*
G37*
G36*
X25744216Y24421881D02*
G01*
X25772309Y24413359D01*
X25798204Y24399517D01*
X25820896Y24380896D01*
X25839517Y24358204D01*
X25853359Y24332309D01*
X25861881Y24304216D01*
X25865000Y24272546D01*
X25865000Y22427454D01*
X25861881Y22395784D01*
X25853359Y22367691D01*
X25839517Y22341796D01*
X25820896Y22319104D01*
X25798204Y22300483D01*
X25772309Y22286641D01*
X25744216Y22278119D01*
X25712546Y22275000D01*
X25317454Y22275000D01*
X25285784Y22278119D01*
X25257691Y22286641D01*
X25231796Y22300483D01*
X25209104Y22319104D01*
X25190483Y22341796D01*
X25176641Y22367691D01*
X25168119Y22395784D01*
X25165000Y22427454D01*
X25165000Y24272546D01*
X25168119Y24304216D01*
X25176641Y24332309D01*
X25190483Y24358204D01*
X25209104Y24380896D01*
X25231796Y24399517D01*
X25257691Y24413359D01*
X25285784Y24421881D01*
X25317454Y24425000D01*
X25712546Y24425000D01*
X25744216Y24421881D01*
G37*
G36*
X23204216Y24421881D02*
G01*
X23232309Y24413359D01*
X23258204Y24399517D01*
X23280896Y24380896D01*
X23299517Y24358204D01*
X23313359Y24332309D01*
X23321881Y24304216D01*
X23325000Y24272546D01*
X23325000Y22427454D01*
X23321881Y22395784D01*
X23313359Y22367691D01*
X23299517Y22341796D01*
X23280896Y22319104D01*
X23258204Y22300483D01*
X23232309Y22286641D01*
X23204216Y22278119D01*
X23172546Y22275000D01*
X22777454Y22275000D01*
X22745784Y22278119D01*
X22717691Y22286641D01*
X22691796Y22300483D01*
X22669104Y22319104D01*
X22650483Y22341796D01*
X22636641Y22367691D01*
X22628119Y22395784D01*
X22625000Y22427454D01*
X22625000Y24272546D01*
X22628119Y24304216D01*
X22636641Y24332309D01*
X22650483Y24358204D01*
X22669104Y24380896D01*
X22691796Y24399517D01*
X22717691Y24413359D01*
X22745784Y24421881D01*
X22777454Y24425000D01*
X23172546Y24425000D01*
X23204216Y24421881D01*
G37*
G36*
X8635945Y24399904D02*
G01*
X8677478Y24387305D01*
X8715757Y24366844D01*
X8749309Y24339309D01*
X8776844Y24305757D01*
X8797305Y24267478D01*
X8809904Y24225945D01*
X8814400Y24180296D01*
X8814400Y22547304D01*
X8809904Y22501655D01*
X8797305Y22460122D01*
X8776844Y22421843D01*
X8749309Y22388291D01*
X8715757Y22360756D01*
X8677478Y22340295D01*
X8635945Y22327696D01*
X8590296Y22323200D01*
X8379704Y22323200D01*
X8334055Y22327696D01*
X8292522Y22340295D01*
X8254243Y22360756D01*
X8220691Y22388291D01*
X8193156Y22421843D01*
X8172695Y22460122D01*
X8160096Y22501655D01*
X8155600Y22547304D01*
X8155600Y24180296D01*
X8160096Y24225945D01*
X8172695Y24267478D01*
X8193156Y24305757D01*
X8220691Y24339309D01*
X8254243Y24366844D01*
X8292522Y24387305D01*
X8334055Y24399904D01*
X8379704Y24404400D01*
X8590296Y24404400D01*
X8635945Y24399904D01*
G37*
G36*
X7365945Y24399904D02*
G01*
X7407478Y24387305D01*
X7445757Y24366844D01*
X7479309Y24339309D01*
X7506844Y24305757D01*
X7527305Y24267478D01*
X7539904Y24225945D01*
X7544400Y24180296D01*
X7544400Y22547304D01*
X7539904Y22501655D01*
X7527305Y22460122D01*
X7506844Y22421843D01*
X7479309Y22388291D01*
X7445757Y22360756D01*
X7407478Y22340295D01*
X7365945Y22327696D01*
X7320296Y22323200D01*
X7109704Y22323200D01*
X7064055Y22327696D01*
X7022522Y22340295D01*
X6984243Y22360756D01*
X6950691Y22388291D01*
X6923156Y22421843D01*
X6902695Y22460122D01*
X6890096Y22501655D01*
X6885600Y22547304D01*
X6885600Y24180296D01*
X6890096Y24225945D01*
X6902695Y24267478D01*
X6923156Y24305757D01*
X6950691Y24339309D01*
X6984243Y24366844D01*
X7022522Y24387305D01*
X7064055Y24399904D01*
X7109704Y24404400D01*
X7320296Y24404400D01*
X7365945Y24399904D01*
G37*
G36*
X6095945Y24399904D02*
G01*
X6137478Y24387305D01*
X6175757Y24366844D01*
X6209309Y24339309D01*
X6236844Y24305757D01*
X6257305Y24267478D01*
X6269904Y24225945D01*
X6274400Y24180296D01*
X6274400Y22547304D01*
X6269904Y22501655D01*
X6257305Y22460122D01*
X6236844Y22421843D01*
X6209309Y22388291D01*
X6175757Y22360756D01*
X6137478Y22340295D01*
X6095945Y22327696D01*
X6050296Y22323200D01*
X5839704Y22323200D01*
X5794055Y22327696D01*
X5752522Y22340295D01*
X5714243Y22360756D01*
X5680691Y22388291D01*
X5653156Y22421843D01*
X5632695Y22460122D01*
X5620096Y22501655D01*
X5615600Y22547304D01*
X5615600Y24180296D01*
X5620096Y24225945D01*
X5632695Y24267478D01*
X5653156Y24305757D01*
X5680691Y24339309D01*
X5714243Y24366844D01*
X5752522Y24387305D01*
X5794055Y24399904D01*
X5839704Y24404400D01*
X6050296Y24404400D01*
X6095945Y24399904D01*
G37*
G36*
X9905945Y24399904D02*
G01*
X9947478Y24387305D01*
X9985757Y24366844D01*
X10019309Y24339309D01*
X10046844Y24305757D01*
X10067305Y24267478D01*
X10079904Y24225945D01*
X10084400Y24180296D01*
X10084400Y22547304D01*
X10079904Y22501655D01*
X10067305Y22460122D01*
X10046844Y22421843D01*
X10019309Y22388291D01*
X9985757Y22360756D01*
X9947478Y22340295D01*
X9905945Y22327696D01*
X9860296Y22323200D01*
X9649704Y22323200D01*
X9604055Y22327696D01*
X9562522Y22340295D01*
X9524243Y22360756D01*
X9490691Y22388291D01*
X9463156Y22421843D01*
X9442695Y22460122D01*
X9430096Y22501655D01*
X9425600Y22547304D01*
X9425600Y24180296D01*
X9430096Y24225945D01*
X9442695Y24267478D01*
X9463156Y24305757D01*
X9490691Y24339309D01*
X9524243Y24366844D01*
X9562522Y24387305D01*
X9604055Y24399904D01*
X9649704Y24404400D01*
X9860296Y24404400D01*
X9905945Y24399904D01*
G37*
G36*
X15773879Y23770560D02*
G01*
X15814870Y23758126D01*
X15852645Y23737935D01*
X15885758Y23710758D01*
X15912935Y23677645D01*
X15933126Y23639870D01*
X15945560Y23598879D01*
X15950000Y23553796D01*
X15950000Y22946204D01*
X15945560Y22901121D01*
X15933126Y22860130D01*
X15912935Y22822355D01*
X15885758Y22789242D01*
X15852645Y22762065D01*
X15814870Y22741874D01*
X15773879Y22729440D01*
X15728796Y22725000D01*
X15196204Y22725000D01*
X15151121Y22729440D01*
X15110130Y22741874D01*
X15072355Y22762065D01*
X15039242Y22789242D01*
X15012065Y22822355D01*
X14991874Y22860130D01*
X14979440Y22901121D01*
X14975000Y22946204D01*
X14975000Y23553796D01*
X14979440Y23598879D01*
X14991874Y23639870D01*
X15012065Y23677645D01*
X15039242Y23710758D01*
X15072355Y23737935D01*
X15110130Y23758126D01*
X15151121Y23770560D01*
X15196204Y23775000D01*
X15728796Y23775000D01*
X15773879Y23770560D01*
G37*
G36*
X20398879Y23770560D02*
G01*
X20439870Y23758126D01*
X20477645Y23737935D01*
X20510758Y23710758D01*
X20537935Y23677645D01*
X20558126Y23639870D01*
X20570560Y23598879D01*
X20575000Y23553796D01*
X20575000Y22946204D01*
X20570560Y22901121D01*
X20558126Y22860130D01*
X20537935Y22822355D01*
X20510758Y22789242D01*
X20477645Y22762065D01*
X20439870Y22741874D01*
X20398879Y22729440D01*
X20353796Y22725000D01*
X19821204Y22725000D01*
X19776121Y22729440D01*
X19735130Y22741874D01*
X19697355Y22762065D01*
X19664242Y22789242D01*
X19637065Y22822355D01*
X19616874Y22860130D01*
X19604440Y22901121D01*
X19600000Y22946204D01*
X19600000Y23553796D01*
X19604440Y23598879D01*
X19616874Y23639870D01*
X19637065Y23677645D01*
X19664242Y23710758D01*
X19697355Y23737935D01*
X19735130Y23758126D01*
X19776121Y23770560D01*
X19821204Y23775000D01*
X20353796Y23775000D01*
X20398879Y23770560D01*
G37*
G36*
X18823879Y23770560D02*
G01*
X18864870Y23758126D01*
X18902645Y23737935D01*
X18935758Y23710758D01*
X18962935Y23677645D01*
X18983126Y23639870D01*
X18995560Y23598879D01*
X19000000Y23553796D01*
X19000000Y22946204D01*
X18995560Y22901121D01*
X18983126Y22860130D01*
X18962935Y22822355D01*
X18935758Y22789242D01*
X18902645Y22762065D01*
X18864870Y22741874D01*
X18823879Y22729440D01*
X18778796Y22725000D01*
X18246204Y22725000D01*
X18201121Y22729440D01*
X18160130Y22741874D01*
X18122355Y22762065D01*
X18089242Y22789242D01*
X18062065Y22822355D01*
X18041874Y22860130D01*
X18029440Y22901121D01*
X18025000Y22946204D01*
X18025000Y23553796D01*
X18029440Y23598879D01*
X18041874Y23639870D01*
X18062065Y23677645D01*
X18089242Y23710758D01*
X18122355Y23737935D01*
X18160130Y23758126D01*
X18201121Y23770560D01*
X18246204Y23775000D01*
X18778796Y23775000D01*
X18823879Y23770560D01*
G37*
G36*
X17348879Y23770560D02*
G01*
X17389870Y23758126D01*
X17427645Y23737935D01*
X17460758Y23710758D01*
X17487935Y23677645D01*
X17508126Y23639870D01*
X17520560Y23598879D01*
X17525000Y23553796D01*
X17525000Y22946204D01*
X17520560Y22901121D01*
X17508126Y22860130D01*
X17487935Y22822355D01*
X17460758Y22789242D01*
X17427645Y22762065D01*
X17389870Y22741874D01*
X17348879Y22729440D01*
X17303796Y22725000D01*
X16771204Y22725000D01*
X16726121Y22729440D01*
X16685130Y22741874D01*
X16647355Y22762065D01*
X16614242Y22789242D01*
X16587065Y22822355D01*
X16566874Y22860130D01*
X16554440Y22901121D01*
X16550000Y22946204D01*
X16550000Y23553796D01*
X16554440Y23598879D01*
X16566874Y23639870D01*
X16587065Y23677645D01*
X16614242Y23710758D01*
X16647355Y23737935D01*
X16685130Y23758126D01*
X16726121Y23770560D01*
X16771204Y23775000D01*
X17303796Y23775000D01*
X17348879Y23770560D01*
G37*
G36*
X11678879Y24460560D02*
G01*
X11719870Y24448126D01*
X11757645Y24427935D01*
X11790758Y24400758D01*
X11817935Y24367645D01*
X11838126Y24329870D01*
X11850560Y24288879D01*
X11855000Y24243796D01*
X11855000Y23711204D01*
X11850560Y23666121D01*
X11838126Y23625130D01*
X11817935Y23587355D01*
X11790758Y23554242D01*
X11757645Y23527065D01*
X11719870Y23506874D01*
X11678879Y23494440D01*
X11633796Y23490000D01*
X11026204Y23490000D01*
X10981121Y23494440D01*
X10940130Y23506874D01*
X10902355Y23527065D01*
X10869242Y23554242D01*
X10842065Y23587355D01*
X10821874Y23625130D01*
X10809440Y23666121D01*
X10805000Y23711204D01*
X10805000Y24243796D01*
X10809440Y24288879D01*
X10821874Y24329870D01*
X10842065Y24367645D01*
X10869242Y24400758D01*
X10902355Y24427935D01*
X10940130Y24448126D01*
X10981121Y24460560D01*
X11026204Y24465000D01*
X11633796Y24465000D01*
X11678879Y24460560D01*
G37*
G36*
X18843879Y25310560D02*
G01*
X18884870Y25298126D01*
X18922645Y25277935D01*
X18955758Y25250758D01*
X18982935Y25217645D01*
X19003126Y25179870D01*
X19015560Y25138879D01*
X19020000Y25093796D01*
X19020000Y24486204D01*
X19015560Y24441121D01*
X19003126Y24400130D01*
X18982935Y24362355D01*
X18955758Y24329242D01*
X18922645Y24302065D01*
X18884870Y24281874D01*
X18843879Y24269440D01*
X18798796Y24265000D01*
X18266204Y24265000D01*
X18221121Y24269440D01*
X18180130Y24281874D01*
X18142355Y24302065D01*
X18109242Y24329242D01*
X18082065Y24362355D01*
X18061874Y24400130D01*
X18049440Y24441121D01*
X18045000Y24486204D01*
X18045000Y25093796D01*
X18049440Y25138879D01*
X18061874Y25179870D01*
X18082065Y25217645D01*
X18109242Y25250758D01*
X18142355Y25277935D01*
X18180130Y25298126D01*
X18221121Y25310560D01*
X18266204Y25315000D01*
X18798796Y25315000D01*
X18843879Y25310560D01*
G37*
G36*
X20418879Y25310560D02*
G01*
X20459870Y25298126D01*
X20497645Y25277935D01*
X20530758Y25250758D01*
X20557935Y25217645D01*
X20578126Y25179870D01*
X20590560Y25138879D01*
X20595000Y25093796D01*
X20595000Y24486204D01*
X20590560Y24441121D01*
X20578126Y24400130D01*
X20557935Y24362355D01*
X20530758Y24329242D01*
X20497645Y24302065D01*
X20459870Y24281874D01*
X20418879Y24269440D01*
X20373796Y24265000D01*
X19841204Y24265000D01*
X19796121Y24269440D01*
X19755130Y24281874D01*
X19717355Y24302065D01*
X19684242Y24329242D01*
X19657065Y24362355D01*
X19636874Y24400130D01*
X19624440Y24441121D01*
X19620000Y24486204D01*
X19620000Y25093796D01*
X19624440Y25138879D01*
X19636874Y25179870D01*
X19657065Y25217645D01*
X19684242Y25250758D01*
X19717355Y25277935D01*
X19755130Y25298126D01*
X19796121Y25310560D01*
X19841204Y25315000D01*
X20373796Y25315000D01*
X20418879Y25310560D01*
G37*
G36*
X17378879Y25310560D02*
G01*
X17419870Y25298126D01*
X17457645Y25277935D01*
X17490758Y25250758D01*
X17517935Y25217645D01*
X17538126Y25179870D01*
X17550560Y25138879D01*
X17555000Y25093796D01*
X17555000Y24486204D01*
X17550560Y24441121D01*
X17538126Y24400130D01*
X17517935Y24362355D01*
X17490758Y24329242D01*
X17457645Y24302065D01*
X17419870Y24281874D01*
X17378879Y24269440D01*
X17333796Y24265000D01*
X16801204Y24265000D01*
X16756121Y24269440D01*
X16715130Y24281874D01*
X16677355Y24302065D01*
X16644242Y24329242D01*
X16617065Y24362355D01*
X16596874Y24400130D01*
X16584440Y24441121D01*
X16580000Y24486204D01*
X16580000Y25093796D01*
X16584440Y25138879D01*
X16596874Y25179870D01*
X16617065Y25217645D01*
X16644242Y25250758D01*
X16677355Y25277935D01*
X16715130Y25298126D01*
X16756121Y25310560D01*
X16801204Y25315000D01*
X17333796Y25315000D01*
X17378879Y25310560D01*
G37*
G36*
X15803879Y25310560D02*
G01*
X15844870Y25298126D01*
X15882645Y25277935D01*
X15915758Y25250758D01*
X15942935Y25217645D01*
X15963126Y25179870D01*
X15975560Y25138879D01*
X15980000Y25093796D01*
X15980000Y24486204D01*
X15975560Y24441121D01*
X15963126Y24400130D01*
X15942935Y24362355D01*
X15915758Y24329242D01*
X15882645Y24302065D01*
X15844870Y24281874D01*
X15803879Y24269440D01*
X15758796Y24265000D01*
X15226204Y24265000D01*
X15181121Y24269440D01*
X15140130Y24281874D01*
X15102355Y24302065D01*
X15069242Y24329242D01*
X15042065Y24362355D01*
X15021874Y24400130D01*
X15009440Y24441121D01*
X15005000Y24486204D01*
X15005000Y25093796D01*
X15009440Y25138879D01*
X15021874Y25179870D01*
X15042065Y25217645D01*
X15069242Y25250758D01*
X15102355Y25277935D01*
X15140130Y25298126D01*
X15181121Y25310560D01*
X15226204Y25315000D01*
X15758796Y25315000D01*
X15803879Y25310560D01*
G37*
G36*
X11638879Y25980560D02*
G01*
X11679870Y25968126D01*
X11717645Y25947935D01*
X11750758Y25920758D01*
X11777935Y25887645D01*
X11798126Y25849870D01*
X11810560Y25808879D01*
X11815000Y25763796D01*
X11815000Y25156204D01*
X11810560Y25111121D01*
X11798126Y25070130D01*
X11777935Y25032355D01*
X11750758Y24999242D01*
X11717645Y24972065D01*
X11679870Y24951874D01*
X11638879Y24939440D01*
X11593796Y24935000D01*
X11061204Y24935000D01*
X11016121Y24939440D01*
X10975130Y24951874D01*
X10937355Y24972065D01*
X10904242Y24999242D01*
X10877065Y25032355D01*
X10856874Y25070130D01*
X10844440Y25111121D01*
X10840000Y25156204D01*
X10840000Y25763796D01*
X10844440Y25808879D01*
X10856874Y25849870D01*
X10877065Y25887645D01*
X10904242Y25920758D01*
X10937355Y25947935D01*
X10975130Y25968126D01*
X11016121Y25980560D01*
X11061204Y25985000D01*
X11593796Y25985000D01*
X11638879Y25980560D01*
G37*
G36*
X6586378Y25980560D02*
G01*
X6627369Y25968126D01*
X6665144Y25947935D01*
X6698257Y25920758D01*
X6725434Y25887645D01*
X6745625Y25849870D01*
X6758059Y25808879D01*
X6762499Y25763796D01*
X6762499Y25156204D01*
X6758059Y25111121D01*
X6745625Y25070130D01*
X6725434Y25032355D01*
X6698257Y24999242D01*
X6665144Y24972065D01*
X6627369Y24951874D01*
X6586378Y24939440D01*
X6541295Y24935000D01*
X6008703Y24935000D01*
X5963620Y24939440D01*
X5922629Y24951874D01*
X5884854Y24972065D01*
X5851741Y24999242D01*
X5824564Y25032355D01*
X5804373Y25070130D01*
X5791939Y25111121D01*
X5787499Y25156204D01*
X5787499Y25763796D01*
X5791939Y25808879D01*
X5804373Y25849870D01*
X5824564Y25887645D01*
X5851741Y25920758D01*
X5884854Y25947935D01*
X5922629Y25968126D01*
X5963620Y25980560D01*
X6008703Y25985000D01*
X6541295Y25985000D01*
X6586378Y25980560D01*
G37*
G36*
X10063879Y25980560D02*
G01*
X10104870Y25968126D01*
X10142645Y25947935D01*
X10175758Y25920758D01*
X10202935Y25887645D01*
X10223126Y25849870D01*
X10235560Y25808879D01*
X10240000Y25763796D01*
X10240000Y25156204D01*
X10235560Y25111121D01*
X10223126Y25070130D01*
X10202935Y25032355D01*
X10175758Y24999242D01*
X10142645Y24972065D01*
X10104870Y24951874D01*
X10063879Y24939440D01*
X10018796Y24935000D01*
X9486204Y24935000D01*
X9441121Y24939440D01*
X9400130Y24951874D01*
X9362355Y24972065D01*
X9329242Y24999242D01*
X9302065Y25032355D01*
X9281874Y25070130D01*
X9269440Y25111121D01*
X9265000Y25156204D01*
X9265000Y25763796D01*
X9269440Y25808879D01*
X9281874Y25849870D01*
X9302065Y25887645D01*
X9329242Y25920758D01*
X9362355Y25947935D01*
X9400130Y25968126D01*
X9441121Y25980560D01*
X9486204Y25985000D01*
X10018796Y25985000D01*
X10063879Y25980560D01*
G37*
G36*
X8161378Y25980560D02*
G01*
X8202369Y25968126D01*
X8240144Y25947935D01*
X8273257Y25920758D01*
X8300434Y25887645D01*
X8320625Y25849870D01*
X8333059Y25808879D01*
X8337499Y25763796D01*
X8337499Y25156204D01*
X8333059Y25111121D01*
X8320625Y25070130D01*
X8300434Y25032355D01*
X8273257Y24999242D01*
X8240144Y24972065D01*
X8202369Y24951874D01*
X8161378Y24939440D01*
X8116295Y24935000D01*
X7583703Y24935000D01*
X7538620Y24939440D01*
X7497629Y24951874D01*
X7459854Y24972065D01*
X7426741Y24999242D01*
X7399564Y25032355D01*
X7379373Y25070130D01*
X7366939Y25111121D01*
X7362499Y25156204D01*
X7362499Y25763796D01*
X7366939Y25808879D01*
X7379373Y25849870D01*
X7399564Y25887645D01*
X7426741Y25920758D01*
X7459854Y25947935D01*
X7497629Y25968126D01*
X7538620Y25980560D01*
X7583703Y25985000D01*
X8116295Y25985000D01*
X8161378Y25980560D01*
G37*
G36*
X21014263Y27646285D02*
G01*
X21048170Y27635999D01*
X21079425Y27619294D01*
X21106815Y27596815D01*
X21129294Y27569425D01*
X21145999Y27538170D01*
X21156285Y27504263D01*
X21160000Y27466546D01*
X21160000Y26433454D01*
X21156285Y26395737D01*
X21145999Y26361830D01*
X21129294Y26330575D01*
X21106815Y26303185D01*
X21079425Y26280706D01*
X21048170Y26264001D01*
X21014263Y26253715D01*
X20976546Y26250000D01*
X19243454Y26250000D01*
X19205737Y26253715D01*
X19171830Y26264001D01*
X19140575Y26280706D01*
X19113185Y26303185D01*
X19090706Y26330575D01*
X19074001Y26361830D01*
X19063715Y26395737D01*
X19060000Y26433454D01*
X19060000Y27466546D01*
X19063715Y27504263D01*
X19074001Y27538170D01*
X19090706Y27569425D01*
X19113185Y27596815D01*
X19140575Y27619294D01*
X19171830Y27635999D01*
X19205737Y27646285D01*
X19243454Y27650000D01*
X20976546Y27650000D01*
X21014263Y27646285D01*
G37*
G36*
X17023117Y29146497D02*
G01*
X17054962Y29136837D01*
X17084315Y29121147D01*
X17110038Y29100038D01*
X17131147Y29074315D01*
X17146837Y29044962D01*
X17156497Y29013117D01*
X17160000Y28977547D01*
X17160000Y27222453D01*
X17156497Y27186883D01*
X17146837Y27155038D01*
X17131147Y27125685D01*
X17110038Y27099962D01*
X17084315Y27078853D01*
X17054962Y27063163D01*
X17023117Y27053503D01*
X16987547Y27050000D01*
X15232453Y27050000D01*
X15196883Y27053503D01*
X15165038Y27063163D01*
X15135685Y27078853D01*
X15109962Y27099962D01*
X15088853Y27125685D01*
X15073163Y27155038D01*
X15063503Y27186883D01*
X15060000Y27222453D01*
X15060000Y28977547D01*
X15063503Y29013117D01*
X15073163Y29044962D01*
X15088853Y29074315D01*
X15109962Y29100038D01*
X15135685Y29121147D01*
X15165038Y29136837D01*
X15196883Y29146497D01*
X15232453Y29150000D01*
X16987547Y29150000D01*
X17023117Y29146497D01*
G37*
G36*
X21014263Y29946285D02*
G01*
X21048170Y29935999D01*
X21079425Y29919294D01*
X21106815Y29896815D01*
X21129294Y29869425D01*
X21145999Y29838170D01*
X21156285Y29804263D01*
X21160000Y29766546D01*
X21160000Y28733454D01*
X21156285Y28695737D01*
X21145999Y28661830D01*
X21129294Y28630575D01*
X21106815Y28603185D01*
X21079425Y28580706D01*
X21048170Y28564001D01*
X21014263Y28553715D01*
X20976546Y28550000D01*
X19243454Y28550000D01*
X19205737Y28553715D01*
X19171830Y28564001D01*
X19140575Y28580706D01*
X19113185Y28603185D01*
X19090706Y28630575D01*
X19074001Y28661830D01*
X19063715Y28695737D01*
X19060000Y28733454D01*
X19060000Y29766546D01*
X19063715Y29804263D01*
X19074001Y29838170D01*
X19090706Y29869425D01*
X19113185Y29896815D01*
X19140575Y29919294D01*
X19171830Y29935999D01*
X19205737Y29946285D01*
X19243454Y29950000D01*
X20976546Y29950000D01*
X21014263Y29946285D01*
G37*
G36*
X17378879Y31930560D02*
G01*
X17419870Y31918126D01*
X17457645Y31897935D01*
X17490758Y31870758D01*
X17517935Y31837645D01*
X17538126Y31799870D01*
X17550560Y31758879D01*
X17555000Y31713796D01*
X17555000Y31106204D01*
X17550560Y31061121D01*
X17538126Y31020130D01*
X17517935Y30982355D01*
X17490758Y30949242D01*
X17457645Y30922065D01*
X17419870Y30901874D01*
X17378879Y30889440D01*
X17333796Y30885000D01*
X16801204Y30885000D01*
X16756121Y30889440D01*
X16715130Y30901874D01*
X16677355Y30922065D01*
X16644242Y30949242D01*
X16617065Y30982355D01*
X16596874Y31020130D01*
X16584440Y31061121D01*
X16580000Y31106204D01*
X16580000Y31713796D01*
X16584440Y31758879D01*
X16596874Y31799870D01*
X16617065Y31837645D01*
X16644242Y31870758D01*
X16677355Y31897935D01*
X16715130Y31918126D01*
X16756121Y31930560D01*
X16801204Y31935000D01*
X17333796Y31935000D01*
X17378879Y31930560D01*
G37*
G36*
X18843879Y31930560D02*
G01*
X18884870Y31918126D01*
X18922645Y31897935D01*
X18955758Y31870758D01*
X18982935Y31837645D01*
X19003126Y31799870D01*
X19015560Y31758879D01*
X19020000Y31713796D01*
X19020000Y31106204D01*
X19015560Y31061121D01*
X19003126Y31020130D01*
X18982935Y30982355D01*
X18955758Y30949242D01*
X18922645Y30922065D01*
X18884870Y30901874D01*
X18843879Y30889440D01*
X18798796Y30885000D01*
X18266204Y30885000D01*
X18221121Y30889440D01*
X18180130Y30901874D01*
X18142355Y30922065D01*
X18109242Y30949242D01*
X18082065Y30982355D01*
X18061874Y31020130D01*
X18049440Y31061121D01*
X18045000Y31106204D01*
X18045000Y31713796D01*
X18049440Y31758879D01*
X18061874Y31799870D01*
X18082065Y31837645D01*
X18109242Y31870758D01*
X18142355Y31897935D01*
X18180130Y31918126D01*
X18221121Y31930560D01*
X18266204Y31935000D01*
X18798796Y31935000D01*
X18843879Y31930560D01*
G37*
G36*
X20418879Y31930560D02*
G01*
X20459870Y31918126D01*
X20497645Y31897935D01*
X20530758Y31870758D01*
X20557935Y31837645D01*
X20578126Y31799870D01*
X20590560Y31758879D01*
X20595000Y31713796D01*
X20595000Y31106204D01*
X20590560Y31061121D01*
X20578126Y31020130D01*
X20557935Y30982355D01*
X20530758Y30949242D01*
X20497645Y30922065D01*
X20459870Y30901874D01*
X20418879Y30889440D01*
X20373796Y30885000D01*
X19841204Y30885000D01*
X19796121Y30889440D01*
X19755130Y30901874D01*
X19717355Y30922065D01*
X19684242Y30949242D01*
X19657065Y30982355D01*
X19636874Y31020130D01*
X19624440Y31061121D01*
X19620000Y31106204D01*
X19620000Y31713796D01*
X19624440Y31758879D01*
X19636874Y31799870D01*
X19657065Y31837645D01*
X19684242Y31870758D01*
X19717355Y31897935D01*
X19755130Y31918126D01*
X19796121Y31930560D01*
X19841204Y31935000D01*
X20373796Y31935000D01*
X20418879Y31930560D01*
G37*
G36*
X15803879Y31930560D02*
G01*
X15844870Y31918126D01*
X15882645Y31897935D01*
X15915758Y31870758D01*
X15942935Y31837645D01*
X15963126Y31799870D01*
X15975560Y31758879D01*
X15980000Y31713796D01*
X15980000Y31106204D01*
X15975560Y31061121D01*
X15963126Y31020130D01*
X15942935Y30982355D01*
X15915758Y30949242D01*
X15882645Y30922065D01*
X15844870Y30901874D01*
X15803879Y30889440D01*
X15758796Y30885000D01*
X15226204Y30885000D01*
X15181121Y30889440D01*
X15140130Y30901874D01*
X15102355Y30922065D01*
X15069242Y30949242D01*
X15042065Y30982355D01*
X15021874Y31020130D01*
X15009440Y31061121D01*
X15005000Y31106204D01*
X15005000Y31713796D01*
X15009440Y31758879D01*
X15021874Y31799870D01*
X15042065Y31837645D01*
X15069242Y31870758D01*
X15102355Y31897935D01*
X15140130Y31918126D01*
X15181121Y31930560D01*
X15226204Y31935000D01*
X15758796Y31935000D01*
X15803879Y31930560D01*
G37*
G36*
X24474216Y33721881D02*
G01*
X24502309Y33713359D01*
X24528204Y33699517D01*
X24550896Y33680896D01*
X24569517Y33658204D01*
X24583359Y33632309D01*
X24591881Y33604216D01*
X24595000Y33572546D01*
X24595000Y31727454D01*
X24591881Y31695784D01*
X24583359Y31667691D01*
X24569517Y31641796D01*
X24550896Y31619104D01*
X24528204Y31600483D01*
X24502309Y31586641D01*
X24474216Y31578119D01*
X24442546Y31575000D01*
X24047454Y31575000D01*
X24015784Y31578119D01*
X23987691Y31586641D01*
X23961796Y31600483D01*
X23939104Y31619104D01*
X23920483Y31641796D01*
X23906641Y31667691D01*
X23898119Y31695784D01*
X23895000Y31727454D01*
X23895000Y33572546D01*
X23898119Y33604216D01*
X23906641Y33632309D01*
X23920483Y33658204D01*
X23939104Y33680896D01*
X23961796Y33699517D01*
X23987691Y33713359D01*
X24015784Y33721881D01*
X24047454Y33725000D01*
X24442546Y33725000D01*
X24474216Y33721881D01*
G37*
G36*
X27014216Y33721881D02*
G01*
X27042309Y33713359D01*
X27068204Y33699517D01*
X27090896Y33680896D01*
X27109517Y33658204D01*
X27123359Y33632309D01*
X27131881Y33604216D01*
X27135000Y33572546D01*
X27135000Y31727454D01*
X27131881Y31695784D01*
X27123359Y31667691D01*
X27109517Y31641796D01*
X27090896Y31619104D01*
X27068204Y31600483D01*
X27042309Y31586641D01*
X27014216Y31578119D01*
X26982546Y31575000D01*
X26587454Y31575000D01*
X26555784Y31578119D01*
X26527691Y31586641D01*
X26501796Y31600483D01*
X26479104Y31619104D01*
X26460483Y31641796D01*
X26446641Y31667691D01*
X26438119Y31695784D01*
X26435000Y31727454D01*
X26435000Y33572546D01*
X26438119Y33604216D01*
X26446641Y33632309D01*
X26460483Y33658204D01*
X26479104Y33680896D01*
X26501796Y33699517D01*
X26527691Y33713359D01*
X26555784Y33721881D01*
X26587454Y33725000D01*
X26982546Y33725000D01*
X27014216Y33721881D01*
G37*
G36*
X28284216Y33721881D02*
G01*
X28312309Y33713359D01*
X28338204Y33699517D01*
X28360896Y33680896D01*
X28379517Y33658204D01*
X28393359Y33632309D01*
X28401881Y33604216D01*
X28405000Y33572546D01*
X28405000Y31727454D01*
X28401881Y31695784D01*
X28393359Y31667691D01*
X28379517Y31641796D01*
X28360896Y31619104D01*
X28338204Y31600483D01*
X28312309Y31586641D01*
X28284216Y31578119D01*
X28252546Y31575000D01*
X27857454Y31575000D01*
X27825784Y31578119D01*
X27797691Y31586641D01*
X27771796Y31600483D01*
X27749104Y31619104D01*
X27730483Y31641796D01*
X27716641Y31667691D01*
X27708119Y31695784D01*
X27705000Y31727454D01*
X27705000Y33572546D01*
X27708119Y33604216D01*
X27716641Y33632309D01*
X27730483Y33658204D01*
X27749104Y33680896D01*
X27771796Y33699517D01*
X27797691Y33713359D01*
X27825784Y33721881D01*
X27857454Y33725000D01*
X28252546Y33725000D01*
X28284216Y33721881D01*
G37*
G36*
X25744216Y33721881D02*
G01*
X25772309Y33713359D01*
X25798204Y33699517D01*
X25820896Y33680896D01*
X25839517Y33658204D01*
X25853359Y33632309D01*
X25861881Y33604216D01*
X25865000Y33572546D01*
X25865000Y31727454D01*
X25861881Y31695784D01*
X25853359Y31667691D01*
X25839517Y31641796D01*
X25820896Y31619104D01*
X25798204Y31600483D01*
X25772309Y31586641D01*
X25744216Y31578119D01*
X25712546Y31575000D01*
X25317454Y31575000D01*
X25285784Y31578119D01*
X25257691Y31586641D01*
X25231796Y31600483D01*
X25209104Y31619104D01*
X25190483Y31641796D01*
X25176641Y31667691D01*
X25168119Y31695784D01*
X25165000Y31727454D01*
X25165000Y33572546D01*
X25168119Y33604216D01*
X25176641Y33632309D01*
X25190483Y33658204D01*
X25209104Y33680896D01*
X25231796Y33699517D01*
X25257691Y33713359D01*
X25285784Y33721881D01*
X25317454Y33725000D01*
X25712546Y33725000D01*
X25744216Y33721881D01*
G37*
G36*
X23204216Y33721881D02*
G01*
X23232309Y33713359D01*
X23258204Y33699517D01*
X23280896Y33680896D01*
X23299517Y33658204D01*
X23313359Y33632309D01*
X23321881Y33604216D01*
X23325000Y33572546D01*
X23325000Y31727454D01*
X23321881Y31695784D01*
X23313359Y31667691D01*
X23299517Y31641796D01*
X23280896Y31619104D01*
X23258204Y31600483D01*
X23232309Y31586641D01*
X23204216Y31578119D01*
X23172546Y31575000D01*
X22777454Y31575000D01*
X22745784Y31578119D01*
X22717691Y31586641D01*
X22691796Y31600483D01*
X22669104Y31619104D01*
X22650483Y31641796D01*
X22636641Y31667691D01*
X22628119Y31695784D01*
X22625000Y31727454D01*
X22625000Y33572546D01*
X22628119Y33604216D01*
X22636641Y33632309D01*
X22650483Y33658204D01*
X22669104Y33680896D01*
X22691796Y33699517D01*
X22717691Y33713359D01*
X22745784Y33721881D01*
X22777454Y33725000D01*
X23172546Y33725000D01*
X23204216Y33721881D01*
G37*
G36*
X29554216Y33721881D02*
G01*
X29582309Y33713359D01*
X29608204Y33699517D01*
X29630896Y33680896D01*
X29649517Y33658204D01*
X29663359Y33632309D01*
X29671881Y33604216D01*
X29675000Y33572546D01*
X29675000Y31727454D01*
X29671881Y31695784D01*
X29663359Y31667691D01*
X29649517Y31641796D01*
X29630896Y31619104D01*
X29608204Y31600483D01*
X29582309Y31586641D01*
X29554216Y31578119D01*
X29522546Y31575000D01*
X29127454Y31575000D01*
X29095784Y31578119D01*
X29067691Y31586641D01*
X29041796Y31600483D01*
X29019104Y31619104D01*
X29000483Y31641796D01*
X28986641Y31667691D01*
X28978119Y31695784D01*
X28975000Y31727454D01*
X28975000Y33572546D01*
X28978119Y33604216D01*
X28986641Y33632309D01*
X29000483Y33658204D01*
X29019104Y33680896D01*
X29041796Y33699517D01*
X29067691Y33713359D01*
X29095784Y33721881D01*
X29127454Y33725000D01*
X29522546Y33725000D01*
X29554216Y33721881D01*
G37*
G36*
X32094216Y33721881D02*
G01*
X32122309Y33713359D01*
X32148204Y33699517D01*
X32170896Y33680896D01*
X32189517Y33658204D01*
X32203359Y33632309D01*
X32211881Y33604216D01*
X32215000Y33572546D01*
X32215000Y31727454D01*
X32211881Y31695784D01*
X32203359Y31667691D01*
X32189517Y31641796D01*
X32170896Y31619104D01*
X32148204Y31600483D01*
X32122309Y31586641D01*
X32094216Y31578119D01*
X32062546Y31575000D01*
X31667454Y31575000D01*
X31635784Y31578119D01*
X31607691Y31586641D01*
X31581796Y31600483D01*
X31559104Y31619104D01*
X31540483Y31641796D01*
X31526641Y31667691D01*
X31518119Y31695784D01*
X31515000Y31727454D01*
X31515000Y33572546D01*
X31518119Y33604216D01*
X31526641Y33632309D01*
X31540483Y33658204D01*
X31559104Y33680896D01*
X31581796Y33699517D01*
X31607691Y33713359D01*
X31635784Y33721881D01*
X31667454Y33725000D01*
X32062546Y33725000D01*
X32094216Y33721881D01*
G37*
G36*
X30824216Y33721881D02*
G01*
X30852309Y33713359D01*
X30878204Y33699517D01*
X30900896Y33680896D01*
X30919517Y33658204D01*
X30933359Y33632309D01*
X30941881Y33604216D01*
X30945000Y33572546D01*
X30945000Y31727454D01*
X30941881Y31695784D01*
X30933359Y31667691D01*
X30919517Y31641796D01*
X30900896Y31619104D01*
X30878204Y31600483D01*
X30852309Y31586641D01*
X30824216Y31578119D01*
X30792546Y31575000D01*
X30397454Y31575000D01*
X30365784Y31578119D01*
X30337691Y31586641D01*
X30311796Y31600483D01*
X30289104Y31619104D01*
X30270483Y31641796D01*
X30256641Y31667691D01*
X30248119Y31695784D01*
X30245000Y31727454D01*
X30245000Y33572546D01*
X30248119Y33604216D01*
X30256641Y33632309D01*
X30270483Y33658204D01*
X30289104Y33680896D01*
X30311796Y33699517D01*
X30337691Y33713359D01*
X30365784Y33721881D01*
X30397454Y33725000D01*
X30792546Y33725000D01*
X30824216Y33721881D01*
G37*
G36*
X18853879Y33480560D02*
G01*
X18894870Y33468126D01*
X18932645Y33447935D01*
X18965758Y33420758D01*
X18992935Y33387645D01*
X19013126Y33349870D01*
X19025560Y33308879D01*
X19030000Y33263796D01*
X19030000Y32656204D01*
X19025560Y32611121D01*
X19013126Y32570130D01*
X18992935Y32532355D01*
X18965758Y32499242D01*
X18932645Y32472065D01*
X18894870Y32451874D01*
X18853879Y32439440D01*
X18808796Y32435000D01*
X18276204Y32435000D01*
X18231121Y32439440D01*
X18190130Y32451874D01*
X18152355Y32472065D01*
X18119242Y32499242D01*
X18092065Y32532355D01*
X18071874Y32570130D01*
X18059440Y32611121D01*
X18055000Y32656204D01*
X18055000Y33263796D01*
X18059440Y33308879D01*
X18071874Y33349870D01*
X18092065Y33387645D01*
X18119242Y33420758D01*
X18152355Y33447935D01*
X18190130Y33468126D01*
X18231121Y33480560D01*
X18276204Y33485000D01*
X18808796Y33485000D01*
X18853879Y33480560D01*
G37*
G36*
X20428879Y33480560D02*
G01*
X20469870Y33468126D01*
X20507645Y33447935D01*
X20540758Y33420758D01*
X20567935Y33387645D01*
X20588126Y33349870D01*
X20600560Y33308879D01*
X20605000Y33263796D01*
X20605000Y32656204D01*
X20600560Y32611121D01*
X20588126Y32570130D01*
X20567935Y32532355D01*
X20540758Y32499242D01*
X20507645Y32472065D01*
X20469870Y32451874D01*
X20428879Y32439440D01*
X20383796Y32435000D01*
X19851204Y32435000D01*
X19806121Y32439440D01*
X19765130Y32451874D01*
X19727355Y32472065D01*
X19694242Y32499242D01*
X19667065Y32532355D01*
X19646874Y32570130D01*
X19634440Y32611121D01*
X19630000Y32656204D01*
X19630000Y33263796D01*
X19634440Y33308879D01*
X19646874Y33349870D01*
X19667065Y33387645D01*
X19694242Y33420758D01*
X19727355Y33447935D01*
X19765130Y33468126D01*
X19806121Y33480560D01*
X19851204Y33485000D01*
X20383796Y33485000D01*
X20428879Y33480560D01*
G37*
G36*
X15813879Y33480560D02*
G01*
X15854870Y33468126D01*
X15892645Y33447935D01*
X15925758Y33420758D01*
X15952935Y33387645D01*
X15973126Y33349870D01*
X15985560Y33308879D01*
X15990000Y33263796D01*
X15990000Y32656204D01*
X15985560Y32611121D01*
X15973126Y32570130D01*
X15952935Y32532355D01*
X15925758Y32499242D01*
X15892645Y32472065D01*
X15854870Y32451874D01*
X15813879Y32439440D01*
X15768796Y32435000D01*
X15236204Y32435000D01*
X15191121Y32439440D01*
X15150130Y32451874D01*
X15112355Y32472065D01*
X15079242Y32499242D01*
X15052065Y32532355D01*
X15031874Y32570130D01*
X15019440Y32611121D01*
X15015000Y32656204D01*
X15015000Y33263796D01*
X15019440Y33308879D01*
X15031874Y33349870D01*
X15052065Y33387645D01*
X15079242Y33420758D01*
X15112355Y33447935D01*
X15150130Y33468126D01*
X15191121Y33480560D01*
X15236204Y33485000D01*
X15768796Y33485000D01*
X15813879Y33480560D01*
G37*
G36*
X17388879Y33480560D02*
G01*
X17429870Y33468126D01*
X17467645Y33447935D01*
X17500758Y33420758D01*
X17527935Y33387645D01*
X17548126Y33349870D01*
X17560560Y33308879D01*
X17565000Y33263796D01*
X17565000Y32656204D01*
X17560560Y32611121D01*
X17548126Y32570130D01*
X17527935Y32532355D01*
X17500758Y32499242D01*
X17467645Y32472065D01*
X17429870Y32451874D01*
X17388879Y32439440D01*
X17343796Y32435000D01*
X16811204Y32435000D01*
X16766121Y32439440D01*
X16725130Y32451874D01*
X16687355Y32472065D01*
X16654242Y32499242D01*
X16627065Y32532355D01*
X16606874Y32570130D01*
X16594440Y32611121D01*
X16590000Y32656204D01*
X16590000Y33263796D01*
X16594440Y33308879D01*
X16606874Y33349870D01*
X16627065Y33387645D01*
X16654242Y33420758D01*
X16687355Y33447935D01*
X16725130Y33468126D01*
X16766121Y33480560D01*
X16811204Y33485000D01*
X17343796Y33485000D01*
X17388879Y33480560D01*
G37*
G36*
X21014263Y35816285D02*
G01*
X21048170Y35805999D01*
X21079425Y35789294D01*
X21106815Y35766815D01*
X21129294Y35739425D01*
X21145999Y35708170D01*
X21156285Y35674263D01*
X21160000Y35636546D01*
X21160000Y34603454D01*
X21156285Y34565737D01*
X21145999Y34531830D01*
X21129294Y34500575D01*
X21106815Y34473185D01*
X21079425Y34450706D01*
X21048170Y34434001D01*
X21014263Y34423715D01*
X20976546Y34420000D01*
X19243454Y34420000D01*
X19205737Y34423715D01*
X19171830Y34434001D01*
X19140575Y34450706D01*
X19113185Y34473185D01*
X19090706Y34500575D01*
X19074001Y34531830D01*
X19063715Y34565737D01*
X19060000Y34603454D01*
X19060000Y35636546D01*
X19063715Y35674263D01*
X19074001Y35708170D01*
X19090706Y35739425D01*
X19113185Y35766815D01*
X19140575Y35789294D01*
X19171830Y35805999D01*
X19205737Y35816285D01*
X19243454Y35820000D01*
X20976546Y35820000D01*
X21014263Y35816285D01*
G37*
G36*
X32568879Y35970560D02*
G01*
X32609870Y35958126D01*
X32647645Y35937935D01*
X32680758Y35910758D01*
X32707935Y35877645D01*
X32728126Y35839870D01*
X32740560Y35798879D01*
X32745000Y35753796D01*
X32745000Y35146204D01*
X32740560Y35101121D01*
X32728126Y35060130D01*
X32707935Y35022355D01*
X32680758Y34989242D01*
X32647645Y34962065D01*
X32609870Y34941874D01*
X32568879Y34929440D01*
X32523796Y34925000D01*
X31991204Y34925000D01*
X31946121Y34929440D01*
X31905130Y34941874D01*
X31867355Y34962065D01*
X31834242Y34989242D01*
X31807065Y35022355D01*
X31786874Y35060130D01*
X31774440Y35101121D01*
X31770000Y35146204D01*
X31770000Y35753796D01*
X31774440Y35798879D01*
X31786874Y35839870D01*
X31807065Y35877645D01*
X31834242Y35910758D01*
X31867355Y35937935D01*
X31905130Y35958126D01*
X31946121Y35970560D01*
X31991204Y35975000D01*
X32523796Y35975000D01*
X32568879Y35970560D01*
G37*
G36*
X29558879Y35970560D02*
G01*
X29599870Y35958126D01*
X29637645Y35937935D01*
X29670758Y35910758D01*
X29697935Y35877645D01*
X29718126Y35839870D01*
X29730560Y35798879D01*
X29735000Y35753796D01*
X29735000Y35146204D01*
X29730560Y35101121D01*
X29718126Y35060130D01*
X29697935Y35022355D01*
X29670758Y34989242D01*
X29637645Y34962065D01*
X29599870Y34941874D01*
X29558879Y34929440D01*
X29513796Y34925000D01*
X28981204Y34925000D01*
X28936121Y34929440D01*
X28895130Y34941874D01*
X28857355Y34962065D01*
X28824242Y34989242D01*
X28797065Y35022355D01*
X28776874Y35060130D01*
X28764440Y35101121D01*
X28760000Y35146204D01*
X28760000Y35753796D01*
X28764440Y35798879D01*
X28776874Y35839870D01*
X28797065Y35877645D01*
X28824242Y35910758D01*
X28857355Y35937935D01*
X28895130Y35958126D01*
X28936121Y35970560D01*
X28981204Y35975000D01*
X29513796Y35975000D01*
X29558879Y35970560D01*
G37*
G36*
X30993879Y35970560D02*
G01*
X31034870Y35958126D01*
X31072645Y35937935D01*
X31105758Y35910758D01*
X31132935Y35877645D01*
X31153126Y35839870D01*
X31165560Y35798879D01*
X31170000Y35753796D01*
X31170000Y35146204D01*
X31165560Y35101121D01*
X31153126Y35060130D01*
X31132935Y35022355D01*
X31105758Y34989242D01*
X31072645Y34962065D01*
X31034870Y34941874D01*
X30993879Y34929440D01*
X30948796Y34925000D01*
X30416204Y34925000D01*
X30371121Y34929440D01*
X30330130Y34941874D01*
X30292355Y34962065D01*
X30259242Y34989242D01*
X30232065Y35022355D01*
X30211874Y35060130D01*
X30199440Y35101121D01*
X30195000Y35146204D01*
X30195000Y35753796D01*
X30199440Y35798879D01*
X30211874Y35839870D01*
X30232065Y35877645D01*
X30259242Y35910758D01*
X30292355Y35937935D01*
X30330130Y35958126D01*
X30371121Y35970560D01*
X30416204Y35975000D01*
X30948796Y35975000D01*
X30993879Y35970560D01*
G37*
G36*
X27983879Y35970560D02*
G01*
X28024870Y35958126D01*
X28062645Y35937935D01*
X28095758Y35910758D01*
X28122935Y35877645D01*
X28143126Y35839870D01*
X28155560Y35798879D01*
X28160000Y35753796D01*
X28160000Y35146204D01*
X28155560Y35101121D01*
X28143126Y35060130D01*
X28122935Y35022355D01*
X28095758Y34989242D01*
X28062645Y34962065D01*
X28024870Y34941874D01*
X27983879Y34929440D01*
X27938796Y34925000D01*
X27406204Y34925000D01*
X27361121Y34929440D01*
X27320130Y34941874D01*
X27282355Y34962065D01*
X27249242Y34989242D01*
X27222065Y35022355D01*
X27201874Y35060130D01*
X27189440Y35101121D01*
X27185000Y35146204D01*
X27185000Y35753796D01*
X27189440Y35798879D01*
X27201874Y35839870D01*
X27222065Y35877645D01*
X27249242Y35910758D01*
X27282355Y35937935D01*
X27320130Y35958126D01*
X27361121Y35970560D01*
X27406204Y35975000D01*
X27938796Y35975000D01*
X27983879Y35970560D01*
G37*
G36*
X17023117Y37316497D02*
G01*
X17054962Y37306837D01*
X17084315Y37291147D01*
X17110038Y37270038D01*
X17131147Y37244315D01*
X17146837Y37214962D01*
X17156497Y37183117D01*
X17160000Y37147547D01*
X17160000Y35392453D01*
X17156497Y35356883D01*
X17146837Y35325038D01*
X17131147Y35295685D01*
X17110038Y35269962D01*
X17084315Y35248853D01*
X17054962Y35233163D01*
X17023117Y35223503D01*
X16987547Y35220000D01*
X15232453Y35220000D01*
X15196883Y35223503D01*
X15165038Y35233163D01*
X15135685Y35248853D01*
X15109962Y35269962D01*
X15088853Y35295685D01*
X15073163Y35325038D01*
X15063503Y35356883D01*
X15060000Y35392453D01*
X15060000Y37147547D01*
X15063503Y37183117D01*
X15073163Y37214962D01*
X15088853Y37244315D01*
X15109962Y37270038D01*
X15135685Y37291147D01*
X15165038Y37306837D01*
X15196883Y37316497D01*
X15232453Y37320000D01*
X16987547Y37320000D01*
X17023117Y37316497D01*
G37*
G36*
X21014263Y38116285D02*
G01*
X21048170Y38105999D01*
X21079425Y38089294D01*
X21106815Y38066815D01*
X21129294Y38039425D01*
X21145999Y38008170D01*
X21156285Y37974263D01*
X21160000Y37936546D01*
X21160000Y36903454D01*
X21156285Y36865737D01*
X21145999Y36831830D01*
X21129294Y36800575D01*
X21106815Y36773185D01*
X21079425Y36750706D01*
X21048170Y36734001D01*
X21014263Y36723715D01*
X20976546Y36720000D01*
X19243454Y36720000D01*
X19205737Y36723715D01*
X19171830Y36734001D01*
X19140575Y36750706D01*
X19113185Y36773185D01*
X19090706Y36800575D01*
X19074001Y36831830D01*
X19063715Y36865737D01*
X19060000Y36903454D01*
X19060000Y37936546D01*
X19063715Y37974263D01*
X19074001Y38008170D01*
X19090706Y38039425D01*
X19113185Y38066815D01*
X19140575Y38089294D01*
X19171830Y38105999D01*
X19205737Y38116285D01*
X19243454Y38120000D01*
X20976546Y38120000D01*
X21014263Y38116285D01*
G37*
G36*
X31411832Y38569505D02*
G01*
X31463351Y38559257D01*
X31523656Y38534278D01*
X31608941Y38498952D01*
X31739969Y38411402D01*
X31851402Y38299969D01*
X31938952Y38168941D01*
X31960940Y38115857D01*
X31999257Y38023351D01*
X32006506Y37986907D01*
X32030000Y37868795D01*
X32030000Y37711205D01*
X31999257Y37556650D01*
X31938952Y37411059D01*
X31851402Y37280031D01*
X31739969Y37168598D01*
X31608941Y37081048D01*
X31523656Y37045722D01*
X31463351Y37020743D01*
X31411832Y37010495D01*
X31308795Y36990000D01*
X31151205Y36990000D01*
X31048168Y37010495D01*
X30996649Y37020743D01*
X30936344Y37045722D01*
X30851059Y37081048D01*
X30720031Y37168598D01*
X30608598Y37280031D01*
X30521048Y37411059D01*
X30460743Y37556650D01*
X30430000Y37711205D01*
X30430000Y37868795D01*
X30453494Y37986907D01*
X30460743Y38023351D01*
X30499060Y38115857D01*
X30521048Y38168941D01*
X30608598Y38299969D01*
X30720031Y38411402D01*
X30851059Y38498952D01*
X30936344Y38534278D01*
X30996649Y38559257D01*
X31048168Y38569505D01*
X31151205Y38590000D01*
X31308795Y38590000D01*
X31411832Y38569505D01*
G37*
G36*
X28871832Y38569505D02*
G01*
X28923351Y38559257D01*
X28983656Y38534278D01*
X29068941Y38498952D01*
X29199969Y38411402D01*
X29311402Y38299969D01*
X29398952Y38168941D01*
X29420940Y38115857D01*
X29459257Y38023351D01*
X29466506Y37986907D01*
X29490000Y37868795D01*
X29490000Y37711205D01*
X29459257Y37556650D01*
X29398952Y37411059D01*
X29311402Y37280031D01*
X29199969Y37168598D01*
X29068941Y37081048D01*
X28983656Y37045722D01*
X28923351Y37020743D01*
X28871832Y37010495D01*
X28768795Y36990000D01*
X28611205Y36990000D01*
X28508168Y37010495D01*
X28456649Y37020743D01*
X28396344Y37045722D01*
X28311059Y37081048D01*
X28180031Y37168598D01*
X28068598Y37280031D01*
X27981048Y37411059D01*
X27920743Y37556650D01*
X27890000Y37711205D01*
X27890000Y37868795D01*
X27913494Y37986907D01*
X27920743Y38023351D01*
X27959060Y38115857D01*
X27981048Y38168941D01*
X28068598Y38299969D01*
X28180031Y38411402D01*
X28311059Y38498952D01*
X28396344Y38534278D01*
X28456649Y38559257D01*
X28508168Y38569505D01*
X28611205Y38590000D01*
X28768795Y38590000D01*
X28871832Y38569505D01*
G37*
G36*
X26331832Y38569505D02*
G01*
X26383351Y38559257D01*
X26443656Y38534278D01*
X26528941Y38498952D01*
X26659969Y38411402D01*
X26771402Y38299969D01*
X26858952Y38168941D01*
X26880940Y38115857D01*
X26919257Y38023351D01*
X26926506Y37986907D01*
X26950000Y37868795D01*
X26950000Y37711205D01*
X26919257Y37556650D01*
X26858952Y37411059D01*
X26771402Y37280031D01*
X26659969Y37168598D01*
X26528941Y37081048D01*
X26443656Y37045722D01*
X26383351Y37020743D01*
X26331832Y37010495D01*
X26228795Y36990000D01*
X26071205Y36990000D01*
X25968168Y37010495D01*
X25916649Y37020743D01*
X25856344Y37045722D01*
X25771059Y37081048D01*
X25640031Y37168598D01*
X25528598Y37280031D01*
X25441048Y37411059D01*
X25380743Y37556650D01*
X25350000Y37711205D01*
X25350000Y37868795D01*
X25373494Y37986907D01*
X25380743Y38023351D01*
X25419060Y38115857D01*
X25441048Y38168941D01*
X25528598Y38299969D01*
X25640031Y38411402D01*
X25771059Y38498952D01*
X25856344Y38534278D01*
X25916649Y38559257D01*
X25968168Y38569505D01*
X26071205Y38590000D01*
X26228795Y38590000D01*
X26331832Y38569505D01*
G37*
G36*
X23791832Y38569505D02*
G01*
X23843351Y38559257D01*
X23903656Y38534278D01*
X23988941Y38498952D01*
X24119969Y38411402D01*
X24231402Y38299969D01*
X24318952Y38168941D01*
X24340940Y38115857D01*
X24379257Y38023351D01*
X24386506Y37986907D01*
X24410000Y37868795D01*
X24410000Y37711205D01*
X24379257Y37556650D01*
X24318952Y37411059D01*
X24231402Y37280031D01*
X24119969Y37168598D01*
X23988941Y37081048D01*
X23903656Y37045722D01*
X23843351Y37020743D01*
X23791832Y37010495D01*
X23688795Y36990000D01*
X23531205Y36990000D01*
X23428168Y37010495D01*
X23376649Y37020743D01*
X23316344Y37045722D01*
X23231059Y37081048D01*
X23100031Y37168598D01*
X22988598Y37280031D01*
X22901048Y37411059D01*
X22840743Y37556650D01*
X22810000Y37711205D01*
X22810000Y37868795D01*
X22833494Y37986907D01*
X22840743Y38023351D01*
X22879060Y38115857D01*
X22901048Y38168941D01*
X22988598Y38299969D01*
X23100031Y38411402D01*
X23231059Y38498952D01*
X23316344Y38534278D01*
X23376649Y38559257D01*
X23428168Y38569505D01*
X23531205Y38590000D01*
X23688795Y38590000D01*
X23791832Y38569505D01*
G37*
G36*
X18853879Y40100560D02*
G01*
X18894870Y40088126D01*
X18932645Y40067935D01*
X18965758Y40040758D01*
X18992935Y40007645D01*
X19013126Y39969870D01*
X19025560Y39928879D01*
X19030000Y39883796D01*
X19030000Y39276204D01*
X19025560Y39231121D01*
X19013126Y39190130D01*
X18992935Y39152355D01*
X18965758Y39119242D01*
X18932645Y39092065D01*
X18894870Y39071874D01*
X18853879Y39059440D01*
X18808796Y39055000D01*
X18276204Y39055000D01*
X18231121Y39059440D01*
X18190130Y39071874D01*
X18152355Y39092065D01*
X18119242Y39119242D01*
X18092065Y39152355D01*
X18071874Y39190130D01*
X18059440Y39231121D01*
X18055000Y39276204D01*
X18055000Y39883796D01*
X18059440Y39928879D01*
X18071874Y39969870D01*
X18092065Y40007645D01*
X18119242Y40040758D01*
X18152355Y40067935D01*
X18190130Y40088126D01*
X18231121Y40100560D01*
X18276204Y40105000D01*
X18808796Y40105000D01*
X18853879Y40100560D01*
G37*
G36*
X20428879Y40100560D02*
G01*
X20469870Y40088126D01*
X20507645Y40067935D01*
X20540758Y40040758D01*
X20567935Y40007645D01*
X20588126Y39969870D01*
X20600560Y39928879D01*
X20605000Y39883796D01*
X20605000Y39276204D01*
X20600560Y39231121D01*
X20588126Y39190130D01*
X20567935Y39152355D01*
X20540758Y39119242D01*
X20507645Y39092065D01*
X20469870Y39071874D01*
X20428879Y39059440D01*
X20383796Y39055000D01*
X19851204Y39055000D01*
X19806121Y39059440D01*
X19765130Y39071874D01*
X19727355Y39092065D01*
X19694242Y39119242D01*
X19667065Y39152355D01*
X19646874Y39190130D01*
X19634440Y39231121D01*
X19630000Y39276204D01*
X19630000Y39883796D01*
X19634440Y39928879D01*
X19646874Y39969870D01*
X19667065Y40007645D01*
X19694242Y40040758D01*
X19727355Y40067935D01*
X19765130Y40088126D01*
X19806121Y40100560D01*
X19851204Y40105000D01*
X20383796Y40105000D01*
X20428879Y40100560D01*
G37*
G36*
X17388879Y40100560D02*
G01*
X17429870Y40088126D01*
X17467645Y40067935D01*
X17500758Y40040758D01*
X17527935Y40007645D01*
X17548126Y39969870D01*
X17560560Y39928879D01*
X17565000Y39883796D01*
X17565000Y39276204D01*
X17560560Y39231121D01*
X17548126Y39190130D01*
X17527935Y39152355D01*
X17500758Y39119242D01*
X17467645Y39092065D01*
X17429870Y39071874D01*
X17388879Y39059440D01*
X17343796Y39055000D01*
X16811204Y39055000D01*
X16766121Y39059440D01*
X16725130Y39071874D01*
X16687355Y39092065D01*
X16654242Y39119242D01*
X16627065Y39152355D01*
X16606874Y39190130D01*
X16594440Y39231121D01*
X16590000Y39276204D01*
X16590000Y39883796D01*
X16594440Y39928879D01*
X16606874Y39969870D01*
X16627065Y40007645D01*
X16654242Y40040758D01*
X16687355Y40067935D01*
X16725130Y40088126D01*
X16766121Y40100560D01*
X16811204Y40105000D01*
X17343796Y40105000D01*
X17388879Y40100560D01*
G37*
G36*
X15813879Y40100560D02*
G01*
X15854870Y40088126D01*
X15892645Y40067935D01*
X15925758Y40040758D01*
X15952935Y40007645D01*
X15973126Y39969870D01*
X15985560Y39928879D01*
X15990000Y39883796D01*
X15990000Y39276204D01*
X15985560Y39231121D01*
X15973126Y39190130D01*
X15952935Y39152355D01*
X15925758Y39119242D01*
X15892645Y39092065D01*
X15854870Y39071874D01*
X15813879Y39059440D01*
X15768796Y39055000D01*
X15236204Y39055000D01*
X15191121Y39059440D01*
X15150130Y39071874D01*
X15112355Y39092065D01*
X15079242Y39119242D01*
X15052065Y39152355D01*
X15031874Y39190130D01*
X15019440Y39231121D01*
X15015000Y39276204D01*
X15015000Y39883796D01*
X15019440Y39928879D01*
X15031874Y39969870D01*
X15052065Y40007645D01*
X15079242Y40040758D01*
X15112355Y40067935D01*
X15150130Y40088126D01*
X15191121Y40100560D01*
X15236204Y40105000D01*
X15768796Y40105000D01*
X15813879Y40100560D01*
G37*
G36*
X8308879Y40660560D02*
G01*
X8349870Y40648126D01*
X8387645Y40627935D01*
X8420758Y40600758D01*
X8447935Y40567645D01*
X8468126Y40529870D01*
X8480560Y40488879D01*
X8485000Y40443796D01*
X8485000Y39836204D01*
X8480560Y39791121D01*
X8468126Y39750130D01*
X8447935Y39712355D01*
X8420758Y39679242D01*
X8387645Y39652065D01*
X8349870Y39631874D01*
X8308879Y39619440D01*
X8263796Y39615000D01*
X7731204Y39615000D01*
X7686121Y39619440D01*
X7645130Y39631874D01*
X7607355Y39652065D01*
X7574242Y39679242D01*
X7547065Y39712355D01*
X7526874Y39750130D01*
X7514440Y39791121D01*
X7510000Y39836204D01*
X7510000Y40443796D01*
X7514440Y40488879D01*
X7526874Y40529870D01*
X7547065Y40567645D01*
X7574242Y40600758D01*
X7607355Y40627935D01*
X7645130Y40648126D01*
X7686121Y40660560D01*
X7731204Y40665000D01*
X8263796Y40665000D01*
X8308879Y40660560D01*
G37*
G36*
X6733879Y40660560D02*
G01*
X6774870Y40648126D01*
X6812645Y40627935D01*
X6845758Y40600758D01*
X6872935Y40567645D01*
X6893126Y40529870D01*
X6905560Y40488879D01*
X6910000Y40443796D01*
X6910000Y39836204D01*
X6905560Y39791121D01*
X6893126Y39750130D01*
X6872935Y39712355D01*
X6845758Y39679242D01*
X6812645Y39652065D01*
X6774870Y39631874D01*
X6733879Y39619440D01*
X6688796Y39615000D01*
X6156204Y39615000D01*
X6111121Y39619440D01*
X6070130Y39631874D01*
X6032355Y39652065D01*
X5999242Y39679242D01*
X5972065Y39712355D01*
X5951874Y39750130D01*
X5939440Y39791121D01*
X5935000Y39836204D01*
X5935000Y40443796D01*
X5939440Y40488879D01*
X5951874Y40529870D01*
X5972065Y40567645D01*
X5999242Y40600758D01*
X6032355Y40627935D01*
X6070130Y40648126D01*
X6111121Y40660560D01*
X6156204Y40665000D01*
X6688796Y40665000D01*
X6733879Y40660560D01*
G37*
G36*
X2429652Y42267919D02*
G01*
X2492520Y42255414D01*
X2656310Y42187570D01*
X2803717Y42089076D01*
X2929076Y41963717D01*
X3027570Y41816310D01*
X3095414Y41652520D01*
X3101103Y41623921D01*
X3130000Y41478644D01*
X3130000Y41301356D01*
X3125752Y41280000D01*
X3095414Y41127480D01*
X3027570Y40963690D01*
X2929076Y40816283D01*
X2803717Y40690924D01*
X2656310Y40592430D01*
X2492520Y40524586D01*
X2441959Y40514529D01*
X2318644Y40490000D01*
X2141356Y40490000D01*
X2018041Y40514529D01*
X1967480Y40524586D01*
X1803690Y40592430D01*
X1656283Y40690924D01*
X1530924Y40816283D01*
X1432430Y40963690D01*
X1364586Y41127480D01*
X1334248Y41280000D01*
X1330000Y41301356D01*
X1330000Y41478644D01*
X1358897Y41623921D01*
X1364586Y41652520D01*
X1432430Y41816310D01*
X1530924Y41963717D01*
X1656283Y42089076D01*
X1803690Y42187570D01*
X1967480Y42255414D01*
X2030348Y42267919D01*
X2141356Y42290000D01*
X2318644Y42290000D01*
X2429652Y42267919D01*
G37*
G36*
X18843879Y41660560D02*
G01*
X18884870Y41648126D01*
X18922645Y41627935D01*
X18955758Y41600758D01*
X18982935Y41567645D01*
X19003126Y41529870D01*
X19015560Y41488879D01*
X19020000Y41443796D01*
X19020000Y40836204D01*
X19015560Y40791121D01*
X19003126Y40750130D01*
X18982935Y40712355D01*
X18955758Y40679242D01*
X18922645Y40652065D01*
X18884870Y40631874D01*
X18843879Y40619440D01*
X18798796Y40615000D01*
X18266204Y40615000D01*
X18221121Y40619440D01*
X18180130Y40631874D01*
X18142355Y40652065D01*
X18109242Y40679242D01*
X18082065Y40712355D01*
X18061874Y40750130D01*
X18049440Y40791121D01*
X18045000Y40836204D01*
X18045000Y41443796D01*
X18049440Y41488879D01*
X18061874Y41529870D01*
X18082065Y41567645D01*
X18109242Y41600758D01*
X18142355Y41627935D01*
X18180130Y41648126D01*
X18221121Y41660560D01*
X18266204Y41665000D01*
X18798796Y41665000D01*
X18843879Y41660560D01*
G37*
G36*
X20418879Y41660560D02*
G01*
X20459870Y41648126D01*
X20497645Y41627935D01*
X20530758Y41600758D01*
X20557935Y41567645D01*
X20578126Y41529870D01*
X20590560Y41488879D01*
X20595000Y41443796D01*
X20595000Y40836204D01*
X20590560Y40791121D01*
X20578126Y40750130D01*
X20557935Y40712355D01*
X20530758Y40679242D01*
X20497645Y40652065D01*
X20459870Y40631874D01*
X20418879Y40619440D01*
X20373796Y40615000D01*
X19841204Y40615000D01*
X19796121Y40619440D01*
X19755130Y40631874D01*
X19717355Y40652065D01*
X19684242Y40679242D01*
X19657065Y40712355D01*
X19636874Y40750130D01*
X19624440Y40791121D01*
X19620000Y40836204D01*
X19620000Y41443796D01*
X19624440Y41488879D01*
X19636874Y41529870D01*
X19657065Y41567645D01*
X19684242Y41600758D01*
X19717355Y41627935D01*
X19755130Y41648126D01*
X19796121Y41660560D01*
X19841204Y41665000D01*
X20373796Y41665000D01*
X20418879Y41660560D01*
G37*
G36*
X15813879Y41660560D02*
G01*
X15854870Y41648126D01*
X15892645Y41627935D01*
X15925758Y41600758D01*
X15952935Y41567645D01*
X15973126Y41529870D01*
X15985560Y41488879D01*
X15990000Y41443796D01*
X15990000Y40836204D01*
X15985560Y40791121D01*
X15973126Y40750130D01*
X15952935Y40712355D01*
X15925758Y40679242D01*
X15892645Y40652065D01*
X15854870Y40631874D01*
X15813879Y40619440D01*
X15768796Y40615000D01*
X15236204Y40615000D01*
X15191121Y40619440D01*
X15150130Y40631874D01*
X15112355Y40652065D01*
X15079242Y40679242D01*
X15052065Y40712355D01*
X15031874Y40750130D01*
X15019440Y40791121D01*
X15015000Y40836204D01*
X15015000Y41443796D01*
X15019440Y41488879D01*
X15031874Y41529870D01*
X15052065Y41567645D01*
X15079242Y41600758D01*
X15112355Y41627935D01*
X15150130Y41648126D01*
X15191121Y41660560D01*
X15236204Y41665000D01*
X15768796Y41665000D01*
X15813879Y41660560D01*
G37*
G36*
X17388879Y41660560D02*
G01*
X17429870Y41648126D01*
X17467645Y41627935D01*
X17500758Y41600758D01*
X17527935Y41567645D01*
X17548126Y41529870D01*
X17560560Y41488879D01*
X17565000Y41443796D01*
X17565000Y40836204D01*
X17560560Y40791121D01*
X17548126Y40750130D01*
X17527935Y40712355D01*
X17500758Y40679242D01*
X17467645Y40652065D01*
X17429870Y40631874D01*
X17388879Y40619440D01*
X17343796Y40615000D01*
X16811204Y40615000D01*
X16766121Y40619440D01*
X16725130Y40631874D01*
X16687355Y40652065D01*
X16654242Y40679242D01*
X16627065Y40712355D01*
X16606874Y40750130D01*
X16594440Y40791121D01*
X16590000Y40836204D01*
X16590000Y41443796D01*
X16594440Y41488879D01*
X16606874Y41529870D01*
X16627065Y41567645D01*
X16654242Y41600758D01*
X16687355Y41627935D01*
X16725130Y41648126D01*
X16766121Y41660560D01*
X16811204Y41665000D01*
X17343796Y41665000D01*
X17388879Y41660560D01*
G37*
G36*
X6758970Y42175920D02*
G01*
X6796446Y42164552D01*
X6830978Y42146095D01*
X6861250Y42121250D01*
X6886095Y42090978D01*
X6904552Y42056446D01*
X6915920Y42018970D01*
X6920000Y41977546D01*
X6920000Y41482454D01*
X6915920Y41441030D01*
X6904552Y41403554D01*
X6886095Y41369022D01*
X6861250Y41338750D01*
X6830978Y41313905D01*
X6796446Y41295448D01*
X6758970Y41284080D01*
X6717546Y41280000D01*
X6122454Y41280000D01*
X6081030Y41284080D01*
X6043554Y41295448D01*
X6009022Y41313905D01*
X5978750Y41338750D01*
X5953905Y41369022D01*
X5935448Y41403554D01*
X5924080Y41441030D01*
X5920000Y41482454D01*
X5920000Y41977546D01*
X5924080Y42018970D01*
X5935448Y42056446D01*
X5953905Y42090978D01*
X5978750Y42121250D01*
X6009022Y42146095D01*
X6043554Y42164552D01*
X6081030Y42175920D01*
X6122454Y42180000D01*
X6717546Y42180000D01*
X6758970Y42175920D01*
G37*
G36*
X5168879Y42375560D02*
G01*
X5209870Y42363126D01*
X5247645Y42342935D01*
X5280758Y42315758D01*
X5307935Y42282645D01*
X5328126Y42244870D01*
X5340560Y42203879D01*
X5345000Y42158796D01*
X5345000Y41626204D01*
X5340560Y41581121D01*
X5328126Y41540130D01*
X5307935Y41502355D01*
X5280758Y41469242D01*
X5247645Y41442065D01*
X5209870Y41421874D01*
X5168879Y41409440D01*
X5123796Y41405000D01*
X4516204Y41405000D01*
X4471121Y41409440D01*
X4430130Y41421874D01*
X4392355Y41442065D01*
X4359242Y41469242D01*
X4332065Y41502355D01*
X4311874Y41540130D01*
X4299440Y41581121D01*
X4295000Y41626204D01*
X4295000Y42158796D01*
X4299440Y42203879D01*
X4311874Y42244870D01*
X4332065Y42282645D01*
X4359242Y42315758D01*
X4392355Y42342935D01*
X4430130Y42363126D01*
X4471121Y42375560D01*
X4516204Y42380000D01*
X5123796Y42380000D01*
X5168879Y42375560D01*
G37*
G36*
X8758970Y43125920D02*
G01*
X8796446Y43114552D01*
X8830978Y43096095D01*
X8861250Y43071250D01*
X8886095Y43040978D01*
X8904552Y43006446D01*
X8915920Y42968970D01*
X8920000Y42927546D01*
X8920000Y42432454D01*
X8915920Y42391030D01*
X8904552Y42353554D01*
X8886095Y42319022D01*
X8861250Y42288750D01*
X8830978Y42263905D01*
X8796446Y42245448D01*
X8758970Y42234080D01*
X8717546Y42230000D01*
X8122454Y42230000D01*
X8081030Y42234080D01*
X8043554Y42245448D01*
X8009022Y42263905D01*
X7978750Y42288750D01*
X7953905Y42319022D01*
X7935448Y42353554D01*
X7924080Y42391030D01*
X7920000Y42432454D01*
X7920000Y42927546D01*
X7924080Y42968970D01*
X7935448Y43006446D01*
X7953905Y43040978D01*
X7978750Y43071250D01*
X8009022Y43096095D01*
X8043554Y43114552D01*
X8081030Y43125920D01*
X8122454Y43130000D01*
X8717546Y43130000D01*
X8758970Y43125920D01*
G37*
G36*
X21014263Y43986285D02*
G01*
X21048170Y43975999D01*
X21079425Y43959294D01*
X21106815Y43936815D01*
X21129294Y43909425D01*
X21145999Y43878170D01*
X21156285Y43844263D01*
X21160000Y43806546D01*
X21160000Y42773454D01*
X21156285Y42735737D01*
X21145999Y42701830D01*
X21129294Y42670575D01*
X21106815Y42643185D01*
X21079425Y42620706D01*
X21048170Y42604001D01*
X21014263Y42593715D01*
X20976546Y42590000D01*
X19243454Y42590000D01*
X19205737Y42593715D01*
X19171830Y42604001D01*
X19140575Y42620706D01*
X19113185Y42643185D01*
X19090706Y42670575D01*
X19074001Y42701830D01*
X19063715Y42735737D01*
X19060000Y42773454D01*
X19060000Y43806546D01*
X19063715Y43844263D01*
X19074001Y43878170D01*
X19090706Y43909425D01*
X19113185Y43936815D01*
X19140575Y43959294D01*
X19171830Y43975999D01*
X19205737Y43986285D01*
X19243454Y43990000D01*
X20976546Y43990000D01*
X21014263Y43986285D01*
G37*
G36*
X5168879Y43950560D02*
G01*
X5209870Y43938126D01*
X5247645Y43917935D01*
X5280758Y43890758D01*
X5307935Y43857645D01*
X5328126Y43819870D01*
X5340560Y43778879D01*
X5345000Y43733796D01*
X5345000Y43201204D01*
X5340560Y43156121D01*
X5328126Y43115130D01*
X5307935Y43077355D01*
X5280758Y43044242D01*
X5247645Y43017065D01*
X5209870Y42996874D01*
X5168879Y42984440D01*
X5123796Y42980000D01*
X4516204Y42980000D01*
X4471121Y42984440D01*
X4430130Y42996874D01*
X4392355Y43017065D01*
X4359242Y43044242D01*
X4332065Y43077355D01*
X4311874Y43115130D01*
X4299440Y43156121D01*
X4295000Y43201204D01*
X4295000Y43733796D01*
X4299440Y43778879D01*
X4311874Y43819870D01*
X4332065Y43857645D01*
X4359242Y43890758D01*
X4392355Y43917935D01*
X4430130Y43938126D01*
X4471121Y43950560D01*
X4516204Y43955000D01*
X5123796Y43955000D01*
X5168879Y43950560D01*
G37*
G36*
X2434561Y44806943D02*
G01*
X2492520Y44795414D01*
X2656310Y44727570D01*
X2803717Y44629076D01*
X2929076Y44503717D01*
X2929077Y44503715D01*
X3027571Y44356308D01*
X3095414Y44192519D01*
X3130000Y44018644D01*
X3130000Y43841356D01*
X3113579Y43758803D01*
X3095414Y43667480D01*
X3027570Y43503690D01*
X2929076Y43356283D01*
X2803717Y43230924D01*
X2656310Y43132430D01*
X2656309Y43132429D01*
X2656308Y43132429D01*
X2640007Y43125677D01*
X2492520Y43064586D01*
X2434561Y43053057D01*
X2318644Y43030000D01*
X2141356Y43030000D01*
X2025439Y43053057D01*
X1967480Y43064586D01*
X1819993Y43125677D01*
X1803692Y43132429D01*
X1803691Y43132429D01*
X1803690Y43132430D01*
X1656283Y43230924D01*
X1530924Y43356283D01*
X1432430Y43503690D01*
X1364586Y43667480D01*
X1346421Y43758803D01*
X1330000Y43841356D01*
X1330000Y44018644D01*
X1364586Y44192519D01*
X1432429Y44356308D01*
X1530923Y44503715D01*
X1530924Y44503717D01*
X1656283Y44629076D01*
X1803690Y44727570D01*
X1967480Y44795414D01*
X2025439Y44806943D01*
X2141356Y44830000D01*
X2318644Y44830000D01*
X2434561Y44806943D01*
G37*
G36*
X6758970Y44075920D02*
G01*
X6796446Y44064552D01*
X6830978Y44046095D01*
X6861250Y44021250D01*
X6886095Y43990978D01*
X6904552Y43956446D01*
X6915920Y43918970D01*
X6920000Y43877546D01*
X6920000Y43382454D01*
X6915920Y43341030D01*
X6904552Y43303554D01*
X6886095Y43269022D01*
X6861250Y43238750D01*
X6830978Y43213905D01*
X6796446Y43195448D01*
X6758970Y43184080D01*
X6717546Y43180000D01*
X6122454Y43180000D01*
X6081030Y43184080D01*
X6043554Y43195448D01*
X6009022Y43213905D01*
X5978750Y43238750D01*
X5953905Y43269022D01*
X5935448Y43303554D01*
X5924080Y43341030D01*
X5920000Y43382454D01*
X5920000Y43877546D01*
X5924080Y43918970D01*
X5935448Y43956446D01*
X5953905Y43990978D01*
X5978750Y44021250D01*
X6009022Y44046095D01*
X6043554Y44064552D01*
X6081030Y44075920D01*
X6122454Y44080000D01*
X6717546Y44080000D01*
X6758970Y44075920D01*
G37*
G36*
X17023117Y45486497D02*
G01*
X17054962Y45476837D01*
X17084315Y45461147D01*
X17110038Y45440038D01*
X17131147Y45414315D01*
X17146837Y45384962D01*
X17156497Y45353117D01*
X17160000Y45317547D01*
X17160000Y43562453D01*
X17156497Y43526883D01*
X17146837Y43495038D01*
X17131147Y43465685D01*
X17110038Y43439962D01*
X17084315Y43418853D01*
X17054962Y43403163D01*
X17023117Y43393503D01*
X16987547Y43390000D01*
X15232453Y43390000D01*
X15196883Y43393503D01*
X15165038Y43403163D01*
X15135685Y43418853D01*
X15109962Y43439962D01*
X15088853Y43465685D01*
X15073163Y43495038D01*
X15063503Y43526883D01*
X15060000Y43562453D01*
X15060000Y45317547D01*
X15063503Y45353117D01*
X15073163Y45384962D01*
X15088853Y45414315D01*
X15109962Y45440038D01*
X15135685Y45461147D01*
X15165038Y45476837D01*
X15196883Y45486497D01*
X15232453Y45490000D01*
X16987547Y45490000D01*
X17023117Y45486497D01*
G37*
G36*
X6723879Y45730560D02*
G01*
X6764870Y45718126D01*
X6802645Y45697935D01*
X6835758Y45670758D01*
X6862935Y45637645D01*
X6883126Y45599870D01*
X6895560Y45558879D01*
X6900000Y45513796D01*
X6900000Y44906204D01*
X6895560Y44861121D01*
X6883126Y44820130D01*
X6862935Y44782355D01*
X6835758Y44749242D01*
X6802645Y44722065D01*
X6764870Y44701874D01*
X6723879Y44689440D01*
X6678796Y44685000D01*
X6146204Y44685000D01*
X6101121Y44689440D01*
X6060130Y44701874D01*
X6022355Y44722065D01*
X5989242Y44749242D01*
X5962065Y44782355D01*
X5941874Y44820130D01*
X5929440Y44861121D01*
X5925000Y44906204D01*
X5925000Y45513796D01*
X5929440Y45558879D01*
X5941874Y45599870D01*
X5962065Y45637645D01*
X5989242Y45670758D01*
X6022355Y45697935D01*
X6060130Y45718126D01*
X6101121Y45730560D01*
X6146204Y45735000D01*
X6678796Y45735000D01*
X6723879Y45730560D01*
G37*
G36*
X8298879Y45730560D02*
G01*
X8339870Y45718126D01*
X8377645Y45697935D01*
X8410758Y45670758D01*
X8437935Y45637645D01*
X8458126Y45599870D01*
X8470560Y45558879D01*
X8475000Y45513796D01*
X8475000Y44906204D01*
X8470560Y44861121D01*
X8458126Y44820130D01*
X8437935Y44782355D01*
X8410758Y44749242D01*
X8377645Y44722065D01*
X8339870Y44701874D01*
X8298879Y44689440D01*
X8253796Y44685000D01*
X7721204Y44685000D01*
X7676121Y44689440D01*
X7635130Y44701874D01*
X7597355Y44722065D01*
X7564242Y44749242D01*
X7537065Y44782355D01*
X7516874Y44820130D01*
X7504440Y44861121D01*
X7500000Y44906204D01*
X7500000Y45513796D01*
X7504440Y45558879D01*
X7516874Y45599870D01*
X7537065Y45637645D01*
X7564242Y45670758D01*
X7597355Y45697935D01*
X7635130Y45718126D01*
X7676121Y45730560D01*
X7721204Y45735000D01*
X8253796Y45735000D01*
X8298879Y45730560D01*
G37*
G36*
X21014263Y46286285D02*
G01*
X21048170Y46275999D01*
X21079425Y46259294D01*
X21106815Y46236815D01*
X21129294Y46209425D01*
X21145999Y46178170D01*
X21156285Y46144263D01*
X21160000Y46106546D01*
X21160000Y45073454D01*
X21156285Y45035737D01*
X21145999Y45001830D01*
X21129294Y44970575D01*
X21106815Y44943185D01*
X21079425Y44920706D01*
X21048170Y44904001D01*
X21014263Y44893715D01*
X20976546Y44890000D01*
X19243454Y44890000D01*
X19205737Y44893715D01*
X19171830Y44904001D01*
X19140575Y44920706D01*
X19113185Y44943185D01*
X19090706Y44970575D01*
X19074001Y45001830D01*
X19063715Y45035737D01*
X19060000Y45073454D01*
X19060000Y46106546D01*
X19063715Y46144263D01*
X19074001Y46178170D01*
X19090706Y46209425D01*
X19113185Y46236815D01*
X19140575Y46259294D01*
X19171830Y46275999D01*
X19205737Y46286285D01*
X19243454Y46290000D01*
X20976546Y46290000D01*
X21014263Y46286285D01*
G37*
G36*
X2695090Y48480785D02*
G01*
X2791689Y48461571D01*
X2973678Y48386189D01*
X3137463Y48276751D01*
X3276751Y48137463D01*
X3386189Y47973678D01*
X3461571Y47791689D01*
X3474553Y47726425D01*
X3500000Y47598493D01*
X3500000Y47401507D01*
X3484449Y47323330D01*
X3461571Y47208311D01*
X3386189Y47026322D01*
X3276751Y46862537D01*
X3137463Y46723249D01*
X2973678Y46613811D01*
X2791689Y46538429D01*
X2695090Y46519215D01*
X2598493Y46500000D01*
X2401507Y46500000D01*
X2304910Y46519215D01*
X2208311Y46538429D01*
X2026322Y46613811D01*
X1862537Y46723249D01*
X1723249Y46862537D01*
X1613811Y47026322D01*
X1538429Y47208311D01*
X1515551Y47323330D01*
X1500000Y47401507D01*
X1500000Y47598493D01*
X1525447Y47726425D01*
X1538429Y47791689D01*
X1613811Y47973678D01*
X1723249Y48137463D01*
X1862537Y48276751D01*
X2026322Y48386189D01*
X2208311Y48461571D01*
X2304910Y48480785D01*
X2401507Y48500000D01*
X2598493Y48500000D01*
X2695090Y48480785D01*
G37*
G36*
X15823879Y48260560D02*
G01*
X15864870Y48248126D01*
X15902645Y48227935D01*
X15935758Y48200758D01*
X15962935Y48167645D01*
X15983126Y48129870D01*
X15995560Y48088879D01*
X16000000Y48043796D01*
X16000000Y47436204D01*
X15995560Y47391121D01*
X15983126Y47350130D01*
X15962935Y47312355D01*
X15935758Y47279242D01*
X15902645Y47252065D01*
X15864870Y47231874D01*
X15823879Y47219440D01*
X15778796Y47215000D01*
X15246204Y47215000D01*
X15201121Y47219440D01*
X15160130Y47231874D01*
X15122355Y47252065D01*
X15089242Y47279242D01*
X15062065Y47312355D01*
X15041874Y47350130D01*
X15029440Y47391121D01*
X15025000Y47436204D01*
X15025000Y48043796D01*
X15029440Y48088879D01*
X15041874Y48129870D01*
X15062065Y48167645D01*
X15089242Y48200758D01*
X15122355Y48227935D01*
X15160130Y48248126D01*
X15201121Y48260560D01*
X15246204Y48265000D01*
X15778796Y48265000D01*
X15823879Y48260560D01*
G37*
G36*
X17398879Y48260560D02*
G01*
X17439870Y48248126D01*
X17477645Y48227935D01*
X17510758Y48200758D01*
X17537935Y48167645D01*
X17558126Y48129870D01*
X17570560Y48088879D01*
X17575000Y48043796D01*
X17575000Y47436204D01*
X17570560Y47391121D01*
X17558126Y47350130D01*
X17537935Y47312355D01*
X17510758Y47279242D01*
X17477645Y47252065D01*
X17439870Y47231874D01*
X17398879Y47219440D01*
X17353796Y47215000D01*
X16821204Y47215000D01*
X16776121Y47219440D01*
X16735130Y47231874D01*
X16697355Y47252065D01*
X16664242Y47279242D01*
X16637065Y47312355D01*
X16616874Y47350130D01*
X16604440Y47391121D01*
X16600000Y47436204D01*
X16600000Y48043796D01*
X16604440Y48088879D01*
X16616874Y48129870D01*
X16637065Y48167645D01*
X16664242Y48200758D01*
X16697355Y48227935D01*
X16735130Y48248126D01*
X16776121Y48260560D01*
X16821204Y48265000D01*
X17353796Y48265000D01*
X17398879Y48260560D01*
G37*
G36*
X18853879Y48260560D02*
G01*
X18894870Y48248126D01*
X18932645Y48227935D01*
X18965758Y48200758D01*
X18992935Y48167645D01*
X19013126Y48129870D01*
X19025560Y48088879D01*
X19030000Y48043796D01*
X19030000Y47436204D01*
X19025560Y47391121D01*
X19013126Y47350130D01*
X18992935Y47312355D01*
X18965758Y47279242D01*
X18932645Y47252065D01*
X18894870Y47231874D01*
X18853879Y47219440D01*
X18808796Y47215000D01*
X18276204Y47215000D01*
X18231121Y47219440D01*
X18190130Y47231874D01*
X18152355Y47252065D01*
X18119242Y47279242D01*
X18092065Y47312355D01*
X18071874Y47350130D01*
X18059440Y47391121D01*
X18055000Y47436204D01*
X18055000Y48043796D01*
X18059440Y48088879D01*
X18071874Y48129870D01*
X18092065Y48167645D01*
X18119242Y48200758D01*
X18152355Y48227935D01*
X18190130Y48248126D01*
X18231121Y48260560D01*
X18276204Y48265000D01*
X18808796Y48265000D01*
X18853879Y48260560D01*
G37*
G36*
X20428879Y48260560D02*
G01*
X20469870Y48248126D01*
X20507645Y48227935D01*
X20540758Y48200758D01*
X20567935Y48167645D01*
X20588126Y48129870D01*
X20600560Y48088879D01*
X20605000Y48043796D01*
X20605000Y47436204D01*
X20600560Y47391121D01*
X20588126Y47350130D01*
X20567935Y47312355D01*
X20540758Y47279242D01*
X20507645Y47252065D01*
X20469870Y47231874D01*
X20428879Y47219440D01*
X20383796Y47215000D01*
X19851204Y47215000D01*
X19806121Y47219440D01*
X19765130Y47231874D01*
X19727355Y47252065D01*
X19694242Y47279242D01*
X19667065Y47312355D01*
X19646874Y47350130D01*
X19634440Y47391121D01*
X19630000Y47436204D01*
X19630000Y48043796D01*
X19634440Y48088879D01*
X19646874Y48129870D01*
X19667065Y48167645D01*
X19694242Y48200758D01*
X19727355Y48227935D01*
X19765130Y48248126D01*
X19806121Y48260560D01*
X19851204Y48265000D01*
X20383796Y48265000D01*
X20428879Y48260560D01*
G37*
G36*
X11779019Y48021157D02*
G01*
X11816537Y48009776D01*
X11851114Y47991294D01*
X11881422Y47966422D01*
X11906294Y47936114D01*
X11924776Y47901537D01*
X11936157Y47864019D01*
X11940000Y47825001D01*
X11940000Y47549999D01*
X11936157Y47510981D01*
X11924776Y47473463D01*
X11906294Y47438886D01*
X11881422Y47408578D01*
X11851114Y47383706D01*
X11816537Y47365224D01*
X11779019Y47353843D01*
X11740001Y47350000D01*
X11739999Y47350000D01*
X11700981Y47353843D01*
X11663463Y47365224D01*
X11628886Y47383706D01*
X11598578Y47408578D01*
X11573706Y47438886D01*
X11555224Y47473463D01*
X11543843Y47510981D01*
X11540000Y47549999D01*
X11540000Y47825001D01*
X11543843Y47864019D01*
X11555224Y47901537D01*
X11573706Y47936114D01*
X11598578Y47966422D01*
X11628886Y47991294D01*
X11663463Y48009776D01*
X11700981Y48021157D01*
X11739999Y48025000D01*
X11740001Y48025000D01*
X11779019Y48021157D01*
G37*
G36*
X12599141Y48021636D02*
G01*
X12631969Y48011678D01*
X12662224Y47995506D01*
X12688743Y47973743D01*
X12710506Y47947224D01*
X12726678Y47916969D01*
X12736636Y47884141D01*
X12739999Y47850000D01*
X12739999Y47849998D01*
X12736636Y47815857D01*
X12726678Y47783029D01*
X12710506Y47752774D01*
X12688743Y47726255D01*
X12662224Y47704492D01*
X12631969Y47688320D01*
X12599141Y47678362D01*
X12565000Y47674999D01*
X12265000Y47674999D01*
X12230859Y47678362D01*
X12198031Y47688320D01*
X12167776Y47704492D01*
X12141257Y47726255D01*
X12119494Y47752774D01*
X12103322Y47783029D01*
X12093364Y47815857D01*
X12090001Y47849998D01*
X12090001Y47850000D01*
X12093364Y47884141D01*
X12103322Y47916969D01*
X12119494Y47947224D01*
X12141257Y47973743D01*
X12167776Y47995506D01*
X12198031Y48011678D01*
X12230859Y48021636D01*
X12265000Y48024999D01*
X12565000Y48024999D01*
X12599141Y48021636D01*
G37*
G36*
X11249141Y48021636D02*
G01*
X11281969Y48011678D01*
X11312224Y47995506D01*
X11338743Y47973743D01*
X11360506Y47947224D01*
X11376678Y47916969D01*
X11386636Y47884141D01*
X11389999Y47850000D01*
X11389999Y47849998D01*
X11386636Y47815857D01*
X11376678Y47783029D01*
X11360506Y47752774D01*
X11338743Y47726255D01*
X11312224Y47704492D01*
X11281969Y47688320D01*
X11249141Y47678362D01*
X11215000Y47674999D01*
X10915000Y47674999D01*
X10880859Y47678362D01*
X10848031Y47688320D01*
X10817776Y47704492D01*
X10791257Y47726255D01*
X10769494Y47752774D01*
X10753322Y47783029D01*
X10743364Y47815857D01*
X10740001Y47849998D01*
X10740001Y47850000D01*
X10743364Y47884141D01*
X10753322Y47916969D01*
X10769494Y47947224D01*
X10791257Y47973743D01*
X10817776Y47995506D01*
X10848031Y48011678D01*
X10880859Y48021636D01*
X10915000Y48024999D01*
X11215000Y48024999D01*
X11249141Y48021636D01*
G37*
G36*
X12619263Y48497119D02*
G01*
X12647402Y48488583D01*
X12673335Y48474721D01*
X12696065Y48456067D01*
X12714719Y48433337D01*
X12728581Y48407404D01*
X12737117Y48379265D01*
X12739999Y48350001D01*
X12739999Y48349999D01*
X12737117Y48320735D01*
X12728581Y48292596D01*
X12714719Y48266663D01*
X12696065Y48243933D01*
X12673335Y48225279D01*
X12647402Y48211417D01*
X12619263Y48202881D01*
X12589999Y48199999D01*
X12240001Y48199999D01*
X12210737Y48202881D01*
X12182598Y48211417D01*
X12156665Y48225279D01*
X12133935Y48243933D01*
X12115281Y48266663D01*
X12101419Y48292596D01*
X12092883Y48320735D01*
X12090001Y48349999D01*
X12090001Y48350001D01*
X12092883Y48379265D01*
X12101419Y48407404D01*
X12115281Y48433337D01*
X12133935Y48456067D01*
X12156665Y48474721D01*
X12182598Y48488583D01*
X12210737Y48497119D01*
X12240001Y48500001D01*
X12589999Y48500001D01*
X12619263Y48497119D01*
G37*
G36*
X11269263Y48497119D02*
G01*
X11297402Y48488583D01*
X11323335Y48474721D01*
X11346065Y48456067D01*
X11364719Y48433337D01*
X11378581Y48407404D01*
X11387117Y48379265D01*
X11389999Y48350001D01*
X11389999Y48349999D01*
X11387117Y48320735D01*
X11378581Y48292596D01*
X11364719Y48266663D01*
X11346065Y48243933D01*
X11323335Y48225279D01*
X11297402Y48211417D01*
X11269263Y48202881D01*
X11239999Y48199999D01*
X10890001Y48199999D01*
X10860737Y48202881D01*
X10832598Y48211417D01*
X10806665Y48225279D01*
X10783935Y48243933D01*
X10765281Y48266663D01*
X10751419Y48292596D01*
X10742883Y48320735D01*
X10740001Y48349999D01*
X10740001Y48350001D01*
X10742883Y48379265D01*
X10751419Y48407404D01*
X10765281Y48433337D01*
X10783935Y48456067D01*
X10806665Y48474721D01*
X10832598Y48488583D01*
X10860737Y48497119D01*
X10890001Y48500001D01*
X11239999Y48500001D01*
X11269263Y48497119D01*
G37*
G36*
X12619263Y48997119D02*
G01*
X12647402Y48988583D01*
X12673335Y48974721D01*
X12696065Y48956067D01*
X12714719Y48933337D01*
X12728581Y48907404D01*
X12737117Y48879265D01*
X12739999Y48850001D01*
X12739999Y48849999D01*
X12737117Y48820735D01*
X12728581Y48792596D01*
X12714719Y48766663D01*
X12696065Y48743933D01*
X12673335Y48725279D01*
X12647402Y48711417D01*
X12619263Y48702881D01*
X12589999Y48699999D01*
X12240001Y48699999D01*
X12210737Y48702881D01*
X12182598Y48711417D01*
X12156665Y48725279D01*
X12133935Y48743933D01*
X12115281Y48766663D01*
X12101419Y48792596D01*
X12092883Y48820735D01*
X12090001Y48849999D01*
X12090001Y48850001D01*
X12092883Y48879265D01*
X12101419Y48907404D01*
X12115281Y48933337D01*
X12133935Y48956067D01*
X12156665Y48974721D01*
X12182598Y48988583D01*
X12210737Y48997119D01*
X12240001Y49000001D01*
X12589999Y49000001D01*
X12619263Y48997119D01*
G37*
G36*
X11269263Y48997119D02*
G01*
X11297402Y48988583D01*
X11323335Y48974721D01*
X11346065Y48956067D01*
X11364719Y48933337D01*
X11378581Y48907404D01*
X11387117Y48879265D01*
X11389999Y48850001D01*
X11389999Y48849999D01*
X11387117Y48820735D01*
X11378581Y48792596D01*
X11364719Y48766663D01*
X11346065Y48743933D01*
X11323335Y48725279D01*
X11297402Y48711417D01*
X11269263Y48702881D01*
X11239999Y48699999D01*
X10890001Y48699999D01*
X10860737Y48702881D01*
X10832598Y48711417D01*
X10806665Y48725279D01*
X10783935Y48743933D01*
X10765281Y48766663D01*
X10751419Y48792596D01*
X10742883Y48820735D01*
X10740001Y48849999D01*
X10740001Y48850001D01*
X10742883Y48879265D01*
X10751419Y48907404D01*
X10765281Y48933337D01*
X10783935Y48956067D01*
X10806665Y48974721D01*
X10832598Y48988583D01*
X10860737Y48997119D01*
X10890001Y49000001D01*
X11239999Y49000001D01*
X11269263Y48997119D01*
G37*
G36*
X18858879Y49850560D02*
G01*
X18899870Y49838126D01*
X18937645Y49817935D01*
X18970758Y49790758D01*
X18997935Y49757645D01*
X19018126Y49719870D01*
X19030560Y49678879D01*
X19035000Y49633796D01*
X19035000Y49026204D01*
X19030560Y48981121D01*
X19018126Y48940130D01*
X18997935Y48902355D01*
X18970758Y48869242D01*
X18937645Y48842065D01*
X18899870Y48821874D01*
X18858879Y48809440D01*
X18813796Y48805000D01*
X18281204Y48805000D01*
X18236121Y48809440D01*
X18195130Y48821874D01*
X18157355Y48842065D01*
X18124242Y48869242D01*
X18097065Y48902355D01*
X18076874Y48940130D01*
X18064440Y48981121D01*
X18060000Y49026204D01*
X18060000Y49633796D01*
X18064440Y49678879D01*
X18076874Y49719870D01*
X18097065Y49757645D01*
X18124242Y49790758D01*
X18157355Y49817935D01*
X18195130Y49838126D01*
X18236121Y49850560D01*
X18281204Y49855000D01*
X18813796Y49855000D01*
X18858879Y49850560D01*
G37*
G36*
X17283879Y49850560D02*
G01*
X17324870Y49838126D01*
X17362645Y49817935D01*
X17395758Y49790758D01*
X17422935Y49757645D01*
X17443126Y49719870D01*
X17455560Y49678879D01*
X17460000Y49633796D01*
X17460000Y49026204D01*
X17455560Y48981121D01*
X17443126Y48940130D01*
X17422935Y48902355D01*
X17395758Y48869242D01*
X17362645Y48842065D01*
X17324870Y48821874D01*
X17283879Y48809440D01*
X17238796Y48805000D01*
X16706204Y48805000D01*
X16661121Y48809440D01*
X16620130Y48821874D01*
X16582355Y48842065D01*
X16549242Y48869242D01*
X16522065Y48902355D01*
X16501874Y48940130D01*
X16489440Y48981121D01*
X16485000Y49026204D01*
X16485000Y49633796D01*
X16489440Y49678879D01*
X16501874Y49719870D01*
X16522065Y49757645D01*
X16549242Y49790758D01*
X16582355Y49817935D01*
X16620130Y49838126D01*
X16661121Y49850560D01*
X16706204Y49855000D01*
X17238796Y49855000D01*
X17283879Y49850560D01*
G37*
G36*
X11779019Y49846157D02*
G01*
X11816537Y49834776D01*
X11851114Y49816294D01*
X11881422Y49791422D01*
X11906294Y49761114D01*
X11924776Y49726537D01*
X11936157Y49689019D01*
X11940000Y49650001D01*
X11940000Y49374999D01*
X11936157Y49335981D01*
X11924776Y49298463D01*
X11906294Y49263886D01*
X11881422Y49233578D01*
X11851114Y49208706D01*
X11816537Y49190224D01*
X11779019Y49178843D01*
X11740001Y49175000D01*
X11739999Y49175000D01*
X11700981Y49178843D01*
X11663463Y49190224D01*
X11628886Y49208706D01*
X11598578Y49233578D01*
X11573706Y49263886D01*
X11555224Y49298463D01*
X11543843Y49335981D01*
X11540000Y49374999D01*
X11540000Y49650001D01*
X11543843Y49689019D01*
X11555224Y49726537D01*
X11573706Y49761114D01*
X11598578Y49791422D01*
X11628886Y49816294D01*
X11663463Y49834776D01*
X11700981Y49846157D01*
X11739999Y49850000D01*
X11740001Y49850000D01*
X11779019Y49846157D01*
G37*
G36*
X11249141Y49521638D02*
G01*
X11281969Y49511680D01*
X11312224Y49495508D01*
X11338743Y49473745D01*
X11360506Y49447226D01*
X11376678Y49416971D01*
X11386636Y49384143D01*
X11389999Y49350002D01*
X11389999Y49350000D01*
X11386636Y49315859D01*
X11376678Y49283031D01*
X11360506Y49252776D01*
X11338743Y49226257D01*
X11312224Y49204494D01*
X11281969Y49188322D01*
X11249141Y49178364D01*
X11215000Y49175001D01*
X10915000Y49175001D01*
X10880859Y49178364D01*
X10848031Y49188322D01*
X10817776Y49204494D01*
X10791257Y49226257D01*
X10769494Y49252776D01*
X10753322Y49283031D01*
X10743364Y49315859D01*
X10740001Y49350000D01*
X10740001Y49350002D01*
X10743364Y49384143D01*
X10753322Y49416971D01*
X10769494Y49447226D01*
X10791257Y49473745D01*
X10817776Y49495508D01*
X10848031Y49511680D01*
X10880859Y49521638D01*
X10915000Y49525001D01*
X11215000Y49525001D01*
X11249141Y49521638D01*
G37*
G36*
X12599141Y49521638D02*
G01*
X12631969Y49511680D01*
X12662224Y49495508D01*
X12688743Y49473745D01*
X12710506Y49447226D01*
X12726678Y49416971D01*
X12736636Y49384143D01*
X12739999Y49350002D01*
X12739999Y49350000D01*
X12736636Y49315859D01*
X12726678Y49283031D01*
X12710506Y49252776D01*
X12688743Y49226257D01*
X12662224Y49204494D01*
X12631969Y49188322D01*
X12599141Y49178364D01*
X12565000Y49175001D01*
X12265000Y49175001D01*
X12230859Y49178364D01*
X12198031Y49188322D01*
X12167776Y49204494D01*
X12141257Y49226257D01*
X12119494Y49252776D01*
X12103322Y49283031D01*
X12093364Y49315859D01*
X12090001Y49350000D01*
X12090001Y49350002D01*
X12093364Y49384143D01*
X12103322Y49416971D01*
X12119494Y49447226D01*
X12141257Y49473745D01*
X12167776Y49495508D01*
X12198031Y49511680D01*
X12230859Y49521638D01*
X12265000Y49525001D01*
X12565000Y49525001D01*
X12599141Y49521638D01*
G37*
G36*
X4331313Y55240477D02*
G01*
X4849980Y55025638D01*
X4849981Y55025637D01*
X5316769Y54713740D01*
X5713740Y54316769D01*
X5760358Y54247000D01*
X6025638Y53849980D01*
X6240477Y53331313D01*
X6350000Y52780702D01*
X6350000Y52219298D01*
X6240477Y51668687D01*
X6025638Y51150020D01*
X6025637Y51150019D01*
X5713740Y50683231D01*
X5316769Y50286260D01*
X5017363Y50086204D01*
X4849980Y49974362D01*
X4331313Y49759523D01*
X3780702Y49650000D01*
X3219298Y49650000D01*
X2668687Y49759523D01*
X2150020Y49974362D01*
X1982637Y50086204D01*
X1683231Y50286260D01*
X1286260Y50683231D01*
X974363Y51150019D01*
X974362Y51150020D01*
X759523Y51668687D01*
X650000Y52219298D01*
X650000Y52780702D01*
X759523Y53331313D01*
X974362Y53849980D01*
X1239642Y54247000D01*
X1286260Y54316769D01*
X1683231Y54713740D01*
X2150019Y55025637D01*
X2150020Y55025638D01*
X2668687Y55240477D01*
X3219298Y55350000D01*
X3780702Y55350000D01*
X4331313Y55240477D01*
G37*
G36*
X7933879Y50910560D02*
G01*
X7974870Y50898126D01*
X8012645Y50877935D01*
X8045758Y50850758D01*
X8072935Y50817645D01*
X8093126Y50779870D01*
X8105560Y50738879D01*
X8110000Y50693796D01*
X8110000Y50086204D01*
X8105560Y50041121D01*
X8093126Y50000130D01*
X8072935Y49962355D01*
X8045758Y49929242D01*
X8012645Y49902065D01*
X7974870Y49881874D01*
X7933879Y49869440D01*
X7888796Y49865000D01*
X7356204Y49865000D01*
X7311121Y49869440D01*
X7270130Y49881874D01*
X7232355Y49902065D01*
X7199242Y49929242D01*
X7172065Y49962355D01*
X7151874Y50000130D01*
X7139440Y50041121D01*
X7135000Y50086204D01*
X7135000Y50693796D01*
X7139440Y50738879D01*
X7151874Y50779870D01*
X7172065Y50817645D01*
X7199242Y50850758D01*
X7232355Y50877935D01*
X7270130Y50898126D01*
X7311121Y50910560D01*
X7356204Y50915000D01*
X7888796Y50915000D01*
X7933879Y50910560D01*
G37*
G36*
X9508879Y50910560D02*
G01*
X9549870Y50898126D01*
X9587645Y50877935D01*
X9620758Y50850758D01*
X9647935Y50817645D01*
X9668126Y50779870D01*
X9680560Y50738879D01*
X9685000Y50693796D01*
X9685000Y50086204D01*
X9680560Y50041121D01*
X9668126Y50000130D01*
X9647935Y49962355D01*
X9620758Y49929242D01*
X9587645Y49902065D01*
X9549870Y49881874D01*
X9508879Y49869440D01*
X9463796Y49865000D01*
X8931204Y49865000D01*
X8886121Y49869440D01*
X8845130Y49881874D01*
X8807355Y49902065D01*
X8774242Y49929242D01*
X8747065Y49962355D01*
X8726874Y50000130D01*
X8714440Y50041121D01*
X8710000Y50086204D01*
X8710000Y50693796D01*
X8714440Y50738879D01*
X8726874Y50779870D01*
X8747065Y50817645D01*
X8774242Y50850758D01*
X8807355Y50877935D01*
X8845130Y50898126D01*
X8886121Y50910560D01*
X8931204Y50915000D01*
X9463796Y50915000D01*
X9508879Y50910560D01*
G37*
G36*
X28871832Y51649505D02*
G01*
X28923351Y51639257D01*
X28983656Y51614278D01*
X29068941Y51578952D01*
X29199969Y51491402D01*
X29311402Y51379969D01*
X29398952Y51248941D01*
X29459257Y51103350D01*
X29490000Y50948795D01*
X29490000Y50791205D01*
X29459257Y50636650D01*
X29398952Y50491059D01*
X29311402Y50360031D01*
X29199969Y50248598D01*
X29068941Y50161048D01*
X28983656Y50125722D01*
X28923351Y50100743D01*
X28871832Y50090495D01*
X28768795Y50070000D01*
X28611205Y50070000D01*
X28508168Y50090495D01*
X28456649Y50100743D01*
X28396344Y50125722D01*
X28311059Y50161048D01*
X28180031Y50248598D01*
X28068598Y50360031D01*
X27981048Y50491059D01*
X27920743Y50636650D01*
X27890000Y50791205D01*
X27890000Y50948795D01*
X27920743Y51103350D01*
X27981048Y51248941D01*
X28068598Y51379969D01*
X28180031Y51491402D01*
X28311059Y51578952D01*
X28396344Y51614278D01*
X28456649Y51639257D01*
X28508168Y51649505D01*
X28611205Y51670000D01*
X28768795Y51670000D01*
X28871832Y51649505D01*
G37*
G36*
X31411832Y51649505D02*
G01*
X31463351Y51639257D01*
X31523656Y51614278D01*
X31608941Y51578952D01*
X31739969Y51491402D01*
X31851402Y51379969D01*
X31938952Y51248941D01*
X31999257Y51103350D01*
X32030000Y50948795D01*
X32030000Y50791205D01*
X31999257Y50636650D01*
X31938952Y50491059D01*
X31851402Y50360031D01*
X31739969Y50248598D01*
X31608941Y50161048D01*
X31523656Y50125722D01*
X31463351Y50100743D01*
X31411832Y50090495D01*
X31308795Y50070000D01*
X31151205Y50070000D01*
X31048168Y50090495D01*
X30996649Y50100743D01*
X30936344Y50125722D01*
X30851059Y50161048D01*
X30720031Y50248598D01*
X30608598Y50360031D01*
X30521048Y50491059D01*
X30460743Y50636650D01*
X30430000Y50791205D01*
X30430000Y50948795D01*
X30460743Y51103350D01*
X30521048Y51248941D01*
X30608598Y51379969D01*
X30720031Y51491402D01*
X30851059Y51578952D01*
X30936344Y51614278D01*
X30996649Y51639257D01*
X31048168Y51649505D01*
X31151205Y51670000D01*
X31308795Y51670000D01*
X31411832Y51649505D01*
G37*
G36*
X26331832Y51649505D02*
G01*
X26383351Y51639257D01*
X26443656Y51614278D01*
X26528941Y51578952D01*
X26659969Y51491402D01*
X26771402Y51379969D01*
X26858952Y51248941D01*
X26919257Y51103350D01*
X26950000Y50948795D01*
X26950000Y50791205D01*
X26919257Y50636650D01*
X26858952Y50491059D01*
X26771402Y50360031D01*
X26659969Y50248598D01*
X26528941Y50161048D01*
X26443656Y50125722D01*
X26383351Y50100743D01*
X26331832Y50090495D01*
X26228795Y50070000D01*
X26071205Y50070000D01*
X25968168Y50090495D01*
X25916649Y50100743D01*
X25856344Y50125722D01*
X25771059Y50161048D01*
X25640031Y50248598D01*
X25528598Y50360031D01*
X25441048Y50491059D01*
X25380743Y50636650D01*
X25350000Y50791205D01*
X25350000Y50948795D01*
X25380743Y51103350D01*
X25441048Y51248941D01*
X25528598Y51379969D01*
X25640031Y51491402D01*
X25771059Y51578952D01*
X25856344Y51614278D01*
X25916649Y51639257D01*
X25968168Y51649505D01*
X26071205Y51670000D01*
X26228795Y51670000D01*
X26331832Y51649505D01*
G37*
G36*
X23791832Y51649505D02*
G01*
X23843351Y51639257D01*
X23903656Y51614278D01*
X23988941Y51578952D01*
X24119969Y51491402D01*
X24231402Y51379969D01*
X24318952Y51248941D01*
X24379257Y51103350D01*
X24410000Y50948795D01*
X24410000Y50791205D01*
X24379257Y50636650D01*
X24318952Y50491059D01*
X24231402Y50360031D01*
X24119969Y50248598D01*
X23988941Y50161048D01*
X23903656Y50125722D01*
X23843351Y50100743D01*
X23791832Y50090495D01*
X23688795Y50070000D01*
X23531205Y50070000D01*
X23428168Y50090495D01*
X23376649Y50100743D01*
X23316344Y50125722D01*
X23231059Y50161048D01*
X23100031Y50248598D01*
X22988598Y50360031D01*
X22901048Y50491059D01*
X22840743Y50636650D01*
X22810000Y50791205D01*
X22810000Y50948795D01*
X22840743Y51103350D01*
X22901048Y51248941D01*
X22988598Y51379969D01*
X23100031Y51491402D01*
X23231059Y51578952D01*
X23316344Y51614278D01*
X23376649Y51639257D01*
X23428168Y51649505D01*
X23531205Y51670000D01*
X23688795Y51670000D01*
X23791832Y51649505D01*
G37*
G36*
X21898879Y51380560D02*
G01*
X21939870Y51368126D01*
X21977645Y51347935D01*
X22010758Y51320758D01*
X22037935Y51287645D01*
X22058126Y51249870D01*
X22070560Y51208879D01*
X22075000Y51163796D01*
X22075000Y50556204D01*
X22070560Y50511121D01*
X22058126Y50470130D01*
X22037935Y50432355D01*
X22010758Y50399242D01*
X21977645Y50372065D01*
X21939870Y50351874D01*
X21898879Y50339440D01*
X21853796Y50335000D01*
X21321204Y50335000D01*
X21276121Y50339440D01*
X21235130Y50351874D01*
X21197355Y50372065D01*
X21164242Y50399242D01*
X21137065Y50432355D01*
X21116874Y50470130D01*
X21104440Y50511121D01*
X21100000Y50556204D01*
X21100000Y51163796D01*
X21104440Y51208879D01*
X21116874Y51249870D01*
X21137065Y51287645D01*
X21164242Y51320758D01*
X21197355Y51347935D01*
X21235130Y51368126D01*
X21276121Y51380560D01*
X21321204Y51385000D01*
X21853796Y51385000D01*
X21898879Y51380560D01*
G37*
G36*
X20323879Y51380560D02*
G01*
X20364870Y51368126D01*
X20402645Y51347935D01*
X20435758Y51320758D01*
X20462935Y51287645D01*
X20483126Y51249870D01*
X20495560Y51208879D01*
X20500000Y51163796D01*
X20500000Y50556204D01*
X20495560Y50511121D01*
X20483126Y50470130D01*
X20462935Y50432355D01*
X20435758Y50399242D01*
X20402645Y50372065D01*
X20364870Y50351874D01*
X20323879Y50339440D01*
X20278796Y50335000D01*
X19746204Y50335000D01*
X19701121Y50339440D01*
X19660130Y50351874D01*
X19622355Y50372065D01*
X19589242Y50399242D01*
X19562065Y50432355D01*
X19541874Y50470130D01*
X19529440Y50511121D01*
X19525000Y50556204D01*
X19525000Y51163796D01*
X19529440Y51208879D01*
X19541874Y51249870D01*
X19562065Y51287645D01*
X19589242Y51320758D01*
X19622355Y51347935D01*
X19660130Y51368126D01*
X19701121Y51380560D01*
X19746204Y51385000D01*
X20278796Y51385000D01*
X20323879Y51380560D01*
G37*
G36*
X15828879Y51380560D02*
G01*
X15869870Y51368126D01*
X15907645Y51347935D01*
X15940758Y51320758D01*
X15967935Y51287645D01*
X15988126Y51249870D01*
X16000560Y51208879D01*
X16005000Y51163796D01*
X16005000Y50556204D01*
X16000560Y50511121D01*
X15988126Y50470130D01*
X15967935Y50432355D01*
X15940758Y50399242D01*
X15907645Y50372065D01*
X15869870Y50351874D01*
X15828879Y50339440D01*
X15783796Y50335000D01*
X15251204Y50335000D01*
X15206121Y50339440D01*
X15165130Y50351874D01*
X15127355Y50372065D01*
X15094242Y50399242D01*
X15067065Y50432355D01*
X15046874Y50470130D01*
X15034440Y50511121D01*
X15030000Y50556204D01*
X15030000Y51163796D01*
X15034440Y51208879D01*
X15046874Y51249870D01*
X15067065Y51287645D01*
X15094242Y51320758D01*
X15127355Y51347935D01*
X15165130Y51368126D01*
X15206121Y51380560D01*
X15251204Y51385000D01*
X15783796Y51385000D01*
X15828879Y51380560D01*
G37*
G36*
X17283879Y51380560D02*
G01*
X17324870Y51368126D01*
X17362645Y51347935D01*
X17395758Y51320758D01*
X17422935Y51287645D01*
X17443126Y51249870D01*
X17455560Y51208879D01*
X17460000Y51163796D01*
X17460000Y50556204D01*
X17455560Y50511121D01*
X17443126Y50470130D01*
X17422935Y50432355D01*
X17395758Y50399242D01*
X17362645Y50372065D01*
X17324870Y50351874D01*
X17283879Y50339440D01*
X17238796Y50335000D01*
X16706204Y50335000D01*
X16661121Y50339440D01*
X16620130Y50351874D01*
X16582355Y50372065D01*
X16549242Y50399242D01*
X16522065Y50432355D01*
X16501874Y50470130D01*
X16489440Y50511121D01*
X16485000Y50556204D01*
X16485000Y51163796D01*
X16489440Y51208879D01*
X16501874Y51249870D01*
X16522065Y51287645D01*
X16549242Y51320758D01*
X16582355Y51347935D01*
X16620130Y51368126D01*
X16661121Y51380560D01*
X16706204Y51385000D01*
X17238796Y51385000D01*
X17283879Y51380560D01*
G37*
G36*
X14253879Y51380560D02*
G01*
X14294870Y51368126D01*
X14332645Y51347935D01*
X14365758Y51320758D01*
X14392935Y51287645D01*
X14413126Y51249870D01*
X14425560Y51208879D01*
X14430000Y51163796D01*
X14430000Y50556204D01*
X14425560Y50511121D01*
X14413126Y50470130D01*
X14392935Y50432355D01*
X14365758Y50399242D01*
X14332645Y50372065D01*
X14294870Y50351874D01*
X14253879Y50339440D01*
X14208796Y50335000D01*
X13676204Y50335000D01*
X13631121Y50339440D01*
X13590130Y50351874D01*
X13552355Y50372065D01*
X13519242Y50399242D01*
X13492065Y50432355D01*
X13471874Y50470130D01*
X13459440Y50511121D01*
X13455000Y50556204D01*
X13455000Y51163796D01*
X13459440Y51208879D01*
X13471874Y51249870D01*
X13492065Y51287645D01*
X13519242Y51320758D01*
X13552355Y51347935D01*
X13590130Y51368126D01*
X13631121Y51380560D01*
X13676204Y51385000D01*
X14208796Y51385000D01*
X14253879Y51380560D01*
G37*
G36*
X12588879Y51380560D02*
G01*
X12629870Y51368126D01*
X12667645Y51347935D01*
X12700758Y51320758D01*
X12727935Y51287645D01*
X12748126Y51249870D01*
X12760560Y51208879D01*
X12765000Y51163796D01*
X12765000Y50556204D01*
X12760560Y50511121D01*
X12748126Y50470130D01*
X12727935Y50432355D01*
X12700758Y50399242D01*
X12667645Y50372065D01*
X12629870Y50351874D01*
X12588879Y50339440D01*
X12543796Y50335000D01*
X12011204Y50335000D01*
X11966121Y50339440D01*
X11925130Y50351874D01*
X11887355Y50372065D01*
X11854242Y50399242D01*
X11827065Y50432355D01*
X11806874Y50470130D01*
X11794440Y50511121D01*
X11790000Y50556204D01*
X11790000Y51163796D01*
X11794440Y51208879D01*
X11806874Y51249870D01*
X11827065Y51287645D01*
X11854242Y51320758D01*
X11887355Y51347935D01*
X11925130Y51368126D01*
X11966121Y51380560D01*
X12011204Y51385000D01*
X12543796Y51385000D01*
X12588879Y51380560D01*
G37*
G36*
X11013879Y51380560D02*
G01*
X11054870Y51368126D01*
X11092645Y51347935D01*
X11125758Y51320758D01*
X11152935Y51287645D01*
X11173126Y51249870D01*
X11185560Y51208879D01*
X11190000Y51163796D01*
X11190000Y50556204D01*
X11185560Y50511121D01*
X11173126Y50470130D01*
X11152935Y50432355D01*
X11125758Y50399242D01*
X11092645Y50372065D01*
X11054870Y50351874D01*
X11013879Y50339440D01*
X10968796Y50335000D01*
X10436204Y50335000D01*
X10391121Y50339440D01*
X10350130Y50351874D01*
X10312355Y50372065D01*
X10279242Y50399242D01*
X10252065Y50432355D01*
X10231874Y50470130D01*
X10219440Y50511121D01*
X10215000Y50556204D01*
X10215000Y51163796D01*
X10219440Y51208879D01*
X10231874Y51249870D01*
X10252065Y51287645D01*
X10279242Y51320758D01*
X10312355Y51347935D01*
X10350130Y51368126D01*
X10391121Y51380560D01*
X10436204Y51385000D01*
X10968796Y51385000D01*
X11013879Y51380560D01*
G37*
G36*
X18858879Y51380560D02*
G01*
X18899870Y51368126D01*
X18937645Y51347935D01*
X18970758Y51320758D01*
X18997935Y51287645D01*
X19018126Y51249870D01*
X19030560Y51208879D01*
X19035000Y51163796D01*
X19035000Y50556204D01*
X19030560Y50511121D01*
X19018126Y50470130D01*
X18997935Y50432355D01*
X18970758Y50399242D01*
X18937645Y50372065D01*
X18899870Y50351874D01*
X18858879Y50339440D01*
X18813796Y50335000D01*
X18281204Y50335000D01*
X18236121Y50339440D01*
X18195130Y50351874D01*
X18157355Y50372065D01*
X18124242Y50399242D01*
X18097065Y50432355D01*
X18076874Y50470130D01*
X18064440Y50511121D01*
X18060000Y50556204D01*
X18060000Y51163796D01*
X18064440Y51208879D01*
X18076874Y51249870D01*
X18097065Y51287645D01*
X18124242Y51320758D01*
X18157355Y51347935D01*
X18195130Y51368126D01*
X18236121Y51380560D01*
X18281204Y51385000D01*
X18813796Y51385000D01*
X18858879Y51380560D01*
G37*
G36*
X8950806Y54662145D02*
G01*
X9025143Y54639594D01*
X9093647Y54602978D01*
X9153696Y54553696D01*
X9202978Y54493647D01*
X9239594Y54425143D01*
X9262145Y54350806D01*
X9270000Y54271046D01*
X9270000Y53268954D01*
X9262145Y53189194D01*
X9239594Y53114857D01*
X9202978Y53046353D01*
X9153696Y52986304D01*
X9093647Y52937022D01*
X9025143Y52900406D01*
X8950806Y52877855D01*
X8871046Y52870000D01*
X7868954Y52870000D01*
X7789194Y52877855D01*
X7714857Y52900406D01*
X7646353Y52937022D01*
X7586304Y52986304D01*
X7537022Y53046353D01*
X7500406Y53114857D01*
X7477855Y53189194D01*
X7470000Y53268954D01*
X7470000Y54271046D01*
X7477855Y54350806D01*
X7500406Y54425143D01*
X7537022Y54493647D01*
X7586304Y54553696D01*
X7646353Y54602978D01*
X7714857Y54639594D01*
X7789194Y54662145D01*
X7868954Y54670000D01*
X8871046Y54670000D01*
X8950806Y54662145D01*
G37*
G36*
X11114561Y54646943D02*
G01*
X11172520Y54635414D01*
X11336310Y54567570D01*
X11483717Y54469076D01*
X11609076Y54343717D01*
X11707570Y54196310D01*
X11775414Y54032520D01*
X11810000Y53858642D01*
X11810000Y53681358D01*
X11775414Y53507480D01*
X11707570Y53343690D01*
X11609076Y53196283D01*
X11483717Y53070924D01*
X11336310Y52972430D01*
X11172520Y52904586D01*
X11151505Y52900406D01*
X10998644Y52870000D01*
X10821356Y52870000D01*
X10668495Y52900406D01*
X10647480Y52904586D01*
X10483690Y52972430D01*
X10336283Y53070924D01*
X10210924Y53196283D01*
X10112430Y53343690D01*
X10044586Y53507480D01*
X10010000Y53681358D01*
X10010000Y53858642D01*
X10044586Y54032520D01*
X10112430Y54196310D01*
X10210924Y54343717D01*
X10336283Y54469076D01*
X10483690Y54567570D01*
X10647480Y54635414D01*
X10705439Y54646943D01*
X10821356Y54670000D01*
X10998644Y54670000D01*
X11114561Y54646943D01*
G37*
G36*
X13654561Y54646943D02*
G01*
X13712520Y54635414D01*
X13876310Y54567570D01*
X14023717Y54469076D01*
X14149076Y54343717D01*
X14247570Y54196310D01*
X14315414Y54032520D01*
X14350000Y53858642D01*
X14350000Y53681358D01*
X14315414Y53507480D01*
X14247570Y53343690D01*
X14149076Y53196283D01*
X14023717Y53070924D01*
X13876310Y52972430D01*
X13712520Y52904586D01*
X13691505Y52900406D01*
X13538644Y52870000D01*
X13361356Y52870000D01*
X13208495Y52900406D01*
X13187480Y52904586D01*
X13023690Y52972430D01*
X12876283Y53070924D01*
X12750924Y53196283D01*
X12652430Y53343690D01*
X12584586Y53507480D01*
X12550000Y53681358D01*
X12550000Y53858642D01*
X12584586Y54032520D01*
X12652430Y54196310D01*
X12750924Y54343717D01*
X12876283Y54469076D01*
X13023690Y54567570D01*
X13187480Y54635414D01*
X13245439Y54646943D01*
X13361356Y54670000D01*
X13538644Y54670000D01*
X13654561Y54646943D01*
G37*
G36*
X16194561Y54646943D02*
G01*
X16252520Y54635414D01*
X16416310Y54567570D01*
X16563717Y54469076D01*
X16689076Y54343717D01*
X16787570Y54196310D01*
X16855414Y54032520D01*
X16890000Y53858642D01*
X16890000Y53681358D01*
X16855414Y53507480D01*
X16787570Y53343690D01*
X16689076Y53196283D01*
X16563717Y53070924D01*
X16416310Y52972430D01*
X16252520Y52904586D01*
X16231505Y52900406D01*
X16078644Y52870000D01*
X15901356Y52870000D01*
X15748495Y52900406D01*
X15727480Y52904586D01*
X15563690Y52972430D01*
X15416283Y53070924D01*
X15290924Y53196283D01*
X15192430Y53343690D01*
X15124586Y53507480D01*
X15090000Y53681358D01*
X15090000Y53858642D01*
X15124586Y54032520D01*
X15192430Y54196310D01*
X15290924Y54343717D01*
X15416283Y54469076D01*
X15563690Y54567570D01*
X15727480Y54635414D01*
X15785439Y54646943D01*
X15901356Y54670000D01*
X16078644Y54670000D01*
X16194561Y54646943D01*
G37*
G36*
X18734561Y54646943D02*
G01*
X18792520Y54635414D01*
X18956310Y54567570D01*
X19103717Y54469076D01*
X19229076Y54343717D01*
X19327570Y54196310D01*
X19395414Y54032520D01*
X19430000Y53858642D01*
X19430000Y53681358D01*
X19395414Y53507480D01*
X19327570Y53343690D01*
X19229076Y53196283D01*
X19103717Y53070924D01*
X18956310Y52972430D01*
X18792520Y52904586D01*
X18771505Y52900406D01*
X18618644Y52870000D01*
X18441356Y52870000D01*
X18288495Y52900406D01*
X18267480Y52904586D01*
X18103690Y52972430D01*
X17956283Y53070924D01*
X17830924Y53196283D01*
X17732430Y53343690D01*
X17664586Y53507480D01*
X17630000Y53681358D01*
X17630000Y53858642D01*
X17664586Y54032520D01*
X17732430Y54196310D01*
X17830924Y54343717D01*
X17956283Y54469076D01*
X18103690Y54567570D01*
X18267480Y54635414D01*
X18325439Y54646943D01*
X18441356Y54670000D01*
X18618644Y54670000D01*
X18734561Y54646943D01*
G37*
G36*
X21274561Y54646943D02*
G01*
X21332520Y54635414D01*
X21496310Y54567570D01*
X21643717Y54469076D01*
X21769076Y54343717D01*
X21867570Y54196310D01*
X21935414Y54032520D01*
X21970000Y53858642D01*
X21970000Y53681358D01*
X21935414Y53507480D01*
X21867570Y53343690D01*
X21769076Y53196283D01*
X21643717Y53070924D01*
X21496310Y52972430D01*
X21332520Y52904586D01*
X21311505Y52900406D01*
X21158644Y52870000D01*
X20981356Y52870000D01*
X20828495Y52900406D01*
X20807480Y52904586D01*
X20643690Y52972430D01*
X20496283Y53070924D01*
X20370924Y53196283D01*
X20272430Y53343690D01*
X20204586Y53507480D01*
X20170000Y53681358D01*
X20170000Y53858642D01*
X20204586Y54032520D01*
X20272430Y54196310D01*
X20370924Y54343717D01*
X20496283Y54469076D01*
X20643690Y54567570D01*
X20807480Y54635414D01*
X20865439Y54646943D01*
X20981356Y54670000D01*
X21158644Y54670000D01*
X21274561Y54646943D01*
G37*
G36*
X31434561Y54646943D02*
G01*
X31492520Y54635414D01*
X31656310Y54567570D01*
X31803717Y54469076D01*
X31929076Y54343717D01*
X32027570Y54196310D01*
X32095414Y54032520D01*
X32130000Y53858642D01*
X32130000Y53681358D01*
X32095414Y53507480D01*
X32027570Y53343690D01*
X31929076Y53196283D01*
X31803717Y53070924D01*
X31656310Y52972430D01*
X31492520Y52904586D01*
X31471505Y52900406D01*
X31318644Y52870000D01*
X31141356Y52870000D01*
X30988495Y52900406D01*
X30967480Y52904586D01*
X30803690Y52972430D01*
X30656283Y53070924D01*
X30530924Y53196283D01*
X30432430Y53343690D01*
X30364586Y53507480D01*
X30330000Y53681358D01*
X30330000Y53858642D01*
X30364586Y54032520D01*
X30432430Y54196310D01*
X30530924Y54343717D01*
X30656283Y54469076D01*
X30803690Y54567570D01*
X30967480Y54635414D01*
X31025439Y54646943D01*
X31141356Y54670000D01*
X31318644Y54670000D01*
X31434561Y54646943D01*
G37*
G36*
X28894561Y54646943D02*
G01*
X28952520Y54635414D01*
X29116310Y54567570D01*
X29263717Y54469076D01*
X29389076Y54343717D01*
X29487570Y54196310D01*
X29555414Y54032520D01*
X29590000Y53858642D01*
X29590000Y53681358D01*
X29555414Y53507480D01*
X29487570Y53343690D01*
X29389076Y53196283D01*
X29263717Y53070924D01*
X29116310Y52972430D01*
X28952520Y52904586D01*
X28931505Y52900406D01*
X28778644Y52870000D01*
X28601356Y52870000D01*
X28448495Y52900406D01*
X28427480Y52904586D01*
X28263690Y52972430D01*
X28116283Y53070924D01*
X27990924Y53196283D01*
X27892430Y53343690D01*
X27824586Y53507480D01*
X27790000Y53681358D01*
X27790000Y53858642D01*
X27824586Y54032520D01*
X27892430Y54196310D01*
X27990924Y54343717D01*
X28116283Y54469076D01*
X28263690Y54567570D01*
X28427480Y54635414D01*
X28485439Y54646943D01*
X28601356Y54670000D01*
X28778644Y54670000D01*
X28894561Y54646943D01*
G37*
G36*
X23814561Y54646943D02*
G01*
X23872520Y54635414D01*
X24036310Y54567570D01*
X24183717Y54469076D01*
X24309076Y54343717D01*
X24407570Y54196310D01*
X24475414Y54032520D01*
X24510000Y53858642D01*
X24510000Y53681358D01*
X24475414Y53507480D01*
X24407570Y53343690D01*
X24309076Y53196283D01*
X24183717Y53070924D01*
X24036310Y52972430D01*
X23872520Y52904586D01*
X23851505Y52900406D01*
X23698644Y52870000D01*
X23521356Y52870000D01*
X23368495Y52900406D01*
X23347480Y52904586D01*
X23183690Y52972430D01*
X23036283Y53070924D01*
X22910924Y53196283D01*
X22812430Y53343690D01*
X22744586Y53507480D01*
X22710000Y53681358D01*
X22710000Y53858642D01*
X22744586Y54032520D01*
X22812430Y54196310D01*
X22910924Y54343717D01*
X23036283Y54469076D01*
X23183690Y54567570D01*
X23347480Y54635414D01*
X23405439Y54646943D01*
X23521356Y54670000D01*
X23698644Y54670000D01*
X23814561Y54646943D01*
G37*
G36*
X26354561Y54646943D02*
G01*
X26412520Y54635414D01*
X26576310Y54567570D01*
X26723717Y54469076D01*
X26849076Y54343717D01*
X26947570Y54196310D01*
X27015414Y54032520D01*
X27050000Y53858642D01*
X27050000Y53681358D01*
X27015414Y53507480D01*
X26947570Y53343690D01*
X26849076Y53196283D01*
X26723717Y53070924D01*
X26576310Y52972430D01*
X26412520Y52904586D01*
X26391505Y52900406D01*
X26238644Y52870000D01*
X26061356Y52870000D01*
X25908495Y52900406D01*
X25887480Y52904586D01*
X25723690Y52972430D01*
X25576283Y53070924D01*
X25450924Y53196283D01*
X25352430Y53343690D01*
X25284586Y53507480D01*
X25250000Y53681358D01*
X25250000Y53858642D01*
X25284586Y54032520D01*
X25352430Y54196310D01*
X25450924Y54343717D01*
X25576283Y54469076D01*
X25723690Y54567570D01*
X25887480Y54635414D01*
X25945439Y54646943D01*
X26061356Y54670000D01*
X26238644Y54670000D01*
X26354561Y54646943D01*
G37*
M02*
