M48
; DRILL file {KiCad (5.1.6)-1} date 06/03/20 08:45:54
; FORMAT={-:-/ absolute / metric / decimal}
; #@! TF.CreationDate,2020-06-03T08:45:54+03:00
; #@! TF.GenerationSoftware,Kicad,Pcbnew,(5.1.6)-1
; #@! TF.FileFunction,Plated,1,4,PTH
FMAT,2
METRIC
T1C0.300
T2C0.813
T3C1.000
T4C3.200
%
G90
G05
T1
X4.75Y11.09
X4.75Y9.54
X5.34Y25.46
X5.95Y21.87
X7.27Y16.36
X7.27Y14.54
X7.27Y6.99
X7.62Y49.41
X7.85Y21.87
X7.85Y20.9
X8.64Y43.58
X8.64Y41.78
X8.91Y48.5
X8.93Y45.21
X8.94Y40.14
X9.37Y42.67
X9.44Y47.83
X9.76Y21.87
X10.37Y47.22
X10.47Y10.61
X10.47Y8.64
X10.47Y6.69
X10.7Y51.84
X12.05Y12.58
X12.26Y15.15
X12.27Y16.36
X12.31Y23.98
X12.31Y22.4
X13.11Y47.22
X13.6Y49.13
X13.61Y48.07
X13.91Y7.34
X14.55Y24.79
X14.56Y41.14
X14.56Y32.96
X15.46Y22.27
X15.49Y30.43
X15.49Y14.98
X15.5Y38.6
X15.51Y49.32
X15.51Y46.76
X16.01Y3.87
X16.43Y12.46
X16.91Y8.15
X18.51Y22.27
X18.51Y17.6
X18.53Y42.12
X18.53Y30.43
X18.53Y25.77
X18.54Y46.76
X18.54Y38.6
X18.54Y33.94
X18.95Y13.44
X19.49Y49.33
X20.55Y11.89
X20.55Y10.34
X20.55Y8.79
X20.55Y7.24
X22.47Y3.87
X26.73Y35.45
X26.78Y34.18
X28.05Y21.82
X29.32Y34.18
X29.32Y21.82
X30.6Y34.18
X32.26Y36.43
T2
X23.61Y18.21
X23.61Y5.13
X26.15Y18.21
X26.15Y5.13
X28.69Y18.21
X28.69Y5.13
X31.23Y18.21
X31.23Y5.13
X23.61Y50.87
X23.61Y37.79
X26.15Y50.87
X26.15Y37.79
X28.69Y50.87
X28.69Y37.79
X31.23Y50.87
X31.23Y37.79
T3
X8.37Y2.23
X10.91Y2.23
X13.45Y2.23
X15.99Y2.23
X18.53Y2.23
X21.07Y2.23
X23.61Y2.23
X26.15Y2.23
X28.69Y2.23
X31.23Y2.23
X2.23Y43.93
X2.23Y41.39
X8.37Y53.77
X10.91Y53.77
X13.45Y53.77
X15.99Y53.77
X18.53Y53.77
X21.07Y53.77
X23.61Y53.77
X26.15Y53.77
X28.69Y53.77
X31.23Y53.77
T4
X3.5Y52.5
X3.5Y3.5
T0
M30
